M48
; DRILL file {KiCad 6.0.8-f2edbf62ab~116~ubuntu20.04.1} date Mi 04 Okt 2023 21:41:00 CEST
; FORMAT={-:-/ absolute / metric / decimal}
; #@! TF.CreationDate,2023-10-04T21:41:00+02:00
; #@! TF.GenerationSoftware,Kicad,Pcbnew,6.0.8-f2edbf62ab~116~ubuntu20.04.1
; #@! TF.FileFunction,Plated,1,2,PTH
FMAT,2
METRIC
; #@! TA.AperFunction,Plated,PTH,ComponentDrill
T1C0.300
; #@! TA.AperFunction,Plated,PTH,ViaDrill
T2C0.400
; #@! TA.AperFunction,Plated,PTH,ComponentDrill
T3C0.710
; #@! TA.AperFunction,Plated,PTH,ComponentDrill
T4C0.800
; #@! TA.AperFunction,Plated,PTH,ComponentDrill
T5C0.900
; #@! TA.AperFunction,Plated,PTH,ComponentDrill
T6C1.000
; #@! TA.AperFunction,Plated,PTH,ComponentDrill
T7C1.100
%
G90
G05
T1
X90.905Y-72.823
X90.905Y-73.793
X92.185Y-72.823
X92.185Y-73.793
T2
X64.5Y-64.5
X65.0Y-75.0
X67.0Y-56.5
X68.5Y-75.0
X70.5Y-87.0
X70.5Y-103.0
X72.5Y-75.0
X74.5Y-27.0
X74.5Y-53.0
X88.0Y-81.5
X89.0Y-77.0
X95.5Y-32.5
X95.5Y-101.5
X96.0Y-88.0
X97.479Y-75.87
X99.0Y-57.0
X99.5Y-77.5
X101.0Y-65.5
X101.05Y-26.874
X104.0Y-69.5
X109.0Y-72.5
X110.0Y-98.0
X118.678Y-82.016
X122.5Y-35.0
X134.0Y-32.5
X135.0Y-96.0
X140.928Y-26.874
X161.0Y-88.5
X165.552Y-45.384
X172.0Y-53.5
X177.0Y-65.0
X181.992Y-45.67
X270.214Y-26.874
T3
X171.028Y-100.438
X176.128Y-102.038
T4
X140.06Y-103.197
X140.06Y-105.697
X158.856Y-103.197
X158.856Y-105.697
X170.53Y-108.243
X173.07Y-108.243
X175.61Y-108.243
T5
X70.6Y-51.36
X70.6Y-53.9
X78.65Y-51.31
X78.65Y-53.85
T6
X59.46Y-92.568
X59.52Y-59.548
X62.0Y-92.568
X62.0Y-98.5
X62.06Y-59.548
X64.54Y-92.568
X64.54Y-98.5
X64.6Y-59.548
X67.08Y-92.568
X67.08Y-98.5
X67.14Y-59.548
X69.62Y-92.568
X69.62Y-98.5
X69.68Y-59.548
X72.16Y-92.568
X72.16Y-98.5
X72.22Y-59.548
X74.7Y-92.568
X74.7Y-98.5
X74.76Y-59.548
X77.24Y-92.568
X77.24Y-98.5
X77.3Y-59.548
X79.78Y-92.568
X79.78Y-98.5
X79.84Y-59.548
X82.32Y-92.568
X82.38Y-59.548
X84.5Y-98.5
X84.86Y-92.568
X84.92Y-59.548
X86.142Y-33.434
X86.142Y-35.974
X86.142Y-38.514
X86.142Y-41.054
X86.142Y-43.594
X86.142Y-46.134
X86.142Y-48.674
X86.142Y-51.214
X86.142Y-53.754
X87.04Y-98.5
X87.4Y-92.568
X87.46Y-59.548
X88.682Y-33.434
X88.682Y-35.974
X88.682Y-38.514
X88.682Y-41.054
X88.682Y-43.594
X88.682Y-46.134
X88.682Y-48.674
X88.682Y-51.214
X88.682Y-53.754
X89.58Y-98.5
X89.94Y-92.568
X90.0Y-59.548
X92.48Y-92.568
X92.54Y-59.548
X93.79Y-98.5
X95.02Y-92.568
X95.08Y-59.548
X96.33Y-98.5
X97.25Y-42.175
X97.25Y-44.715
X97.25Y-47.255
X97.25Y-49.795
X97.25Y-52.335
X97.25Y-54.875
X97.56Y-92.568
X97.62Y-59.548
X99.79Y-42.175
X99.79Y-44.715
X99.79Y-47.255
X99.79Y-49.795
X99.79Y-52.335
X99.79Y-54.875
X100.1Y-92.568
X100.16Y-59.548
X100.93Y-98.5
X102.64Y-92.568
X102.7Y-59.548
X103.47Y-98.5
X105.18Y-92.568
X105.24Y-59.548
X106.01Y-98.5
X106.47Y-33.434
X106.47Y-35.974
X106.47Y-38.514
X106.47Y-41.054
X106.47Y-43.594
X106.47Y-46.134
X106.47Y-48.674
X106.47Y-51.214
X106.47Y-53.754
X107.72Y-92.568
X107.78Y-59.548
X109.01Y-33.434
X109.01Y-35.974
X109.01Y-38.514
X109.01Y-41.054
X109.01Y-43.594
X109.01Y-46.134
X109.01Y-48.674
X109.01Y-51.214
X109.01Y-53.754
X111.449Y-74.187
X111.449Y-76.727
X111.449Y-79.267
X112.71Y-84.025
X115.25Y-84.025
X119.936Y-77.544
X122.477Y-77.544
X125.016Y-77.544
X126.798Y-33.434
X126.798Y-35.974
X126.798Y-38.514
X126.798Y-41.054
X126.798Y-43.594
X126.798Y-46.134
X126.798Y-48.674
X126.798Y-51.214
X126.798Y-53.754
X126.798Y-56.294
X126.798Y-58.834
X126.798Y-61.374
X127.556Y-77.544
X129.338Y-33.434
X129.338Y-35.974
X129.338Y-38.514
X129.338Y-41.054
X129.338Y-43.594
X129.338Y-46.134
X129.338Y-48.674
X129.338Y-51.214
X129.338Y-53.754
X129.338Y-56.294
X129.338Y-58.834
X129.338Y-61.374
X130.096Y-77.544
X135.042Y-59.769
X135.102Y-77.549
X137.582Y-59.769
X137.642Y-77.549
X139.402Y-85.564
X139.402Y-88.104
X139.402Y-90.644
X139.402Y-93.184
X140.122Y-59.769
X140.182Y-77.549
X141.942Y-85.564
X141.942Y-88.104
X141.942Y-90.644
X141.942Y-93.184
X142.662Y-59.769
X142.722Y-77.549
X145.202Y-59.769
X145.262Y-77.549
X147.125Y-33.434
X147.125Y-35.974
X147.125Y-38.514
X147.742Y-59.769
X147.802Y-77.549
X148.71Y-95.802
X149.665Y-33.434
X149.665Y-35.974
X149.665Y-38.514
X150.282Y-59.769
X150.342Y-77.549
X151.25Y-95.802
X152.822Y-59.769
X152.882Y-77.549
X155.362Y-59.769
X155.422Y-77.549
X155.442Y-48.259
X157.902Y-59.769
X157.962Y-77.549
X157.982Y-48.259
X160.442Y-59.769
X160.502Y-77.549
X160.522Y-48.259
X162.982Y-59.769
X163.042Y-77.549
X163.062Y-48.259
X165.522Y-59.769
X165.582Y-77.549
X165.602Y-48.259
X167.218Y-84.786
X167.453Y-33.434
X167.453Y-35.974
X167.453Y-38.514
X168.0Y-112.96
X168.0Y-115.5
X168.062Y-59.769
X168.122Y-77.549
X169.758Y-84.786
X169.993Y-33.434
X169.993Y-35.974
X169.993Y-38.514
X170.602Y-59.769
X170.662Y-77.549
X172.298Y-84.786
X173.142Y-59.769
X173.202Y-77.549
X173.842Y-48.259
X174.838Y-84.786
X175.682Y-59.769
X175.742Y-77.549
X176.382Y-48.259
X177.378Y-84.786
X178.222Y-59.769
X178.282Y-77.549
X178.922Y-48.259
X179.918Y-84.786
X180.762Y-59.769
X180.822Y-77.549
X181.462Y-48.259
X182.458Y-84.786
X183.302Y-59.769
X183.362Y-77.549
X184.002Y-48.259
X184.998Y-84.786
X187.781Y-33.434
X187.781Y-35.974
X187.781Y-38.514
X189.5Y-59.945
X189.5Y-62.485
X189.5Y-65.025
X190.321Y-33.434
X190.321Y-35.974
X190.321Y-38.514
X193.149Y-79.437
X193.149Y-81.977
X193.149Y-84.517
X193.149Y-87.057
X193.149Y-89.597
X193.149Y-92.137
X193.149Y-94.677
X193.149Y-97.217
X194.25Y-59.95
X194.25Y-62.49
X194.25Y-65.03
X194.25Y-67.57
X194.25Y-70.11
X196.79Y-59.95
X196.79Y-62.49
X196.79Y-65.03
X196.79Y-67.57
X196.79Y-70.11
X198.51Y-43.359
X201.05Y-43.359
X208.109Y-33.434
X208.109Y-35.974
X208.109Y-38.514
X210.649Y-33.434
X210.649Y-35.974
X210.649Y-38.514
X228.653Y-33.434
X228.653Y-35.974
X228.653Y-38.514
X231.193Y-33.434
X231.193Y-35.974
X231.193Y-38.514
X249.198Y-33.434
X249.198Y-35.974
X249.198Y-38.514
X251.738Y-33.434
X251.738Y-35.974
X251.738Y-38.514
X259.75Y-39.975
X262.29Y-39.975
X269.742Y-33.434
X269.742Y-35.974
X269.742Y-38.514
X272.282Y-33.434
X272.282Y-35.974
X272.282Y-38.514
T7
X146.918Y-105.508
X148.634Y-86.322
X148.634Y-90.822
X149.458Y-105.508
X151.998Y-105.508
X155.134Y-86.322
X155.134Y-90.822
X182.224Y-97.466
X182.224Y-107.626
T0
M30
