%TF.GenerationSoftware,KiCad,Pcbnew,6.0.8-f2edbf62ab~116~ubuntu20.04.1*%
%TF.CreationDate,2023-10-04T21:41:11+02:00*%
%TF.ProjectId,Board_Bluetooth_radio_platform,426f6172-645f-4426-9c75-65746f6f7468,1.1*%
%TF.SameCoordinates,Original*%
%TF.FileFunction,Soldermask,Top*%
%TF.FilePolarity,Negative*%
%FSLAX46Y46*%
G04 Gerber Fmt 4.6, Leading zero omitted, Abs format (unit mm)*
G04 Created by KiCad (PCBNEW 6.0.8-f2edbf62ab~116~ubuntu20.04.1) date 2023-10-04 21:41:11*
%MOMM*%
%LPD*%
G01*
G04 APERTURE LIST*
G04 Aperture macros list*
%AMRoundRect*
0 Rectangle with rounded corners*
0 $1 Rounding radius*
0 $2 $3 $4 $5 $6 $7 $8 $9 X,Y pos of 4 corners*
0 Add a 4 corners polygon primitive as box body*
4,1,4,$2,$3,$4,$5,$6,$7,$8,$9,$2,$3,0*
0 Add four circle primitives for the rounded corners*
1,1,$1+$1,$2,$3*
1,1,$1+$1,$4,$5*
1,1,$1+$1,$6,$7*
1,1,$1+$1,$8,$9*
0 Add four rect primitives between the rounded corners*
20,1,$1+$1,$2,$3,$4,$5,0*
20,1,$1+$1,$4,$5,$6,$7,0*
20,1,$1+$1,$6,$7,$8,$9,0*
20,1,$1+$1,$8,$9,$2,$3,0*%
G04 Aperture macros list end*
%TA.AperFunction,Profile*%
%ADD10C,0.100000*%
%TD*%
%ADD11R,1.700000X1.700000*%
%ADD12O,1.700000X1.700000*%
%ADD13RoundRect,0.250000X-0.350000X-0.450000X0.350000X-0.450000X0.350000X0.450000X-0.350000X0.450000X0*%
%ADD14RoundRect,0.250000X-0.400000X-0.625000X0.400000X-0.625000X0.400000X0.625000X-0.400000X0.625000X0*%
%ADD15RoundRect,0.250000X-0.450000X0.350000X-0.450000X-0.350000X0.450000X-0.350000X0.450000X0.350000X0*%
%ADD16C,2.500000*%
%ADD17O,3.500000X3.500000*%
%ADD18R,1.905000X2.000000*%
%ADD19O,1.905000X2.000000*%
%ADD20RoundRect,0.250000X0.450000X-0.350000X0.450000X0.350000X-0.450000X0.350000X-0.450000X-0.350000X0*%
%ADD21R,1.800000X1.800000*%
%ADD22C,1.800000*%
%ADD23RoundRect,0.250000X0.350000X0.450000X-0.350000X0.450000X-0.350000X-0.450000X0.350000X-0.450000X0*%
%ADD24C,1.440000*%
%ADD25C,3.200000*%
%ADD26R,2.200000X2.200000*%
%ADD27O,2.200000X2.200000*%
%ADD28C,2.000000*%
%ADD29R,1.600000X1.600000*%
%ADD30C,1.600000*%
%ADD31C,1.270000*%
%ADD32RoundRect,0.075000X-0.075000X0.650000X-0.075000X-0.650000X0.075000X-0.650000X0.075000X0.650000X0*%
%ADD33R,1.880000X1.570000*%
G04 APERTURE END LIST*
D10*
X277500000Y-19000000D02*
X277500000Y-45000000D01*
X277500000Y-45000000D02*
X250500000Y-45000000D01*
X57000000Y-106000000D02*
X133000000Y-105934000D01*
X202500000Y-140000000D02*
X202500000Y-93000000D01*
X64000000Y-19000000D02*
X64000000Y-44000000D01*
X250500000Y-45000000D02*
G75*
G03*
X202500000Y-93000000I0J-48000000D01*
G01*
X133000000Y-140000000D02*
X202500000Y-140000000D01*
X133000000Y-105934000D02*
X133000000Y-140000000D01*
X57000000Y-44000000D02*
X57000000Y-106000000D01*
X64000000Y-44000000D02*
X57000000Y-44000000D01*
X64000000Y-19000000D02*
X277500000Y-19000000D01*
X58666666Y-19000000D02*
G75*
G03*
X58666666Y-19000000I-1666666J0D01*
G01*
X54500000Y-19000000D02*
X59500000Y-19000000D01*
X57000000Y-16500000D02*
X57000000Y-21500000D01*
D11*
%TO.C,J_III1*%
X231193108Y-33434000D03*
D12*
X228653108Y-33434000D03*
X231193108Y-35974000D03*
X228653108Y-35974000D03*
X231193108Y-38514000D03*
X228653108Y-38514000D03*
%TD*%
D13*
%TO.C,C11*%
X75995000Y-77517847D03*
X77995000Y-77517847D03*
%TD*%
D14*
%TO.C,C17*%
X94950000Y-80000000D03*
X98050000Y-80000000D03*
%TD*%
D11*
%TO.C,J_sys1*%
X198510000Y-43359000D03*
D12*
X201050000Y-43359000D03*
%TD*%
D11*
%TO.C,J_VI1*%
X169993108Y-33434000D03*
D12*
X167453108Y-33434000D03*
X169993108Y-35974000D03*
X167453108Y-35974000D03*
X169993108Y-38514000D03*
X167453108Y-38514000D03*
%TD*%
D15*
%TO.C,C6*%
X185202000Y-51734000D03*
X185202000Y-53734000D03*
%TD*%
D11*
%TO.C,J_pwrLed1*%
X168000000Y-115500000D03*
D12*
X168000000Y-112960000D03*
%TD*%
D11*
%TO.C,J13*%
X193149000Y-97217000D03*
D12*
X193149000Y-94677000D03*
X193149000Y-92137000D03*
X193149000Y-89597000D03*
X193149000Y-87057000D03*
X193149000Y-84517000D03*
X193149000Y-81977000D03*
X193149000Y-79437000D03*
%TD*%
D11*
%TO.C,J3*%
X107720000Y-92567847D03*
D12*
X105180000Y-92567847D03*
X102640000Y-92567847D03*
X100100000Y-92567847D03*
X97560000Y-92567847D03*
X95020000Y-92567847D03*
X92480000Y-92567847D03*
X89940000Y-92567847D03*
X87400000Y-92567847D03*
X84860000Y-92567847D03*
X82320000Y-92567847D03*
X79780000Y-92567847D03*
X77240000Y-92567847D03*
X74700000Y-92567847D03*
X72160000Y-92567847D03*
X69620000Y-92567847D03*
X67080000Y-92567847D03*
X64540000Y-92567847D03*
X62000000Y-92567847D03*
X59460000Y-92567847D03*
%TD*%
D15*
%TO.C,R43*%
X125028500Y-81015500D03*
X125028500Y-83015500D03*
%TD*%
D14*
%TO.C,C16*%
X94950000Y-67500000D03*
X98050000Y-67500000D03*
%TD*%
D11*
%TO.C,J_IX1*%
X109009777Y-33434000D03*
D12*
X106469777Y-33434000D03*
X109009777Y-35974000D03*
X106469777Y-35974000D03*
X109009777Y-38514000D03*
X106469777Y-38514000D03*
X109009777Y-41054000D03*
X106469777Y-41054000D03*
X109009777Y-43594000D03*
X106469777Y-43594000D03*
X109009777Y-46134000D03*
X106469777Y-46134000D03*
X109009777Y-48674000D03*
X106469777Y-48674000D03*
X109009777Y-51214000D03*
X106469777Y-51214000D03*
X109009777Y-53754000D03*
X106469777Y-53754000D03*
%TD*%
D11*
%TO.C,J_I1*%
X272282000Y-33434000D03*
D12*
X269742000Y-33434000D03*
X272282000Y-35974000D03*
X269742000Y-35974000D03*
X272282000Y-38514000D03*
X269742000Y-38514000D03*
%TD*%
D11*
%TO.C,J8*%
X99790000Y-42175000D03*
D12*
X97250000Y-42175000D03*
X99790000Y-44715000D03*
X97250000Y-44715000D03*
X99790000Y-47255000D03*
X97250000Y-47255000D03*
X99790000Y-49795000D03*
X97250000Y-49795000D03*
X99790000Y-52335000D03*
X97250000Y-52335000D03*
X99790000Y-54875000D03*
X97250000Y-54875000D03*
%TD*%
D11*
%TO.C,J11*%
X184002000Y-48259000D03*
D12*
X181462000Y-48259000D03*
X178922000Y-48259000D03*
X176382000Y-48259000D03*
X173842000Y-48259000D03*
%TD*%
D16*
%TO.C,REF5*%
X130236500Y-96069500D03*
%TD*%
D11*
%TO.C,J12*%
X165602000Y-48259000D03*
D12*
X163062000Y-48259000D03*
X160522000Y-48259000D03*
X157982000Y-48259000D03*
X155442000Y-48259000D03*
%TD*%
D11*
%TO.C,J_VIII1*%
X129337554Y-33434000D03*
D12*
X126797554Y-33434000D03*
X129337554Y-35974000D03*
X126797554Y-35974000D03*
X129337554Y-38514000D03*
X126797554Y-38514000D03*
X129337554Y-41054000D03*
X126797554Y-41054000D03*
X129337554Y-43594000D03*
X126797554Y-43594000D03*
X129337554Y-46134000D03*
X126797554Y-46134000D03*
X129337554Y-48674000D03*
X126797554Y-48674000D03*
X129337554Y-51214000D03*
X126797554Y-51214000D03*
X129337554Y-53754000D03*
X126797554Y-53754000D03*
X129337554Y-56294000D03*
X126797554Y-56294000D03*
X129337554Y-58834000D03*
X126797554Y-58834000D03*
X129337554Y-61374000D03*
X126797554Y-61374000D03*
%TD*%
D17*
%TO.C,U1*%
X149458000Y-122168000D03*
D18*
X151998000Y-105508000D03*
D19*
X149458000Y-105508000D03*
X146918000Y-105508000D03*
%TD*%
D20*
%TO.C,R16*%
X161802000Y-53634000D03*
X161802000Y-51634000D03*
%TD*%
D11*
%TO.C,J14*%
X111449000Y-74186847D03*
D12*
X111449000Y-76726847D03*
X111449000Y-79266847D03*
%TD*%
D11*
%TO.C,J_VII1*%
X149665331Y-33434000D03*
D12*
X147125331Y-33434000D03*
X149665331Y-35974000D03*
X147125331Y-35974000D03*
X149665331Y-38514000D03*
X147125331Y-38514000D03*
%TD*%
D13*
%TO.C,R30*%
X216000000Y-36018000D03*
X214000000Y-36018000D03*
%TD*%
D21*
%TO.C,D2*%
X70600000Y-53900000D03*
D22*
X70600000Y-51360000D03*
%TD*%
D13*
%TO.C,R32*%
X193976000Y-36018000D03*
X195976000Y-36018000D03*
%TD*%
D11*
%TO.C,JGPIO9*%
X89580000Y-98500000D03*
D12*
X87040000Y-98500000D03*
X84500000Y-98500000D03*
%TD*%
D11*
%TO.C,J9*%
X196790000Y-59950000D03*
D12*
X194250000Y-59950000D03*
X196790000Y-62490000D03*
X194250000Y-62490000D03*
X196790000Y-65030000D03*
X194250000Y-65030000D03*
X196790000Y-67570000D03*
X194250000Y-67570000D03*
X196790000Y-70110000D03*
X194250000Y-70110000D03*
%TD*%
D13*
%TO.C,R20*%
X83595000Y-74917847D03*
X85595000Y-74917847D03*
%TD*%
D23*
%TO.C,R33*%
X173702000Y-38558000D03*
X175702000Y-38558000D03*
%TD*%
D13*
%TO.C,R12*%
X158552000Y-45416000D03*
X160552000Y-45416000D03*
%TD*%
D15*
%TO.C,C3*%
X164190000Y-107134000D03*
X164190000Y-109134000D03*
%TD*%
%TO.C,C7*%
X166802000Y-51634000D03*
X166802000Y-53634000D03*
%TD*%
D13*
%TO.C,R34*%
X175702000Y-36018000D03*
X173702000Y-36018000D03*
%TD*%
%TO.C,C12*%
X75995000Y-80117847D03*
X77995000Y-80117847D03*
%TD*%
D20*
%TO.C,C15*%
X99515000Y-74091847D03*
X99515000Y-72091847D03*
%TD*%
D13*
%TO.C,R36*%
X153428000Y-36018000D03*
X155428000Y-36018000D03*
%TD*%
D23*
%TO.C,R7*%
X72400000Y-47750000D03*
X70400000Y-47750000D03*
%TD*%
D12*
%TO.C,J_IV1*%
X208108664Y-38514000D03*
X210648664Y-38514000D03*
X208108664Y-35974000D03*
X210648664Y-35974000D03*
X208108664Y-33434000D03*
D11*
X210648664Y-33434000D03*
%TD*%
D20*
%TO.C,C18*%
X97265000Y-74091847D03*
X97265000Y-72091847D03*
%TD*%
D24*
%TO.C,RV1*%
X170530000Y-108243000D03*
X173070000Y-108243000D03*
X175610000Y-108243000D03*
%TD*%
D20*
%TO.C,R15*%
X164302000Y-53634000D03*
X164302000Y-51634000D03*
%TD*%
D21*
%TO.C,D3*%
X78650000Y-53850000D03*
D22*
X78650000Y-51310000D03*
%TD*%
D20*
%TO.C,R10*%
X164190000Y-114976000D03*
X164190000Y-112976000D03*
%TD*%
D13*
%TO.C,R4*%
X104985000Y-101700000D03*
X106985000Y-101700000D03*
%TD*%
D11*
%TO.C,J10*%
X189500000Y-65025000D03*
D12*
X189500000Y-62485000D03*
X189500000Y-59945000D03*
%TD*%
D20*
%TO.C,C5*%
X159302000Y-53634000D03*
X159302000Y-51634000D03*
%TD*%
D13*
%TO.C,R18*%
X83595000Y-69917847D03*
X85595000Y-69917847D03*
%TD*%
D23*
%TO.C,R41*%
X92606000Y-38558000D03*
X94606000Y-38558000D03*
%TD*%
D13*
%TO.C,R42*%
X94606000Y-36018000D03*
X92606000Y-36018000D03*
%TD*%
D25*
%TO.C,REF1*%
X94200000Y-25900000D03*
%TD*%
D23*
%TO.C,R35*%
X155428000Y-38558000D03*
X153428000Y-38558000D03*
%TD*%
D12*
%TO.C,J_X1*%
X86142000Y-53754000D03*
X88682000Y-53754000D03*
X86142000Y-51214000D03*
X88682000Y-51214000D03*
X86142000Y-48674000D03*
X88682000Y-48674000D03*
X86142000Y-46134000D03*
X88682000Y-46134000D03*
X86142000Y-43594000D03*
X88682000Y-43594000D03*
X86142000Y-41054000D03*
X88682000Y-41054000D03*
X86142000Y-38514000D03*
X88682000Y-38514000D03*
X86142000Y-35974000D03*
X88682000Y-35974000D03*
X86142000Y-33434000D03*
D11*
X88682000Y-33434000D03*
%TD*%
%TO.C,J20*%
X119936500Y-77544500D03*
D12*
X122476500Y-77544500D03*
X125016500Y-77544500D03*
X127556500Y-77544500D03*
X130096500Y-77544500D03*
%TD*%
D26*
%TO.C,D1*%
X182224000Y-97466000D03*
D27*
X182224000Y-107626000D03*
%TD*%
D23*
%TO.C,R39*%
X114626000Y-38558000D03*
X112626000Y-38558000D03*
%TD*%
D20*
%TO.C,R14*%
X180202000Y-53734000D03*
X180202000Y-51734000D03*
%TD*%
D11*
%TO.C,J15*%
X115250000Y-84025000D03*
D12*
X112710000Y-84025000D03*
%TD*%
D13*
%TO.C,R2*%
X88530000Y-101700000D03*
X90530000Y-101700000D03*
%TD*%
D16*
%TO.C,REF4*%
X119736500Y-96069500D03*
%TD*%
D11*
%TO.C,JRP4020L_1*%
X135102000Y-77549000D03*
D12*
X137642000Y-77549000D03*
X140182000Y-77549000D03*
X142722000Y-77549000D03*
X145262000Y-77549000D03*
X147802000Y-77549000D03*
X150342000Y-77549000D03*
X152882000Y-77549000D03*
X155422000Y-77549000D03*
X157962000Y-77549000D03*
X160502000Y-77549000D03*
X163042000Y-77549000D03*
X165582000Y-77549000D03*
X168122000Y-77549000D03*
X170662000Y-77549000D03*
X173202000Y-77549000D03*
X175742000Y-77549000D03*
X178282000Y-77549000D03*
X180822000Y-77549000D03*
X183362000Y-77549000D03*
%TD*%
D25*
%TO.C,REF3*%
X256700000Y-25900000D03*
%TD*%
D13*
%TO.C,R40*%
X112626000Y-36018000D03*
X114626000Y-36018000D03*
%TD*%
D20*
%TO.C,R8*%
X164190000Y-104308000D03*
X164190000Y-102308000D03*
%TD*%
D28*
%TO.C,SW1*%
X148634000Y-90822000D03*
X155134000Y-90822000D03*
X148634000Y-86322000D03*
X155134000Y-86322000D03*
%TD*%
D13*
%TO.C,C8*%
X75995000Y-67517847D03*
X77995000Y-67517847D03*
%TD*%
%TO.C,R11*%
X176952000Y-45416000D03*
X178952000Y-45416000D03*
%TD*%
D29*
%TO.C,C2*%
X158856000Y-105697113D03*
D30*
X158856000Y-103197113D03*
%TD*%
D11*
%TO.C,J5*%
X59520000Y-59547847D03*
D12*
X62060000Y-59547847D03*
X64600000Y-59547847D03*
X67140000Y-59547847D03*
X69680000Y-59547847D03*
X72220000Y-59547847D03*
X74760000Y-59547847D03*
X77300000Y-59547847D03*
X79840000Y-59547847D03*
X82380000Y-59547847D03*
X84920000Y-59547847D03*
X87460000Y-59547847D03*
X90000000Y-59547847D03*
X92540000Y-59547847D03*
X95080000Y-59547847D03*
X97620000Y-59547847D03*
X100160000Y-59547847D03*
X102700000Y-59547847D03*
X105240000Y-59547847D03*
X107780000Y-59547847D03*
%TD*%
D13*
%TO.C,R21*%
X83595000Y-77517847D03*
X85595000Y-77517847D03*
%TD*%
D11*
%TO.C,J19*%
X96330000Y-98500000D03*
D12*
X93790000Y-98500000D03*
%TD*%
%TO.C,J_II1*%
X249197552Y-38514000D03*
X251737552Y-38514000D03*
X249197552Y-35974000D03*
X251737552Y-35974000D03*
X249197552Y-33434000D03*
D11*
X251737552Y-33434000D03*
%TD*%
D31*
%TO.C,F1*%
X176128000Y-102038000D03*
X171028000Y-100438000D03*
%TD*%
D13*
%TO.C,R26*%
X90595000Y-67617847D03*
X92595000Y-67617847D03*
%TD*%
D11*
%TO.C,J7*%
X139402000Y-93184000D03*
D12*
X141942000Y-93184000D03*
X139402000Y-90644000D03*
X141942000Y-90644000D03*
X139402000Y-88104000D03*
X141942000Y-88104000D03*
X139402000Y-85564000D03*
X141942000Y-85564000D03*
%TD*%
D13*
%TO.C,R22*%
X83595000Y-80117847D03*
X85595000Y-80117847D03*
%TD*%
D23*
%TO.C,R29*%
X214000000Y-38558000D03*
X216000000Y-38558000D03*
%TD*%
%TO.C,R31*%
X195976000Y-38558000D03*
X193976000Y-38558000D03*
%TD*%
D32*
%TO.C,U3*%
X92545000Y-71157847D03*
X92045000Y-71157847D03*
X91545000Y-71157847D03*
X91045000Y-71157847D03*
X90545000Y-71157847D03*
X90545000Y-75457847D03*
X91045000Y-75457847D03*
X91545000Y-75457847D03*
X92045000Y-75457847D03*
X92545000Y-75457847D03*
D33*
X91545000Y-73307847D03*
%TD*%
D15*
%TO.C,C19*%
X95015000Y-72091847D03*
X95015000Y-74091847D03*
%TD*%
D25*
%TO.C,REF2*%
X195700000Y-25900000D03*
%TD*%
D13*
%TO.C,R19*%
X83595000Y-72417847D03*
X85595000Y-72417847D03*
%TD*%
%TO.C,R17*%
X83595000Y-67417847D03*
X85595000Y-67417847D03*
%TD*%
D11*
%TO.C,JGPIO7*%
X106010000Y-98500000D03*
D12*
X103470000Y-98500000D03*
X100930000Y-98500000D03*
%TD*%
D15*
%TO.C,R28*%
X162966000Y-63212000D03*
X162966000Y-65212000D03*
%TD*%
D13*
%TO.C,C9*%
X75995000Y-69917847D03*
X77995000Y-69917847D03*
%TD*%
D11*
%TO.C,J1*%
X259750000Y-39975000D03*
D12*
X262290000Y-39975000D03*
%TD*%
D29*
%TO.C,C1*%
X140060000Y-105697113D03*
D30*
X140060000Y-103197113D03*
%TD*%
D13*
%TO.C,R9*%
X76500000Y-47800000D03*
X78500000Y-47800000D03*
%TD*%
D25*
%TO.C,REF6*%
X218500000Y-25900000D03*
%TD*%
D11*
%TO.C,JRP2040R_1*%
X183302000Y-59769000D03*
D12*
X180762000Y-59769000D03*
X178222000Y-59769000D03*
X175682000Y-59769000D03*
X173142000Y-59769000D03*
X170602000Y-59769000D03*
X168062000Y-59769000D03*
X165522000Y-59769000D03*
X162982000Y-59769000D03*
X160442000Y-59769000D03*
X157902000Y-59769000D03*
X155362000Y-59769000D03*
X152822000Y-59769000D03*
X150282000Y-59769000D03*
X147742000Y-59769000D03*
X145202000Y-59769000D03*
X142662000Y-59769000D03*
X140122000Y-59769000D03*
X137582000Y-59769000D03*
X135042000Y-59769000D03*
%TD*%
D11*
%TO.C,J2*%
X79780000Y-98500000D03*
D12*
X77240000Y-98500000D03*
X74700000Y-98500000D03*
X72160000Y-98500000D03*
X69620000Y-98500000D03*
X67080000Y-98500000D03*
X64540000Y-98500000D03*
X62000000Y-98500000D03*
%TD*%
D11*
%TO.C,J4*%
X151250000Y-95802000D03*
D12*
X148710000Y-95802000D03*
%TD*%
D13*
%TO.C,R38*%
X133317000Y-36018000D03*
X135317000Y-36018000D03*
%TD*%
D20*
%TO.C,C4*%
X177702000Y-53734000D03*
X177702000Y-51734000D03*
%TD*%
D23*
%TO.C,R1*%
X85580000Y-101700000D03*
X83580000Y-101700000D03*
%TD*%
D20*
%TO.C,C20*%
X102000000Y-76107847D03*
X102000000Y-74107847D03*
%TD*%
D11*
%TO.C,J_V1*%
X190320885Y-33434000D03*
D12*
X187780885Y-33434000D03*
X190320885Y-35974000D03*
X187780885Y-35974000D03*
X190320885Y-38514000D03*
X187780885Y-38514000D03*
%TD*%
D13*
%TO.C,C10*%
X75995000Y-73717847D03*
X77995000Y-73717847D03*
%TD*%
D23*
%TO.C,R3*%
X101985000Y-101700000D03*
X99985000Y-101700000D03*
%TD*%
D13*
%TO.C,R27*%
X90595000Y-80117847D03*
X92595000Y-80117847D03*
%TD*%
D20*
%TO.C,R13*%
X182702000Y-53734000D03*
X182702000Y-51734000D03*
%TD*%
D23*
%TO.C,R37*%
X135317000Y-38558000D03*
X133317000Y-38558000D03*
%TD*%
D32*
%TO.C,U4*%
X106945000Y-71417847D03*
X106445000Y-71417847D03*
X105945000Y-71417847D03*
X105445000Y-71417847D03*
X104945000Y-71417847D03*
X104945000Y-75817847D03*
X105445000Y-75817847D03*
X105945000Y-75817847D03*
X106445000Y-75817847D03*
X106945000Y-75817847D03*
%TD*%
D11*
%TO.C,J6*%
X184998000Y-84786000D03*
D12*
X182458000Y-84786000D03*
X179918000Y-84786000D03*
X177378000Y-84786000D03*
X174838000Y-84786000D03*
X172298000Y-84786000D03*
X169758000Y-84786000D03*
X167218000Y-84786000D03*
%TD*%
M02*
