M48
; DRILL file {KiCad 6.0.8-f2edbf62ab~116~ubuntu20.04.1} date Mi 02 Aug 2023 22:58:12 CEST
; FORMAT={-:-/ absolute / metric / decimal}
; #@! TF.CreationDate,2023-08-02T22:58:12+02:00
; #@! TF.GenerationSoftware,Kicad,Pcbnew,6.0.8-f2edbf62ab~116~ubuntu20.04.1
; #@! TF.FileFunction,Plated,1,2,PTH
FMAT,2
METRIC
; #@! TA.AperFunction,Plated,PTH,ComponentDrill
T1C0.300
; #@! TA.AperFunction,Plated,PTH,ViaDrill
T2C0.400
; #@! TA.AperFunction,Plated,PTH,ComponentDrill
T3C0.710
; #@! TA.AperFunction,Plated,PTH,ComponentDrill
T4C0.800
; #@! TA.AperFunction,Plated,PTH,ComponentDrill
T5C0.900
; #@! TA.AperFunction,Plated,PTH,ComponentDrill
T6C1.000
; #@! TA.AperFunction,Plated,PTH,ComponentDrill
T7C1.100
%
G90
G05
T1
X55.91Y-82.805
X55.91Y-83.775
X57.19Y-82.805
X57.19Y-83.775
T2
X24.13Y-109.728
X27.94Y-72.644
X27.94Y-74.676
X29.21Y-66.294
X29.718Y-84.582
X33.25Y-56.75
X33.782Y-72.136
X34.29Y-45.72
X37.338Y-63.246
X39.878Y-94.742
X41.148Y-27.94
X41.91Y-82.042
X49.53Y-64.008
X52.832Y-49.53
X52.832Y-84.582
X53.086Y-92.202
X54.037Y-86.025
X62.484Y-85.852
X64.77Y-76.454
X65.024Y-86.36
X68.525Y-80.05
X74.422Y-64.516
X76.708Y-76.962
X79.248Y-100.33
X79.502Y-68.072
X80.04Y-53.32
X81.026Y-27.94
X82.042Y-88.646
X99.314Y-102.362
X103.886Y-85.09
X109.22Y-122.763
X111.0Y-115.5
X114.65Y-46.45
X117.45Y-56.6
X125.984Y-98.298
X126.746Y-27.94
X128.59Y-46.736
X128.59Y-69.088
X168.91Y-27.94
X210.312Y-27.94
X227.838Y-35.052
T3
X173.462Y-43.104
X178.562Y-44.704
T4
X142.494Y-45.863
X142.494Y-48.363
X161.29Y-45.863
X161.29Y-48.363
X172.964Y-50.909
X175.504Y-50.909
X178.044Y-50.909
T5
X32.35Y-52.85
X32.4Y-60.9
X34.89Y-52.85
X34.94Y-60.9
T6
X24.465Y-102.55
X24.5Y-34.5
X24.5Y-37.04
X24.5Y-39.58
X24.5Y-42.12
X24.5Y-44.66
X24.5Y-47.2
X24.5Y-49.74
X24.5Y-52.28
X24.5Y-54.82
X24.525Y-69.53
X26.924Y-106.934
X27.005Y-102.55
X27.04Y-34.5
X27.04Y-37.04
X27.04Y-39.58
X27.04Y-42.12
X27.04Y-44.66
X27.04Y-47.2
X27.04Y-49.74
X27.04Y-52.28
X27.04Y-54.82
X27.065Y-69.53
X29.464Y-106.934
X29.545Y-102.55
X29.605Y-69.53
X32.004Y-106.934
X32.085Y-102.55
X32.145Y-69.53
X34.544Y-106.934
X34.625Y-102.55
X34.685Y-69.53
X37.084Y-106.934
X37.165Y-102.55
X37.225Y-69.53
X39.624Y-106.934
X39.705Y-102.55
X39.765Y-69.53
X42.164Y-106.934
X42.245Y-102.55
X42.305Y-69.53
X44.704Y-106.934
X44.785Y-102.55
X44.845Y-69.53
X45.137Y-34.5
X45.137Y-37.04
X45.137Y-39.58
X45.137Y-42.12
X45.137Y-44.66
X45.137Y-47.2
X45.137Y-49.74
X45.137Y-52.28
X45.137Y-54.82
X47.325Y-102.55
X47.385Y-69.53
X47.677Y-34.5
X47.677Y-37.04
X47.677Y-39.58
X47.677Y-42.12
X47.677Y-44.66
X47.677Y-47.2
X47.677Y-49.74
X47.677Y-52.28
X47.677Y-54.82
X49.865Y-102.55
X49.925Y-69.53
X52.405Y-102.55
X52.465Y-69.53
X54.945Y-102.55
X55.005Y-69.53
X56.85Y-44.225
X56.85Y-46.765
X56.85Y-49.305
X56.85Y-51.845
X56.85Y-54.385
X56.85Y-56.925
X56.85Y-59.465
X56.85Y-62.005
X57.485Y-102.55
X57.545Y-69.53
X59.39Y-44.225
X59.39Y-46.765
X59.39Y-49.305
X59.39Y-51.845
X59.39Y-54.385
X59.39Y-56.925
X59.39Y-59.465
X59.39Y-62.005
X60.025Y-102.55
X60.085Y-69.53
X62.565Y-102.55
X62.625Y-69.53
X65.105Y-102.55
X65.165Y-69.53
X65.775Y-34.5
X65.775Y-37.04
X65.775Y-39.58
X65.775Y-42.12
X65.775Y-44.66
X65.775Y-47.2
X65.775Y-49.74
X65.775Y-52.28
X65.775Y-54.82
X65.775Y-57.36
X65.775Y-59.9
X65.775Y-62.44
X67.645Y-102.55
X67.705Y-69.53
X68.315Y-34.5
X68.315Y-37.04
X68.315Y-39.58
X68.315Y-42.12
X68.315Y-44.66
X68.315Y-47.2
X68.315Y-49.74
X68.315Y-52.28
X68.315Y-54.82
X68.315Y-57.36
X68.315Y-59.9
X68.315Y-62.44
X70.185Y-102.55
X70.245Y-69.53
X72.725Y-102.55
X72.785Y-69.53
X73.894Y-94.259
X74.93Y-47.498
X74.93Y-50.038
X76.434Y-94.259
X76.454Y-84.169
X76.454Y-86.709
X76.454Y-89.249
X77.47Y-47.498
X77.47Y-50.038
X80.01Y-47.498
X80.01Y-50.038
X82.55Y-47.498
X82.55Y-50.038
X83.14Y-60.835
X83.2Y-78.615
X83.3Y-84.175
X85.09Y-47.498
X85.09Y-50.038
X85.68Y-60.835
X85.74Y-78.615
X85.84Y-84.175
X86.412Y-34.5
X86.412Y-37.04
X86.412Y-39.58
X88.22Y-60.835
X88.28Y-78.615
X88.38Y-84.175
X88.953Y-34.5
X88.953Y-37.04
X88.953Y-39.58
X90.424Y-47.498
X90.76Y-60.835
X90.82Y-78.615
X90.92Y-84.175
X92.964Y-47.498
X93.3Y-60.835
X93.36Y-78.615
X93.46Y-84.175
X95.504Y-47.498
X95.84Y-60.835
X95.9Y-78.615
X97.028Y-119.463
X98.38Y-60.835
X98.44Y-78.615
X99.568Y-119.463
X100.92Y-60.835
X100.98Y-78.615
X102.108Y-119.463
X102.616Y-102.87
X103.46Y-60.835
X103.5Y-88.63
X103.5Y-91.17
X103.5Y-93.71
X103.5Y-96.25
X103.52Y-78.615
X104.54Y-49.325
X105.156Y-102.87
X106.0Y-60.835
X106.04Y-88.63
X106.04Y-91.17
X106.04Y-93.71
X106.04Y-96.25
X106.06Y-78.615
X106.318Y-119.463
X107.05Y-34.5
X107.05Y-37.04
X107.05Y-39.58
X107.08Y-49.325
X108.54Y-60.835
X108.6Y-78.615
X108.858Y-119.463
X109.59Y-34.5
X109.59Y-37.04
X109.59Y-39.58
X109.62Y-49.325
X111.08Y-60.835
X111.14Y-78.615
X112.16Y-49.325
X113.458Y-119.463
X113.62Y-60.835
X113.68Y-78.615
X114.7Y-49.325
X115.316Y-85.852
X115.998Y-119.463
X116.16Y-60.835
X116.22Y-78.615
X117.856Y-85.852
X118.538Y-119.463
X118.7Y-60.835
X118.76Y-78.615
X120.396Y-85.852
X120.44Y-49.325
X121.24Y-60.835
X121.3Y-78.615
X122.936Y-85.852
X122.98Y-49.325
X123.78Y-60.835
X123.84Y-78.615
X125.476Y-85.852
X125.52Y-49.325
X126.32Y-60.835
X126.38Y-78.615
X127.7Y-34.5
X127.7Y-37.04
X127.7Y-39.58
X128.016Y-85.852
X128.06Y-49.325
X128.86Y-60.835
X128.92Y-78.615
X130.24Y-34.5
X130.24Y-37.04
X130.24Y-39.58
X130.556Y-85.852
X130.6Y-49.325
X131.4Y-60.835
X131.46Y-78.615
X132.608Y-44.425
X133.096Y-85.852
X135.148Y-44.425
X144.247Y-80.503
X144.247Y-83.043
X144.247Y-85.583
X144.247Y-88.123
X144.247Y-90.663
X144.247Y-93.203
X144.247Y-95.743
X144.247Y-98.283
X148.335Y-34.5
X148.335Y-37.04
X148.335Y-39.58
X150.875Y-34.5
X150.875Y-37.04
X150.875Y-39.58
X152.146Y-124.988
X152.146Y-127.528
X168.97Y-34.5
X168.97Y-37.04
X168.97Y-39.58
X170.434Y-55.626
X170.434Y-58.166
X171.51Y-34.5
X171.51Y-37.04
X171.51Y-39.58
X189.605Y-34.5
X189.605Y-37.04
X189.605Y-39.58
X192.145Y-34.5
X192.145Y-37.04
X192.145Y-39.58
X210.24Y-34.5
X210.24Y-37.04
X210.24Y-39.58
X212.78Y-34.5
X212.78Y-37.04
X212.78Y-39.58
X213.888Y-46.203
X216.428Y-46.203
T7
X100.342Y-108.85
X100.342Y-113.35
X106.842Y-108.85
X106.842Y-113.35
X149.352Y-48.174
X151.892Y-48.174
X154.432Y-48.174
X184.658Y-40.132
X184.658Y-50.292
T0
M30
