%TF.GenerationSoftware,KiCad,Pcbnew,6.0.8-f2edbf62ab~116~ubuntu20.04.1*%
%TF.CreationDate,2023-10-04T21:41:11+02:00*%
%TF.ProjectId,Board_Bluetooth_radio_platform,426f6172-645f-4426-9c75-65746f6f7468,1.1*%
%TF.SameCoordinates,Original*%
%TF.FileFunction,Soldermask,Bot*%
%TF.FilePolarity,Negative*%
%FSLAX46Y46*%
G04 Gerber Fmt 4.6, Leading zero omitted, Abs format (unit mm)*
G04 Created by KiCad (PCBNEW 6.0.8-f2edbf62ab~116~ubuntu20.04.1) date 2023-10-04 21:41:11*
%MOMM*%
%LPD*%
G01*
G04 APERTURE LIST*
%TA.AperFunction,Profile*%
%ADD10C,0.100000*%
%TD*%
%ADD11R,1.700000X1.700000*%
%ADD12O,1.700000X1.700000*%
%ADD13C,2.500000*%
%ADD14O,3.500000X3.500000*%
%ADD15R,1.905000X2.000000*%
%ADD16O,1.905000X2.000000*%
%ADD17R,1.800000X1.800000*%
%ADD18C,1.800000*%
%ADD19C,1.440000*%
%ADD20C,3.200000*%
%ADD21R,2.200000X2.200000*%
%ADD22O,2.200000X2.200000*%
%ADD23C,2.000000*%
%ADD24R,1.600000X1.600000*%
%ADD25C,1.600000*%
%ADD26C,1.270000*%
G04 APERTURE END LIST*
D10*
X277500000Y-19000000D02*
X277500000Y-45000000D01*
X277500000Y-45000000D02*
X250500000Y-45000000D01*
X57000000Y-106000000D02*
X133000000Y-105934000D01*
X202500000Y-140000000D02*
X202500000Y-93000000D01*
X64000000Y-19000000D02*
X64000000Y-44000000D01*
X250500000Y-45000000D02*
G75*
G03*
X202500000Y-93000000I0J-48000000D01*
G01*
X133000000Y-140000000D02*
X202500000Y-140000000D01*
X133000000Y-105934000D02*
X133000000Y-140000000D01*
X57000000Y-44000000D02*
X57000000Y-106000000D01*
X64000000Y-44000000D02*
X57000000Y-44000000D01*
X64000000Y-19000000D02*
X277500000Y-19000000D01*
X58666666Y-19000000D02*
G75*
G03*
X58666666Y-19000000I-1666666J0D01*
G01*
X54500000Y-19000000D02*
X59500000Y-19000000D01*
X57000000Y-16500000D02*
X57000000Y-21500000D01*
D11*
%TO.C,J_III1*%
X231193108Y-33434000D03*
D12*
X228653108Y-33434000D03*
X231193108Y-35974000D03*
X228653108Y-35974000D03*
X231193108Y-38514000D03*
X228653108Y-38514000D03*
%TD*%
D11*
%TO.C,J_sys1*%
X198510000Y-43359000D03*
D12*
X201050000Y-43359000D03*
%TD*%
D11*
%TO.C,J_VI1*%
X169993108Y-33434000D03*
D12*
X167453108Y-33434000D03*
X169993108Y-35974000D03*
X167453108Y-35974000D03*
X169993108Y-38514000D03*
X167453108Y-38514000D03*
%TD*%
D11*
%TO.C,J_pwrLed1*%
X168000000Y-115500000D03*
D12*
X168000000Y-112960000D03*
%TD*%
D11*
%TO.C,J13*%
X193149000Y-97217000D03*
D12*
X193149000Y-94677000D03*
X193149000Y-92137000D03*
X193149000Y-89597000D03*
X193149000Y-87057000D03*
X193149000Y-84517000D03*
X193149000Y-81977000D03*
X193149000Y-79437000D03*
%TD*%
D11*
%TO.C,J3*%
X107720000Y-92567847D03*
D12*
X105180000Y-92567847D03*
X102640000Y-92567847D03*
X100100000Y-92567847D03*
X97560000Y-92567847D03*
X95020000Y-92567847D03*
X92480000Y-92567847D03*
X89940000Y-92567847D03*
X87400000Y-92567847D03*
X84860000Y-92567847D03*
X82320000Y-92567847D03*
X79780000Y-92567847D03*
X77240000Y-92567847D03*
X74700000Y-92567847D03*
X72160000Y-92567847D03*
X69620000Y-92567847D03*
X67080000Y-92567847D03*
X64540000Y-92567847D03*
X62000000Y-92567847D03*
X59460000Y-92567847D03*
%TD*%
D11*
%TO.C,J_IX1*%
X109009777Y-33434000D03*
D12*
X106469777Y-33434000D03*
X109009777Y-35974000D03*
X106469777Y-35974000D03*
X109009777Y-38514000D03*
X106469777Y-38514000D03*
X109009777Y-41054000D03*
X106469777Y-41054000D03*
X109009777Y-43594000D03*
X106469777Y-43594000D03*
X109009777Y-46134000D03*
X106469777Y-46134000D03*
X109009777Y-48674000D03*
X106469777Y-48674000D03*
X109009777Y-51214000D03*
X106469777Y-51214000D03*
X109009777Y-53754000D03*
X106469777Y-53754000D03*
%TD*%
D11*
%TO.C,J_I1*%
X272282000Y-33434000D03*
D12*
X269742000Y-33434000D03*
X272282000Y-35974000D03*
X269742000Y-35974000D03*
X272282000Y-38514000D03*
X269742000Y-38514000D03*
%TD*%
D11*
%TO.C,J8*%
X99790000Y-42175000D03*
D12*
X97250000Y-42175000D03*
X99790000Y-44715000D03*
X97250000Y-44715000D03*
X99790000Y-47255000D03*
X97250000Y-47255000D03*
X99790000Y-49795000D03*
X97250000Y-49795000D03*
X99790000Y-52335000D03*
X97250000Y-52335000D03*
X99790000Y-54875000D03*
X97250000Y-54875000D03*
%TD*%
D11*
%TO.C,J11*%
X184002000Y-48259000D03*
D12*
X181462000Y-48259000D03*
X178922000Y-48259000D03*
X176382000Y-48259000D03*
X173842000Y-48259000D03*
%TD*%
D13*
%TO.C,REF5*%
X130236500Y-96069500D03*
%TD*%
D11*
%TO.C,J12*%
X165602000Y-48259000D03*
D12*
X163062000Y-48259000D03*
X160522000Y-48259000D03*
X157982000Y-48259000D03*
X155442000Y-48259000D03*
%TD*%
D11*
%TO.C,J_VIII1*%
X129337554Y-33434000D03*
D12*
X126797554Y-33434000D03*
X129337554Y-35974000D03*
X126797554Y-35974000D03*
X129337554Y-38514000D03*
X126797554Y-38514000D03*
X129337554Y-41054000D03*
X126797554Y-41054000D03*
X129337554Y-43594000D03*
X126797554Y-43594000D03*
X129337554Y-46134000D03*
X126797554Y-46134000D03*
X129337554Y-48674000D03*
X126797554Y-48674000D03*
X129337554Y-51214000D03*
X126797554Y-51214000D03*
X129337554Y-53754000D03*
X126797554Y-53754000D03*
X129337554Y-56294000D03*
X126797554Y-56294000D03*
X129337554Y-58834000D03*
X126797554Y-58834000D03*
X129337554Y-61374000D03*
X126797554Y-61374000D03*
%TD*%
D14*
%TO.C,U1*%
X149458000Y-122168000D03*
D15*
X151998000Y-105508000D03*
D16*
X149458000Y-105508000D03*
X146918000Y-105508000D03*
%TD*%
D11*
%TO.C,J14*%
X111449000Y-74186847D03*
D12*
X111449000Y-76726847D03*
X111449000Y-79266847D03*
%TD*%
D11*
%TO.C,J_VII1*%
X149665331Y-33434000D03*
D12*
X147125331Y-33434000D03*
X149665331Y-35974000D03*
X147125331Y-35974000D03*
X149665331Y-38514000D03*
X147125331Y-38514000D03*
%TD*%
D17*
%TO.C,D2*%
X70600000Y-53900000D03*
D18*
X70600000Y-51360000D03*
%TD*%
D11*
%TO.C,JGPIO9*%
X89580000Y-98500000D03*
D12*
X87040000Y-98500000D03*
X84500000Y-98500000D03*
%TD*%
D11*
%TO.C,J9*%
X196790000Y-59950000D03*
D12*
X194250000Y-59950000D03*
X196790000Y-62490000D03*
X194250000Y-62490000D03*
X196790000Y-65030000D03*
X194250000Y-65030000D03*
X196790000Y-67570000D03*
X194250000Y-67570000D03*
X196790000Y-70110000D03*
X194250000Y-70110000D03*
%TD*%
%TO.C,J_IV1*%
X208108664Y-38514000D03*
X210648664Y-38514000D03*
X208108664Y-35974000D03*
X210648664Y-35974000D03*
X208108664Y-33434000D03*
D11*
X210648664Y-33434000D03*
%TD*%
D19*
%TO.C,RV1*%
X170530000Y-108243000D03*
X173070000Y-108243000D03*
X175610000Y-108243000D03*
%TD*%
D17*
%TO.C,D3*%
X78650000Y-53850000D03*
D18*
X78650000Y-51310000D03*
%TD*%
D11*
%TO.C,J10*%
X189500000Y-65025000D03*
D12*
X189500000Y-62485000D03*
X189500000Y-59945000D03*
%TD*%
D20*
%TO.C,REF1*%
X94200000Y-25900000D03*
%TD*%
D12*
%TO.C,J_X1*%
X86142000Y-53754000D03*
X88682000Y-53754000D03*
X86142000Y-51214000D03*
X88682000Y-51214000D03*
X86142000Y-48674000D03*
X88682000Y-48674000D03*
X86142000Y-46134000D03*
X88682000Y-46134000D03*
X86142000Y-43594000D03*
X88682000Y-43594000D03*
X86142000Y-41054000D03*
X88682000Y-41054000D03*
X86142000Y-38514000D03*
X88682000Y-38514000D03*
X86142000Y-35974000D03*
X88682000Y-35974000D03*
X86142000Y-33434000D03*
D11*
X88682000Y-33434000D03*
%TD*%
%TO.C,J20*%
X119936500Y-77544500D03*
D12*
X122476500Y-77544500D03*
X125016500Y-77544500D03*
X127556500Y-77544500D03*
X130096500Y-77544500D03*
%TD*%
D21*
%TO.C,D1*%
X182224000Y-97466000D03*
D22*
X182224000Y-107626000D03*
%TD*%
D11*
%TO.C,J15*%
X115250000Y-84025000D03*
D12*
X112710000Y-84025000D03*
%TD*%
D13*
%TO.C,REF4*%
X119736500Y-96069500D03*
%TD*%
D11*
%TO.C,JRP4020L_1*%
X135102000Y-77549000D03*
D12*
X137642000Y-77549000D03*
X140182000Y-77549000D03*
X142722000Y-77549000D03*
X145262000Y-77549000D03*
X147802000Y-77549000D03*
X150342000Y-77549000D03*
X152882000Y-77549000D03*
X155422000Y-77549000D03*
X157962000Y-77549000D03*
X160502000Y-77549000D03*
X163042000Y-77549000D03*
X165582000Y-77549000D03*
X168122000Y-77549000D03*
X170662000Y-77549000D03*
X173202000Y-77549000D03*
X175742000Y-77549000D03*
X178282000Y-77549000D03*
X180822000Y-77549000D03*
X183362000Y-77549000D03*
%TD*%
D20*
%TO.C,REF3*%
X256700000Y-25900000D03*
%TD*%
D23*
%TO.C,SW1*%
X148634000Y-90822000D03*
X155134000Y-90822000D03*
X148634000Y-86322000D03*
X155134000Y-86322000D03*
%TD*%
D24*
%TO.C,C2*%
X158856000Y-105697113D03*
D25*
X158856000Y-103197113D03*
%TD*%
D11*
%TO.C,J5*%
X59520000Y-59547847D03*
D12*
X62060000Y-59547847D03*
X64600000Y-59547847D03*
X67140000Y-59547847D03*
X69680000Y-59547847D03*
X72220000Y-59547847D03*
X74760000Y-59547847D03*
X77300000Y-59547847D03*
X79840000Y-59547847D03*
X82380000Y-59547847D03*
X84920000Y-59547847D03*
X87460000Y-59547847D03*
X90000000Y-59547847D03*
X92540000Y-59547847D03*
X95080000Y-59547847D03*
X97620000Y-59547847D03*
X100160000Y-59547847D03*
X102700000Y-59547847D03*
X105240000Y-59547847D03*
X107780000Y-59547847D03*
%TD*%
D11*
%TO.C,J19*%
X96330000Y-98500000D03*
D12*
X93790000Y-98500000D03*
%TD*%
%TO.C,J_II1*%
X249197552Y-38514000D03*
X251737552Y-38514000D03*
X249197552Y-35974000D03*
X251737552Y-35974000D03*
X249197552Y-33434000D03*
D11*
X251737552Y-33434000D03*
%TD*%
D26*
%TO.C,F1*%
X176128000Y-102038000D03*
X171028000Y-100438000D03*
%TD*%
D11*
%TO.C,J7*%
X139402000Y-93184000D03*
D12*
X141942000Y-93184000D03*
X139402000Y-90644000D03*
X141942000Y-90644000D03*
X139402000Y-88104000D03*
X141942000Y-88104000D03*
X139402000Y-85564000D03*
X141942000Y-85564000D03*
%TD*%
D20*
%TO.C,REF2*%
X195700000Y-25900000D03*
%TD*%
D11*
%TO.C,JGPIO7*%
X106010000Y-98500000D03*
D12*
X103470000Y-98500000D03*
X100930000Y-98500000D03*
%TD*%
D11*
%TO.C,J1*%
X259750000Y-39975000D03*
D12*
X262290000Y-39975000D03*
%TD*%
D24*
%TO.C,C1*%
X140060000Y-105697113D03*
D25*
X140060000Y-103197113D03*
%TD*%
D20*
%TO.C,REF6*%
X218500000Y-25900000D03*
%TD*%
D11*
%TO.C,JRP2040R_1*%
X183302000Y-59769000D03*
D12*
X180762000Y-59769000D03*
X178222000Y-59769000D03*
X175682000Y-59769000D03*
X173142000Y-59769000D03*
X170602000Y-59769000D03*
X168062000Y-59769000D03*
X165522000Y-59769000D03*
X162982000Y-59769000D03*
X160442000Y-59769000D03*
X157902000Y-59769000D03*
X155362000Y-59769000D03*
X152822000Y-59769000D03*
X150282000Y-59769000D03*
X147742000Y-59769000D03*
X145202000Y-59769000D03*
X142662000Y-59769000D03*
X140122000Y-59769000D03*
X137582000Y-59769000D03*
X135042000Y-59769000D03*
%TD*%
D11*
%TO.C,J2*%
X79780000Y-98500000D03*
D12*
X77240000Y-98500000D03*
X74700000Y-98500000D03*
X72160000Y-98500000D03*
X69620000Y-98500000D03*
X67080000Y-98500000D03*
X64540000Y-98500000D03*
X62000000Y-98500000D03*
%TD*%
D11*
%TO.C,J4*%
X151250000Y-95802000D03*
D12*
X148710000Y-95802000D03*
%TD*%
D11*
%TO.C,J_V1*%
X190320885Y-33434000D03*
D12*
X187780885Y-33434000D03*
X190320885Y-35974000D03*
X187780885Y-35974000D03*
X190320885Y-38514000D03*
X187780885Y-38514000D03*
%TD*%
D11*
%TO.C,J6*%
X184998000Y-84786000D03*
D12*
X182458000Y-84786000D03*
X179918000Y-84786000D03*
X177378000Y-84786000D03*
X174838000Y-84786000D03*
X172298000Y-84786000D03*
X169758000Y-84786000D03*
X167218000Y-84786000D03*
%TD*%
M02*
