%TF.GenerationSoftware,KiCad,Pcbnew,6.0.8-f2edbf62ab~116~ubuntu20.04.1*%
%TF.CreationDate,2023-08-02T22:58:18+02:00*%
%TF.ProjectId,Board_Bluetooth_radio_platform,426f6172-645f-4426-9c75-65746f6f7468,rev?*%
%TF.SameCoordinates,Original*%
%TF.FileFunction,Soldermask,Top*%
%TF.FilePolarity,Negative*%
%FSLAX46Y46*%
G04 Gerber Fmt 4.6, Leading zero omitted, Abs format (unit mm)*
G04 Created by KiCad (PCBNEW 6.0.8-f2edbf62ab~116~ubuntu20.04.1) date 2023-08-02 22:58:18*
%MOMM*%
%LPD*%
G01*
G04 APERTURE LIST*
G04 Aperture macros list*
%AMRoundRect*
0 Rectangle with rounded corners*
0 $1 Rounding radius*
0 $2 $3 $4 $5 $6 $7 $8 $9 X,Y pos of 4 corners*
0 Add a 4 corners polygon primitive as box body*
4,1,4,$2,$3,$4,$5,$6,$7,$8,$9,$2,$3,0*
0 Add four circle primitives for the rounded corners*
1,1,$1+$1,$2,$3*
1,1,$1+$1,$4,$5*
1,1,$1+$1,$6,$7*
1,1,$1+$1,$8,$9*
0 Add four rect primitives between the rounded corners*
20,1,$1+$1,$2,$3,$4,$5,0*
20,1,$1+$1,$4,$5,$6,$7,0*
20,1,$1+$1,$6,$7,$8,$9,0*
20,1,$1+$1,$8,$9,$2,$3,0*%
G04 Aperture macros list end*
%ADD10C,2.500000*%
%ADD11C,2.200000*%
%ADD12R,1.700000X1.700000*%
%ADD13O,1.700000X1.700000*%
%ADD14RoundRect,0.250000X-0.350000X-0.450000X0.350000X-0.450000X0.350000X0.450000X-0.350000X0.450000X0*%
%ADD15RoundRect,0.250000X0.450000X-0.350000X0.450000X0.350000X-0.450000X0.350000X-0.450000X-0.350000X0*%
%ADD16RoundRect,0.250000X-0.450000X0.350000X-0.450000X-0.350000X0.450000X-0.350000X0.450000X0.350000X0*%
%ADD17R,2.300000X1.000000*%
%ADD18O,3.500000X3.500000*%
%ADD19R,1.905000X2.000000*%
%ADD20O,1.905000X2.000000*%
%ADD21R,1.800000X1.800000*%
%ADD22C,1.800000*%
%ADD23RoundRect,0.250000X0.350000X0.450000X-0.350000X0.450000X-0.350000X-0.450000X0.350000X-0.450000X0*%
%ADD24C,1.440000*%
%ADD25R,2.200000X2.200000*%
%ADD26O,2.200000X2.200000*%
%ADD27C,2.000000*%
%ADD28R,1.000000X2.200000*%
%ADD29R,1.600000X1.600000*%
%ADD30C,1.600000*%
%ADD31C,1.270000*%
%ADD32RoundRect,0.075000X-0.075000X0.650000X-0.075000X-0.650000X0.075000X-0.650000X0.075000X0.650000X0*%
%ADD33R,1.880000X1.570000*%
G04 APERTURE END LIST*
D10*
%TO.C,REF5*%
X93600000Y-102700000D03*
%TD*%
%TO.C,REF4*%
X83100000Y-102700000D03*
%TD*%
D11*
%TO.C,REF3*%
X202500000Y-25500000D03*
%TD*%
%TO.C,REF2*%
X100500000Y-25500000D03*
%TD*%
%TO.C,REF1*%
X39500000Y-25500000D03*
%TD*%
D12*
%TO.C,J_III1*%
X171510000Y-34500000D03*
D13*
X168970000Y-34500000D03*
X171510000Y-37040000D03*
X168970000Y-37040000D03*
X171510000Y-39580000D03*
X168970000Y-39580000D03*
%TD*%
D14*
%TO.C,C11*%
X41000000Y-87500000D03*
X43000000Y-87500000D03*
%TD*%
D15*
%TO.C,C17*%
X60300000Y-90100000D03*
X60300000Y-88100000D03*
%TD*%
D12*
%TO.C,J_sys1*%
X132608000Y-44425000D03*
D13*
X135148000Y-44425000D03*
%TD*%
D12*
%TO.C,J_VI1*%
X109590000Y-34500000D03*
D13*
X107050000Y-34500000D03*
X109590000Y-37040000D03*
X107050000Y-37040000D03*
X109590000Y-39580000D03*
X107050000Y-39580000D03*
%TD*%
D16*
%TO.C,C6*%
X131800000Y-52800000D03*
X131800000Y-54800000D03*
%TD*%
D12*
%TO.C,J_pwrLed1*%
X170434000Y-58166000D03*
D13*
X170434000Y-55626000D03*
%TD*%
D12*
%TO.C,J13*%
X144247000Y-98283000D03*
D13*
X144247000Y-95743000D03*
X144247000Y-93203000D03*
X144247000Y-90663000D03*
X144247000Y-88123000D03*
X144247000Y-85583000D03*
X144247000Y-83043000D03*
X144247000Y-80503000D03*
%TD*%
D12*
%TO.C,J3*%
X72725000Y-102550000D03*
D13*
X70185000Y-102550000D03*
X67645000Y-102550000D03*
X65105000Y-102550000D03*
X62565000Y-102550000D03*
X60025000Y-102550000D03*
X57485000Y-102550000D03*
X54945000Y-102550000D03*
X52405000Y-102550000D03*
X49865000Y-102550000D03*
X47325000Y-102550000D03*
X44785000Y-102550000D03*
X42245000Y-102550000D03*
X39705000Y-102550000D03*
X37165000Y-102550000D03*
X34625000Y-102550000D03*
X32085000Y-102550000D03*
X29545000Y-102550000D03*
X27005000Y-102550000D03*
X24465000Y-102550000D03*
%TD*%
D16*
%TO.C,R43*%
X88392000Y-87646000D03*
X88392000Y-89646000D03*
%TD*%
%TO.C,C16*%
X60050000Y-77350000D03*
X60050000Y-79350000D03*
%TD*%
D12*
%TO.C,J_IX1*%
X47677500Y-34500000D03*
D13*
X45137500Y-34500000D03*
X47677500Y-37040000D03*
X45137500Y-37040000D03*
X47677500Y-39580000D03*
X45137500Y-39580000D03*
X47677500Y-42120000D03*
X45137500Y-42120000D03*
X47677500Y-44660000D03*
X45137500Y-44660000D03*
X47677500Y-47200000D03*
X45137500Y-47200000D03*
X47677500Y-49740000D03*
X45137500Y-49740000D03*
X47677500Y-52280000D03*
X45137500Y-52280000D03*
X47677500Y-54820000D03*
X45137500Y-54820000D03*
%TD*%
D12*
%TO.C,J_I1*%
X212780000Y-34500000D03*
D13*
X210240000Y-34500000D03*
X212780000Y-37040000D03*
X210240000Y-37040000D03*
X212780000Y-39580000D03*
X210240000Y-39580000D03*
%TD*%
D12*
%TO.C,J11*%
X130600000Y-49325000D03*
D13*
X128060000Y-49325000D03*
X125520000Y-49325000D03*
X122980000Y-49325000D03*
X120440000Y-49325000D03*
%TD*%
D12*
%TO.C,J12*%
X114700000Y-49325000D03*
D13*
X112160000Y-49325000D03*
X109620000Y-49325000D03*
X107080000Y-49325000D03*
X104540000Y-49325000D03*
%TD*%
D12*
%TO.C,J16*%
X68315000Y-34500000D03*
D13*
X65775000Y-34500000D03*
X68315000Y-37040000D03*
X65775000Y-37040000D03*
X68315000Y-39580000D03*
X65775000Y-39580000D03*
X68315000Y-42120000D03*
X65775000Y-42120000D03*
X68315000Y-44660000D03*
X65775000Y-44660000D03*
X68315000Y-47200000D03*
X65775000Y-47200000D03*
X68315000Y-49740000D03*
X65775000Y-49740000D03*
X68315000Y-52280000D03*
X65775000Y-52280000D03*
X68315000Y-54820000D03*
X65775000Y-54820000D03*
X68315000Y-57360000D03*
X65775000Y-57360000D03*
X68315000Y-59900000D03*
X65775000Y-59900000D03*
X68315000Y-62440000D03*
X65775000Y-62440000D03*
%TD*%
D17*
%TO.C,U2*%
X146552000Y-127633000D03*
X146552000Y-125093000D03*
X146552000Y-120013000D03*
X137152000Y-120013000D03*
X137152000Y-127633000D03*
%TD*%
D18*
%TO.C,U1*%
X151892000Y-64834000D03*
D19*
X154432000Y-48174000D03*
D20*
X151892000Y-48174000D03*
X149352000Y-48174000D03*
%TD*%
D15*
%TO.C,R16*%
X110900000Y-54700000D03*
X110900000Y-52700000D03*
%TD*%
D12*
%TO.C,J14*%
X76454000Y-84169000D03*
D13*
X76454000Y-86709000D03*
X76454000Y-89249000D03*
%TD*%
D12*
%TO.C,J_VII1*%
X88952500Y-34500000D03*
D13*
X86412500Y-34500000D03*
X88952500Y-37040000D03*
X86412500Y-37040000D03*
X88952500Y-39580000D03*
X86412500Y-39580000D03*
%TD*%
D14*
%TO.C,R30*%
X154448000Y-37084000D03*
X156448000Y-37084000D03*
%TD*%
D21*
%TO.C,D2*%
X32350000Y-52850000D03*
D22*
X34890000Y-52850000D03*
%TD*%
D14*
%TO.C,R32*%
X133874000Y-37084000D03*
X135874000Y-37084000D03*
%TD*%
D12*
%TO.C,JGPIO9*%
X102108000Y-119463000D03*
D13*
X99568000Y-119463000D03*
X97028000Y-119463000D03*
%TD*%
D12*
%TO.C,J9*%
X85090000Y-50038000D03*
D13*
X85090000Y-47498000D03*
X82550000Y-50038000D03*
X82550000Y-47498000D03*
X80010000Y-50038000D03*
X80010000Y-47498000D03*
X77470000Y-50038000D03*
X77470000Y-47498000D03*
X74930000Y-50038000D03*
X74930000Y-47498000D03*
%TD*%
D14*
%TO.C,R20*%
X48600000Y-84900000D03*
X50600000Y-84900000D03*
%TD*%
D23*
%TO.C,R33*%
X115300000Y-39624000D03*
X113300000Y-39624000D03*
%TD*%
D14*
%TO.C,R12*%
X107650000Y-46482000D03*
X109650000Y-46482000D03*
%TD*%
D16*
%TO.C,C3*%
X166624000Y-49800000D03*
X166624000Y-51800000D03*
%TD*%
%TO.C,C7*%
X115900000Y-52700000D03*
X115900000Y-54700000D03*
%TD*%
D14*
%TO.C,R34*%
X113300000Y-37084000D03*
X115300000Y-37084000D03*
%TD*%
%TO.C,C12*%
X41000000Y-90100000D03*
X43000000Y-90100000D03*
%TD*%
D15*
%TO.C,C15*%
X64520000Y-84074000D03*
X64520000Y-82074000D03*
%TD*%
D14*
%TO.C,R36*%
X92726000Y-37084000D03*
X94726000Y-37084000D03*
%TD*%
D15*
%TO.C,R7*%
X38500000Y-54650000D03*
X38500000Y-52650000D03*
%TD*%
D12*
%TO.C,J_IV1*%
X150875000Y-34500000D03*
D13*
X148335000Y-34500000D03*
X150875000Y-37040000D03*
X148335000Y-37040000D03*
X150875000Y-39580000D03*
X148335000Y-39580000D03*
%TD*%
D15*
%TO.C,C18*%
X62270000Y-84074000D03*
X62270000Y-82074000D03*
%TD*%
D24*
%TO.C,RV1*%
X172964000Y-50909000D03*
X175504000Y-50909000D03*
X178044000Y-50909000D03*
%TD*%
D15*
%TO.C,R15*%
X113400000Y-54700000D03*
X113400000Y-52700000D03*
%TD*%
D21*
%TO.C,D3*%
X32400000Y-60900000D03*
D22*
X34940000Y-60900000D03*
%TD*%
D15*
%TO.C,R10*%
X166624000Y-57642000D03*
X166624000Y-55642000D03*
%TD*%
D14*
%TO.C,R4*%
X117513000Y-122663000D03*
X119513000Y-122663000D03*
%TD*%
D12*
%TO.C,J10*%
X95504000Y-47498000D03*
D13*
X92964000Y-47498000D03*
X90424000Y-47498000D03*
%TD*%
D15*
%TO.C,C5*%
X108400000Y-54700000D03*
X108400000Y-52700000D03*
%TD*%
D14*
%TO.C,R18*%
X48600000Y-79900000D03*
X50600000Y-79900000D03*
%TD*%
D23*
%TO.C,R41*%
X33004000Y-39624000D03*
X31004000Y-39624000D03*
%TD*%
D14*
%TO.C,R42*%
X31004000Y-37084000D03*
X33004000Y-37084000D03*
%TD*%
D23*
%TO.C,R35*%
X94726000Y-39624000D03*
X92726000Y-39624000D03*
%TD*%
D12*
%TO.C,J_X1*%
X27040000Y-34500000D03*
D13*
X24500000Y-34500000D03*
X27040000Y-37040000D03*
X24500000Y-37040000D03*
X27040000Y-39580000D03*
X24500000Y-39580000D03*
X27040000Y-42120000D03*
X24500000Y-42120000D03*
X27040000Y-44660000D03*
X24500000Y-44660000D03*
X27040000Y-47200000D03*
X24500000Y-47200000D03*
X27040000Y-49740000D03*
X24500000Y-49740000D03*
X27040000Y-52280000D03*
X24500000Y-52280000D03*
X27040000Y-54820000D03*
X24500000Y-54820000D03*
%TD*%
D12*
%TO.C,J20*%
X83300000Y-84175000D03*
D13*
X85840000Y-84175000D03*
X88380000Y-84175000D03*
X90920000Y-84175000D03*
X93460000Y-84175000D03*
%TD*%
D25*
%TO.C,D1*%
X184658000Y-40132000D03*
D26*
X184658000Y-50292000D03*
%TD*%
D23*
%TO.C,R39*%
X53324000Y-39624000D03*
X51324000Y-39624000D03*
%TD*%
D15*
%TO.C,R14*%
X126800000Y-54800000D03*
X126800000Y-52800000D03*
%TD*%
D12*
%TO.C,J15*%
X76434000Y-94259000D03*
D13*
X73894000Y-94259000D03*
%TD*%
D14*
%TO.C,R2*%
X101058000Y-122663000D03*
X103058000Y-122663000D03*
%TD*%
D12*
%TO.C,JRP4020L_1*%
X83200000Y-78615000D03*
D13*
X85740000Y-78615000D03*
X88280000Y-78615000D03*
X90820000Y-78615000D03*
X93360000Y-78615000D03*
X95900000Y-78615000D03*
X98440000Y-78615000D03*
X100980000Y-78615000D03*
X103520000Y-78615000D03*
X106060000Y-78615000D03*
X108600000Y-78615000D03*
X111140000Y-78615000D03*
X113680000Y-78615000D03*
X116220000Y-78615000D03*
X118760000Y-78615000D03*
X121300000Y-78615000D03*
X123840000Y-78615000D03*
X126380000Y-78615000D03*
X128920000Y-78615000D03*
X131460000Y-78615000D03*
%TD*%
D14*
%TO.C,R40*%
X51324000Y-37084000D03*
X53324000Y-37084000D03*
%TD*%
D15*
%TO.C,R8*%
X166624000Y-46974000D03*
X166624000Y-44974000D03*
%TD*%
D27*
%TO.C,SW1*%
X106842000Y-108850000D03*
X100342000Y-108850000D03*
X106842000Y-113350000D03*
X100342000Y-113350000D03*
%TD*%
D14*
%TO.C,C8*%
X41000000Y-77500000D03*
X43000000Y-77500000D03*
%TD*%
%TO.C,R11*%
X123550000Y-46482000D03*
X125550000Y-46482000D03*
%TD*%
D28*
%TO.C,L1*%
X141086000Y-113648000D03*
X141086000Y-108348000D03*
X142886000Y-108348000D03*
X142886000Y-113648000D03*
%TD*%
D29*
%TO.C,C2*%
X161290000Y-48363113D03*
D30*
X161290000Y-45863113D03*
%TD*%
D12*
%TO.C,J5*%
X24525000Y-69530000D03*
D13*
X27065000Y-69530000D03*
X29605000Y-69530000D03*
X32145000Y-69530000D03*
X34685000Y-69530000D03*
X37225000Y-69530000D03*
X39765000Y-69530000D03*
X42305000Y-69530000D03*
X44845000Y-69530000D03*
X47385000Y-69530000D03*
X49925000Y-69530000D03*
X52465000Y-69530000D03*
X55005000Y-69530000D03*
X57545000Y-69530000D03*
X60085000Y-69530000D03*
X62625000Y-69530000D03*
X65165000Y-69530000D03*
X67705000Y-69530000D03*
X70245000Y-69530000D03*
X72785000Y-69530000D03*
%TD*%
D14*
%TO.C,R21*%
X48600000Y-87500000D03*
X50600000Y-87500000D03*
%TD*%
D12*
%TO.C,J19*%
X108858000Y-119463000D03*
D13*
X106318000Y-119463000D03*
%TD*%
D12*
%TO.C,J_II1*%
X192145000Y-34500000D03*
D13*
X189605000Y-34500000D03*
X192145000Y-37040000D03*
X189605000Y-37040000D03*
X192145000Y-39580000D03*
X189605000Y-39580000D03*
%TD*%
D31*
%TO.C,F1*%
X178562000Y-44704000D03*
X173462000Y-43104000D03*
%TD*%
D14*
%TO.C,R26*%
X55600000Y-77600000D03*
X57600000Y-77600000D03*
%TD*%
D12*
%TO.C,J7*%
X103500000Y-96250000D03*
D13*
X106040000Y-96250000D03*
X103500000Y-93710000D03*
X106040000Y-93710000D03*
X103500000Y-91170000D03*
X106040000Y-91170000D03*
X103500000Y-88630000D03*
X106040000Y-88630000D03*
%TD*%
D14*
%TO.C,R22*%
X48600000Y-90100000D03*
X50600000Y-90100000D03*
%TD*%
D23*
%TO.C,R29*%
X156448000Y-39624000D03*
X154448000Y-39624000D03*
%TD*%
%TO.C,R31*%
X135874000Y-39624000D03*
X133874000Y-39624000D03*
%TD*%
D32*
%TO.C,U3*%
X57550000Y-81140000D03*
X57050000Y-81140000D03*
X56550000Y-81140000D03*
X56050000Y-81140000D03*
X55550000Y-81140000D03*
X55550000Y-85440000D03*
X56050000Y-85440000D03*
X56550000Y-85440000D03*
X57050000Y-85440000D03*
X57550000Y-85440000D03*
D33*
X56550000Y-83290000D03*
%TD*%
D16*
%TO.C,C19*%
X60020000Y-82074000D03*
X60020000Y-84074000D03*
%TD*%
D14*
%TO.C,R19*%
X48600000Y-82400000D03*
X50600000Y-82400000D03*
%TD*%
%TO.C,R17*%
X48600000Y-77400000D03*
X50600000Y-77400000D03*
%TD*%
D12*
%TO.C,JGPIO7*%
X118538000Y-119463000D03*
D13*
X115998000Y-119463000D03*
X113458000Y-119463000D03*
%TD*%
D16*
%TO.C,R28*%
X111064000Y-64278000D03*
X111064000Y-66278000D03*
%TD*%
D14*
%TO.C,C9*%
X41000000Y-79900000D03*
X43000000Y-79900000D03*
%TD*%
D12*
%TO.C,J1*%
X213888000Y-46203000D03*
D13*
X216428000Y-46203000D03*
%TD*%
D29*
%TO.C,C1*%
X142494000Y-48363113D03*
D30*
X142494000Y-45863113D03*
%TD*%
D16*
%TO.C,R9*%
X38450000Y-58750000D03*
X38450000Y-60750000D03*
%TD*%
D12*
%TO.C,J17*%
X152146000Y-124988000D03*
D13*
X152146000Y-127528000D03*
%TD*%
D12*
%TO.C,JRP2040R_1*%
X131400000Y-60835000D03*
D13*
X128860000Y-60835000D03*
X126320000Y-60835000D03*
X123780000Y-60835000D03*
X121240000Y-60835000D03*
X118700000Y-60835000D03*
X116160000Y-60835000D03*
X113620000Y-60835000D03*
X111080000Y-60835000D03*
X108540000Y-60835000D03*
X106000000Y-60835000D03*
X103460000Y-60835000D03*
X100920000Y-60835000D03*
X98380000Y-60835000D03*
X95840000Y-60835000D03*
X93300000Y-60835000D03*
X90760000Y-60835000D03*
X88220000Y-60835000D03*
X85680000Y-60835000D03*
X83140000Y-60835000D03*
%TD*%
D12*
%TO.C,J2*%
X44704000Y-106934000D03*
D13*
X42164000Y-106934000D03*
X39624000Y-106934000D03*
X37084000Y-106934000D03*
X34544000Y-106934000D03*
X32004000Y-106934000D03*
X29464000Y-106934000D03*
X26924000Y-106934000D03*
%TD*%
D12*
%TO.C,J4*%
X102616000Y-102870000D03*
D13*
X105156000Y-102870000D03*
%TD*%
D14*
%TO.C,R38*%
X72315000Y-37084000D03*
X74315000Y-37084000D03*
%TD*%
D15*
%TO.C,C4*%
X124300000Y-54800000D03*
X124300000Y-52800000D03*
%TD*%
D23*
%TO.C,R1*%
X98108000Y-122663000D03*
X96108000Y-122663000D03*
%TD*%
D15*
%TO.C,C20*%
X67750000Y-86090000D03*
X67750000Y-84090000D03*
%TD*%
D12*
%TO.C,J_V1*%
X130240000Y-34500000D03*
D13*
X127700000Y-34500000D03*
X130240000Y-37040000D03*
X127700000Y-37040000D03*
X130240000Y-39580000D03*
X127700000Y-39580000D03*
%TD*%
D14*
%TO.C,C10*%
X41000000Y-83700000D03*
X43000000Y-83700000D03*
%TD*%
D12*
%TO.C,J8*%
X59390000Y-44225000D03*
D13*
X56850000Y-44225000D03*
X59390000Y-46765000D03*
X56850000Y-46765000D03*
X59390000Y-49305000D03*
X56850000Y-49305000D03*
X59390000Y-51845000D03*
X56850000Y-51845000D03*
X59390000Y-54385000D03*
X56850000Y-54385000D03*
X59390000Y-56925000D03*
X56850000Y-56925000D03*
X59390000Y-59465000D03*
X56850000Y-59465000D03*
X59390000Y-62005000D03*
X56850000Y-62005000D03*
%TD*%
D23*
%TO.C,R3*%
X114513000Y-122663000D03*
X112513000Y-122663000D03*
%TD*%
D14*
%TO.C,R27*%
X55600000Y-90100000D03*
X57600000Y-90100000D03*
%TD*%
D15*
%TO.C,R13*%
X129300000Y-54800000D03*
X129300000Y-52800000D03*
%TD*%
D23*
%TO.C,R37*%
X74315000Y-39624000D03*
X72315000Y-39624000D03*
%TD*%
D32*
%TO.C,U4*%
X71950000Y-81400000D03*
X71450000Y-81400000D03*
X70950000Y-81400000D03*
X70450000Y-81400000D03*
X69950000Y-81400000D03*
X69950000Y-85800000D03*
X70450000Y-85800000D03*
X70950000Y-85800000D03*
X71450000Y-85800000D03*
X71950000Y-85800000D03*
%TD*%
D12*
%TO.C,J6*%
X133096000Y-85852000D03*
D13*
X130556000Y-85852000D03*
X128016000Y-85852000D03*
X125476000Y-85852000D03*
X122936000Y-85852000D03*
X120396000Y-85852000D03*
X117856000Y-85852000D03*
X115316000Y-85852000D03*
%TD*%
M02*
