%TF.GenerationSoftware,KiCad,Pcbnew,6.0.8-f2edbf62ab~116~ubuntu20.04.1*%
%TF.CreationDate,2023-08-02T22:58:18+02:00*%
%TF.ProjectId,Board_Bluetooth_radio_platform,426f6172-645f-4426-9c75-65746f6f7468,rev?*%
%TF.SameCoordinates,Original*%
%TF.FileFunction,Paste,Top*%
%TF.FilePolarity,Positive*%
%FSLAX46Y46*%
G04 Gerber Fmt 4.6, Leading zero omitted, Abs format (unit mm)*
G04 Created by KiCad (PCBNEW 6.0.8-f2edbf62ab~116~ubuntu20.04.1) date 2023-08-02 22:58:18*
%MOMM*%
%LPD*%
G01*
G04 APERTURE LIST*
G04 Aperture macros list*
%AMRoundRect*
0 Rectangle with rounded corners*
0 $1 Rounding radius*
0 $2 $3 $4 $5 $6 $7 $8 $9 X,Y pos of 4 corners*
0 Add a 4 corners polygon primitive as box body*
4,1,4,$2,$3,$4,$5,$6,$7,$8,$9,$2,$3,0*
0 Add four circle primitives for the rounded corners*
1,1,$1+$1,$2,$3*
1,1,$1+$1,$4,$5*
1,1,$1+$1,$6,$7*
1,1,$1+$1,$8,$9*
0 Add four rect primitives between the rounded corners*
20,1,$1+$1,$2,$3,$4,$5,0*
20,1,$1+$1,$4,$5,$6,$7,0*
20,1,$1+$1,$6,$7,$8,$9,0*
20,1,$1+$1,$8,$9,$2,$3,0*%
G04 Aperture macros list end*
%ADD10RoundRect,0.250000X-0.350000X-0.450000X0.350000X-0.450000X0.350000X0.450000X-0.350000X0.450000X0*%
%ADD11RoundRect,0.250000X0.450000X-0.350000X0.450000X0.350000X-0.450000X0.350000X-0.450000X-0.350000X0*%
%ADD12RoundRect,0.250000X-0.450000X0.350000X-0.450000X-0.350000X0.450000X-0.350000X0.450000X0.350000X0*%
%ADD13R,2.300000X1.000000*%
%ADD14RoundRect,0.250000X0.350000X0.450000X-0.350000X0.450000X-0.350000X-0.450000X0.350000X-0.450000X0*%
%ADD15R,1.000000X2.200000*%
%ADD16RoundRect,0.157500X-0.222500X0.157500X-0.222500X-0.157500X0.222500X-0.157500X0.222500X0.157500X0*%
%ADD17RoundRect,0.075000X-0.075000X0.650000X-0.075000X-0.650000X0.075000X-0.650000X0.075000X0.650000X0*%
G04 APERTURE END LIST*
D10*
%TO.C,C11*%
X41000000Y-87500000D03*
X43000000Y-87500000D03*
%TD*%
D11*
%TO.C,C17*%
X60300000Y-90100000D03*
X60300000Y-88100000D03*
%TD*%
D12*
%TO.C,C6*%
X131800000Y-52800000D03*
X131800000Y-54800000D03*
%TD*%
%TO.C,R43*%
X88392000Y-87646000D03*
X88392000Y-89646000D03*
%TD*%
%TO.C,C16*%
X60050000Y-77350000D03*
X60050000Y-79350000D03*
%TD*%
D13*
%TO.C,U2*%
X146552000Y-127633000D03*
X146552000Y-125093000D03*
X146552000Y-120013000D03*
X137152000Y-120013000D03*
X137152000Y-127633000D03*
%TD*%
D11*
%TO.C,R16*%
X110900000Y-54700000D03*
X110900000Y-52700000D03*
%TD*%
D10*
%TO.C,R30*%
X154448000Y-37084000D03*
X156448000Y-37084000D03*
%TD*%
%TO.C,R32*%
X133874000Y-37084000D03*
X135874000Y-37084000D03*
%TD*%
%TO.C,R20*%
X48600000Y-84900000D03*
X50600000Y-84900000D03*
%TD*%
D14*
%TO.C,R33*%
X115300000Y-39624000D03*
X113300000Y-39624000D03*
%TD*%
D10*
%TO.C,R12*%
X107650000Y-46482000D03*
X109650000Y-46482000D03*
%TD*%
D12*
%TO.C,C3*%
X166624000Y-49800000D03*
X166624000Y-51800000D03*
%TD*%
%TO.C,C7*%
X115900000Y-52700000D03*
X115900000Y-54700000D03*
%TD*%
D10*
%TO.C,R34*%
X113300000Y-37084000D03*
X115300000Y-37084000D03*
%TD*%
%TO.C,C12*%
X41000000Y-90100000D03*
X43000000Y-90100000D03*
%TD*%
D11*
%TO.C,C15*%
X64520000Y-84074000D03*
X64520000Y-82074000D03*
%TD*%
D10*
%TO.C,R36*%
X92726000Y-37084000D03*
X94726000Y-37084000D03*
%TD*%
D11*
%TO.C,R7*%
X38500000Y-54650000D03*
X38500000Y-52650000D03*
%TD*%
%TO.C,C18*%
X62270000Y-84074000D03*
X62270000Y-82074000D03*
%TD*%
%TO.C,R15*%
X113400000Y-54700000D03*
X113400000Y-52700000D03*
%TD*%
%TO.C,R10*%
X166624000Y-57642000D03*
X166624000Y-55642000D03*
%TD*%
D10*
%TO.C,R4*%
X117513000Y-122663000D03*
X119513000Y-122663000D03*
%TD*%
D11*
%TO.C,C5*%
X108400000Y-54700000D03*
X108400000Y-52700000D03*
%TD*%
D10*
%TO.C,R18*%
X48600000Y-79900000D03*
X50600000Y-79900000D03*
%TD*%
D14*
%TO.C,R41*%
X33004000Y-39624000D03*
X31004000Y-39624000D03*
%TD*%
D10*
%TO.C,R42*%
X31004000Y-37084000D03*
X33004000Y-37084000D03*
%TD*%
D14*
%TO.C,R35*%
X94726000Y-39624000D03*
X92726000Y-39624000D03*
%TD*%
%TO.C,R39*%
X53324000Y-39624000D03*
X51324000Y-39624000D03*
%TD*%
D11*
%TO.C,R14*%
X126800000Y-54800000D03*
X126800000Y-52800000D03*
%TD*%
D10*
%TO.C,R2*%
X101058000Y-122663000D03*
X103058000Y-122663000D03*
%TD*%
%TO.C,R40*%
X51324000Y-37084000D03*
X53324000Y-37084000D03*
%TD*%
D11*
%TO.C,R8*%
X166624000Y-46974000D03*
X166624000Y-44974000D03*
%TD*%
D10*
%TO.C,C8*%
X41000000Y-77500000D03*
X43000000Y-77500000D03*
%TD*%
%TO.C,R11*%
X123550000Y-46482000D03*
X125550000Y-46482000D03*
%TD*%
D15*
%TO.C,L1*%
X141086000Y-113648000D03*
X141086000Y-108348000D03*
X142886000Y-108348000D03*
X142886000Y-113648000D03*
%TD*%
D10*
%TO.C,R21*%
X48600000Y-87500000D03*
X50600000Y-87500000D03*
%TD*%
%TO.C,R26*%
X55600000Y-77600000D03*
X57600000Y-77600000D03*
%TD*%
%TO.C,R22*%
X48600000Y-90100000D03*
X50600000Y-90100000D03*
%TD*%
D14*
%TO.C,R29*%
X156448000Y-39624000D03*
X154448000Y-39624000D03*
%TD*%
%TO.C,R31*%
X135874000Y-39624000D03*
X133874000Y-39624000D03*
%TD*%
D16*
%TO.C,U3*%
X57020000Y-83680000D03*
X56080000Y-83680000D03*
X56080000Y-82900000D03*
X57020000Y-82900000D03*
D17*
X57550000Y-81140000D03*
X57050000Y-81140000D03*
X56550000Y-81140000D03*
X56050000Y-81140000D03*
X55550000Y-81140000D03*
X55550000Y-85440000D03*
X56050000Y-85440000D03*
X56550000Y-85440000D03*
X57050000Y-85440000D03*
X57550000Y-85440000D03*
%TD*%
D12*
%TO.C,C19*%
X60020000Y-82074000D03*
X60020000Y-84074000D03*
%TD*%
D10*
%TO.C,R19*%
X48600000Y-82400000D03*
X50600000Y-82400000D03*
%TD*%
%TO.C,R17*%
X48600000Y-77400000D03*
X50600000Y-77400000D03*
%TD*%
D12*
%TO.C,R28*%
X111064000Y-64278000D03*
X111064000Y-66278000D03*
%TD*%
D10*
%TO.C,C9*%
X41000000Y-79900000D03*
X43000000Y-79900000D03*
%TD*%
D12*
%TO.C,R9*%
X38450000Y-58750000D03*
X38450000Y-60750000D03*
%TD*%
D10*
%TO.C,R38*%
X72315000Y-37084000D03*
X74315000Y-37084000D03*
%TD*%
D11*
%TO.C,C4*%
X124300000Y-54800000D03*
X124300000Y-52800000D03*
%TD*%
D14*
%TO.C,R1*%
X98108000Y-122663000D03*
X96108000Y-122663000D03*
%TD*%
D11*
%TO.C,C20*%
X67750000Y-86090000D03*
X67750000Y-84090000D03*
%TD*%
D10*
%TO.C,C10*%
X41000000Y-83700000D03*
X43000000Y-83700000D03*
%TD*%
D14*
%TO.C,R3*%
X114513000Y-122663000D03*
X112513000Y-122663000D03*
%TD*%
D10*
%TO.C,R27*%
X55600000Y-90100000D03*
X57600000Y-90100000D03*
%TD*%
D11*
%TO.C,R13*%
X129300000Y-54800000D03*
X129300000Y-52800000D03*
%TD*%
D14*
%TO.C,R37*%
X74315000Y-39624000D03*
X72315000Y-39624000D03*
%TD*%
D17*
%TO.C,U4*%
X71950000Y-81400000D03*
X71450000Y-81400000D03*
X70950000Y-81400000D03*
X70450000Y-81400000D03*
X69950000Y-81400000D03*
X69950000Y-85800000D03*
X70450000Y-85800000D03*
X70950000Y-85800000D03*
X71450000Y-85800000D03*
X71950000Y-85800000D03*
%TD*%
M02*
