%TF.GenerationSoftware,KiCad,Pcbnew,6.0.8-f2edbf62ab~116~ubuntu20.04.1*%
%TF.CreationDate,2023-10-04T21:41:10+02:00*%
%TF.ProjectId,Board_Bluetooth_radio_platform,426f6172-645f-4426-9c75-65746f6f7468,1.1*%
%TF.SameCoordinates,Original*%
%TF.FileFunction,Paste,Top*%
%TF.FilePolarity,Positive*%
%FSLAX46Y46*%
G04 Gerber Fmt 4.6, Leading zero omitted, Abs format (unit mm)*
G04 Created by KiCad (PCBNEW 6.0.8-f2edbf62ab~116~ubuntu20.04.1) date 2023-10-04 21:41:10*
%MOMM*%
%LPD*%
G01*
G04 APERTURE LIST*
G04 Aperture macros list*
%AMRoundRect*
0 Rectangle with rounded corners*
0 $1 Rounding radius*
0 $2 $3 $4 $5 $6 $7 $8 $9 X,Y pos of 4 corners*
0 Add a 4 corners polygon primitive as box body*
4,1,4,$2,$3,$4,$5,$6,$7,$8,$9,$2,$3,0*
0 Add four circle primitives for the rounded corners*
1,1,$1+$1,$2,$3*
1,1,$1+$1,$4,$5*
1,1,$1+$1,$6,$7*
1,1,$1+$1,$8,$9*
0 Add four rect primitives between the rounded corners*
20,1,$1+$1,$2,$3,$4,$5,0*
20,1,$1+$1,$4,$5,$6,$7,0*
20,1,$1+$1,$6,$7,$8,$9,0*
20,1,$1+$1,$8,$9,$2,$3,0*%
G04 Aperture macros list end*
%TA.AperFunction,Profile*%
%ADD10C,0.100000*%
%TD*%
%ADD11RoundRect,0.250000X-0.350000X-0.450000X0.350000X-0.450000X0.350000X0.450000X-0.350000X0.450000X0*%
%ADD12RoundRect,0.250000X-0.400000X-0.625000X0.400000X-0.625000X0.400000X0.625000X-0.400000X0.625000X0*%
%ADD13RoundRect,0.250000X-0.450000X0.350000X-0.450000X-0.350000X0.450000X-0.350000X0.450000X0.350000X0*%
%ADD14RoundRect,0.250000X0.450000X-0.350000X0.450000X0.350000X-0.450000X0.350000X-0.450000X-0.350000X0*%
%ADD15RoundRect,0.250000X0.350000X0.450000X-0.350000X0.450000X-0.350000X-0.450000X0.350000X-0.450000X0*%
%ADD16RoundRect,0.157500X-0.222500X0.157500X-0.222500X-0.157500X0.222500X-0.157500X0.222500X0.157500X0*%
%ADD17RoundRect,0.075000X-0.075000X0.650000X-0.075000X-0.650000X0.075000X-0.650000X0.075000X0.650000X0*%
G04 APERTURE END LIST*
D10*
X277500000Y-19000000D02*
X277500000Y-45000000D01*
X277500000Y-45000000D02*
X250500000Y-45000000D01*
X57000000Y-106000000D02*
X133000000Y-105934000D01*
X202500000Y-140000000D02*
X202500000Y-93000000D01*
X64000000Y-19000000D02*
X64000000Y-44000000D01*
X250500000Y-45000000D02*
G75*
G03*
X202500000Y-93000000I0J-48000000D01*
G01*
X133000000Y-140000000D02*
X202500000Y-140000000D01*
X133000000Y-105934000D02*
X133000000Y-140000000D01*
X57000000Y-44000000D02*
X57000000Y-106000000D01*
X64000000Y-44000000D02*
X57000000Y-44000000D01*
X64000000Y-19000000D02*
X277500000Y-19000000D01*
X58666666Y-19000000D02*
G75*
G03*
X58666666Y-19000000I-1666666J0D01*
G01*
X54500000Y-19000000D02*
X59500000Y-19000000D01*
X57000000Y-16500000D02*
X57000000Y-21500000D01*
D11*
%TO.C,C11*%
X75995000Y-77517847D03*
X77995000Y-77517847D03*
%TD*%
D12*
%TO.C,C17*%
X94950000Y-80000000D03*
X98050000Y-80000000D03*
%TD*%
D13*
%TO.C,C6*%
X185202000Y-51734000D03*
X185202000Y-53734000D03*
%TD*%
%TO.C,R43*%
X125028500Y-81015500D03*
X125028500Y-83015500D03*
%TD*%
D12*
%TO.C,C16*%
X94950000Y-67500000D03*
X98050000Y-67500000D03*
%TD*%
D14*
%TO.C,R16*%
X161802000Y-53634000D03*
X161802000Y-51634000D03*
%TD*%
D11*
%TO.C,R30*%
X216000000Y-36018000D03*
X214000000Y-36018000D03*
%TD*%
%TO.C,R32*%
X193976000Y-36018000D03*
X195976000Y-36018000D03*
%TD*%
%TO.C,R20*%
X83595000Y-74917847D03*
X85595000Y-74917847D03*
%TD*%
D15*
%TO.C,R33*%
X173702000Y-38558000D03*
X175702000Y-38558000D03*
%TD*%
D11*
%TO.C,R12*%
X158552000Y-45416000D03*
X160552000Y-45416000D03*
%TD*%
D13*
%TO.C,C3*%
X164190000Y-107134000D03*
X164190000Y-109134000D03*
%TD*%
%TO.C,C7*%
X166802000Y-51634000D03*
X166802000Y-53634000D03*
%TD*%
D11*
%TO.C,R34*%
X175702000Y-36018000D03*
X173702000Y-36018000D03*
%TD*%
%TO.C,C12*%
X75995000Y-80117847D03*
X77995000Y-80117847D03*
%TD*%
D14*
%TO.C,C15*%
X99515000Y-74091847D03*
X99515000Y-72091847D03*
%TD*%
D11*
%TO.C,R36*%
X153428000Y-36018000D03*
X155428000Y-36018000D03*
%TD*%
D15*
%TO.C,R7*%
X72400000Y-47750000D03*
X70400000Y-47750000D03*
%TD*%
D14*
%TO.C,C18*%
X97265000Y-74091847D03*
X97265000Y-72091847D03*
%TD*%
%TO.C,R15*%
X164302000Y-53634000D03*
X164302000Y-51634000D03*
%TD*%
%TO.C,R10*%
X164190000Y-114976000D03*
X164190000Y-112976000D03*
%TD*%
D11*
%TO.C,R4*%
X104985000Y-101700000D03*
X106985000Y-101700000D03*
%TD*%
D14*
%TO.C,C5*%
X159302000Y-53634000D03*
X159302000Y-51634000D03*
%TD*%
D11*
%TO.C,R18*%
X83595000Y-69917847D03*
X85595000Y-69917847D03*
%TD*%
D15*
%TO.C,R41*%
X92606000Y-38558000D03*
X94606000Y-38558000D03*
%TD*%
D11*
%TO.C,R42*%
X94606000Y-36018000D03*
X92606000Y-36018000D03*
%TD*%
D15*
%TO.C,R35*%
X155428000Y-38558000D03*
X153428000Y-38558000D03*
%TD*%
%TO.C,R39*%
X114626000Y-38558000D03*
X112626000Y-38558000D03*
%TD*%
D14*
%TO.C,R14*%
X180202000Y-53734000D03*
X180202000Y-51734000D03*
%TD*%
D11*
%TO.C,R2*%
X88530000Y-101700000D03*
X90530000Y-101700000D03*
%TD*%
%TO.C,R40*%
X112626000Y-36018000D03*
X114626000Y-36018000D03*
%TD*%
D14*
%TO.C,R8*%
X164190000Y-104308000D03*
X164190000Y-102308000D03*
%TD*%
D11*
%TO.C,C8*%
X75995000Y-67517847D03*
X77995000Y-67517847D03*
%TD*%
%TO.C,R11*%
X176952000Y-45416000D03*
X178952000Y-45416000D03*
%TD*%
%TO.C,R21*%
X83595000Y-77517847D03*
X85595000Y-77517847D03*
%TD*%
%TO.C,R26*%
X90595000Y-67617847D03*
X92595000Y-67617847D03*
%TD*%
%TO.C,R22*%
X83595000Y-80117847D03*
X85595000Y-80117847D03*
%TD*%
D15*
%TO.C,R29*%
X214000000Y-38558000D03*
X216000000Y-38558000D03*
%TD*%
%TO.C,R31*%
X195976000Y-38558000D03*
X193976000Y-38558000D03*
%TD*%
D16*
%TO.C,U3*%
X92015000Y-73697847D03*
X91075000Y-73697847D03*
X91075000Y-72917847D03*
X92015000Y-72917847D03*
D17*
X92545000Y-71157847D03*
X92045000Y-71157847D03*
X91545000Y-71157847D03*
X91045000Y-71157847D03*
X90545000Y-71157847D03*
X90545000Y-75457847D03*
X91045000Y-75457847D03*
X91545000Y-75457847D03*
X92045000Y-75457847D03*
X92545000Y-75457847D03*
%TD*%
D13*
%TO.C,C19*%
X95015000Y-72091847D03*
X95015000Y-74091847D03*
%TD*%
D11*
%TO.C,R19*%
X83595000Y-72417847D03*
X85595000Y-72417847D03*
%TD*%
%TO.C,R17*%
X83595000Y-67417847D03*
X85595000Y-67417847D03*
%TD*%
D13*
%TO.C,R28*%
X162966000Y-63212000D03*
X162966000Y-65212000D03*
%TD*%
D11*
%TO.C,C9*%
X75995000Y-69917847D03*
X77995000Y-69917847D03*
%TD*%
%TO.C,R9*%
X76500000Y-47800000D03*
X78500000Y-47800000D03*
%TD*%
%TO.C,R38*%
X133317000Y-36018000D03*
X135317000Y-36018000D03*
%TD*%
D14*
%TO.C,C4*%
X177702000Y-53734000D03*
X177702000Y-51734000D03*
%TD*%
D15*
%TO.C,R1*%
X85580000Y-101700000D03*
X83580000Y-101700000D03*
%TD*%
D14*
%TO.C,C20*%
X102000000Y-76107847D03*
X102000000Y-74107847D03*
%TD*%
D11*
%TO.C,C10*%
X75995000Y-73717847D03*
X77995000Y-73717847D03*
%TD*%
D15*
%TO.C,R3*%
X101985000Y-101700000D03*
X99985000Y-101700000D03*
%TD*%
D11*
%TO.C,R27*%
X90595000Y-80117847D03*
X92595000Y-80117847D03*
%TD*%
D14*
%TO.C,R13*%
X182702000Y-53734000D03*
X182702000Y-51734000D03*
%TD*%
D15*
%TO.C,R37*%
X135317000Y-38558000D03*
X133317000Y-38558000D03*
%TD*%
D17*
%TO.C,U4*%
X106945000Y-71417847D03*
X106445000Y-71417847D03*
X105945000Y-71417847D03*
X105445000Y-71417847D03*
X104945000Y-71417847D03*
X104945000Y-75817847D03*
X105445000Y-75817847D03*
X105945000Y-75817847D03*
X106445000Y-75817847D03*
X106945000Y-75817847D03*
%TD*%
M02*
