%TF.GenerationSoftware,KiCad,Pcbnew,6.0.8-f2edbf62ab~116~ubuntu20.04.1*%
%TF.CreationDate,2023-08-02T22:58:18+02:00*%
%TF.ProjectId,Board_Bluetooth_radio_platform,426f6172-645f-4426-9c75-65746f6f7468,rev?*%
%TF.SameCoordinates,Original*%
%TF.FileFunction,Legend,Top*%
%TF.FilePolarity,Positive*%
%FSLAX46Y46*%
G04 Gerber Fmt 4.6, Leading zero omitted, Abs format (unit mm)*
G04 Created by KiCad (PCBNEW 6.0.8-f2edbf62ab~116~ubuntu20.04.1) date 2023-08-02 22:58:18*
%MOMM*%
%LPD*%
G01*
G04 APERTURE LIST*
%ADD10C,0.150000*%
%ADD11C,0.120000*%
G04 APERTURE END LIST*
D10*
%TO.C,REF5*%
X90852380Y-100652380D02*
X90519047Y-100176190D01*
X90280952Y-100652380D02*
X90280952Y-99652380D01*
X90661904Y-99652380D01*
X90757142Y-99700000D01*
X90804761Y-99747619D01*
X90852380Y-99842857D01*
X90852380Y-99985714D01*
X90804761Y-100080952D01*
X90757142Y-100128571D01*
X90661904Y-100176190D01*
X90280952Y-100176190D01*
X91280952Y-100128571D02*
X91614285Y-100128571D01*
X91757142Y-100652380D02*
X91280952Y-100652380D01*
X91280952Y-99652380D01*
X91757142Y-99652380D01*
X92519047Y-100128571D02*
X92185714Y-100128571D01*
X92185714Y-100652380D02*
X92185714Y-99652380D01*
X92661904Y-99652380D01*
X93519047Y-99652380D02*
X93042857Y-99652380D01*
X92995238Y-100128571D01*
X93042857Y-100080952D01*
X93138095Y-100033333D01*
X93376190Y-100033333D01*
X93471428Y-100080952D01*
X93519047Y-100128571D01*
X93566666Y-100223809D01*
X93566666Y-100461904D01*
X93519047Y-100557142D01*
X93471428Y-100604761D01*
X93376190Y-100652380D01*
X93138095Y-100652380D01*
X93042857Y-100604761D01*
X92995238Y-100557142D01*
%TO.C,REF4*%
X84102380Y-100652380D02*
X83769047Y-100176190D01*
X83530952Y-100652380D02*
X83530952Y-99652380D01*
X83911904Y-99652380D01*
X84007142Y-99700000D01*
X84054761Y-99747619D01*
X84102380Y-99842857D01*
X84102380Y-99985714D01*
X84054761Y-100080952D01*
X84007142Y-100128571D01*
X83911904Y-100176190D01*
X83530952Y-100176190D01*
X84530952Y-100128571D02*
X84864285Y-100128571D01*
X85007142Y-100652380D02*
X84530952Y-100652380D01*
X84530952Y-99652380D01*
X85007142Y-99652380D01*
X85769047Y-100128571D02*
X85435714Y-100128571D01*
X85435714Y-100652380D02*
X85435714Y-99652380D01*
X85911904Y-99652380D01*
X86721428Y-99985714D02*
X86721428Y-100652380D01*
X86483333Y-99604761D02*
X86245238Y-100319047D01*
X86864285Y-100319047D01*
%TO.C,REF3*%
X201452380Y-23052380D02*
X201119047Y-22576190D01*
X200880952Y-23052380D02*
X200880952Y-22052380D01*
X201261904Y-22052380D01*
X201357142Y-22100000D01*
X201404761Y-22147619D01*
X201452380Y-22242857D01*
X201452380Y-22385714D01*
X201404761Y-22480952D01*
X201357142Y-22528571D01*
X201261904Y-22576190D01*
X200880952Y-22576190D01*
X201880952Y-22528571D02*
X202214285Y-22528571D01*
X202357142Y-23052380D02*
X201880952Y-23052380D01*
X201880952Y-22052380D01*
X202357142Y-22052380D01*
X203119047Y-22528571D02*
X202785714Y-22528571D01*
X202785714Y-23052380D02*
X202785714Y-22052380D01*
X203261904Y-22052380D01*
X203547619Y-22052380D02*
X204166666Y-22052380D01*
X203833333Y-22433333D01*
X203976190Y-22433333D01*
X204071428Y-22480952D01*
X204119047Y-22528571D01*
X204166666Y-22623809D01*
X204166666Y-22861904D01*
X204119047Y-22957142D01*
X204071428Y-23004761D01*
X203976190Y-23052380D01*
X203690476Y-23052380D01*
X203595238Y-23004761D01*
X203547619Y-22957142D01*
%TO.C,REF2*%
X99452380Y-23052380D02*
X99119047Y-22576190D01*
X98880952Y-23052380D02*
X98880952Y-22052380D01*
X99261904Y-22052380D01*
X99357142Y-22100000D01*
X99404761Y-22147619D01*
X99452380Y-22242857D01*
X99452380Y-22385714D01*
X99404761Y-22480952D01*
X99357142Y-22528571D01*
X99261904Y-22576190D01*
X98880952Y-22576190D01*
X99880952Y-22528571D02*
X100214285Y-22528571D01*
X100357142Y-23052380D02*
X99880952Y-23052380D01*
X99880952Y-22052380D01*
X100357142Y-22052380D01*
X101119047Y-22528571D02*
X100785714Y-22528571D01*
X100785714Y-23052380D02*
X100785714Y-22052380D01*
X101261904Y-22052380D01*
X101595238Y-22147619D02*
X101642857Y-22100000D01*
X101738095Y-22052380D01*
X101976190Y-22052380D01*
X102071428Y-22100000D01*
X102119047Y-22147619D01*
X102166666Y-22242857D01*
X102166666Y-22338095D01*
X102119047Y-22480952D01*
X101547619Y-23052380D01*
X102166666Y-23052380D01*
%TO.C,REF1*%
X33302380Y-25952380D02*
X32969047Y-25476190D01*
X32730952Y-25952380D02*
X32730952Y-24952380D01*
X33111904Y-24952380D01*
X33207142Y-25000000D01*
X33254761Y-25047619D01*
X33302380Y-25142857D01*
X33302380Y-25285714D01*
X33254761Y-25380952D01*
X33207142Y-25428571D01*
X33111904Y-25476190D01*
X32730952Y-25476190D01*
X33730952Y-25428571D02*
X34064285Y-25428571D01*
X34207142Y-25952380D02*
X33730952Y-25952380D01*
X33730952Y-24952380D01*
X34207142Y-24952380D01*
X34969047Y-25428571D02*
X34635714Y-25428571D01*
X34635714Y-25952380D02*
X34635714Y-24952380D01*
X35111904Y-24952380D01*
X36016666Y-25952380D02*
X35445238Y-25952380D01*
X35730952Y-25952380D02*
X35730952Y-24952380D01*
X35635714Y-25095238D01*
X35540476Y-25190476D01*
X35445238Y-25238095D01*
%TO.C,J_III1*%
X168811428Y-31182380D02*
X168811428Y-31896666D01*
X168763809Y-32039523D01*
X168668571Y-32134761D01*
X168525714Y-32182380D01*
X168430476Y-32182380D01*
X169049523Y-32277619D02*
X169811428Y-32277619D01*
X170049523Y-32182380D02*
X170049523Y-31182380D01*
X170525714Y-32182380D02*
X170525714Y-31182380D01*
X171001904Y-32182380D02*
X171001904Y-31182380D01*
X172001904Y-32182380D02*
X171430476Y-32182380D01*
X171716190Y-32182380D02*
X171716190Y-31182380D01*
X171620952Y-31325238D01*
X171525714Y-31420476D01*
X171430476Y-31468095D01*
%TO.C,C11*%
X37457142Y-87733142D02*
X37409523Y-87780761D01*
X37266666Y-87828380D01*
X37171428Y-87828380D01*
X37028571Y-87780761D01*
X36933333Y-87685523D01*
X36885714Y-87590285D01*
X36838095Y-87399809D01*
X36838095Y-87256952D01*
X36885714Y-87066476D01*
X36933333Y-86971238D01*
X37028571Y-86876000D01*
X37171428Y-86828380D01*
X37266666Y-86828380D01*
X37409523Y-86876000D01*
X37457142Y-86923619D01*
X38409523Y-87828380D02*
X37838095Y-87828380D01*
X38123809Y-87828380D02*
X38123809Y-86828380D01*
X38028571Y-86971238D01*
X37933333Y-87066476D01*
X37838095Y-87114095D01*
X39361904Y-87828380D02*
X38790476Y-87828380D01*
X39076190Y-87828380D02*
X39076190Y-86828380D01*
X38980952Y-86971238D01*
X38885714Y-87066476D01*
X38790476Y-87114095D01*
%TO.C,C17*%
X60657142Y-93492857D02*
X60704761Y-93540476D01*
X60752380Y-93683333D01*
X60752380Y-93778571D01*
X60704761Y-93921428D01*
X60609523Y-94016666D01*
X60514285Y-94064285D01*
X60323809Y-94111904D01*
X60180952Y-94111904D01*
X59990476Y-94064285D01*
X59895238Y-94016666D01*
X59800000Y-93921428D01*
X59752380Y-93778571D01*
X59752380Y-93683333D01*
X59800000Y-93540476D01*
X59847619Y-93492857D01*
X60752380Y-92540476D02*
X60752380Y-93111904D01*
X60752380Y-92826190D02*
X59752380Y-92826190D01*
X59895238Y-92921428D01*
X59990476Y-93016666D01*
X60038095Y-93111904D01*
X59752380Y-92207142D02*
X59752380Y-91540476D01*
X60752380Y-91969047D01*
%TO.C,J_sys1*%
X135342380Y-50672761D02*
X136056666Y-50672761D01*
X136199523Y-50720380D01*
X136294761Y-50815619D01*
X136342380Y-50958476D01*
X136342380Y-51053714D01*
X136437619Y-50434666D02*
X136437619Y-49672761D01*
X136294761Y-49482285D02*
X136342380Y-49387047D01*
X136342380Y-49196571D01*
X136294761Y-49101333D01*
X136199523Y-49053714D01*
X136151904Y-49053714D01*
X136056666Y-49101333D01*
X136009047Y-49196571D01*
X136009047Y-49339428D01*
X135961428Y-49434666D01*
X135866190Y-49482285D01*
X135818571Y-49482285D01*
X135723333Y-49434666D01*
X135675714Y-49339428D01*
X135675714Y-49196571D01*
X135723333Y-49101333D01*
X135675714Y-48720380D02*
X136342380Y-48482285D01*
X135675714Y-48244190D02*
X136342380Y-48482285D01*
X136580476Y-48577523D01*
X136628095Y-48625142D01*
X136675714Y-48720380D01*
X136294761Y-47910857D02*
X136342380Y-47815619D01*
X136342380Y-47625142D01*
X136294761Y-47529904D01*
X136199523Y-47482285D01*
X136151904Y-47482285D01*
X136056666Y-47529904D01*
X136009047Y-47625142D01*
X136009047Y-47768000D01*
X135961428Y-47863238D01*
X135866190Y-47910857D01*
X135818571Y-47910857D01*
X135723333Y-47863238D01*
X135675714Y-47768000D01*
X135675714Y-47625142D01*
X135723333Y-47529904D01*
X136342380Y-46529904D02*
X136342380Y-47101333D01*
X136342380Y-46815619D02*
X135342380Y-46815619D01*
X135485238Y-46910857D01*
X135580476Y-47006095D01*
X135628095Y-47101333D01*
%TO.C,J_VI1*%
X106939047Y-31182380D02*
X106939047Y-31896666D01*
X106891428Y-32039523D01*
X106796190Y-32134761D01*
X106653333Y-32182380D01*
X106558095Y-32182380D01*
X107177142Y-32277619D02*
X107939047Y-32277619D01*
X108034285Y-31182380D02*
X108367619Y-32182380D01*
X108700952Y-31182380D01*
X109034285Y-32182380D02*
X109034285Y-31182380D01*
X110034285Y-32182380D02*
X109462857Y-32182380D01*
X109748571Y-32182380D02*
X109748571Y-31182380D01*
X109653333Y-31325238D01*
X109558095Y-31420476D01*
X109462857Y-31468095D01*
%TO.C,C6*%
X132187142Y-56966666D02*
X132234761Y-57014285D01*
X132282380Y-57157142D01*
X132282380Y-57252380D01*
X132234761Y-57395238D01*
X132139523Y-57490476D01*
X132044285Y-57538095D01*
X131853809Y-57585714D01*
X131710952Y-57585714D01*
X131520476Y-57538095D01*
X131425238Y-57490476D01*
X131330000Y-57395238D01*
X131282380Y-57252380D01*
X131282380Y-57157142D01*
X131330000Y-57014285D01*
X131377619Y-56966666D01*
X131282380Y-56109523D02*
X131282380Y-56300000D01*
X131330000Y-56395238D01*
X131377619Y-56442857D01*
X131520476Y-56538095D01*
X131710952Y-56585714D01*
X132091904Y-56585714D01*
X132187142Y-56538095D01*
X132234761Y-56490476D01*
X132282380Y-56395238D01*
X132282380Y-56204761D01*
X132234761Y-56109523D01*
X132187142Y-56061904D01*
X132091904Y-56014285D01*
X131853809Y-56014285D01*
X131758571Y-56061904D01*
X131710952Y-56109523D01*
X131663333Y-56204761D01*
X131663333Y-56395238D01*
X131710952Y-56490476D01*
X131758571Y-56538095D01*
X131853809Y-56585714D01*
%TO.C,J_pwrLed1*%
X172680380Y-61705714D02*
X173394666Y-61705714D01*
X173537523Y-61753333D01*
X173632761Y-61848571D01*
X173680380Y-61991428D01*
X173680380Y-62086666D01*
X173775619Y-61467619D02*
X173775619Y-60705714D01*
X173013714Y-60467619D02*
X174013714Y-60467619D01*
X173061333Y-60467619D02*
X173013714Y-60372380D01*
X173013714Y-60181904D01*
X173061333Y-60086666D01*
X173108952Y-60039047D01*
X173204190Y-59991428D01*
X173489904Y-59991428D01*
X173585142Y-60039047D01*
X173632761Y-60086666D01*
X173680380Y-60181904D01*
X173680380Y-60372380D01*
X173632761Y-60467619D01*
X173013714Y-59658095D02*
X173680380Y-59467619D01*
X173204190Y-59277142D01*
X173680380Y-59086666D01*
X173013714Y-58896190D01*
X173680380Y-58515238D02*
X173013714Y-58515238D01*
X173204190Y-58515238D02*
X173108952Y-58467619D01*
X173061333Y-58420000D01*
X173013714Y-58324761D01*
X173013714Y-58229523D01*
X173680380Y-57420000D02*
X173680380Y-57896190D01*
X172680380Y-57896190D01*
X173632761Y-56705714D02*
X173680380Y-56800952D01*
X173680380Y-56991428D01*
X173632761Y-57086666D01*
X173537523Y-57134285D01*
X173156571Y-57134285D01*
X173061333Y-57086666D01*
X173013714Y-56991428D01*
X173013714Y-56800952D01*
X173061333Y-56705714D01*
X173156571Y-56658095D01*
X173251809Y-56658095D01*
X173347047Y-57134285D01*
X173680380Y-55800952D02*
X172680380Y-55800952D01*
X173632761Y-55800952D02*
X173680380Y-55896190D01*
X173680380Y-56086666D01*
X173632761Y-56181904D01*
X173585142Y-56229523D01*
X173489904Y-56277142D01*
X173204190Y-56277142D01*
X173108952Y-56229523D01*
X173061333Y-56181904D01*
X173013714Y-56086666D01*
X173013714Y-55896190D01*
X173061333Y-55800952D01*
X173680380Y-54800952D02*
X173680380Y-55372380D01*
X173680380Y-55086666D02*
X172680380Y-55086666D01*
X172823238Y-55181904D01*
X172918476Y-55277142D01*
X172966095Y-55372380D01*
%TO.C,J13*%
X143437476Y-100505380D02*
X143437476Y-101219666D01*
X143389857Y-101362523D01*
X143294619Y-101457761D01*
X143151761Y-101505380D01*
X143056523Y-101505380D01*
X144437476Y-101505380D02*
X143866047Y-101505380D01*
X144151761Y-101505380D02*
X144151761Y-100505380D01*
X144056523Y-100648238D01*
X143961285Y-100743476D01*
X143866047Y-100791095D01*
X144770809Y-100505380D02*
X145389857Y-100505380D01*
X145056523Y-100886333D01*
X145199380Y-100886333D01*
X145294619Y-100933952D01*
X145342238Y-100981571D01*
X145389857Y-101076809D01*
X145389857Y-101314904D01*
X145342238Y-101410142D01*
X145294619Y-101457761D01*
X145199380Y-101505380D01*
X144913666Y-101505380D01*
X144818428Y-101457761D01*
X144770809Y-101410142D01*
%TO.C,J3*%
X75358666Y-103592380D02*
X75358666Y-104306666D01*
X75311047Y-104449523D01*
X75215809Y-104544761D01*
X75072952Y-104592380D01*
X74977714Y-104592380D01*
X75739619Y-103592380D02*
X76358666Y-103592380D01*
X76025333Y-103973333D01*
X76168190Y-103973333D01*
X76263428Y-104020952D01*
X76311047Y-104068571D01*
X76358666Y-104163809D01*
X76358666Y-104401904D01*
X76311047Y-104497142D01*
X76263428Y-104544761D01*
X76168190Y-104592380D01*
X75882476Y-104592380D01*
X75787238Y-104544761D01*
X75739619Y-104497142D01*
%TO.C,R43*%
X84701142Y-88590380D02*
X84367809Y-88114190D01*
X84129714Y-88590380D02*
X84129714Y-87590380D01*
X84510666Y-87590380D01*
X84605904Y-87638000D01*
X84653523Y-87685619D01*
X84701142Y-87780857D01*
X84701142Y-87923714D01*
X84653523Y-88018952D01*
X84605904Y-88066571D01*
X84510666Y-88114190D01*
X84129714Y-88114190D01*
X85558285Y-87923714D02*
X85558285Y-88590380D01*
X85320190Y-87542761D02*
X85082095Y-88257047D01*
X85701142Y-88257047D01*
X85986857Y-87590380D02*
X86605904Y-87590380D01*
X86272571Y-87971333D01*
X86415428Y-87971333D01*
X86510666Y-88018952D01*
X86558285Y-88066571D01*
X86605904Y-88161809D01*
X86605904Y-88399904D01*
X86558285Y-88495142D01*
X86510666Y-88542761D01*
X86415428Y-88590380D01*
X86129714Y-88590380D01*
X86034476Y-88542761D01*
X85986857Y-88495142D01*
%TO.C,C16*%
X61841142Y-77827142D02*
X61793523Y-77874761D01*
X61650666Y-77922380D01*
X61555428Y-77922380D01*
X61412571Y-77874761D01*
X61317333Y-77779523D01*
X61269714Y-77684285D01*
X61222095Y-77493809D01*
X61222095Y-77350952D01*
X61269714Y-77160476D01*
X61317333Y-77065238D01*
X61412571Y-76970000D01*
X61555428Y-76922380D01*
X61650666Y-76922380D01*
X61793523Y-76970000D01*
X61841142Y-77017619D01*
X62793523Y-77922380D02*
X62222095Y-77922380D01*
X62507809Y-77922380D02*
X62507809Y-76922380D01*
X62412571Y-77065238D01*
X62317333Y-77160476D01*
X62222095Y-77208095D01*
X63650666Y-76922380D02*
X63460190Y-76922380D01*
X63364952Y-76970000D01*
X63317333Y-77017619D01*
X63222095Y-77160476D01*
X63174476Y-77350952D01*
X63174476Y-77731904D01*
X63222095Y-77827142D01*
X63269714Y-77874761D01*
X63364952Y-77922380D01*
X63555428Y-77922380D01*
X63650666Y-77874761D01*
X63698285Y-77827142D01*
X63745904Y-77731904D01*
X63745904Y-77493809D01*
X63698285Y-77398571D01*
X63650666Y-77350952D01*
X63555428Y-77303333D01*
X63364952Y-77303333D01*
X63269714Y-77350952D01*
X63222095Y-77398571D01*
X63174476Y-77493809D01*
%TO.C,J_IX1*%
X39973428Y-33742380D02*
X39973428Y-34456666D01*
X39925809Y-34599523D01*
X39830571Y-34694761D01*
X39687714Y-34742380D01*
X39592476Y-34742380D01*
X40211523Y-34837619D02*
X40973428Y-34837619D01*
X41211523Y-34742380D02*
X41211523Y-33742380D01*
X41592476Y-33742380D02*
X42259142Y-34742380D01*
X42259142Y-33742380D02*
X41592476Y-34742380D01*
X43163904Y-34742380D02*
X42592476Y-34742380D01*
X42878190Y-34742380D02*
X42878190Y-33742380D01*
X42782952Y-33885238D01*
X42687714Y-33980476D01*
X42592476Y-34028095D01*
%TO.C,J_I1*%
X215557619Y-33652380D02*
X215557619Y-34366666D01*
X215510000Y-34509523D01*
X215414761Y-34604761D01*
X215271904Y-34652380D01*
X215176666Y-34652380D01*
X215795714Y-34747619D02*
X216557619Y-34747619D01*
X216795714Y-34652380D02*
X216795714Y-33652380D01*
X217795714Y-34652380D02*
X217224285Y-34652380D01*
X217510000Y-34652380D02*
X217510000Y-33652380D01*
X217414761Y-33795238D01*
X217319523Y-33890476D01*
X217224285Y-33938095D01*
%TO.C,J11*%
X119652476Y-51268380D02*
X119652476Y-51982666D01*
X119604857Y-52125523D01*
X119509619Y-52220761D01*
X119366761Y-52268380D01*
X119271523Y-52268380D01*
X120652476Y-52268380D02*
X120081047Y-52268380D01*
X120366761Y-52268380D02*
X120366761Y-51268380D01*
X120271523Y-51411238D01*
X120176285Y-51506476D01*
X120081047Y-51554095D01*
X121604857Y-52268380D02*
X121033428Y-52268380D01*
X121319142Y-52268380D02*
X121319142Y-51268380D01*
X121223904Y-51411238D01*
X121128666Y-51506476D01*
X121033428Y-51554095D01*
%TO.C,J12*%
X103396476Y-51372380D02*
X103396476Y-52086666D01*
X103348857Y-52229523D01*
X103253619Y-52324761D01*
X103110761Y-52372380D01*
X103015523Y-52372380D01*
X104396476Y-52372380D02*
X103825047Y-52372380D01*
X104110761Y-52372380D02*
X104110761Y-51372380D01*
X104015523Y-51515238D01*
X103920285Y-51610476D01*
X103825047Y-51658095D01*
X104777428Y-51467619D02*
X104825047Y-51420000D01*
X104920285Y-51372380D01*
X105158380Y-51372380D01*
X105253619Y-51420000D01*
X105301238Y-51467619D01*
X105348857Y-51562857D01*
X105348857Y-51658095D01*
X105301238Y-51800952D01*
X104729809Y-52372380D01*
X105348857Y-52372380D01*
%TO.C,J16*%
X61166476Y-33996380D02*
X61166476Y-34710666D01*
X61118857Y-34853523D01*
X61023619Y-34948761D01*
X60880761Y-34996380D01*
X60785523Y-34996380D01*
X62166476Y-34996380D02*
X61595047Y-34996380D01*
X61880761Y-34996380D02*
X61880761Y-33996380D01*
X61785523Y-34139238D01*
X61690285Y-34234476D01*
X61595047Y-34282095D01*
X63023619Y-33996380D02*
X62833142Y-33996380D01*
X62737904Y-34044000D01*
X62690285Y-34091619D01*
X62595047Y-34234476D01*
X62547428Y-34424952D01*
X62547428Y-34805904D01*
X62595047Y-34901142D01*
X62642666Y-34948761D01*
X62737904Y-34996380D01*
X62928380Y-34996380D01*
X63023619Y-34948761D01*
X63071238Y-34901142D01*
X63118857Y-34805904D01*
X63118857Y-34567809D01*
X63071238Y-34472571D01*
X63023619Y-34424952D01*
X62928380Y-34377333D01*
X62737904Y-34377333D01*
X62642666Y-34424952D01*
X62595047Y-34472571D01*
X62547428Y-34567809D01*
%TO.C,U2*%
X145090095Y-131275380D02*
X145090095Y-132084904D01*
X145137714Y-132180142D01*
X145185333Y-132227761D01*
X145280571Y-132275380D01*
X145471047Y-132275380D01*
X145566285Y-132227761D01*
X145613904Y-132180142D01*
X145661523Y-132084904D01*
X145661523Y-131275380D01*
X146090095Y-131370619D02*
X146137714Y-131323000D01*
X146232952Y-131275380D01*
X146471047Y-131275380D01*
X146566285Y-131323000D01*
X146613904Y-131370619D01*
X146661523Y-131465857D01*
X146661523Y-131561095D01*
X146613904Y-131703952D01*
X146042476Y-132275380D01*
X146661523Y-132275380D01*
%TO.C,U1*%
X151130095Y-68206380D02*
X151130095Y-69015904D01*
X151177714Y-69111142D01*
X151225333Y-69158761D01*
X151320571Y-69206380D01*
X151511047Y-69206380D01*
X151606285Y-69158761D01*
X151653904Y-69111142D01*
X151701523Y-69015904D01*
X151701523Y-68206380D01*
X152701523Y-69206380D02*
X152130095Y-69206380D01*
X152415809Y-69206380D02*
X152415809Y-68206380D01*
X152320571Y-68349238D01*
X152225333Y-68444476D01*
X152130095Y-68492095D01*
%TO.C,R16*%
X111352380Y-57842857D02*
X110876190Y-58176190D01*
X111352380Y-58414285D02*
X110352380Y-58414285D01*
X110352380Y-58033333D01*
X110400000Y-57938095D01*
X110447619Y-57890476D01*
X110542857Y-57842857D01*
X110685714Y-57842857D01*
X110780952Y-57890476D01*
X110828571Y-57938095D01*
X110876190Y-58033333D01*
X110876190Y-58414285D01*
X111352380Y-56890476D02*
X111352380Y-57461904D01*
X111352380Y-57176190D02*
X110352380Y-57176190D01*
X110495238Y-57271428D01*
X110590476Y-57366666D01*
X110638095Y-57461904D01*
X110352380Y-56033333D02*
X110352380Y-56223809D01*
X110400000Y-56319047D01*
X110447619Y-56366666D01*
X110590476Y-56461904D01*
X110780952Y-56509523D01*
X111161904Y-56509523D01*
X111257142Y-56461904D01*
X111304761Y-56414285D01*
X111352380Y-56319047D01*
X111352380Y-56128571D01*
X111304761Y-56033333D01*
X111257142Y-55985714D01*
X111161904Y-55938095D01*
X110923809Y-55938095D01*
X110828571Y-55985714D01*
X110780952Y-56033333D01*
X110733333Y-56128571D01*
X110733333Y-56319047D01*
X110780952Y-56414285D01*
X110828571Y-56461904D01*
X110923809Y-56509523D01*
%TO.C,J14*%
X71834476Y-89622380D02*
X71834476Y-90336666D01*
X71786857Y-90479523D01*
X71691619Y-90574761D01*
X71548761Y-90622380D01*
X71453523Y-90622380D01*
X72834476Y-90622380D02*
X72263047Y-90622380D01*
X72548761Y-90622380D02*
X72548761Y-89622380D01*
X72453523Y-89765238D01*
X72358285Y-89860476D01*
X72263047Y-89908095D01*
X73691619Y-89955714D02*
X73691619Y-90622380D01*
X73453523Y-89574761D02*
X73215428Y-90289047D01*
X73834476Y-90289047D01*
%TO.C,J_VII1*%
X86063452Y-31182380D02*
X86063452Y-31896666D01*
X86015833Y-32039523D01*
X85920595Y-32134761D01*
X85777738Y-32182380D01*
X85682500Y-32182380D01*
X86301547Y-32277619D02*
X87063452Y-32277619D01*
X87158690Y-31182380D02*
X87492023Y-32182380D01*
X87825357Y-31182380D01*
X88158690Y-32182380D02*
X88158690Y-31182380D01*
X88634880Y-32182380D02*
X88634880Y-31182380D01*
X89634880Y-32182380D02*
X89063452Y-32182380D01*
X89349166Y-32182380D02*
X89349166Y-31182380D01*
X89253928Y-31325238D01*
X89158690Y-31420476D01*
X89063452Y-31468095D01*
%TO.C,R30*%
X158361142Y-37536380D02*
X158027809Y-37060190D01*
X157789714Y-37536380D02*
X157789714Y-36536380D01*
X158170666Y-36536380D01*
X158265904Y-36584000D01*
X158313523Y-36631619D01*
X158361142Y-36726857D01*
X158361142Y-36869714D01*
X158313523Y-36964952D01*
X158265904Y-37012571D01*
X158170666Y-37060190D01*
X157789714Y-37060190D01*
X158694476Y-36536380D02*
X159313523Y-36536380D01*
X158980190Y-36917333D01*
X159123047Y-36917333D01*
X159218285Y-36964952D01*
X159265904Y-37012571D01*
X159313523Y-37107809D01*
X159313523Y-37345904D01*
X159265904Y-37441142D01*
X159218285Y-37488761D01*
X159123047Y-37536380D01*
X158837333Y-37536380D01*
X158742095Y-37488761D01*
X158694476Y-37441142D01*
X159932571Y-36536380D02*
X160027809Y-36536380D01*
X160123047Y-36584000D01*
X160170666Y-36631619D01*
X160218285Y-36726857D01*
X160265904Y-36917333D01*
X160265904Y-37155428D01*
X160218285Y-37345904D01*
X160170666Y-37441142D01*
X160123047Y-37488761D01*
X160027809Y-37536380D01*
X159932571Y-37536380D01*
X159837333Y-37488761D01*
X159789714Y-37441142D01*
X159742095Y-37345904D01*
X159694476Y-37155428D01*
X159694476Y-36917333D01*
X159742095Y-36726857D01*
X159789714Y-36631619D01*
X159837333Y-36584000D01*
X159932571Y-36536380D01*
%TO.C,D2*%
X35211904Y-49302380D02*
X35211904Y-48302380D01*
X35450000Y-48302380D01*
X35592857Y-48350000D01*
X35688095Y-48445238D01*
X35735714Y-48540476D01*
X35783333Y-48730952D01*
X35783333Y-48873809D01*
X35735714Y-49064285D01*
X35688095Y-49159523D01*
X35592857Y-49254761D01*
X35450000Y-49302380D01*
X35211904Y-49302380D01*
X36164285Y-48397619D02*
X36211904Y-48350000D01*
X36307142Y-48302380D01*
X36545238Y-48302380D01*
X36640476Y-48350000D01*
X36688095Y-48397619D01*
X36735714Y-48492857D01*
X36735714Y-48588095D01*
X36688095Y-48730952D01*
X36116666Y-49302380D01*
X36735714Y-49302380D01*
%TO.C,R32*%
X137787142Y-37536380D02*
X137453809Y-37060190D01*
X137215714Y-37536380D02*
X137215714Y-36536380D01*
X137596666Y-36536380D01*
X137691904Y-36584000D01*
X137739523Y-36631619D01*
X137787142Y-36726857D01*
X137787142Y-36869714D01*
X137739523Y-36964952D01*
X137691904Y-37012571D01*
X137596666Y-37060190D01*
X137215714Y-37060190D01*
X138120476Y-36536380D02*
X138739523Y-36536380D01*
X138406190Y-36917333D01*
X138549047Y-36917333D01*
X138644285Y-36964952D01*
X138691904Y-37012571D01*
X138739523Y-37107809D01*
X138739523Y-37345904D01*
X138691904Y-37441142D01*
X138644285Y-37488761D01*
X138549047Y-37536380D01*
X138263333Y-37536380D01*
X138168095Y-37488761D01*
X138120476Y-37441142D01*
X139120476Y-36631619D02*
X139168095Y-36584000D01*
X139263333Y-36536380D01*
X139501428Y-36536380D01*
X139596666Y-36584000D01*
X139644285Y-36631619D01*
X139691904Y-36726857D01*
X139691904Y-36822095D01*
X139644285Y-36964952D01*
X139072857Y-37536380D01*
X139691904Y-37536380D01*
%TO.C,JGPIO9*%
X93252380Y-122095238D02*
X93966666Y-122095238D01*
X94109523Y-122142857D01*
X94204761Y-122238095D01*
X94252380Y-122380952D01*
X94252380Y-122476190D01*
X93300000Y-121095238D02*
X93252380Y-121190476D01*
X93252380Y-121333333D01*
X93300000Y-121476190D01*
X93395238Y-121571428D01*
X93490476Y-121619047D01*
X93680952Y-121666666D01*
X93823809Y-121666666D01*
X94014285Y-121619047D01*
X94109523Y-121571428D01*
X94204761Y-121476190D01*
X94252380Y-121333333D01*
X94252380Y-121238095D01*
X94204761Y-121095238D01*
X94157142Y-121047619D01*
X93823809Y-121047619D01*
X93823809Y-121238095D01*
X94252380Y-120619047D02*
X93252380Y-120619047D01*
X93252380Y-120238095D01*
X93300000Y-120142857D01*
X93347619Y-120095238D01*
X93442857Y-120047619D01*
X93585714Y-120047619D01*
X93680952Y-120095238D01*
X93728571Y-120142857D01*
X93776190Y-120238095D01*
X93776190Y-120619047D01*
X94252380Y-119619047D02*
X93252380Y-119619047D01*
X93252380Y-118952380D02*
X93252380Y-118761904D01*
X93300000Y-118666666D01*
X93395238Y-118571428D01*
X93585714Y-118523809D01*
X93919047Y-118523809D01*
X94109523Y-118571428D01*
X94204761Y-118666666D01*
X94252380Y-118761904D01*
X94252380Y-118952380D01*
X94204761Y-119047619D01*
X94109523Y-119142857D01*
X93919047Y-119190476D01*
X93585714Y-119190476D01*
X93395238Y-119142857D01*
X93300000Y-119047619D01*
X93252380Y-118952380D01*
X94252380Y-118047619D02*
X94252380Y-117857142D01*
X94204761Y-117761904D01*
X94157142Y-117714285D01*
X94014285Y-117619047D01*
X93823809Y-117571428D01*
X93442857Y-117571428D01*
X93347619Y-117619047D01*
X93300000Y-117666666D01*
X93252380Y-117761904D01*
X93252380Y-117952380D01*
X93300000Y-118047619D01*
X93347619Y-118095238D01*
X93442857Y-118142857D01*
X93680952Y-118142857D01*
X93776190Y-118095238D01*
X93823809Y-118047619D01*
X93871428Y-117952380D01*
X93871428Y-117761904D01*
X93823809Y-117666666D01*
X93776190Y-117619047D01*
X93680952Y-117571428D01*
%TO.C,J9*%
X71578666Y-46422380D02*
X71578666Y-47136666D01*
X71531047Y-47279523D01*
X71435809Y-47374761D01*
X71292952Y-47422380D01*
X71197714Y-47422380D01*
X72102476Y-47422380D02*
X72292952Y-47422380D01*
X72388190Y-47374761D01*
X72435809Y-47327142D01*
X72531047Y-47184285D01*
X72578666Y-46993809D01*
X72578666Y-46612857D01*
X72531047Y-46517619D01*
X72483428Y-46470000D01*
X72388190Y-46422380D01*
X72197714Y-46422380D01*
X72102476Y-46470000D01*
X72054857Y-46517619D01*
X72007238Y-46612857D01*
X72007238Y-46850952D01*
X72054857Y-46946190D01*
X72102476Y-46993809D01*
X72197714Y-47041428D01*
X72388190Y-47041428D01*
X72483428Y-46993809D01*
X72531047Y-46946190D01*
X72578666Y-46850952D01*
%TO.C,R20*%
X45331142Y-84526380D02*
X44997809Y-84050190D01*
X44759714Y-84526380D02*
X44759714Y-83526380D01*
X45140666Y-83526380D01*
X45235904Y-83574000D01*
X45283523Y-83621619D01*
X45331142Y-83716857D01*
X45331142Y-83859714D01*
X45283523Y-83954952D01*
X45235904Y-84002571D01*
X45140666Y-84050190D01*
X44759714Y-84050190D01*
X45712095Y-83621619D02*
X45759714Y-83574000D01*
X45854952Y-83526380D01*
X46093047Y-83526380D01*
X46188285Y-83574000D01*
X46235904Y-83621619D01*
X46283523Y-83716857D01*
X46283523Y-83812095D01*
X46235904Y-83954952D01*
X45664476Y-84526380D01*
X46283523Y-84526380D01*
X46902571Y-83526380D02*
X46997809Y-83526380D01*
X47093047Y-83574000D01*
X47140666Y-83621619D01*
X47188285Y-83716857D01*
X47235904Y-83907333D01*
X47235904Y-84145428D01*
X47188285Y-84335904D01*
X47140666Y-84431142D01*
X47093047Y-84478761D01*
X46997809Y-84526380D01*
X46902571Y-84526380D01*
X46807333Y-84478761D01*
X46759714Y-84431142D01*
X46712095Y-84335904D01*
X46664476Y-84145428D01*
X46664476Y-83907333D01*
X46712095Y-83716857D01*
X46759714Y-83621619D01*
X46807333Y-83574000D01*
X46902571Y-83526380D01*
%TO.C,R33*%
X117213142Y-40076380D02*
X116879809Y-39600190D01*
X116641714Y-40076380D02*
X116641714Y-39076380D01*
X117022666Y-39076380D01*
X117117904Y-39124000D01*
X117165523Y-39171619D01*
X117213142Y-39266857D01*
X117213142Y-39409714D01*
X117165523Y-39504952D01*
X117117904Y-39552571D01*
X117022666Y-39600190D01*
X116641714Y-39600190D01*
X117546476Y-39076380D02*
X118165523Y-39076380D01*
X117832190Y-39457333D01*
X117975047Y-39457333D01*
X118070285Y-39504952D01*
X118117904Y-39552571D01*
X118165523Y-39647809D01*
X118165523Y-39885904D01*
X118117904Y-39981142D01*
X118070285Y-40028761D01*
X117975047Y-40076380D01*
X117689333Y-40076380D01*
X117594095Y-40028761D01*
X117546476Y-39981142D01*
X118498857Y-39076380D02*
X119117904Y-39076380D01*
X118784571Y-39457333D01*
X118927428Y-39457333D01*
X119022666Y-39504952D01*
X119070285Y-39552571D01*
X119117904Y-39647809D01*
X119117904Y-39885904D01*
X119070285Y-39981142D01*
X119022666Y-40028761D01*
X118927428Y-40076380D01*
X118641714Y-40076380D01*
X118546476Y-40028761D01*
X118498857Y-39981142D01*
%TO.C,R12*%
X111691142Y-46934380D02*
X111357809Y-46458190D01*
X111119714Y-46934380D02*
X111119714Y-45934380D01*
X111500666Y-45934380D01*
X111595904Y-45982000D01*
X111643523Y-46029619D01*
X111691142Y-46124857D01*
X111691142Y-46267714D01*
X111643523Y-46362952D01*
X111595904Y-46410571D01*
X111500666Y-46458190D01*
X111119714Y-46458190D01*
X112643523Y-46934380D02*
X112072095Y-46934380D01*
X112357809Y-46934380D02*
X112357809Y-45934380D01*
X112262571Y-46077238D01*
X112167333Y-46172476D01*
X112072095Y-46220095D01*
X113024476Y-46029619D02*
X113072095Y-45982000D01*
X113167333Y-45934380D01*
X113405428Y-45934380D01*
X113500666Y-45982000D01*
X113548285Y-46029619D01*
X113595904Y-46124857D01*
X113595904Y-46220095D01*
X113548285Y-46362952D01*
X112976857Y-46934380D01*
X113595904Y-46934380D01*
%TO.C,C3*%
X169013142Y-50966666D02*
X169060761Y-51014285D01*
X169108380Y-51157142D01*
X169108380Y-51252380D01*
X169060761Y-51395238D01*
X168965523Y-51490476D01*
X168870285Y-51538095D01*
X168679809Y-51585714D01*
X168536952Y-51585714D01*
X168346476Y-51538095D01*
X168251238Y-51490476D01*
X168156000Y-51395238D01*
X168108380Y-51252380D01*
X168108380Y-51157142D01*
X168156000Y-51014285D01*
X168203619Y-50966666D01*
X168108380Y-50633333D02*
X168108380Y-50014285D01*
X168489333Y-50347619D01*
X168489333Y-50204761D01*
X168536952Y-50109523D01*
X168584571Y-50061904D01*
X168679809Y-50014285D01*
X168917904Y-50014285D01*
X169013142Y-50061904D01*
X169060761Y-50109523D01*
X169108380Y-50204761D01*
X169108380Y-50490476D01*
X169060761Y-50585714D01*
X169013142Y-50633333D01*
%TO.C,C7*%
X116257142Y-57116666D02*
X116304761Y-57164285D01*
X116352380Y-57307142D01*
X116352380Y-57402380D01*
X116304761Y-57545238D01*
X116209523Y-57640476D01*
X116114285Y-57688095D01*
X115923809Y-57735714D01*
X115780952Y-57735714D01*
X115590476Y-57688095D01*
X115495238Y-57640476D01*
X115400000Y-57545238D01*
X115352380Y-57402380D01*
X115352380Y-57307142D01*
X115400000Y-57164285D01*
X115447619Y-57116666D01*
X115352380Y-56783333D02*
X115352380Y-56116666D01*
X116352380Y-56545238D01*
%TO.C,R34*%
X117213142Y-37536380D02*
X116879809Y-37060190D01*
X116641714Y-37536380D02*
X116641714Y-36536380D01*
X117022666Y-36536380D01*
X117117904Y-36584000D01*
X117165523Y-36631619D01*
X117213142Y-36726857D01*
X117213142Y-36869714D01*
X117165523Y-36964952D01*
X117117904Y-37012571D01*
X117022666Y-37060190D01*
X116641714Y-37060190D01*
X117546476Y-36536380D02*
X118165523Y-36536380D01*
X117832190Y-36917333D01*
X117975047Y-36917333D01*
X118070285Y-36964952D01*
X118117904Y-37012571D01*
X118165523Y-37107809D01*
X118165523Y-37345904D01*
X118117904Y-37441142D01*
X118070285Y-37488761D01*
X117975047Y-37536380D01*
X117689333Y-37536380D01*
X117594095Y-37488761D01*
X117546476Y-37441142D01*
X119022666Y-36869714D02*
X119022666Y-37536380D01*
X118784571Y-36488761D02*
X118546476Y-37203047D01*
X119165523Y-37203047D01*
%TO.C,C12*%
X37457142Y-90457142D02*
X37409523Y-90504761D01*
X37266666Y-90552380D01*
X37171428Y-90552380D01*
X37028571Y-90504761D01*
X36933333Y-90409523D01*
X36885714Y-90314285D01*
X36838095Y-90123809D01*
X36838095Y-89980952D01*
X36885714Y-89790476D01*
X36933333Y-89695238D01*
X37028571Y-89600000D01*
X37171428Y-89552380D01*
X37266666Y-89552380D01*
X37409523Y-89600000D01*
X37457142Y-89647619D01*
X38409523Y-90552380D02*
X37838095Y-90552380D01*
X38123809Y-90552380D02*
X38123809Y-89552380D01*
X38028571Y-89695238D01*
X37933333Y-89790476D01*
X37838095Y-89838095D01*
X38790476Y-89647619D02*
X38838095Y-89600000D01*
X38933333Y-89552380D01*
X39171428Y-89552380D01*
X39266666Y-89600000D01*
X39314285Y-89647619D01*
X39361904Y-89742857D01*
X39361904Y-89838095D01*
X39314285Y-89980952D01*
X38742857Y-90552380D01*
X39361904Y-90552380D01*
%TO.C,C15*%
X66413142Y-82399142D02*
X66365523Y-82446761D01*
X66222666Y-82494380D01*
X66127428Y-82494380D01*
X65984571Y-82446761D01*
X65889333Y-82351523D01*
X65841714Y-82256285D01*
X65794095Y-82065809D01*
X65794095Y-81922952D01*
X65841714Y-81732476D01*
X65889333Y-81637238D01*
X65984571Y-81542000D01*
X66127428Y-81494380D01*
X66222666Y-81494380D01*
X66365523Y-81542000D01*
X66413142Y-81589619D01*
X67365523Y-82494380D02*
X66794095Y-82494380D01*
X67079809Y-82494380D02*
X67079809Y-81494380D01*
X66984571Y-81637238D01*
X66889333Y-81732476D01*
X66794095Y-81780095D01*
X68270285Y-81494380D02*
X67794095Y-81494380D01*
X67746476Y-81970571D01*
X67794095Y-81922952D01*
X67889333Y-81875333D01*
X68127428Y-81875333D01*
X68222666Y-81922952D01*
X68270285Y-81970571D01*
X68317904Y-82065809D01*
X68317904Y-82303904D01*
X68270285Y-82399142D01*
X68222666Y-82446761D01*
X68127428Y-82494380D01*
X67889333Y-82494380D01*
X67794095Y-82446761D01*
X67746476Y-82399142D01*
%TO.C,R36*%
X96639142Y-37536380D02*
X96305809Y-37060190D01*
X96067714Y-37536380D02*
X96067714Y-36536380D01*
X96448666Y-36536380D01*
X96543904Y-36584000D01*
X96591523Y-36631619D01*
X96639142Y-36726857D01*
X96639142Y-36869714D01*
X96591523Y-36964952D01*
X96543904Y-37012571D01*
X96448666Y-37060190D01*
X96067714Y-37060190D01*
X96972476Y-36536380D02*
X97591523Y-36536380D01*
X97258190Y-36917333D01*
X97401047Y-36917333D01*
X97496285Y-36964952D01*
X97543904Y-37012571D01*
X97591523Y-37107809D01*
X97591523Y-37345904D01*
X97543904Y-37441142D01*
X97496285Y-37488761D01*
X97401047Y-37536380D01*
X97115333Y-37536380D01*
X97020095Y-37488761D01*
X96972476Y-37441142D01*
X98448666Y-36536380D02*
X98258190Y-36536380D01*
X98162952Y-36584000D01*
X98115333Y-36631619D01*
X98020095Y-36774476D01*
X97972476Y-36964952D01*
X97972476Y-37345904D01*
X98020095Y-37441142D01*
X98067714Y-37488761D01*
X98162952Y-37536380D01*
X98353428Y-37536380D01*
X98448666Y-37488761D01*
X98496285Y-37441142D01*
X98543904Y-37345904D01*
X98543904Y-37107809D01*
X98496285Y-37012571D01*
X98448666Y-36964952D01*
X98353428Y-36917333D01*
X98162952Y-36917333D01*
X98067714Y-36964952D01*
X98020095Y-37012571D01*
X97972476Y-37107809D01*
%TO.C,R7*%
X40473333Y-53030380D02*
X40140000Y-52554190D01*
X39901904Y-53030380D02*
X39901904Y-52030380D01*
X40282857Y-52030380D01*
X40378095Y-52078000D01*
X40425714Y-52125619D01*
X40473333Y-52220857D01*
X40473333Y-52363714D01*
X40425714Y-52458952D01*
X40378095Y-52506571D01*
X40282857Y-52554190D01*
X39901904Y-52554190D01*
X40806666Y-52030380D02*
X41473333Y-52030380D01*
X41044761Y-53030380D01*
%TO.C,J_IV1*%
X148224047Y-31182380D02*
X148224047Y-31896666D01*
X148176428Y-32039523D01*
X148081190Y-32134761D01*
X147938333Y-32182380D01*
X147843095Y-32182380D01*
X148462142Y-32277619D02*
X149224047Y-32277619D01*
X149462142Y-32182380D02*
X149462142Y-31182380D01*
X149795476Y-31182380D02*
X150128809Y-32182380D01*
X150462142Y-31182380D01*
X151319285Y-32182380D02*
X150747857Y-32182380D01*
X151033571Y-32182380D02*
X151033571Y-31182380D01*
X150938333Y-31325238D01*
X150843095Y-31420476D01*
X150747857Y-31468095D01*
%TO.C,C18*%
X64635142Y-80621142D02*
X64587523Y-80668761D01*
X64444666Y-80716380D01*
X64349428Y-80716380D01*
X64206571Y-80668761D01*
X64111333Y-80573523D01*
X64063714Y-80478285D01*
X64016095Y-80287809D01*
X64016095Y-80144952D01*
X64063714Y-79954476D01*
X64111333Y-79859238D01*
X64206571Y-79764000D01*
X64349428Y-79716380D01*
X64444666Y-79716380D01*
X64587523Y-79764000D01*
X64635142Y-79811619D01*
X65587523Y-80716380D02*
X65016095Y-80716380D01*
X65301809Y-80716380D02*
X65301809Y-79716380D01*
X65206571Y-79859238D01*
X65111333Y-79954476D01*
X65016095Y-80002095D01*
X66158952Y-80144952D02*
X66063714Y-80097333D01*
X66016095Y-80049714D01*
X65968476Y-79954476D01*
X65968476Y-79906857D01*
X66016095Y-79811619D01*
X66063714Y-79764000D01*
X66158952Y-79716380D01*
X66349428Y-79716380D01*
X66444666Y-79764000D01*
X66492285Y-79811619D01*
X66539904Y-79906857D01*
X66539904Y-79954476D01*
X66492285Y-80049714D01*
X66444666Y-80097333D01*
X66349428Y-80144952D01*
X66158952Y-80144952D01*
X66063714Y-80192571D01*
X66016095Y-80240190D01*
X65968476Y-80335428D01*
X65968476Y-80525904D01*
X66016095Y-80621142D01*
X66063714Y-80668761D01*
X66158952Y-80716380D01*
X66349428Y-80716380D01*
X66444666Y-80668761D01*
X66492285Y-80621142D01*
X66539904Y-80525904D01*
X66539904Y-80335428D01*
X66492285Y-80240190D01*
X66444666Y-80192571D01*
X66349428Y-80144952D01*
%TO.C,RV1*%
X174908761Y-54521380D02*
X174575428Y-54045190D01*
X174337333Y-54521380D02*
X174337333Y-53521380D01*
X174718285Y-53521380D01*
X174813523Y-53569000D01*
X174861142Y-53616619D01*
X174908761Y-53711857D01*
X174908761Y-53854714D01*
X174861142Y-53949952D01*
X174813523Y-53997571D01*
X174718285Y-54045190D01*
X174337333Y-54045190D01*
X175194476Y-53521380D02*
X175527809Y-54521380D01*
X175861142Y-53521380D01*
X176718285Y-54521380D02*
X176146857Y-54521380D01*
X176432571Y-54521380D02*
X176432571Y-53521380D01*
X176337333Y-53664238D01*
X176242095Y-53759476D01*
X176146857Y-53807095D01*
%TO.C,R15*%
X113852380Y-58092857D02*
X113376190Y-58426190D01*
X113852380Y-58664285D02*
X112852380Y-58664285D01*
X112852380Y-58283333D01*
X112900000Y-58188095D01*
X112947619Y-58140476D01*
X113042857Y-58092857D01*
X113185714Y-58092857D01*
X113280952Y-58140476D01*
X113328571Y-58188095D01*
X113376190Y-58283333D01*
X113376190Y-58664285D01*
X113852380Y-57140476D02*
X113852380Y-57711904D01*
X113852380Y-57426190D02*
X112852380Y-57426190D01*
X112995238Y-57521428D01*
X113090476Y-57616666D01*
X113138095Y-57711904D01*
X112852380Y-56235714D02*
X112852380Y-56711904D01*
X113328571Y-56759523D01*
X113280952Y-56711904D01*
X113233333Y-56616666D01*
X113233333Y-56378571D01*
X113280952Y-56283333D01*
X113328571Y-56235714D01*
X113423809Y-56188095D01*
X113661904Y-56188095D01*
X113757142Y-56235714D01*
X113804761Y-56283333D01*
X113852380Y-56378571D01*
X113852380Y-56616666D01*
X113804761Y-56711904D01*
X113757142Y-56759523D01*
%TO.C,D3*%
X35411904Y-57302380D02*
X35411904Y-56302380D01*
X35650000Y-56302380D01*
X35792857Y-56350000D01*
X35888095Y-56445238D01*
X35935714Y-56540476D01*
X35983333Y-56730952D01*
X35983333Y-56873809D01*
X35935714Y-57064285D01*
X35888095Y-57159523D01*
X35792857Y-57254761D01*
X35650000Y-57302380D01*
X35411904Y-57302380D01*
X36316666Y-56302380D02*
X36935714Y-56302380D01*
X36602380Y-56683333D01*
X36745238Y-56683333D01*
X36840476Y-56730952D01*
X36888095Y-56778571D01*
X36935714Y-56873809D01*
X36935714Y-57111904D01*
X36888095Y-57207142D01*
X36840476Y-57254761D01*
X36745238Y-57302380D01*
X36459523Y-57302380D01*
X36364285Y-57254761D01*
X36316666Y-57207142D01*
%TO.C,R10*%
X167076380Y-60840857D02*
X166600190Y-61174190D01*
X167076380Y-61412285D02*
X166076380Y-61412285D01*
X166076380Y-61031333D01*
X166124000Y-60936095D01*
X166171619Y-60888476D01*
X166266857Y-60840857D01*
X166409714Y-60840857D01*
X166504952Y-60888476D01*
X166552571Y-60936095D01*
X166600190Y-61031333D01*
X166600190Y-61412285D01*
X167076380Y-59888476D02*
X167076380Y-60459904D01*
X167076380Y-60174190D02*
X166076380Y-60174190D01*
X166219238Y-60269428D01*
X166314476Y-60364666D01*
X166362095Y-60459904D01*
X166076380Y-59269428D02*
X166076380Y-59174190D01*
X166124000Y-59078952D01*
X166171619Y-59031333D01*
X166266857Y-58983714D01*
X166457333Y-58936095D01*
X166695428Y-58936095D01*
X166885904Y-58983714D01*
X166981142Y-59031333D01*
X167028761Y-59078952D01*
X167076380Y-59174190D01*
X167076380Y-59269428D01*
X167028761Y-59364666D01*
X166981142Y-59412285D01*
X166885904Y-59459904D01*
X166695428Y-59507523D01*
X166457333Y-59507523D01*
X166266857Y-59459904D01*
X166171619Y-59412285D01*
X166124000Y-59364666D01*
X166076380Y-59269428D01*
%TO.C,R4*%
X118451333Y-125928380D02*
X118118000Y-125452190D01*
X117879904Y-125928380D02*
X117879904Y-124928380D01*
X118260857Y-124928380D01*
X118356095Y-124976000D01*
X118403714Y-125023619D01*
X118451333Y-125118857D01*
X118451333Y-125261714D01*
X118403714Y-125356952D01*
X118356095Y-125404571D01*
X118260857Y-125452190D01*
X117879904Y-125452190D01*
X119308476Y-125261714D02*
X119308476Y-125928380D01*
X119070380Y-124880761D02*
X118832285Y-125595047D01*
X119451333Y-125595047D01*
%TO.C,J10*%
X89190476Y-49477380D02*
X89190476Y-50191666D01*
X89142857Y-50334523D01*
X89047619Y-50429761D01*
X88904761Y-50477380D01*
X88809523Y-50477380D01*
X90190476Y-50477380D02*
X89619047Y-50477380D01*
X89904761Y-50477380D02*
X89904761Y-49477380D01*
X89809523Y-49620238D01*
X89714285Y-49715476D01*
X89619047Y-49763095D01*
X90809523Y-49477380D02*
X90904761Y-49477380D01*
X91000000Y-49525000D01*
X91047619Y-49572619D01*
X91095238Y-49667857D01*
X91142857Y-49858333D01*
X91142857Y-50096428D01*
X91095238Y-50286904D01*
X91047619Y-50382142D01*
X91000000Y-50429761D01*
X90904761Y-50477380D01*
X90809523Y-50477380D01*
X90714285Y-50429761D01*
X90666666Y-50382142D01*
X90619047Y-50286904D01*
X90571428Y-50096428D01*
X90571428Y-49858333D01*
X90619047Y-49667857D01*
X90666666Y-49572619D01*
X90714285Y-49525000D01*
X90809523Y-49477380D01*
%TO.C,C5*%
X109007142Y-57116666D02*
X109054761Y-57164285D01*
X109102380Y-57307142D01*
X109102380Y-57402380D01*
X109054761Y-57545238D01*
X108959523Y-57640476D01*
X108864285Y-57688095D01*
X108673809Y-57735714D01*
X108530952Y-57735714D01*
X108340476Y-57688095D01*
X108245238Y-57640476D01*
X108150000Y-57545238D01*
X108102380Y-57402380D01*
X108102380Y-57307142D01*
X108150000Y-57164285D01*
X108197619Y-57116666D01*
X108102380Y-56211904D02*
X108102380Y-56688095D01*
X108578571Y-56735714D01*
X108530952Y-56688095D01*
X108483333Y-56592857D01*
X108483333Y-56354761D01*
X108530952Y-56259523D01*
X108578571Y-56211904D01*
X108673809Y-56164285D01*
X108911904Y-56164285D01*
X109007142Y-56211904D01*
X109054761Y-56259523D01*
X109102380Y-56354761D01*
X109102380Y-56592857D01*
X109054761Y-56688095D01*
X109007142Y-56735714D01*
%TO.C,R18*%
X45207142Y-79446380D02*
X44873809Y-78970190D01*
X44635714Y-79446380D02*
X44635714Y-78446380D01*
X45016666Y-78446380D01*
X45111904Y-78494000D01*
X45159523Y-78541619D01*
X45207142Y-78636857D01*
X45207142Y-78779714D01*
X45159523Y-78874952D01*
X45111904Y-78922571D01*
X45016666Y-78970190D01*
X44635714Y-78970190D01*
X46159523Y-79446380D02*
X45588095Y-79446380D01*
X45873809Y-79446380D02*
X45873809Y-78446380D01*
X45778571Y-78589238D01*
X45683333Y-78684476D01*
X45588095Y-78732095D01*
X46730952Y-78874952D02*
X46635714Y-78827333D01*
X46588095Y-78779714D01*
X46540476Y-78684476D01*
X46540476Y-78636857D01*
X46588095Y-78541619D01*
X46635714Y-78494000D01*
X46730952Y-78446380D01*
X46921428Y-78446380D01*
X47016666Y-78494000D01*
X47064285Y-78541619D01*
X47111904Y-78636857D01*
X47111904Y-78684476D01*
X47064285Y-78779714D01*
X47016666Y-78827333D01*
X46921428Y-78874952D01*
X46730952Y-78874952D01*
X46635714Y-78922571D01*
X46588095Y-78970190D01*
X46540476Y-79065428D01*
X46540476Y-79255904D01*
X46588095Y-79351142D01*
X46635714Y-79398761D01*
X46730952Y-79446380D01*
X46921428Y-79446380D01*
X47016666Y-79398761D01*
X47064285Y-79351142D01*
X47111904Y-79255904D01*
X47111904Y-79065428D01*
X47064285Y-78970190D01*
X47016666Y-78922571D01*
X46921428Y-78874952D01*
%TO.C,R41*%
X35171142Y-40076380D02*
X34837809Y-39600190D01*
X34599714Y-40076380D02*
X34599714Y-39076380D01*
X34980666Y-39076380D01*
X35075904Y-39124000D01*
X35123523Y-39171619D01*
X35171142Y-39266857D01*
X35171142Y-39409714D01*
X35123523Y-39504952D01*
X35075904Y-39552571D01*
X34980666Y-39600190D01*
X34599714Y-39600190D01*
X36028285Y-39409714D02*
X36028285Y-40076380D01*
X35790190Y-39028761D02*
X35552095Y-39743047D01*
X36171142Y-39743047D01*
X37075904Y-40076380D02*
X36504476Y-40076380D01*
X36790190Y-40076380D02*
X36790190Y-39076380D01*
X36694952Y-39219238D01*
X36599714Y-39314476D01*
X36504476Y-39362095D01*
%TO.C,R42*%
X35171142Y-37536380D02*
X34837809Y-37060190D01*
X34599714Y-37536380D02*
X34599714Y-36536380D01*
X34980666Y-36536380D01*
X35075904Y-36584000D01*
X35123523Y-36631619D01*
X35171142Y-36726857D01*
X35171142Y-36869714D01*
X35123523Y-36964952D01*
X35075904Y-37012571D01*
X34980666Y-37060190D01*
X34599714Y-37060190D01*
X36028285Y-36869714D02*
X36028285Y-37536380D01*
X35790190Y-36488761D02*
X35552095Y-37203047D01*
X36171142Y-37203047D01*
X36504476Y-36631619D02*
X36552095Y-36584000D01*
X36647333Y-36536380D01*
X36885428Y-36536380D01*
X36980666Y-36584000D01*
X37028285Y-36631619D01*
X37075904Y-36726857D01*
X37075904Y-36822095D01*
X37028285Y-36964952D01*
X36456857Y-37536380D01*
X37075904Y-37536380D01*
%TO.C,R35*%
X96639142Y-40076380D02*
X96305809Y-39600190D01*
X96067714Y-40076380D02*
X96067714Y-39076380D01*
X96448666Y-39076380D01*
X96543904Y-39124000D01*
X96591523Y-39171619D01*
X96639142Y-39266857D01*
X96639142Y-39409714D01*
X96591523Y-39504952D01*
X96543904Y-39552571D01*
X96448666Y-39600190D01*
X96067714Y-39600190D01*
X96972476Y-39076380D02*
X97591523Y-39076380D01*
X97258190Y-39457333D01*
X97401047Y-39457333D01*
X97496285Y-39504952D01*
X97543904Y-39552571D01*
X97591523Y-39647809D01*
X97591523Y-39885904D01*
X97543904Y-39981142D01*
X97496285Y-40028761D01*
X97401047Y-40076380D01*
X97115333Y-40076380D01*
X97020095Y-40028761D01*
X96972476Y-39981142D01*
X98496285Y-39076380D02*
X98020095Y-39076380D01*
X97972476Y-39552571D01*
X98020095Y-39504952D01*
X98115333Y-39457333D01*
X98353428Y-39457333D01*
X98448666Y-39504952D01*
X98496285Y-39552571D01*
X98543904Y-39647809D01*
X98543904Y-39885904D01*
X98496285Y-39981142D01*
X98448666Y-40028761D01*
X98353428Y-40076380D01*
X98115333Y-40076380D01*
X98020095Y-40028761D01*
X97972476Y-39981142D01*
%TO.C,J_X1*%
X29035523Y-44410380D02*
X29035523Y-45124666D01*
X28987904Y-45267523D01*
X28892666Y-45362761D01*
X28749809Y-45410380D01*
X28654571Y-45410380D01*
X29273619Y-45505619D02*
X30035523Y-45505619D01*
X30178380Y-44410380D02*
X30845047Y-45410380D01*
X30845047Y-44410380D02*
X30178380Y-45410380D01*
X31749809Y-45410380D02*
X31178380Y-45410380D01*
X31464095Y-45410380D02*
X31464095Y-44410380D01*
X31368857Y-44553238D01*
X31273619Y-44648476D01*
X31178380Y-44696095D01*
%TO.C,J20*%
X79590476Y-83602380D02*
X79590476Y-84316666D01*
X79542857Y-84459523D01*
X79447619Y-84554761D01*
X79304761Y-84602380D01*
X79209523Y-84602380D01*
X80019047Y-83697619D02*
X80066666Y-83650000D01*
X80161904Y-83602380D01*
X80400000Y-83602380D01*
X80495238Y-83650000D01*
X80542857Y-83697619D01*
X80590476Y-83792857D01*
X80590476Y-83888095D01*
X80542857Y-84030952D01*
X79971428Y-84602380D01*
X80590476Y-84602380D01*
X81209523Y-83602380D02*
X81304761Y-83602380D01*
X81400000Y-83650000D01*
X81447619Y-83697619D01*
X81495238Y-83792857D01*
X81542857Y-83983333D01*
X81542857Y-84221428D01*
X81495238Y-84411904D01*
X81447619Y-84507142D01*
X81400000Y-84554761D01*
X81304761Y-84602380D01*
X81209523Y-84602380D01*
X81114285Y-84554761D01*
X81066666Y-84507142D01*
X81019047Y-84411904D01*
X80971428Y-84221428D01*
X80971428Y-83983333D01*
X81019047Y-83792857D01*
X81066666Y-83697619D01*
X81114285Y-83650000D01*
X81209523Y-83602380D01*
%TO.C,D1*%
X187910380Y-46150095D02*
X186910380Y-46150095D01*
X186910380Y-45912000D01*
X186958000Y-45769142D01*
X187053238Y-45673904D01*
X187148476Y-45626285D01*
X187338952Y-45578666D01*
X187481809Y-45578666D01*
X187672285Y-45626285D01*
X187767523Y-45673904D01*
X187862761Y-45769142D01*
X187910380Y-45912000D01*
X187910380Y-46150095D01*
X187910380Y-44626285D02*
X187910380Y-45197714D01*
X187910380Y-44912000D02*
X186910380Y-44912000D01*
X187053238Y-45007238D01*
X187148476Y-45102476D01*
X187196095Y-45197714D01*
X187844880Y-40393904D02*
X186844880Y-40393904D01*
X187844880Y-39822476D02*
X187273452Y-40251047D01*
X186844880Y-39822476D02*
X187416309Y-40393904D01*
%TO.C,R39*%
X55237142Y-40076380D02*
X54903809Y-39600190D01*
X54665714Y-40076380D02*
X54665714Y-39076380D01*
X55046666Y-39076380D01*
X55141904Y-39124000D01*
X55189523Y-39171619D01*
X55237142Y-39266857D01*
X55237142Y-39409714D01*
X55189523Y-39504952D01*
X55141904Y-39552571D01*
X55046666Y-39600190D01*
X54665714Y-39600190D01*
X55570476Y-39076380D02*
X56189523Y-39076380D01*
X55856190Y-39457333D01*
X55999047Y-39457333D01*
X56094285Y-39504952D01*
X56141904Y-39552571D01*
X56189523Y-39647809D01*
X56189523Y-39885904D01*
X56141904Y-39981142D01*
X56094285Y-40028761D01*
X55999047Y-40076380D01*
X55713333Y-40076380D01*
X55618095Y-40028761D01*
X55570476Y-39981142D01*
X56665714Y-40076380D02*
X56856190Y-40076380D01*
X56951428Y-40028761D01*
X56999047Y-39981142D01*
X57094285Y-39838285D01*
X57141904Y-39647809D01*
X57141904Y-39266857D01*
X57094285Y-39171619D01*
X57046666Y-39124000D01*
X56951428Y-39076380D01*
X56760952Y-39076380D01*
X56665714Y-39124000D01*
X56618095Y-39171619D01*
X56570476Y-39266857D01*
X56570476Y-39504952D01*
X56618095Y-39600190D01*
X56665714Y-39647809D01*
X56760952Y-39695428D01*
X56951428Y-39695428D01*
X57046666Y-39647809D01*
X57094285Y-39600190D01*
X57141904Y-39504952D01*
%TO.C,R14*%
X127252380Y-58554857D02*
X126776190Y-58888190D01*
X127252380Y-59126285D02*
X126252380Y-59126285D01*
X126252380Y-58745333D01*
X126300000Y-58650095D01*
X126347619Y-58602476D01*
X126442857Y-58554857D01*
X126585714Y-58554857D01*
X126680952Y-58602476D01*
X126728571Y-58650095D01*
X126776190Y-58745333D01*
X126776190Y-59126285D01*
X127252380Y-57602476D02*
X127252380Y-58173904D01*
X127252380Y-57888190D02*
X126252380Y-57888190D01*
X126395238Y-57983428D01*
X126490476Y-58078666D01*
X126538095Y-58173904D01*
X126585714Y-56745333D02*
X127252380Y-56745333D01*
X126204761Y-56983428D02*
X126919047Y-57221523D01*
X126919047Y-56602476D01*
%TO.C,J15*%
X69802476Y-93686380D02*
X69802476Y-94400666D01*
X69754857Y-94543523D01*
X69659619Y-94638761D01*
X69516761Y-94686380D01*
X69421523Y-94686380D01*
X70802476Y-94686380D02*
X70231047Y-94686380D01*
X70516761Y-94686380D02*
X70516761Y-93686380D01*
X70421523Y-93829238D01*
X70326285Y-93924476D01*
X70231047Y-93972095D01*
X71707238Y-93686380D02*
X71231047Y-93686380D01*
X71183428Y-94162571D01*
X71231047Y-94114952D01*
X71326285Y-94067333D01*
X71564380Y-94067333D01*
X71659619Y-94114952D01*
X71707238Y-94162571D01*
X71754857Y-94257809D01*
X71754857Y-94495904D01*
X71707238Y-94591142D01*
X71659619Y-94638761D01*
X71564380Y-94686380D01*
X71326285Y-94686380D01*
X71231047Y-94638761D01*
X71183428Y-94591142D01*
%TO.C,R2*%
X101941333Y-125674380D02*
X101608000Y-125198190D01*
X101369904Y-125674380D02*
X101369904Y-124674380D01*
X101750857Y-124674380D01*
X101846095Y-124722000D01*
X101893714Y-124769619D01*
X101941333Y-124864857D01*
X101941333Y-125007714D01*
X101893714Y-125102952D01*
X101846095Y-125150571D01*
X101750857Y-125198190D01*
X101369904Y-125198190D01*
X102322285Y-124769619D02*
X102369904Y-124722000D01*
X102465142Y-124674380D01*
X102703238Y-124674380D01*
X102798476Y-124722000D01*
X102846095Y-124769619D01*
X102893714Y-124864857D01*
X102893714Y-124960095D01*
X102846095Y-125102952D01*
X102274666Y-125674380D01*
X102893714Y-125674380D01*
%TO.C,JRP4020L_1*%
X81132190Y-80986380D02*
X81132190Y-81700666D01*
X81084571Y-81843523D01*
X80989333Y-81938761D01*
X80846476Y-81986380D01*
X80751238Y-81986380D01*
X82179809Y-81986380D02*
X81846476Y-81510190D01*
X81608380Y-81986380D02*
X81608380Y-80986380D01*
X81989333Y-80986380D01*
X82084571Y-81034000D01*
X82132190Y-81081619D01*
X82179809Y-81176857D01*
X82179809Y-81319714D01*
X82132190Y-81414952D01*
X82084571Y-81462571D01*
X81989333Y-81510190D01*
X81608380Y-81510190D01*
X82608380Y-81986380D02*
X82608380Y-80986380D01*
X82989333Y-80986380D01*
X83084571Y-81034000D01*
X83132190Y-81081619D01*
X83179809Y-81176857D01*
X83179809Y-81319714D01*
X83132190Y-81414952D01*
X83084571Y-81462571D01*
X82989333Y-81510190D01*
X82608380Y-81510190D01*
X84036952Y-81319714D02*
X84036952Y-81986380D01*
X83798857Y-80938761D02*
X83560761Y-81653047D01*
X84179809Y-81653047D01*
X84751238Y-80986380D02*
X84846476Y-80986380D01*
X84941714Y-81034000D01*
X84989333Y-81081619D01*
X85036952Y-81176857D01*
X85084571Y-81367333D01*
X85084571Y-81605428D01*
X85036952Y-81795904D01*
X84989333Y-81891142D01*
X84941714Y-81938761D01*
X84846476Y-81986380D01*
X84751238Y-81986380D01*
X84656000Y-81938761D01*
X84608380Y-81891142D01*
X84560761Y-81795904D01*
X84513142Y-81605428D01*
X84513142Y-81367333D01*
X84560761Y-81176857D01*
X84608380Y-81081619D01*
X84656000Y-81034000D01*
X84751238Y-80986380D01*
X85465523Y-81081619D02*
X85513142Y-81034000D01*
X85608380Y-80986380D01*
X85846476Y-80986380D01*
X85941714Y-81034000D01*
X85989333Y-81081619D01*
X86036952Y-81176857D01*
X86036952Y-81272095D01*
X85989333Y-81414952D01*
X85417904Y-81986380D01*
X86036952Y-81986380D01*
X86656000Y-80986380D02*
X86751238Y-80986380D01*
X86846476Y-81034000D01*
X86894095Y-81081619D01*
X86941714Y-81176857D01*
X86989333Y-81367333D01*
X86989333Y-81605428D01*
X86941714Y-81795904D01*
X86894095Y-81891142D01*
X86846476Y-81938761D01*
X86751238Y-81986380D01*
X86656000Y-81986380D01*
X86560761Y-81938761D01*
X86513142Y-81891142D01*
X86465523Y-81795904D01*
X86417904Y-81605428D01*
X86417904Y-81367333D01*
X86465523Y-81176857D01*
X86513142Y-81081619D01*
X86560761Y-81034000D01*
X86656000Y-80986380D01*
X87894095Y-81986380D02*
X87417904Y-81986380D01*
X87417904Y-80986380D01*
X87989333Y-82081619D02*
X88751238Y-82081619D01*
X89513142Y-81986380D02*
X88941714Y-81986380D01*
X89227428Y-81986380D02*
X89227428Y-80986380D01*
X89132190Y-81129238D01*
X89036952Y-81224476D01*
X88941714Y-81272095D01*
%TO.C,R40*%
X55237142Y-37536380D02*
X54903809Y-37060190D01*
X54665714Y-37536380D02*
X54665714Y-36536380D01*
X55046666Y-36536380D01*
X55141904Y-36584000D01*
X55189523Y-36631619D01*
X55237142Y-36726857D01*
X55237142Y-36869714D01*
X55189523Y-36964952D01*
X55141904Y-37012571D01*
X55046666Y-37060190D01*
X54665714Y-37060190D01*
X56094285Y-36869714D02*
X56094285Y-37536380D01*
X55856190Y-36488761D02*
X55618095Y-37203047D01*
X56237142Y-37203047D01*
X56808571Y-36536380D02*
X56903809Y-36536380D01*
X56999047Y-36584000D01*
X57046666Y-36631619D01*
X57094285Y-36726857D01*
X57141904Y-36917333D01*
X57141904Y-37155428D01*
X57094285Y-37345904D01*
X57046666Y-37441142D01*
X56999047Y-37488761D01*
X56903809Y-37536380D01*
X56808571Y-37536380D01*
X56713333Y-37488761D01*
X56665714Y-37441142D01*
X56618095Y-37345904D01*
X56570476Y-37155428D01*
X56570476Y-36917333D01*
X56618095Y-36726857D01*
X56665714Y-36631619D01*
X56713333Y-36584000D01*
X56808571Y-36536380D01*
%TO.C,R8*%
X169108380Y-47156666D02*
X168632190Y-47490000D01*
X169108380Y-47728095D02*
X168108380Y-47728095D01*
X168108380Y-47347142D01*
X168156000Y-47251904D01*
X168203619Y-47204285D01*
X168298857Y-47156666D01*
X168441714Y-47156666D01*
X168536952Y-47204285D01*
X168584571Y-47251904D01*
X168632190Y-47347142D01*
X168632190Y-47728095D01*
X168536952Y-46585238D02*
X168489333Y-46680476D01*
X168441714Y-46728095D01*
X168346476Y-46775714D01*
X168298857Y-46775714D01*
X168203619Y-46728095D01*
X168156000Y-46680476D01*
X168108380Y-46585238D01*
X168108380Y-46394761D01*
X168156000Y-46299523D01*
X168203619Y-46251904D01*
X168298857Y-46204285D01*
X168346476Y-46204285D01*
X168441714Y-46251904D01*
X168489333Y-46299523D01*
X168536952Y-46394761D01*
X168536952Y-46585238D01*
X168584571Y-46680476D01*
X168632190Y-46728095D01*
X168727428Y-46775714D01*
X168917904Y-46775714D01*
X169013142Y-46728095D01*
X169060761Y-46680476D01*
X169108380Y-46585238D01*
X169108380Y-46394761D01*
X169060761Y-46299523D01*
X169013142Y-46251904D01*
X168917904Y-46204285D01*
X168727428Y-46204285D01*
X168632190Y-46251904D01*
X168584571Y-46299523D01*
X168536952Y-46394761D01*
%TO.C,SW1*%
X101066666Y-106516761D02*
X101209523Y-106564380D01*
X101447619Y-106564380D01*
X101542857Y-106516761D01*
X101590476Y-106469142D01*
X101638095Y-106373904D01*
X101638095Y-106278666D01*
X101590476Y-106183428D01*
X101542857Y-106135809D01*
X101447619Y-106088190D01*
X101257142Y-106040571D01*
X101161904Y-105992952D01*
X101114285Y-105945333D01*
X101066666Y-105850095D01*
X101066666Y-105754857D01*
X101114285Y-105659619D01*
X101161904Y-105612000D01*
X101257142Y-105564380D01*
X101495238Y-105564380D01*
X101638095Y-105612000D01*
X101971428Y-105564380D02*
X102209523Y-106564380D01*
X102400000Y-105850095D01*
X102590476Y-106564380D01*
X102828571Y-105564380D01*
X103733333Y-106564380D02*
X103161904Y-106564380D01*
X103447619Y-106564380D02*
X103447619Y-105564380D01*
X103352380Y-105707238D01*
X103257142Y-105802476D01*
X103161904Y-105850095D01*
%TO.C,C8*%
X38695333Y-77065142D02*
X38647714Y-77112761D01*
X38504857Y-77160380D01*
X38409619Y-77160380D01*
X38266761Y-77112761D01*
X38171523Y-77017523D01*
X38123904Y-76922285D01*
X38076285Y-76731809D01*
X38076285Y-76588952D01*
X38123904Y-76398476D01*
X38171523Y-76303238D01*
X38266761Y-76208000D01*
X38409619Y-76160380D01*
X38504857Y-76160380D01*
X38647714Y-76208000D01*
X38695333Y-76255619D01*
X39266761Y-76588952D02*
X39171523Y-76541333D01*
X39123904Y-76493714D01*
X39076285Y-76398476D01*
X39076285Y-76350857D01*
X39123904Y-76255619D01*
X39171523Y-76208000D01*
X39266761Y-76160380D01*
X39457238Y-76160380D01*
X39552476Y-76208000D01*
X39600095Y-76255619D01*
X39647714Y-76350857D01*
X39647714Y-76398476D01*
X39600095Y-76493714D01*
X39552476Y-76541333D01*
X39457238Y-76588952D01*
X39266761Y-76588952D01*
X39171523Y-76636571D01*
X39123904Y-76684190D01*
X39076285Y-76779428D01*
X39076285Y-76969904D01*
X39123904Y-77065142D01*
X39171523Y-77112761D01*
X39266761Y-77160380D01*
X39457238Y-77160380D01*
X39552476Y-77112761D01*
X39600095Y-77065142D01*
X39647714Y-76969904D01*
X39647714Y-76779428D01*
X39600095Y-76684190D01*
X39552476Y-76636571D01*
X39457238Y-76588952D01*
%TO.C,R11*%
X120407142Y-46934380D02*
X120073809Y-46458190D01*
X119835714Y-46934380D02*
X119835714Y-45934380D01*
X120216666Y-45934380D01*
X120311904Y-45982000D01*
X120359523Y-46029619D01*
X120407142Y-46124857D01*
X120407142Y-46267714D01*
X120359523Y-46362952D01*
X120311904Y-46410571D01*
X120216666Y-46458190D01*
X119835714Y-46458190D01*
X121359523Y-46934380D02*
X120788095Y-46934380D01*
X121073809Y-46934380D02*
X121073809Y-45934380D01*
X120978571Y-46077238D01*
X120883333Y-46172476D01*
X120788095Y-46220095D01*
X122311904Y-46934380D02*
X121740476Y-46934380D01*
X122026190Y-46934380D02*
X122026190Y-45934380D01*
X121930952Y-46077238D01*
X121835714Y-46172476D01*
X121740476Y-46220095D01*
%TO.C,L1*%
X141819333Y-106450380D02*
X141343142Y-106450380D01*
X141343142Y-105450380D01*
X142676476Y-106450380D02*
X142105047Y-106450380D01*
X142390761Y-106450380D02*
X142390761Y-105450380D01*
X142295523Y-105593238D01*
X142200285Y-105688476D01*
X142105047Y-105736095D01*
%TO.C,C2*%
X157567333Y-45569142D02*
X157519714Y-45616761D01*
X157376857Y-45664380D01*
X157281619Y-45664380D01*
X157138761Y-45616761D01*
X157043523Y-45521523D01*
X156995904Y-45426285D01*
X156948285Y-45235809D01*
X156948285Y-45092952D01*
X156995904Y-44902476D01*
X157043523Y-44807238D01*
X157138761Y-44712000D01*
X157281619Y-44664380D01*
X157376857Y-44664380D01*
X157519714Y-44712000D01*
X157567333Y-44759619D01*
X157948285Y-44759619D02*
X157995904Y-44712000D01*
X158091142Y-44664380D01*
X158329238Y-44664380D01*
X158424476Y-44712000D01*
X158472095Y-44759619D01*
X158519714Y-44854857D01*
X158519714Y-44950095D01*
X158472095Y-45092952D01*
X157900666Y-45664380D01*
X158519714Y-45664380D01*
%TO.C,J5*%
X75358666Y-68982380D02*
X75358666Y-69696666D01*
X75311047Y-69839523D01*
X75215809Y-69934761D01*
X75072952Y-69982380D01*
X74977714Y-69982380D01*
X76311047Y-68982380D02*
X75834857Y-68982380D01*
X75787238Y-69458571D01*
X75834857Y-69410952D01*
X75930095Y-69363333D01*
X76168190Y-69363333D01*
X76263428Y-69410952D01*
X76311047Y-69458571D01*
X76358666Y-69553809D01*
X76358666Y-69791904D01*
X76311047Y-69887142D01*
X76263428Y-69934761D01*
X76168190Y-69982380D01*
X75930095Y-69982380D01*
X75834857Y-69934761D01*
X75787238Y-69887142D01*
%TO.C,R21*%
X45357142Y-87066380D02*
X45023809Y-86590190D01*
X44785714Y-87066380D02*
X44785714Y-86066380D01*
X45166666Y-86066380D01*
X45261904Y-86114000D01*
X45309523Y-86161619D01*
X45357142Y-86256857D01*
X45357142Y-86399714D01*
X45309523Y-86494952D01*
X45261904Y-86542571D01*
X45166666Y-86590190D01*
X44785714Y-86590190D01*
X45738095Y-86161619D02*
X45785714Y-86114000D01*
X45880952Y-86066380D01*
X46119047Y-86066380D01*
X46214285Y-86114000D01*
X46261904Y-86161619D01*
X46309523Y-86256857D01*
X46309523Y-86352095D01*
X46261904Y-86494952D01*
X45690476Y-87066380D01*
X46309523Y-87066380D01*
X47261904Y-87066380D02*
X46690476Y-87066380D01*
X46976190Y-87066380D02*
X46976190Y-86066380D01*
X46880952Y-86209238D01*
X46785714Y-86304476D01*
X46690476Y-86352095D01*
%TO.C,J19*%
X105048476Y-121611380D02*
X105048476Y-122325666D01*
X105000857Y-122468523D01*
X104905619Y-122563761D01*
X104762761Y-122611380D01*
X104667523Y-122611380D01*
X106048476Y-122611380D02*
X105477047Y-122611380D01*
X105762761Y-122611380D02*
X105762761Y-121611380D01*
X105667523Y-121754238D01*
X105572285Y-121849476D01*
X105477047Y-121897095D01*
X106524666Y-122611380D02*
X106715142Y-122611380D01*
X106810380Y-122563761D01*
X106858000Y-122516142D01*
X106953238Y-122373285D01*
X107000857Y-122182809D01*
X107000857Y-121801857D01*
X106953238Y-121706619D01*
X106905619Y-121659000D01*
X106810380Y-121611380D01*
X106619904Y-121611380D01*
X106524666Y-121659000D01*
X106477047Y-121706619D01*
X106429428Y-121801857D01*
X106429428Y-122039952D01*
X106477047Y-122135190D01*
X106524666Y-122182809D01*
X106619904Y-122230428D01*
X106810380Y-122230428D01*
X106905619Y-122182809D01*
X106953238Y-122135190D01*
X107000857Y-122039952D01*
%TO.C,J_II1*%
X189684523Y-31182380D02*
X189684523Y-31896666D01*
X189636904Y-32039523D01*
X189541666Y-32134761D01*
X189398809Y-32182380D01*
X189303571Y-32182380D01*
X189922619Y-32277619D02*
X190684523Y-32277619D01*
X190922619Y-32182380D02*
X190922619Y-31182380D01*
X191398809Y-32182380D02*
X191398809Y-31182380D01*
X192398809Y-32182380D02*
X191827380Y-32182380D01*
X192113095Y-32182380D02*
X192113095Y-31182380D01*
X192017857Y-31325238D01*
X191922619Y-31420476D01*
X191827380Y-31468095D01*
%TO.C,F1*%
X181166666Y-45253571D02*
X180833333Y-45253571D01*
X180833333Y-45777380D02*
X180833333Y-44777380D01*
X181309523Y-44777380D01*
X182214285Y-45777380D02*
X181642857Y-45777380D01*
X181928571Y-45777380D02*
X181928571Y-44777380D01*
X181833333Y-44920238D01*
X181738095Y-45015476D01*
X181642857Y-45063095D01*
%TO.C,R26*%
X55957142Y-76144380D02*
X55623809Y-75668190D01*
X55385714Y-76144380D02*
X55385714Y-75144380D01*
X55766666Y-75144380D01*
X55861904Y-75192000D01*
X55909523Y-75239619D01*
X55957142Y-75334857D01*
X55957142Y-75477714D01*
X55909523Y-75572952D01*
X55861904Y-75620571D01*
X55766666Y-75668190D01*
X55385714Y-75668190D01*
X56338095Y-75239619D02*
X56385714Y-75192000D01*
X56480952Y-75144380D01*
X56719047Y-75144380D01*
X56814285Y-75192000D01*
X56861904Y-75239619D01*
X56909523Y-75334857D01*
X56909523Y-75430095D01*
X56861904Y-75572952D01*
X56290476Y-76144380D01*
X56909523Y-76144380D01*
X57766666Y-75144380D02*
X57576190Y-75144380D01*
X57480952Y-75192000D01*
X57433333Y-75239619D01*
X57338095Y-75382476D01*
X57290476Y-75572952D01*
X57290476Y-75953904D01*
X57338095Y-76049142D01*
X57385714Y-76096761D01*
X57480952Y-76144380D01*
X57671428Y-76144380D01*
X57766666Y-76096761D01*
X57814285Y-76049142D01*
X57861904Y-75953904D01*
X57861904Y-75715809D01*
X57814285Y-75620571D01*
X57766666Y-75572952D01*
X57671428Y-75525333D01*
X57480952Y-75525333D01*
X57385714Y-75572952D01*
X57338095Y-75620571D01*
X57290476Y-75715809D01*
%TO.C,J7*%
X106092666Y-98512380D02*
X106092666Y-99226666D01*
X106045047Y-99369523D01*
X105949809Y-99464761D01*
X105806952Y-99512380D01*
X105711714Y-99512380D01*
X106473619Y-98512380D02*
X107140285Y-98512380D01*
X106711714Y-99512380D01*
%TO.C,R22*%
X45331142Y-89606380D02*
X44997809Y-89130190D01*
X44759714Y-89606380D02*
X44759714Y-88606380D01*
X45140666Y-88606380D01*
X45235904Y-88654000D01*
X45283523Y-88701619D01*
X45331142Y-88796857D01*
X45331142Y-88939714D01*
X45283523Y-89034952D01*
X45235904Y-89082571D01*
X45140666Y-89130190D01*
X44759714Y-89130190D01*
X45712095Y-88701619D02*
X45759714Y-88654000D01*
X45854952Y-88606380D01*
X46093047Y-88606380D01*
X46188285Y-88654000D01*
X46235904Y-88701619D01*
X46283523Y-88796857D01*
X46283523Y-88892095D01*
X46235904Y-89034952D01*
X45664476Y-89606380D01*
X46283523Y-89606380D01*
X46664476Y-88701619D02*
X46712095Y-88654000D01*
X46807333Y-88606380D01*
X47045428Y-88606380D01*
X47140666Y-88654000D01*
X47188285Y-88701619D01*
X47235904Y-88796857D01*
X47235904Y-88892095D01*
X47188285Y-89034952D01*
X46616857Y-89606380D01*
X47235904Y-89606380D01*
%TO.C,R29*%
X158361142Y-40076380D02*
X158027809Y-39600190D01*
X157789714Y-40076380D02*
X157789714Y-39076380D01*
X158170666Y-39076380D01*
X158265904Y-39124000D01*
X158313523Y-39171619D01*
X158361142Y-39266857D01*
X158361142Y-39409714D01*
X158313523Y-39504952D01*
X158265904Y-39552571D01*
X158170666Y-39600190D01*
X157789714Y-39600190D01*
X158742095Y-39171619D02*
X158789714Y-39124000D01*
X158884952Y-39076380D01*
X159123047Y-39076380D01*
X159218285Y-39124000D01*
X159265904Y-39171619D01*
X159313523Y-39266857D01*
X159313523Y-39362095D01*
X159265904Y-39504952D01*
X158694476Y-40076380D01*
X159313523Y-40076380D01*
X159789714Y-40076380D02*
X159980190Y-40076380D01*
X160075428Y-40028761D01*
X160123047Y-39981142D01*
X160218285Y-39838285D01*
X160265904Y-39647809D01*
X160265904Y-39266857D01*
X160218285Y-39171619D01*
X160170666Y-39124000D01*
X160075428Y-39076380D01*
X159884952Y-39076380D01*
X159789714Y-39124000D01*
X159742095Y-39171619D01*
X159694476Y-39266857D01*
X159694476Y-39504952D01*
X159742095Y-39600190D01*
X159789714Y-39647809D01*
X159884952Y-39695428D01*
X160075428Y-39695428D01*
X160170666Y-39647809D01*
X160218285Y-39600190D01*
X160265904Y-39504952D01*
%TO.C,R31*%
X137787142Y-40076380D02*
X137453809Y-39600190D01*
X137215714Y-40076380D02*
X137215714Y-39076380D01*
X137596666Y-39076380D01*
X137691904Y-39124000D01*
X137739523Y-39171619D01*
X137787142Y-39266857D01*
X137787142Y-39409714D01*
X137739523Y-39504952D01*
X137691904Y-39552571D01*
X137596666Y-39600190D01*
X137215714Y-39600190D01*
X138120476Y-39076380D02*
X138739523Y-39076380D01*
X138406190Y-39457333D01*
X138549047Y-39457333D01*
X138644285Y-39504952D01*
X138691904Y-39552571D01*
X138739523Y-39647809D01*
X138739523Y-39885904D01*
X138691904Y-39981142D01*
X138644285Y-40028761D01*
X138549047Y-40076380D01*
X138263333Y-40076380D01*
X138168095Y-40028761D01*
X138120476Y-39981142D01*
X139691904Y-40076380D02*
X139120476Y-40076380D01*
X139406190Y-40076380D02*
X139406190Y-39076380D01*
X139310952Y-39219238D01*
X139215714Y-39314476D01*
X139120476Y-39362095D01*
%TO.C,U3*%
X53502380Y-84051904D02*
X54311904Y-84051904D01*
X54407142Y-84004285D01*
X54454761Y-83956666D01*
X54502380Y-83861428D01*
X54502380Y-83670952D01*
X54454761Y-83575714D01*
X54407142Y-83528095D01*
X54311904Y-83480476D01*
X53502380Y-83480476D01*
X53502380Y-83099523D02*
X53502380Y-82480476D01*
X53883333Y-82813809D01*
X53883333Y-82670952D01*
X53930952Y-82575714D01*
X53978571Y-82528095D01*
X54073809Y-82480476D01*
X54311904Y-82480476D01*
X54407142Y-82528095D01*
X54454761Y-82575714D01*
X54502380Y-82670952D01*
X54502380Y-82956666D01*
X54454761Y-83051904D01*
X54407142Y-83099523D01*
%TO.C,C19*%
X61587142Y-80621142D02*
X61539523Y-80668761D01*
X61396666Y-80716380D01*
X61301428Y-80716380D01*
X61158571Y-80668761D01*
X61063333Y-80573523D01*
X61015714Y-80478285D01*
X60968095Y-80287809D01*
X60968095Y-80144952D01*
X61015714Y-79954476D01*
X61063333Y-79859238D01*
X61158571Y-79764000D01*
X61301428Y-79716380D01*
X61396666Y-79716380D01*
X61539523Y-79764000D01*
X61587142Y-79811619D01*
X62539523Y-80716380D02*
X61968095Y-80716380D01*
X62253809Y-80716380D02*
X62253809Y-79716380D01*
X62158571Y-79859238D01*
X62063333Y-79954476D01*
X61968095Y-80002095D01*
X63015714Y-80716380D02*
X63206190Y-80716380D01*
X63301428Y-80668761D01*
X63349047Y-80621142D01*
X63444285Y-80478285D01*
X63491904Y-80287809D01*
X63491904Y-79906857D01*
X63444285Y-79811619D01*
X63396666Y-79764000D01*
X63301428Y-79716380D01*
X63110952Y-79716380D01*
X63015714Y-79764000D01*
X62968095Y-79811619D01*
X62920476Y-79906857D01*
X62920476Y-80144952D01*
X62968095Y-80240190D01*
X63015714Y-80287809D01*
X63110952Y-80335428D01*
X63301428Y-80335428D01*
X63396666Y-80287809D01*
X63444285Y-80240190D01*
X63491904Y-80144952D01*
%TO.C,R19*%
X45207142Y-82852380D02*
X44873809Y-82376190D01*
X44635714Y-82852380D02*
X44635714Y-81852380D01*
X45016666Y-81852380D01*
X45111904Y-81900000D01*
X45159523Y-81947619D01*
X45207142Y-82042857D01*
X45207142Y-82185714D01*
X45159523Y-82280952D01*
X45111904Y-82328571D01*
X45016666Y-82376190D01*
X44635714Y-82376190D01*
X46159523Y-82852380D02*
X45588095Y-82852380D01*
X45873809Y-82852380D02*
X45873809Y-81852380D01*
X45778571Y-81995238D01*
X45683333Y-82090476D01*
X45588095Y-82138095D01*
X46635714Y-82852380D02*
X46826190Y-82852380D01*
X46921428Y-82804761D01*
X46969047Y-82757142D01*
X47064285Y-82614285D01*
X47111904Y-82423809D01*
X47111904Y-82042857D01*
X47064285Y-81947619D01*
X47016666Y-81900000D01*
X46921428Y-81852380D01*
X46730952Y-81852380D01*
X46635714Y-81900000D01*
X46588095Y-81947619D01*
X46540476Y-82042857D01*
X46540476Y-82280952D01*
X46588095Y-82376190D01*
X46635714Y-82423809D01*
X46730952Y-82471428D01*
X46921428Y-82471428D01*
X47016666Y-82423809D01*
X47064285Y-82376190D01*
X47111904Y-82280952D01*
%TO.C,R17*%
X45207142Y-76906380D02*
X44873809Y-76430190D01*
X44635714Y-76906380D02*
X44635714Y-75906380D01*
X45016666Y-75906380D01*
X45111904Y-75954000D01*
X45159523Y-76001619D01*
X45207142Y-76096857D01*
X45207142Y-76239714D01*
X45159523Y-76334952D01*
X45111904Y-76382571D01*
X45016666Y-76430190D01*
X44635714Y-76430190D01*
X46159523Y-76906380D02*
X45588095Y-76906380D01*
X45873809Y-76906380D02*
X45873809Y-75906380D01*
X45778571Y-76049238D01*
X45683333Y-76144476D01*
X45588095Y-76192095D01*
X46492857Y-75906380D02*
X47159523Y-75906380D01*
X46730952Y-76906380D01*
%TO.C,JGPIO7*%
X115004761Y-116252380D02*
X115004761Y-116966666D01*
X114957142Y-117109523D01*
X114861904Y-117204761D01*
X114719047Y-117252380D01*
X114623809Y-117252380D01*
X116004761Y-116300000D02*
X115909523Y-116252380D01*
X115766666Y-116252380D01*
X115623809Y-116300000D01*
X115528571Y-116395238D01*
X115480952Y-116490476D01*
X115433333Y-116680952D01*
X115433333Y-116823809D01*
X115480952Y-117014285D01*
X115528571Y-117109523D01*
X115623809Y-117204761D01*
X115766666Y-117252380D01*
X115861904Y-117252380D01*
X116004761Y-117204761D01*
X116052380Y-117157142D01*
X116052380Y-116823809D01*
X115861904Y-116823809D01*
X116480952Y-117252380D02*
X116480952Y-116252380D01*
X116861904Y-116252380D01*
X116957142Y-116300000D01*
X117004761Y-116347619D01*
X117052380Y-116442857D01*
X117052380Y-116585714D01*
X117004761Y-116680952D01*
X116957142Y-116728571D01*
X116861904Y-116776190D01*
X116480952Y-116776190D01*
X117480952Y-117252380D02*
X117480952Y-116252380D01*
X118147619Y-116252380D02*
X118338095Y-116252380D01*
X118433333Y-116300000D01*
X118528571Y-116395238D01*
X118576190Y-116585714D01*
X118576190Y-116919047D01*
X118528571Y-117109523D01*
X118433333Y-117204761D01*
X118338095Y-117252380D01*
X118147619Y-117252380D01*
X118052380Y-117204761D01*
X117957142Y-117109523D01*
X117909523Y-116919047D01*
X117909523Y-116585714D01*
X117957142Y-116395238D01*
X118052380Y-116300000D01*
X118147619Y-116252380D01*
X118909523Y-116252380D02*
X119576190Y-116252380D01*
X119147619Y-117252380D01*
%TO.C,R28*%
X113548380Y-65920857D02*
X113072190Y-66254190D01*
X113548380Y-66492285D02*
X112548380Y-66492285D01*
X112548380Y-66111333D01*
X112596000Y-66016095D01*
X112643619Y-65968476D01*
X112738857Y-65920857D01*
X112881714Y-65920857D01*
X112976952Y-65968476D01*
X113024571Y-66016095D01*
X113072190Y-66111333D01*
X113072190Y-66492285D01*
X112643619Y-65539904D02*
X112596000Y-65492285D01*
X112548380Y-65397047D01*
X112548380Y-65158952D01*
X112596000Y-65063714D01*
X112643619Y-65016095D01*
X112738857Y-64968476D01*
X112834095Y-64968476D01*
X112976952Y-65016095D01*
X113548380Y-65587523D01*
X113548380Y-64968476D01*
X112976952Y-64397047D02*
X112929333Y-64492285D01*
X112881714Y-64539904D01*
X112786476Y-64587523D01*
X112738857Y-64587523D01*
X112643619Y-64539904D01*
X112596000Y-64492285D01*
X112548380Y-64397047D01*
X112548380Y-64206571D01*
X112596000Y-64111333D01*
X112643619Y-64063714D01*
X112738857Y-64016095D01*
X112786476Y-64016095D01*
X112881714Y-64063714D01*
X112929333Y-64111333D01*
X112976952Y-64206571D01*
X112976952Y-64397047D01*
X113024571Y-64492285D01*
X113072190Y-64539904D01*
X113167428Y-64587523D01*
X113357904Y-64587523D01*
X113453142Y-64539904D01*
X113500761Y-64492285D01*
X113548380Y-64397047D01*
X113548380Y-64206571D01*
X113500761Y-64111333D01*
X113453142Y-64063714D01*
X113357904Y-64016095D01*
X113167428Y-64016095D01*
X113072190Y-64063714D01*
X113024571Y-64111333D01*
X112976952Y-64206571D01*
%TO.C,C9*%
X38633333Y-81129142D02*
X38585714Y-81176761D01*
X38442857Y-81224380D01*
X38347619Y-81224380D01*
X38204761Y-81176761D01*
X38109523Y-81081523D01*
X38061904Y-80986285D01*
X38014285Y-80795809D01*
X38014285Y-80652952D01*
X38061904Y-80462476D01*
X38109523Y-80367238D01*
X38204761Y-80272000D01*
X38347619Y-80224380D01*
X38442857Y-80224380D01*
X38585714Y-80272000D01*
X38633333Y-80319619D01*
X39109523Y-81224380D02*
X39300000Y-81224380D01*
X39395238Y-81176761D01*
X39442857Y-81129142D01*
X39538095Y-80986285D01*
X39585714Y-80795809D01*
X39585714Y-80414857D01*
X39538095Y-80319619D01*
X39490476Y-80272000D01*
X39395238Y-80224380D01*
X39204761Y-80224380D01*
X39109523Y-80272000D01*
X39061904Y-80319619D01*
X39014285Y-80414857D01*
X39014285Y-80652952D01*
X39061904Y-80748190D01*
X39109523Y-80795809D01*
X39204761Y-80843428D01*
X39395238Y-80843428D01*
X39490476Y-80795809D01*
X39538095Y-80748190D01*
X39585714Y-80652952D01*
%TO.C,J1*%
X210784666Y-45655380D02*
X210784666Y-46369666D01*
X210737047Y-46512523D01*
X210641809Y-46607761D01*
X210498952Y-46655380D01*
X210403714Y-46655380D01*
X211784666Y-46655380D02*
X211213238Y-46655380D01*
X211498952Y-46655380D02*
X211498952Y-45655380D01*
X211403714Y-45798238D01*
X211308476Y-45893476D01*
X211213238Y-45941095D01*
%TO.C,C1*%
X144359333Y-51071143D02*
X144311714Y-51118762D01*
X144168857Y-51166381D01*
X144073619Y-51166381D01*
X143930761Y-51118762D01*
X143835523Y-51023524D01*
X143787904Y-50928286D01*
X143740285Y-50737810D01*
X143740285Y-50594953D01*
X143787904Y-50404477D01*
X143835523Y-50309239D01*
X143930761Y-50214001D01*
X144073619Y-50166381D01*
X144168857Y-50166381D01*
X144311714Y-50214001D01*
X144359333Y-50261620D01*
X145311714Y-51166381D02*
X144740285Y-51166381D01*
X145026000Y-51166381D02*
X145026000Y-50166381D01*
X144930761Y-50309239D01*
X144835523Y-50404477D01*
X144740285Y-50452096D01*
%TO.C,R9*%
X40473333Y-59126380D02*
X40140000Y-58650190D01*
X39901904Y-59126380D02*
X39901904Y-58126380D01*
X40282857Y-58126380D01*
X40378095Y-58174000D01*
X40425714Y-58221619D01*
X40473333Y-58316857D01*
X40473333Y-58459714D01*
X40425714Y-58554952D01*
X40378095Y-58602571D01*
X40282857Y-58650190D01*
X39901904Y-58650190D01*
X40949523Y-59126380D02*
X41140000Y-59126380D01*
X41235238Y-59078761D01*
X41282857Y-59031142D01*
X41378095Y-58888285D01*
X41425714Y-58697809D01*
X41425714Y-58316857D01*
X41378095Y-58221619D01*
X41330476Y-58174000D01*
X41235238Y-58126380D01*
X41044761Y-58126380D01*
X40949523Y-58174000D01*
X40901904Y-58221619D01*
X40854285Y-58316857D01*
X40854285Y-58554952D01*
X40901904Y-58650190D01*
X40949523Y-58697809D01*
X41044761Y-58745428D01*
X41235238Y-58745428D01*
X41330476Y-58697809D01*
X41378095Y-58650190D01*
X41425714Y-58554952D01*
%TO.C,J17*%
X151336476Y-121670380D02*
X151336476Y-122384666D01*
X151288857Y-122527523D01*
X151193619Y-122622761D01*
X151050761Y-122670380D01*
X150955523Y-122670380D01*
X152336476Y-122670380D02*
X151765047Y-122670380D01*
X152050761Y-122670380D02*
X152050761Y-121670380D01*
X151955523Y-121813238D01*
X151860285Y-121908476D01*
X151765047Y-121956095D01*
X152669809Y-121670380D02*
X153336476Y-121670380D01*
X152907904Y-122670380D01*
%TO.C,JRP2040R_1*%
X88402952Y-56856380D02*
X88402952Y-57570666D01*
X88355333Y-57713523D01*
X88260095Y-57808761D01*
X88117238Y-57856380D01*
X88022000Y-57856380D01*
X89450571Y-57856380D02*
X89117238Y-57380190D01*
X88879142Y-57856380D02*
X88879142Y-56856380D01*
X89260095Y-56856380D01*
X89355333Y-56904000D01*
X89402952Y-56951619D01*
X89450571Y-57046857D01*
X89450571Y-57189714D01*
X89402952Y-57284952D01*
X89355333Y-57332571D01*
X89260095Y-57380190D01*
X88879142Y-57380190D01*
X89879142Y-57856380D02*
X89879142Y-56856380D01*
X90260095Y-56856380D01*
X90355333Y-56904000D01*
X90402952Y-56951619D01*
X90450571Y-57046857D01*
X90450571Y-57189714D01*
X90402952Y-57284952D01*
X90355333Y-57332571D01*
X90260095Y-57380190D01*
X89879142Y-57380190D01*
X90831523Y-56951619D02*
X90879142Y-56904000D01*
X90974380Y-56856380D01*
X91212476Y-56856380D01*
X91307714Y-56904000D01*
X91355333Y-56951619D01*
X91402952Y-57046857D01*
X91402952Y-57142095D01*
X91355333Y-57284952D01*
X90783904Y-57856380D01*
X91402952Y-57856380D01*
X92022000Y-56856380D02*
X92117238Y-56856380D01*
X92212476Y-56904000D01*
X92260095Y-56951619D01*
X92307714Y-57046857D01*
X92355333Y-57237333D01*
X92355333Y-57475428D01*
X92307714Y-57665904D01*
X92260095Y-57761142D01*
X92212476Y-57808761D01*
X92117238Y-57856380D01*
X92022000Y-57856380D01*
X91926761Y-57808761D01*
X91879142Y-57761142D01*
X91831523Y-57665904D01*
X91783904Y-57475428D01*
X91783904Y-57237333D01*
X91831523Y-57046857D01*
X91879142Y-56951619D01*
X91926761Y-56904000D01*
X92022000Y-56856380D01*
X93212476Y-57189714D02*
X93212476Y-57856380D01*
X92974380Y-56808761D02*
X92736285Y-57523047D01*
X93355333Y-57523047D01*
X93926761Y-56856380D02*
X94022000Y-56856380D01*
X94117238Y-56904000D01*
X94164857Y-56951619D01*
X94212476Y-57046857D01*
X94260095Y-57237333D01*
X94260095Y-57475428D01*
X94212476Y-57665904D01*
X94164857Y-57761142D01*
X94117238Y-57808761D01*
X94022000Y-57856380D01*
X93926761Y-57856380D01*
X93831523Y-57808761D01*
X93783904Y-57761142D01*
X93736285Y-57665904D01*
X93688666Y-57475428D01*
X93688666Y-57237333D01*
X93736285Y-57046857D01*
X93783904Y-56951619D01*
X93831523Y-56904000D01*
X93926761Y-56856380D01*
X95260095Y-57856380D02*
X94926761Y-57380190D01*
X94688666Y-57856380D02*
X94688666Y-56856380D01*
X95069619Y-56856380D01*
X95164857Y-56904000D01*
X95212476Y-56951619D01*
X95260095Y-57046857D01*
X95260095Y-57189714D01*
X95212476Y-57284952D01*
X95164857Y-57332571D01*
X95069619Y-57380190D01*
X94688666Y-57380190D01*
X95450571Y-57951619D02*
X96212476Y-57951619D01*
X96974380Y-57856380D02*
X96402952Y-57856380D01*
X96688666Y-57856380D02*
X96688666Y-56856380D01*
X96593428Y-56999238D01*
X96498190Y-57094476D01*
X96402952Y-57142095D01*
%TO.C,J2*%
X47418666Y-107402380D02*
X47418666Y-108116666D01*
X47371047Y-108259523D01*
X47275809Y-108354761D01*
X47132952Y-108402380D01*
X47037714Y-108402380D01*
X47847238Y-107497619D02*
X47894857Y-107450000D01*
X47990095Y-107402380D01*
X48228190Y-107402380D01*
X48323428Y-107450000D01*
X48371047Y-107497619D01*
X48418666Y-107592857D01*
X48418666Y-107688095D01*
X48371047Y-107830952D01*
X47799619Y-108402380D01*
X48418666Y-108402380D01*
%TO.C,J4*%
X105584666Y-104862380D02*
X105584666Y-105576666D01*
X105537047Y-105719523D01*
X105441809Y-105814761D01*
X105298952Y-105862380D01*
X105203714Y-105862380D01*
X106489428Y-105195714D02*
X106489428Y-105862380D01*
X106251333Y-104814761D02*
X106013238Y-105529047D01*
X106632285Y-105529047D01*
%TO.C,R38*%
X76319142Y-37536380D02*
X75985809Y-37060190D01*
X75747714Y-37536380D02*
X75747714Y-36536380D01*
X76128666Y-36536380D01*
X76223904Y-36584000D01*
X76271523Y-36631619D01*
X76319142Y-36726857D01*
X76319142Y-36869714D01*
X76271523Y-36964952D01*
X76223904Y-37012571D01*
X76128666Y-37060190D01*
X75747714Y-37060190D01*
X76652476Y-36536380D02*
X77271523Y-36536380D01*
X76938190Y-36917333D01*
X77081047Y-36917333D01*
X77176285Y-36964952D01*
X77223904Y-37012571D01*
X77271523Y-37107809D01*
X77271523Y-37345904D01*
X77223904Y-37441142D01*
X77176285Y-37488761D01*
X77081047Y-37536380D01*
X76795333Y-37536380D01*
X76700095Y-37488761D01*
X76652476Y-37441142D01*
X77842952Y-36964952D02*
X77747714Y-36917333D01*
X77700095Y-36869714D01*
X77652476Y-36774476D01*
X77652476Y-36726857D01*
X77700095Y-36631619D01*
X77747714Y-36584000D01*
X77842952Y-36536380D01*
X78033428Y-36536380D01*
X78128666Y-36584000D01*
X78176285Y-36631619D01*
X78223904Y-36726857D01*
X78223904Y-36774476D01*
X78176285Y-36869714D01*
X78128666Y-36917333D01*
X78033428Y-36964952D01*
X77842952Y-36964952D01*
X77747714Y-37012571D01*
X77700095Y-37060190D01*
X77652476Y-37155428D01*
X77652476Y-37345904D01*
X77700095Y-37441142D01*
X77747714Y-37488761D01*
X77842952Y-37536380D01*
X78033428Y-37536380D01*
X78128666Y-37488761D01*
X78176285Y-37441142D01*
X78223904Y-37345904D01*
X78223904Y-37155428D01*
X78176285Y-37060190D01*
X78128666Y-37012571D01*
X78033428Y-36964952D01*
%TO.C,C4*%
X122851142Y-55030666D02*
X122898761Y-55078285D01*
X122946380Y-55221142D01*
X122946380Y-55316380D01*
X122898761Y-55459238D01*
X122803523Y-55554476D01*
X122708285Y-55602095D01*
X122517809Y-55649714D01*
X122374952Y-55649714D01*
X122184476Y-55602095D01*
X122089238Y-55554476D01*
X121994000Y-55459238D01*
X121946380Y-55316380D01*
X121946380Y-55221142D01*
X121994000Y-55078285D01*
X122041619Y-55030666D01*
X122279714Y-54173523D02*
X122946380Y-54173523D01*
X121898761Y-54411619D02*
X122613047Y-54649714D01*
X122613047Y-54030666D01*
%TO.C,R1*%
X97115333Y-125420380D02*
X96782000Y-124944190D01*
X96543904Y-125420380D02*
X96543904Y-124420380D01*
X96924857Y-124420380D01*
X97020095Y-124468000D01*
X97067714Y-124515619D01*
X97115333Y-124610857D01*
X97115333Y-124753714D01*
X97067714Y-124848952D01*
X97020095Y-124896571D01*
X96924857Y-124944190D01*
X96543904Y-124944190D01*
X98067714Y-125420380D02*
X97496285Y-125420380D01*
X97782000Y-125420380D02*
X97782000Y-124420380D01*
X97686761Y-124563238D01*
X97591523Y-124658476D01*
X97496285Y-124706095D01*
%TO.C,C20*%
X68082142Y-89257857D02*
X68129761Y-89305476D01*
X68177380Y-89448333D01*
X68177380Y-89543571D01*
X68129761Y-89686428D01*
X68034523Y-89781666D01*
X67939285Y-89829285D01*
X67748809Y-89876904D01*
X67605952Y-89876904D01*
X67415476Y-89829285D01*
X67320238Y-89781666D01*
X67225000Y-89686428D01*
X67177380Y-89543571D01*
X67177380Y-89448333D01*
X67225000Y-89305476D01*
X67272619Y-89257857D01*
X67272619Y-88876904D02*
X67225000Y-88829285D01*
X67177380Y-88734047D01*
X67177380Y-88495952D01*
X67225000Y-88400714D01*
X67272619Y-88353095D01*
X67367857Y-88305476D01*
X67463095Y-88305476D01*
X67605952Y-88353095D01*
X68177380Y-88924523D01*
X68177380Y-88305476D01*
X67177380Y-87686428D02*
X67177380Y-87591190D01*
X67225000Y-87495952D01*
X67272619Y-87448333D01*
X67367857Y-87400714D01*
X67558333Y-87353095D01*
X67796428Y-87353095D01*
X67986904Y-87400714D01*
X68082142Y-87448333D01*
X68129761Y-87495952D01*
X68177380Y-87591190D01*
X68177380Y-87686428D01*
X68129761Y-87781666D01*
X68082142Y-87829285D01*
X67986904Y-87876904D01*
X67796428Y-87924523D01*
X67558333Y-87924523D01*
X67367857Y-87876904D01*
X67272619Y-87829285D01*
X67225000Y-87781666D01*
X67177380Y-87686428D01*
%TO.C,J_V1*%
X127827142Y-31182380D02*
X127827142Y-31896666D01*
X127779523Y-32039523D01*
X127684285Y-32134761D01*
X127541428Y-32182380D01*
X127446190Y-32182380D01*
X128065238Y-32277619D02*
X128827142Y-32277619D01*
X128922380Y-31182380D02*
X129255714Y-32182380D01*
X129589047Y-31182380D01*
X130446190Y-32182380D02*
X129874761Y-32182380D01*
X130160476Y-32182380D02*
X130160476Y-31182380D01*
X130065238Y-31325238D01*
X129970000Y-31420476D01*
X129874761Y-31468095D01*
%TO.C,C10*%
X37965142Y-83923142D02*
X37917523Y-83970761D01*
X37774666Y-84018380D01*
X37679428Y-84018380D01*
X37536571Y-83970761D01*
X37441333Y-83875523D01*
X37393714Y-83780285D01*
X37346095Y-83589809D01*
X37346095Y-83446952D01*
X37393714Y-83256476D01*
X37441333Y-83161238D01*
X37536571Y-83066000D01*
X37679428Y-83018380D01*
X37774666Y-83018380D01*
X37917523Y-83066000D01*
X37965142Y-83113619D01*
X38917523Y-84018380D02*
X38346095Y-84018380D01*
X38631809Y-84018380D02*
X38631809Y-83018380D01*
X38536571Y-83161238D01*
X38441333Y-83256476D01*
X38346095Y-83304095D01*
X39536571Y-83018380D02*
X39631809Y-83018380D01*
X39727047Y-83066000D01*
X39774666Y-83113619D01*
X39822285Y-83208857D01*
X39869904Y-83399333D01*
X39869904Y-83637428D01*
X39822285Y-83827904D01*
X39774666Y-83923142D01*
X39727047Y-83970761D01*
X39631809Y-84018380D01*
X39536571Y-84018380D01*
X39441333Y-83970761D01*
X39393714Y-83923142D01*
X39346095Y-83827904D01*
X39298476Y-83637428D01*
X39298476Y-83399333D01*
X39346095Y-83208857D01*
X39393714Y-83113619D01*
X39441333Y-83066000D01*
X39536571Y-83018380D01*
%TO.C,J8*%
X59102666Y-40600380D02*
X59102666Y-41314666D01*
X59055047Y-41457523D01*
X58959809Y-41552761D01*
X58816952Y-41600380D01*
X58721714Y-41600380D01*
X59721714Y-41028952D02*
X59626476Y-40981333D01*
X59578857Y-40933714D01*
X59531238Y-40838476D01*
X59531238Y-40790857D01*
X59578857Y-40695619D01*
X59626476Y-40648000D01*
X59721714Y-40600380D01*
X59912190Y-40600380D01*
X60007428Y-40648000D01*
X60055047Y-40695619D01*
X60102666Y-40790857D01*
X60102666Y-40838476D01*
X60055047Y-40933714D01*
X60007428Y-40981333D01*
X59912190Y-41028952D01*
X59721714Y-41028952D01*
X59626476Y-41076571D01*
X59578857Y-41124190D01*
X59531238Y-41219428D01*
X59531238Y-41409904D01*
X59578857Y-41505142D01*
X59626476Y-41552761D01*
X59721714Y-41600380D01*
X59912190Y-41600380D01*
X60007428Y-41552761D01*
X60055047Y-41505142D01*
X60102666Y-41409904D01*
X60102666Y-41219428D01*
X60055047Y-41124190D01*
X60007428Y-41076571D01*
X59912190Y-41028952D01*
%TO.C,R3*%
X113371333Y-125928380D02*
X113038000Y-125452190D01*
X112799904Y-125928380D02*
X112799904Y-124928380D01*
X113180857Y-124928380D01*
X113276095Y-124976000D01*
X113323714Y-125023619D01*
X113371333Y-125118857D01*
X113371333Y-125261714D01*
X113323714Y-125356952D01*
X113276095Y-125404571D01*
X113180857Y-125452190D01*
X112799904Y-125452190D01*
X113704666Y-124928380D02*
X114323714Y-124928380D01*
X113990380Y-125309333D01*
X114133238Y-125309333D01*
X114228476Y-125356952D01*
X114276095Y-125404571D01*
X114323714Y-125499809D01*
X114323714Y-125737904D01*
X114276095Y-125833142D01*
X114228476Y-125880761D01*
X114133238Y-125928380D01*
X113847523Y-125928380D01*
X113752285Y-125880761D01*
X113704666Y-125833142D01*
%TO.C,R27*%
X56157142Y-92552380D02*
X55823809Y-92076190D01*
X55585714Y-92552380D02*
X55585714Y-91552380D01*
X55966666Y-91552380D01*
X56061904Y-91600000D01*
X56109523Y-91647619D01*
X56157142Y-91742857D01*
X56157142Y-91885714D01*
X56109523Y-91980952D01*
X56061904Y-92028571D01*
X55966666Y-92076190D01*
X55585714Y-92076190D01*
X56538095Y-91647619D02*
X56585714Y-91600000D01*
X56680952Y-91552380D01*
X56919047Y-91552380D01*
X57014285Y-91600000D01*
X57061904Y-91647619D01*
X57109523Y-91742857D01*
X57109523Y-91838095D01*
X57061904Y-91980952D01*
X56490476Y-92552380D01*
X57109523Y-92552380D01*
X57442857Y-91552380D02*
X58109523Y-91552380D01*
X57680952Y-92552380D01*
%TO.C,R13*%
X129752380Y-58554857D02*
X129276190Y-58888190D01*
X129752380Y-59126285D02*
X128752380Y-59126285D01*
X128752380Y-58745333D01*
X128800000Y-58650095D01*
X128847619Y-58602476D01*
X128942857Y-58554857D01*
X129085714Y-58554857D01*
X129180952Y-58602476D01*
X129228571Y-58650095D01*
X129276190Y-58745333D01*
X129276190Y-59126285D01*
X129752380Y-57602476D02*
X129752380Y-58173904D01*
X129752380Y-57888190D02*
X128752380Y-57888190D01*
X128895238Y-57983428D01*
X128990476Y-58078666D01*
X129038095Y-58173904D01*
X128752380Y-57269142D02*
X128752380Y-56650095D01*
X129133333Y-56983428D01*
X129133333Y-56840571D01*
X129180952Y-56745333D01*
X129228571Y-56697714D01*
X129323809Y-56650095D01*
X129561904Y-56650095D01*
X129657142Y-56697714D01*
X129704761Y-56745333D01*
X129752380Y-56840571D01*
X129752380Y-57126285D01*
X129704761Y-57221523D01*
X129657142Y-57269142D01*
%TO.C,R37*%
X76319142Y-40076380D02*
X75985809Y-39600190D01*
X75747714Y-40076380D02*
X75747714Y-39076380D01*
X76128666Y-39076380D01*
X76223904Y-39124000D01*
X76271523Y-39171619D01*
X76319142Y-39266857D01*
X76319142Y-39409714D01*
X76271523Y-39504952D01*
X76223904Y-39552571D01*
X76128666Y-39600190D01*
X75747714Y-39600190D01*
X76652476Y-39076380D02*
X77271523Y-39076380D01*
X76938190Y-39457333D01*
X77081047Y-39457333D01*
X77176285Y-39504952D01*
X77223904Y-39552571D01*
X77271523Y-39647809D01*
X77271523Y-39885904D01*
X77223904Y-39981142D01*
X77176285Y-40028761D01*
X77081047Y-40076380D01*
X76795333Y-40076380D01*
X76700095Y-40028761D01*
X76652476Y-39981142D01*
X77604857Y-39076380D02*
X78271523Y-39076380D01*
X77842952Y-40076380D01*
%TO.C,U4*%
X73112380Y-82295904D02*
X73921904Y-82295904D01*
X74017142Y-82248285D01*
X74064761Y-82200666D01*
X74112380Y-82105428D01*
X74112380Y-81914952D01*
X74064761Y-81819714D01*
X74017142Y-81772095D01*
X73921904Y-81724476D01*
X73112380Y-81724476D01*
X73445714Y-80819714D02*
X74112380Y-80819714D01*
X73064761Y-81057809D02*
X73779047Y-81295904D01*
X73779047Y-80676857D01*
%TO.C,J6*%
X135318380Y-86185333D02*
X136032666Y-86185333D01*
X136175523Y-86232952D01*
X136270761Y-86328190D01*
X136318380Y-86471047D01*
X136318380Y-86566285D01*
X135318380Y-85280571D02*
X135318380Y-85471047D01*
X135366000Y-85566285D01*
X135413619Y-85613904D01*
X135556476Y-85709142D01*
X135746952Y-85756761D01*
X136127904Y-85756761D01*
X136223142Y-85709142D01*
X136270761Y-85661523D01*
X136318380Y-85566285D01*
X136318380Y-85375809D01*
X136270761Y-85280571D01*
X136223142Y-85232952D01*
X136127904Y-85185333D01*
X135889809Y-85185333D01*
X135794571Y-85232952D01*
X135746952Y-85280571D01*
X135699333Y-85375809D01*
X135699333Y-85566285D01*
X135746952Y-85661523D01*
X135794571Y-85709142D01*
X135889809Y-85756761D01*
D11*
%TO.C,J_III1*%
X172840000Y-33170000D02*
X172840000Y-34500000D01*
X167640000Y-33170000D02*
X170240000Y-33170000D01*
X172840000Y-35770000D02*
X172840000Y-40910000D01*
X167640000Y-33170000D02*
X167640000Y-40910000D01*
X170240000Y-33170000D02*
X170240000Y-35770000D01*
X171510000Y-33170000D02*
X172840000Y-33170000D01*
X170240000Y-35770000D02*
X172840000Y-35770000D01*
X167640000Y-40910000D02*
X172840000Y-40910000D01*
%TO.C,C11*%
X41772936Y-86765000D02*
X42227064Y-86765000D01*
X41772936Y-88235000D02*
X42227064Y-88235000D01*
%TO.C,C17*%
X59565000Y-89327064D02*
X59565000Y-88872936D01*
X61035000Y-89327064D02*
X61035000Y-88872936D01*
%TO.C,J_sys1*%
X131278000Y-43095000D02*
X132608000Y-43095000D01*
X131278000Y-44425000D02*
X131278000Y-43095000D01*
X133878000Y-45755000D02*
X133878000Y-43095000D01*
X133878000Y-43095000D02*
X136478000Y-43095000D01*
X136478000Y-45755000D02*
X136478000Y-43095000D01*
X133878000Y-45755000D02*
X136478000Y-45755000D01*
%TO.C,J_VI1*%
X108320000Y-35770000D02*
X110920000Y-35770000D01*
X108320000Y-33170000D02*
X108320000Y-35770000D01*
X110920000Y-35770000D02*
X110920000Y-40910000D01*
X105720000Y-33170000D02*
X108320000Y-33170000D01*
X105720000Y-40910000D02*
X110920000Y-40910000D01*
X110920000Y-33170000D02*
X110920000Y-34500000D01*
X109590000Y-33170000D02*
X110920000Y-33170000D01*
X105720000Y-33170000D02*
X105720000Y-40910000D01*
%TO.C,C6*%
X132535000Y-53572936D02*
X132535000Y-54027064D01*
X131065000Y-53572936D02*
X131065000Y-54027064D01*
%TO.C,J_pwrLed1*%
X171764000Y-54296000D02*
X169104000Y-54296000D01*
X171764000Y-56896000D02*
X171764000Y-54296000D01*
X170434000Y-59496000D02*
X169104000Y-59496000D01*
X169104000Y-56896000D02*
X169104000Y-54296000D01*
X169104000Y-59496000D02*
X169104000Y-58166000D01*
X171764000Y-56896000D02*
X169104000Y-56896000D01*
%TO.C,J13*%
X144247000Y-99613000D02*
X142917000Y-99613000D01*
X145577000Y-97013000D02*
X142917000Y-97013000D01*
X142917000Y-99613000D02*
X142917000Y-98283000D01*
X145577000Y-79173000D02*
X142917000Y-79173000D01*
X145577000Y-97013000D02*
X145577000Y-79173000D01*
X142917000Y-97013000D02*
X142917000Y-79173000D01*
%TO.C,J3*%
X71455000Y-101220000D02*
X23135000Y-101220000D01*
X74055000Y-103880000D02*
X72725000Y-103880000D01*
X71455000Y-101220000D02*
X71455000Y-103880000D01*
X74055000Y-102550000D02*
X74055000Y-103880000D01*
X71455000Y-103880000D02*
X23135000Y-103880000D01*
X23135000Y-101220000D02*
X23135000Y-103880000D01*
%TO.C,R43*%
X87657000Y-88418936D02*
X87657000Y-88873064D01*
X89127000Y-88418936D02*
X89127000Y-88873064D01*
%TO.C,C16*%
X60785000Y-78122936D02*
X60785000Y-78577064D01*
X59315000Y-78122936D02*
X59315000Y-78577064D01*
%TO.C,J_IX1*%
X43807500Y-33170000D02*
X46407500Y-33170000D01*
X43807500Y-56150000D02*
X49007500Y-56150000D01*
X46407500Y-33170000D02*
X46407500Y-35770000D01*
X46407500Y-35770000D02*
X49007500Y-35770000D01*
X49007500Y-33170000D02*
X49007500Y-34500000D01*
X47677500Y-33170000D02*
X49007500Y-33170000D01*
X43807500Y-33170000D02*
X43807500Y-56150000D01*
X49007500Y-35770000D02*
X49007500Y-56150000D01*
%TO.C,J_I1*%
X212780000Y-33170000D02*
X214110000Y-33170000D01*
X211510000Y-33170000D02*
X211510000Y-35770000D01*
X208910000Y-33170000D02*
X211510000Y-33170000D01*
X214110000Y-35770000D02*
X214110000Y-40910000D01*
X208910000Y-40910000D02*
X214110000Y-40910000D01*
X208910000Y-33170000D02*
X208910000Y-40910000D01*
X211510000Y-35770000D02*
X214110000Y-35770000D01*
X214110000Y-33170000D02*
X214110000Y-34500000D01*
%TO.C,J11*%
X129330000Y-47995000D02*
X129330000Y-50655000D01*
X119110000Y-47995000D02*
X119110000Y-50655000D01*
X131930000Y-49325000D02*
X131930000Y-50655000D01*
X131930000Y-50655000D02*
X130600000Y-50655000D01*
X129330000Y-47995000D02*
X119110000Y-47995000D01*
X129330000Y-50655000D02*
X119110000Y-50655000D01*
%TO.C,J12*%
X113430000Y-50655000D02*
X103210000Y-50655000D01*
X113430000Y-47995000D02*
X113430000Y-50655000D01*
X113430000Y-47995000D02*
X103210000Y-47995000D01*
X103210000Y-47995000D02*
X103210000Y-50655000D01*
X116030000Y-50655000D02*
X114700000Y-50655000D01*
X116030000Y-49325000D02*
X116030000Y-50655000D01*
%TO.C,J16*%
X69645000Y-33170000D02*
X69645000Y-34500000D01*
X68315000Y-33170000D02*
X69645000Y-33170000D01*
X64445000Y-33170000D02*
X64445000Y-63770000D01*
X69645000Y-35770000D02*
X69645000Y-63770000D01*
X67045000Y-33170000D02*
X67045000Y-35770000D01*
X64445000Y-33170000D02*
X67045000Y-33170000D01*
X64445000Y-63770000D02*
X69645000Y-63770000D01*
X67045000Y-35770000D02*
X69645000Y-35770000D01*
D10*
%TO.C,U2*%
X136527000Y-117353000D02*
X147177000Y-117353000D01*
D11*
X146429000Y-130543000D02*
X147429000Y-130543000D01*
D10*
X147177000Y-117353000D02*
X147177000Y-119233000D01*
X147177000Y-128413000D02*
X147177000Y-130293000D01*
X147177000Y-125873000D02*
X147177000Y-126853000D01*
D11*
X147429000Y-130543000D02*
X147429000Y-129543000D01*
D10*
X147177000Y-130293000D02*
X136527000Y-130293000D01*
X147177000Y-120793000D02*
X147177000Y-124313000D01*
X136527000Y-126853000D02*
X136527000Y-120793000D01*
X136527000Y-130293000D02*
X136527000Y-128413000D01*
X136527000Y-119233000D02*
X136527000Y-117353000D01*
D11*
%TO.C,U1*%
X151892000Y-51864000D02*
X151892000Y-49324000D01*
X149352000Y-51864000D02*
X149352000Y-49324000D01*
X146772000Y-67754000D02*
X146772000Y-51864000D01*
X154432000Y-51864000D02*
X154432000Y-49324000D01*
X157012000Y-67754000D02*
X146772000Y-67754000D01*
X157012000Y-51864000D02*
X146772000Y-51864000D01*
X157012000Y-67754000D02*
X157012000Y-51864000D01*
%TO.C,R16*%
X110165000Y-53927064D02*
X110165000Y-53472936D01*
X111635000Y-53927064D02*
X111635000Y-53472936D01*
%TO.C,J14*%
X77784000Y-85439000D02*
X77784000Y-90579000D01*
X75124000Y-90579000D02*
X77784000Y-90579000D01*
X75124000Y-85439000D02*
X75124000Y-90579000D01*
X75124000Y-85439000D02*
X77784000Y-85439000D01*
X77784000Y-82839000D02*
X77784000Y-84169000D01*
X76454000Y-82839000D02*
X77784000Y-82839000D01*
%TO.C,J_VII1*%
X85082500Y-40910000D02*
X90282500Y-40910000D01*
X90282500Y-33170000D02*
X90282500Y-34500000D01*
X87682500Y-35770000D02*
X90282500Y-35770000D01*
X88952500Y-33170000D02*
X90282500Y-33170000D01*
X87682500Y-33170000D02*
X87682500Y-35770000D01*
X85082500Y-33170000D02*
X85082500Y-40910000D01*
X90282500Y-35770000D02*
X90282500Y-40910000D01*
X85082500Y-33170000D02*
X87682500Y-33170000D01*
%TO.C,R30*%
X155220936Y-37819000D02*
X155675064Y-37819000D01*
X155220936Y-36349000D02*
X155675064Y-36349000D01*
%TO.C,D2*%
X31060000Y-51305000D02*
X31060000Y-54395000D01*
X31060000Y-54394830D02*
G75*
G03*
X36610000Y-52849538I2560000J1544830D01*
G01*
X36610000Y-52850462D02*
G75*
G03*
X31060000Y-51305170I-2990000J462D01*
G01*
X36120000Y-52850000D02*
G75*
G03*
X36120000Y-52850000I-2500000J0D01*
G01*
%TO.C,R32*%
X134646936Y-36349000D02*
X135101064Y-36349000D01*
X134646936Y-37819000D02*
X135101064Y-37819000D01*
%TO.C,JGPIO9*%
X103438000Y-118133000D02*
X103438000Y-119463000D01*
X102108000Y-118133000D02*
X103438000Y-118133000D01*
X100838000Y-118133000D02*
X95698000Y-118133000D01*
X100838000Y-118133000D02*
X100838000Y-120793000D01*
X100838000Y-120793000D02*
X95698000Y-120793000D01*
X95698000Y-118133000D02*
X95698000Y-120793000D01*
%TO.C,J9*%
X86420000Y-46168000D02*
X73600000Y-46168000D01*
X86420000Y-48768000D02*
X83820000Y-48768000D01*
X73600000Y-46168000D02*
X73600000Y-51368000D01*
X86420000Y-50038000D02*
X86420000Y-51368000D01*
X83820000Y-51368000D02*
X73600000Y-51368000D01*
X86420000Y-51368000D02*
X85090000Y-51368000D01*
X86420000Y-46168000D02*
X86420000Y-48768000D01*
X83820000Y-48768000D02*
X83820000Y-51368000D01*
%TO.C,R20*%
X49372936Y-84165000D02*
X49827064Y-84165000D01*
X49372936Y-85635000D02*
X49827064Y-85635000D01*
%TO.C,R33*%
X114527064Y-38889000D02*
X114072936Y-38889000D01*
X114527064Y-40359000D02*
X114072936Y-40359000D01*
%TO.C,R12*%
X108422936Y-45747000D02*
X108877064Y-45747000D01*
X108422936Y-47217000D02*
X108877064Y-47217000D01*
%TO.C,C3*%
X167359000Y-50572936D02*
X167359000Y-51027064D01*
X165889000Y-50572936D02*
X165889000Y-51027064D01*
%TO.C,C7*%
X115165000Y-53472936D02*
X115165000Y-53927064D01*
X116635000Y-53472936D02*
X116635000Y-53927064D01*
%TO.C,R34*%
X114072936Y-36349000D02*
X114527064Y-36349000D01*
X114072936Y-37819000D02*
X114527064Y-37819000D01*
%TO.C,C12*%
X41772936Y-89365000D02*
X42227064Y-89365000D01*
X41772936Y-90835000D02*
X42227064Y-90835000D01*
%TO.C,C15*%
X65255000Y-83301064D02*
X65255000Y-82846936D01*
X63785000Y-83301064D02*
X63785000Y-82846936D01*
%TO.C,R36*%
X93498936Y-37819000D02*
X93953064Y-37819000D01*
X93498936Y-36349000D02*
X93953064Y-36349000D01*
%TO.C,R7*%
X37765000Y-53877064D02*
X37765000Y-53422936D01*
X39235000Y-53877064D02*
X39235000Y-53422936D01*
%TO.C,J_IV1*%
X147005000Y-40910000D02*
X152205000Y-40910000D01*
X147005000Y-33170000D02*
X149605000Y-33170000D01*
X149605000Y-35770000D02*
X152205000Y-35770000D01*
X149605000Y-33170000D02*
X149605000Y-35770000D01*
X150875000Y-33170000D02*
X152205000Y-33170000D01*
X152205000Y-33170000D02*
X152205000Y-34500000D01*
X152205000Y-35770000D02*
X152205000Y-40910000D01*
X147005000Y-33170000D02*
X147005000Y-40910000D01*
%TO.C,C18*%
X63005000Y-83301064D02*
X63005000Y-82846936D01*
X61535000Y-83301064D02*
X61535000Y-82846936D01*
%TO.C,RV1*%
X180389000Y-46599000D02*
X170619000Y-46599000D01*
X180389000Y-52939000D02*
X170619000Y-52939000D01*
X170619000Y-52939000D02*
X170619000Y-46599000D01*
X180389000Y-52939000D02*
X180389000Y-46599000D01*
%TO.C,R15*%
X112665000Y-53927064D02*
X112665000Y-53472936D01*
X114135000Y-53927064D02*
X114135000Y-53472936D01*
%TO.C,D3*%
X31110000Y-59355000D02*
X31110000Y-62445000D01*
X31110000Y-62444830D02*
G75*
G03*
X36660000Y-60899538I2560000J1544830D01*
G01*
X36660000Y-60900462D02*
G75*
G03*
X31110000Y-59355170I-2990000J462D01*
G01*
X36170000Y-60900000D02*
G75*
G03*
X36170000Y-60900000I-2500000J0D01*
G01*
%TO.C,R10*%
X165889000Y-56869064D02*
X165889000Y-56414936D01*
X167359000Y-56869064D02*
X167359000Y-56414936D01*
%TO.C,R4*%
X118285936Y-121928000D02*
X118740064Y-121928000D01*
X118285936Y-123398000D02*
X118740064Y-123398000D01*
%TO.C,J10*%
X89094000Y-46168000D02*
X89094000Y-48828000D01*
X96834000Y-47498000D02*
X96834000Y-48828000D01*
X94234000Y-48828000D02*
X89094000Y-48828000D01*
X96834000Y-48828000D02*
X95504000Y-48828000D01*
X94234000Y-46168000D02*
X89094000Y-46168000D01*
X94234000Y-46168000D02*
X94234000Y-48828000D01*
%TO.C,C5*%
X109135000Y-53927064D02*
X109135000Y-53472936D01*
X107665000Y-53927064D02*
X107665000Y-53472936D01*
%TO.C,R18*%
X49372936Y-79165000D02*
X49827064Y-79165000D01*
X49372936Y-80635000D02*
X49827064Y-80635000D01*
%TO.C,R41*%
X32231064Y-40359000D02*
X31776936Y-40359000D01*
X32231064Y-38889000D02*
X31776936Y-38889000D01*
%TO.C,R42*%
X31776936Y-37819000D02*
X32231064Y-37819000D01*
X31776936Y-36349000D02*
X32231064Y-36349000D01*
%TO.C,R35*%
X93953064Y-38889000D02*
X93498936Y-38889000D01*
X93953064Y-40359000D02*
X93498936Y-40359000D01*
%TO.C,J_X1*%
X23170000Y-33170000D02*
X25770000Y-33170000D01*
X28370000Y-35770000D02*
X28370000Y-56150000D01*
X25770000Y-33170000D02*
X25770000Y-35770000D01*
X23170000Y-33170000D02*
X23170000Y-56150000D01*
X27040000Y-33170000D02*
X28370000Y-33170000D01*
X25770000Y-35770000D02*
X28370000Y-35770000D01*
X28370000Y-33170000D02*
X28370000Y-34500000D01*
X23170000Y-56150000D02*
X28370000Y-56150000D01*
%TO.C,J20*%
X94790000Y-85505000D02*
X94790000Y-82845000D01*
X81970000Y-82845000D02*
X83300000Y-82845000D01*
X84570000Y-85505000D02*
X84570000Y-82845000D01*
X84570000Y-85505000D02*
X94790000Y-85505000D01*
X84570000Y-82845000D02*
X94790000Y-82845000D01*
X81970000Y-84175000D02*
X81970000Y-82845000D01*
%TO.C,D1*%
X184658000Y-41472000D02*
X184658000Y-42492000D01*
X186128000Y-43392000D02*
X183188000Y-43392000D01*
X186128000Y-43272000D02*
X183188000Y-43272000D01*
X183188000Y-42492000D02*
X183188000Y-47932000D01*
X186128000Y-43512000D02*
X183188000Y-43512000D01*
X184658000Y-48952000D02*
X184658000Y-47932000D01*
X186128000Y-42492000D02*
X183188000Y-42492000D01*
X183188000Y-47932000D02*
X186128000Y-47932000D01*
X186128000Y-47932000D02*
X186128000Y-42492000D01*
%TO.C,R39*%
X52551064Y-38889000D02*
X52096936Y-38889000D01*
X52551064Y-40359000D02*
X52096936Y-40359000D01*
%TO.C,R14*%
X127535000Y-54027064D02*
X127535000Y-53572936D01*
X126065000Y-54027064D02*
X126065000Y-53572936D01*
%TO.C,J15*%
X77764000Y-94259000D02*
X77764000Y-95589000D01*
X77764000Y-95589000D02*
X76434000Y-95589000D01*
X75164000Y-92929000D02*
X72564000Y-92929000D01*
X72564000Y-92929000D02*
X72564000Y-95589000D01*
X75164000Y-92929000D02*
X75164000Y-95589000D01*
X75164000Y-95589000D02*
X72564000Y-95589000D01*
%TO.C,R2*%
X101830936Y-121928000D02*
X102285064Y-121928000D01*
X101830936Y-123398000D02*
X102285064Y-123398000D01*
%TO.C,JRP4020L_1*%
X132790000Y-79945000D02*
X132790000Y-77285000D01*
X81870000Y-78615000D02*
X81870000Y-77285000D01*
X84470000Y-77285000D02*
X132790000Y-77285000D01*
X84470000Y-79945000D02*
X84470000Y-77285000D01*
X81870000Y-77285000D02*
X83200000Y-77285000D01*
X84470000Y-79945000D02*
X132790000Y-79945000D01*
%TO.C,R40*%
X52096936Y-36349000D02*
X52551064Y-36349000D01*
X52096936Y-37819000D02*
X52551064Y-37819000D01*
%TO.C,R8*%
X167359000Y-46201064D02*
X167359000Y-45746936D01*
X165889000Y-46201064D02*
X165889000Y-45746936D01*
%TO.C,SW1*%
X105842000Y-107850000D02*
X101342000Y-107850000D01*
X107092000Y-111850000D02*
X107092000Y-110350000D01*
X101342000Y-114350000D02*
X105842000Y-114350000D01*
X100092000Y-110350000D02*
X100092000Y-111850000D01*
%TO.C,C8*%
X41772936Y-78235000D02*
X42227064Y-78235000D01*
X41772936Y-76765000D02*
X42227064Y-76765000D01*
%TO.C,R11*%
X124322936Y-47217000D02*
X124777064Y-47217000D01*
X124322936Y-45747000D02*
X124777064Y-45747000D01*
%TO.C,L1*%
X138216000Y-114768000D02*
X138216000Y-107228000D01*
X145756000Y-107228000D02*
X145756000Y-114768000D01*
X140086000Y-114768000D02*
X138216000Y-114768000D01*
X143886000Y-107228000D02*
X145756000Y-107228000D01*
X138216000Y-107228000D02*
X140086000Y-107228000D01*
X145756000Y-114768000D02*
X143886000Y-114768000D01*
%TO.C,C2*%
X162330000Y-45152113D02*
X162989000Y-45152113D01*
X162330000Y-44872113D02*
X162609000Y-44872113D01*
X159790000Y-44992113D02*
X160250000Y-44992113D01*
X160485000Y-44632113D02*
X162095000Y-44632113D01*
X158747000Y-46673113D02*
X160250000Y-46673113D01*
X162330000Y-44832113D02*
X162541000Y-44832113D01*
X159464000Y-45272113D02*
X160250000Y-45272113D01*
X160112000Y-44792113D02*
X162468000Y-44792113D01*
X162330000Y-45472113D02*
X163294000Y-45472113D01*
X162330000Y-46793113D02*
X163851000Y-46793113D01*
X162330000Y-46032113D02*
X163638000Y-46032113D01*
X162330000Y-46553113D02*
X163810000Y-46553113D01*
X162330000Y-45352113D02*
X163191000Y-45352113D01*
X158799000Y-46433113D02*
X160250000Y-46433113D01*
X158712000Y-46993113D02*
X163868000Y-46993113D01*
X158740000Y-46713113D02*
X160250000Y-46713113D01*
X162330000Y-46433113D02*
X163781000Y-46433113D01*
X159000000Y-45912113D02*
X160250000Y-45912113D01*
X158710000Y-47073113D02*
X163870000Y-47073113D01*
X158710000Y-47113113D02*
X163870000Y-47113113D01*
X162330000Y-45392113D02*
X163227000Y-45392113D01*
X159505000Y-45232113D02*
X160250000Y-45232113D01*
X158862000Y-46232113D02*
X160250000Y-46232113D01*
X158721000Y-46873113D02*
X160250000Y-46873113D01*
X159022000Y-45872113D02*
X160250000Y-45872113D01*
X161006000Y-44512113D02*
X161574000Y-44512113D01*
X162330000Y-45552113D02*
X163355000Y-45552113D01*
X162330000Y-45432113D02*
X163261000Y-45432113D01*
X162330000Y-45872113D02*
X163558000Y-45872113D01*
X158734000Y-46753113D02*
X160250000Y-46753113D01*
X162330000Y-46513113D02*
X163801000Y-46513113D01*
X162330000Y-46633113D02*
X163826000Y-46633113D01*
X158770000Y-46553113D02*
X160250000Y-46553113D01*
X162330000Y-46593113D02*
X163818000Y-46593113D01*
X162330000Y-44912113D02*
X162673000Y-44912113D01*
X162330000Y-46833113D02*
X163855000Y-46833113D01*
X158762000Y-46593113D02*
X160250000Y-46593113D01*
X159115000Y-45712113D02*
X160250000Y-45712113D01*
X162330000Y-46473113D02*
X163791000Y-46473113D01*
X158711000Y-47033113D02*
X163869000Y-47033113D01*
X159225000Y-45552113D02*
X160250000Y-45552113D01*
X162330000Y-45912113D02*
X163580000Y-45912113D01*
X158876000Y-46192113D02*
X160250000Y-46192113D01*
X160613000Y-44592113D02*
X161967000Y-44592113D01*
X159353000Y-45392113D02*
X160250000Y-45392113D01*
X162330000Y-45792113D02*
X163514000Y-45792113D01*
X158810000Y-46392113D02*
X160250000Y-46392113D01*
X162330000Y-45592113D02*
X163385000Y-45592113D01*
X162330000Y-46873113D02*
X163859000Y-46873113D01*
X158725000Y-46833113D02*
X160250000Y-46833113D01*
X162330000Y-46272113D02*
X163732000Y-46272113D01*
X159090000Y-45752113D02*
X160250000Y-45752113D01*
X160039000Y-44832113D02*
X160250000Y-44832113D01*
X158980000Y-45952113D02*
X160250000Y-45952113D01*
X159195000Y-45592113D02*
X160250000Y-45592113D01*
X158754000Y-46633113D02*
X160250000Y-46633113D01*
X159637000Y-45112113D02*
X160250000Y-45112113D01*
X159591000Y-45152113D02*
X160250000Y-45152113D01*
X162330000Y-45312113D02*
X163154000Y-45312113D01*
X159319000Y-45432113D02*
X160250000Y-45432113D01*
X162330000Y-45272113D02*
X163116000Y-45272113D01*
X159255000Y-45512113D02*
X160250000Y-45512113D01*
X158908000Y-46112113D02*
X160250000Y-46112113D01*
X159847000Y-44952113D02*
X160250000Y-44952113D01*
X159286000Y-45472113D02*
X160250000Y-45472113D01*
X160279000Y-44712113D02*
X162301000Y-44712113D01*
X162330000Y-46232113D02*
X163718000Y-46232113D01*
X158789000Y-46473113D02*
X160250000Y-46473113D01*
X160772000Y-44552113D02*
X161808000Y-44552113D01*
X162330000Y-45632113D02*
X163412000Y-45632113D01*
X162330000Y-46112113D02*
X163672000Y-46112113D01*
X159168000Y-45632113D02*
X160250000Y-45632113D01*
X162330000Y-44992113D02*
X162790000Y-44992113D01*
X162330000Y-46192113D02*
X163704000Y-46192113D01*
X162330000Y-45192113D02*
X163033000Y-45192113D01*
X162330000Y-45752113D02*
X163490000Y-45752113D01*
X162330000Y-45672113D02*
X163439000Y-45672113D01*
X162330000Y-46352113D02*
X163758000Y-46352113D01*
X162330000Y-45032113D02*
X162844000Y-45032113D01*
X159141000Y-45672113D02*
X160250000Y-45672113D01*
X159066000Y-45792113D02*
X160250000Y-45792113D01*
X162330000Y-45072113D02*
X162895000Y-45072113D01*
X159426000Y-45312113D02*
X160250000Y-45312113D01*
X159043000Y-45832113D02*
X160250000Y-45832113D01*
X159685000Y-45072113D02*
X160250000Y-45072113D01*
X162330000Y-46392113D02*
X163770000Y-46392113D01*
X162330000Y-46713113D02*
X163840000Y-46713113D01*
X162330000Y-45952113D02*
X163600000Y-45952113D01*
X159815000Y-49917888D02*
X159815000Y-49417888D01*
X158961000Y-45992113D02*
X160250000Y-45992113D01*
X158925000Y-46072113D02*
X160250000Y-46072113D01*
X159547000Y-45192113D02*
X160250000Y-45192113D01*
X159971000Y-44872113D02*
X160250000Y-44872113D01*
X158892000Y-46152113D02*
X160250000Y-46152113D01*
X162330000Y-46152113D02*
X163688000Y-46152113D01*
X159907000Y-44912113D02*
X160250000Y-44912113D01*
X158729000Y-46793113D02*
X160250000Y-46793113D01*
X158835000Y-46312113D02*
X160250000Y-46312113D01*
X159565000Y-49667888D02*
X160065000Y-49667888D01*
X160192000Y-44752113D02*
X162388000Y-44752113D01*
X162330000Y-45832113D02*
X163537000Y-45832113D01*
X162330000Y-44952113D02*
X162733000Y-44952113D01*
X162330000Y-45232113D02*
X163075000Y-45232113D01*
X162330000Y-46312113D02*
X163745000Y-46312113D01*
X158942000Y-46032113D02*
X160250000Y-46032113D01*
X162330000Y-45112113D02*
X162943000Y-45112113D01*
X160375000Y-44672113D02*
X162205000Y-44672113D01*
X162330000Y-45512113D02*
X163325000Y-45512113D01*
X162330000Y-45992113D02*
X163619000Y-45992113D01*
X158714000Y-46953113D02*
X163866000Y-46953113D01*
X159736000Y-45032113D02*
X160250000Y-45032113D01*
X158822000Y-46352113D02*
X160250000Y-46352113D01*
X158779000Y-46513113D02*
X160250000Y-46513113D01*
X162330000Y-46072113D02*
X163655000Y-46072113D01*
X159389000Y-45352113D02*
X160250000Y-45352113D01*
X162330000Y-46753113D02*
X163846000Y-46753113D01*
X158848000Y-46272113D02*
X160250000Y-46272113D01*
X162330000Y-45712113D02*
X163465000Y-45712113D01*
X158717000Y-46913113D02*
X163863000Y-46913113D01*
X162330000Y-46673113D02*
X163833000Y-46673113D01*
X163910000Y-47113113D02*
G75*
G03*
X163910000Y-47113113I-2620000J0D01*
G01*
%TO.C,J5*%
X23195000Y-68200000D02*
X24525000Y-68200000D01*
X74115000Y-70860000D02*
X74115000Y-68200000D01*
X23195000Y-69530000D02*
X23195000Y-68200000D01*
X25795000Y-70860000D02*
X25795000Y-68200000D01*
X25795000Y-68200000D02*
X74115000Y-68200000D01*
X25795000Y-70860000D02*
X74115000Y-70860000D01*
%TO.C,R21*%
X49372936Y-86765000D02*
X49827064Y-86765000D01*
X49372936Y-88235000D02*
X49827064Y-88235000D01*
%TO.C,J19*%
X110188000Y-118133000D02*
X110188000Y-119463000D01*
X104988000Y-118133000D02*
X104988000Y-120793000D01*
X107588000Y-118133000D02*
X107588000Y-120793000D01*
X107588000Y-118133000D02*
X104988000Y-118133000D01*
X108858000Y-118133000D02*
X110188000Y-118133000D01*
X107588000Y-120793000D02*
X104988000Y-120793000D01*
%TO.C,J_II1*%
X188275000Y-33170000D02*
X190875000Y-33170000D01*
X190875000Y-33170000D02*
X190875000Y-35770000D01*
X188275000Y-33170000D02*
X188275000Y-40910000D01*
X192145000Y-33170000D02*
X193475000Y-33170000D01*
X193475000Y-33170000D02*
X193475000Y-34500000D01*
X188275000Y-40910000D02*
X193475000Y-40910000D01*
X190875000Y-35770000D02*
X193475000Y-35770000D01*
X193475000Y-35770000D02*
X193475000Y-40910000D01*
%TO.C,F1*%
X180312000Y-45954000D02*
X171712000Y-45954000D01*
X171712000Y-45954000D02*
X171712000Y-41854000D01*
X180312000Y-45954000D02*
X180312000Y-41854000D01*
X180312000Y-41854000D02*
X171712000Y-41854000D01*
%TO.C,R26*%
X56372936Y-76865000D02*
X56827064Y-76865000D01*
X56372936Y-78335000D02*
X56827064Y-78335000D01*
%TO.C,J7*%
X107370000Y-97580000D02*
X104770000Y-97580000D01*
X102170000Y-97580000D02*
X102170000Y-96250000D01*
X107370000Y-97580000D02*
X107370000Y-87300000D01*
X104770000Y-97580000D02*
X104770000Y-94980000D01*
X107370000Y-87300000D02*
X102170000Y-87300000D01*
X103500000Y-97580000D02*
X102170000Y-97580000D01*
X102170000Y-94980000D02*
X102170000Y-87300000D01*
X104770000Y-94980000D02*
X102170000Y-94980000D01*
%TO.C,R22*%
X49372936Y-90835000D02*
X49827064Y-90835000D01*
X49372936Y-89365000D02*
X49827064Y-89365000D01*
%TO.C,R29*%
X155675064Y-40359000D02*
X155220936Y-40359000D01*
X155675064Y-38889000D02*
X155220936Y-38889000D01*
%TO.C,R31*%
X135101064Y-40359000D02*
X134646936Y-40359000D01*
X135101064Y-38889000D02*
X134646936Y-38889000D01*
%TO.C,U3*%
X54940000Y-83290000D02*
X54940000Y-84790000D01*
X58160000Y-83290000D02*
X58160000Y-80415000D01*
X58160000Y-83290000D02*
X58160000Y-84790000D01*
X54940000Y-83290000D02*
X54940000Y-81790000D01*
%TO.C,C19*%
X59285000Y-82846936D02*
X59285000Y-83301064D01*
X60755000Y-82846936D02*
X60755000Y-83301064D01*
%TO.C,R19*%
X49372936Y-81665000D02*
X49827064Y-81665000D01*
X49372936Y-83135000D02*
X49827064Y-83135000D01*
%TO.C,R17*%
X49372936Y-78135000D02*
X49827064Y-78135000D01*
X49372936Y-76665000D02*
X49827064Y-76665000D01*
%TO.C,JGPIO7*%
X119868000Y-118133000D02*
X119868000Y-119463000D01*
X117268000Y-118133000D02*
X112128000Y-118133000D01*
X117268000Y-120793000D02*
X112128000Y-120793000D01*
X112128000Y-118133000D02*
X112128000Y-120793000D01*
X117268000Y-118133000D02*
X117268000Y-120793000D01*
X118538000Y-118133000D02*
X119868000Y-118133000D01*
%TO.C,R28*%
X111799000Y-65050936D02*
X111799000Y-65505064D01*
X110329000Y-65050936D02*
X110329000Y-65505064D01*
%TO.C,C9*%
X41772936Y-80635000D02*
X42227064Y-80635000D01*
X41772936Y-79165000D02*
X42227064Y-79165000D01*
%TO.C,J1*%
X212558000Y-46203000D02*
X212558000Y-44873000D01*
X217758000Y-47533000D02*
X217758000Y-44873000D01*
X215158000Y-47533000D02*
X217758000Y-47533000D01*
X215158000Y-44873000D02*
X217758000Y-44873000D01*
X215158000Y-47533000D02*
X215158000Y-44873000D01*
X212558000Y-44873000D02*
X213888000Y-44873000D01*
%TO.C,C1*%
X143534000Y-46352113D02*
X144962000Y-46352113D01*
X140014000Y-46392113D02*
X141454000Y-46392113D01*
X140345000Y-45672113D02*
X141454000Y-45672113D01*
X143534000Y-46513113D02*
X145005000Y-46513113D01*
X143534000Y-46112113D02*
X144876000Y-46112113D01*
X141175000Y-44872113D02*
X141454000Y-44872113D01*
X141316000Y-44792113D02*
X143672000Y-44792113D01*
X143534000Y-46793113D02*
X145055000Y-46793113D01*
X139933000Y-46793113D02*
X141454000Y-46793113D01*
X140795000Y-45152113D02*
X141454000Y-45152113D01*
X143534000Y-44952113D02*
X143937000Y-44952113D01*
X143534000Y-46152113D02*
X144892000Y-46152113D01*
X139983000Y-46513113D02*
X141454000Y-46513113D01*
X139944000Y-46713113D02*
X141454000Y-46713113D01*
X140399000Y-45592113D02*
X141454000Y-45592113D01*
X143534000Y-45272113D02*
X144320000Y-45272113D01*
X140841000Y-45112113D02*
X141454000Y-45112113D01*
X140003000Y-46433113D02*
X141454000Y-46433113D01*
X140889000Y-45072113D02*
X141454000Y-45072113D01*
X139993000Y-46473113D02*
X141454000Y-46473113D01*
X141019000Y-49917888D02*
X141019000Y-49417888D01*
X139916000Y-46993113D02*
X145072000Y-46993113D01*
X140052000Y-46272113D02*
X141454000Y-46272113D01*
X139915000Y-47033113D02*
X145073000Y-47033113D01*
X140769000Y-49667888D02*
X141269000Y-49667888D01*
X140039000Y-46312113D02*
X141454000Y-46312113D01*
X143534000Y-45592113D02*
X144589000Y-45592113D01*
X140372000Y-45632113D02*
X141454000Y-45632113D01*
X143534000Y-45312113D02*
X144358000Y-45312113D01*
X143534000Y-46032113D02*
X144842000Y-46032113D01*
X143534000Y-46673113D02*
X145037000Y-46673113D01*
X140165000Y-45992113D02*
X141454000Y-45992113D01*
X143534000Y-46473113D02*
X144995000Y-46473113D01*
X140146000Y-46032113D02*
X141454000Y-46032113D01*
X143534000Y-45072113D02*
X144099000Y-45072113D01*
X143534000Y-46392113D02*
X144974000Y-46392113D01*
X143534000Y-46753113D02*
X145050000Y-46753113D01*
X143534000Y-45872113D02*
X144762000Y-45872113D01*
X139958000Y-46633113D02*
X141454000Y-46633113D01*
X140668000Y-45272113D02*
X141454000Y-45272113D01*
X143534000Y-44832113D02*
X143745000Y-44832113D01*
X143534000Y-46633113D02*
X145030000Y-46633113D01*
X140204000Y-45912113D02*
X141454000Y-45912113D01*
X143534000Y-46272113D02*
X144936000Y-46272113D01*
X143534000Y-45352113D02*
X144395000Y-45352113D01*
X143534000Y-45432113D02*
X144465000Y-45432113D01*
X143534000Y-46232113D02*
X144922000Y-46232113D01*
X140593000Y-45352113D02*
X141454000Y-45352113D01*
X143534000Y-45392113D02*
X144431000Y-45392113D01*
X139951000Y-46673113D02*
X141454000Y-46673113D01*
X140066000Y-46232113D02*
X141454000Y-46232113D01*
X143534000Y-45712113D02*
X144669000Y-45712113D01*
X143534000Y-45232113D02*
X144279000Y-45232113D01*
X139914000Y-47113113D02*
X145074000Y-47113113D01*
X140994000Y-44992113D02*
X141454000Y-44992113D01*
X140429000Y-45552113D02*
X141454000Y-45552113D01*
X143534000Y-46713113D02*
X145044000Y-46713113D01*
X140630000Y-45312113D02*
X141454000Y-45312113D01*
X143534000Y-46433113D02*
X144985000Y-46433113D01*
X143534000Y-45912113D02*
X144784000Y-45912113D01*
X140940000Y-45032113D02*
X141454000Y-45032113D01*
X139918000Y-46953113D02*
X145070000Y-46953113D01*
X143534000Y-45512113D02*
X144529000Y-45512113D01*
X140490000Y-45472113D02*
X141454000Y-45472113D01*
X143534000Y-46553113D02*
X145014000Y-46553113D01*
X139929000Y-46833113D02*
X141454000Y-46833113D01*
X143534000Y-44992113D02*
X143994000Y-44992113D01*
X141483000Y-44712113D02*
X143505000Y-44712113D01*
X140557000Y-45392113D02*
X141454000Y-45392113D01*
X143534000Y-46192113D02*
X144908000Y-46192113D01*
X143534000Y-44872113D02*
X143813000Y-44872113D01*
X140129000Y-46072113D02*
X141454000Y-46072113D01*
X143534000Y-45552113D02*
X144559000Y-45552113D01*
X143534000Y-45472113D02*
X144498000Y-45472113D01*
X140523000Y-45432113D02*
X141454000Y-45432113D01*
X143534000Y-45032113D02*
X144048000Y-45032113D01*
X143534000Y-46593113D02*
X145022000Y-46593113D01*
X140247000Y-45832113D02*
X141454000Y-45832113D01*
X143534000Y-45112113D02*
X144147000Y-45112113D01*
X143534000Y-46873113D02*
X145063000Y-46873113D01*
X141689000Y-44632113D02*
X143299000Y-44632113D01*
X140226000Y-45872113D02*
X141454000Y-45872113D01*
X139925000Y-46873113D02*
X141454000Y-46873113D01*
X140294000Y-45752113D02*
X141454000Y-45752113D01*
X143534000Y-45752113D02*
X144694000Y-45752113D01*
X140080000Y-46192113D02*
X141454000Y-46192113D01*
X143534000Y-45152113D02*
X144193000Y-45152113D01*
X143534000Y-45192113D02*
X144237000Y-45192113D01*
X139938000Y-46753113D02*
X141454000Y-46753113D01*
X140096000Y-46152113D02*
X141454000Y-46152113D01*
X139921000Y-46913113D02*
X145067000Y-46913113D01*
X140459000Y-45512113D02*
X141454000Y-45512113D01*
X143534000Y-46072113D02*
X144859000Y-46072113D01*
X143534000Y-46833113D02*
X145059000Y-46833113D01*
X140026000Y-46352113D02*
X141454000Y-46352113D01*
X141976000Y-44552113D02*
X143012000Y-44552113D01*
X139966000Y-46593113D02*
X141454000Y-46593113D01*
X141396000Y-44752113D02*
X143592000Y-44752113D01*
X140319000Y-45712113D02*
X141454000Y-45712113D01*
X139914000Y-47073113D02*
X145074000Y-47073113D01*
X141817000Y-44592113D02*
X143171000Y-44592113D01*
X141243000Y-44832113D02*
X141454000Y-44832113D01*
X143534000Y-45672113D02*
X144643000Y-45672113D01*
X143534000Y-45792113D02*
X144718000Y-45792113D01*
X143534000Y-44912113D02*
X143877000Y-44912113D01*
X139974000Y-46553113D02*
X141454000Y-46553113D01*
X140751000Y-45192113D02*
X141454000Y-45192113D01*
X143534000Y-45632113D02*
X144616000Y-45632113D01*
X142210000Y-44512113D02*
X142778000Y-44512113D01*
X143534000Y-45992113D02*
X144823000Y-45992113D01*
X143534000Y-45832113D02*
X144741000Y-45832113D01*
X141111000Y-44912113D02*
X141454000Y-44912113D01*
X141579000Y-44672113D02*
X143409000Y-44672113D01*
X143534000Y-45952113D02*
X144804000Y-45952113D01*
X140112000Y-46112113D02*
X141454000Y-46112113D01*
X143534000Y-46312113D02*
X144949000Y-46312113D01*
X141051000Y-44952113D02*
X141454000Y-44952113D01*
X140270000Y-45792113D02*
X141454000Y-45792113D01*
X140709000Y-45232113D02*
X141454000Y-45232113D01*
X140184000Y-45952113D02*
X141454000Y-45952113D01*
X145114000Y-47113113D02*
G75*
G03*
X145114000Y-47113113I-2620000J0D01*
G01*
%TO.C,R9*%
X37715000Y-59522936D02*
X37715000Y-59977064D01*
X39185000Y-59522936D02*
X39185000Y-59977064D01*
%TO.C,J17*%
X152146000Y-123658000D02*
X153476000Y-123658000D01*
X153476000Y-126258000D02*
X153476000Y-128858000D01*
X150816000Y-128858000D02*
X153476000Y-128858000D01*
X150816000Y-126258000D02*
X150816000Y-128858000D01*
X150816000Y-126258000D02*
X153476000Y-126258000D01*
X153476000Y-123658000D02*
X153476000Y-124988000D01*
%TO.C,JRP2040R_1*%
X130130000Y-62165000D02*
X81810000Y-62165000D01*
X132730000Y-62165000D02*
X131400000Y-62165000D01*
X81810000Y-59505000D02*
X81810000Y-62165000D01*
X130130000Y-59505000D02*
X81810000Y-59505000D01*
X132730000Y-60835000D02*
X132730000Y-62165000D01*
X130130000Y-59505000D02*
X130130000Y-62165000D01*
%TO.C,J2*%
X43434000Y-108264000D02*
X25594000Y-108264000D01*
X43434000Y-105604000D02*
X43434000Y-108264000D01*
X46034000Y-106934000D02*
X46034000Y-108264000D01*
X43434000Y-105604000D02*
X25594000Y-105604000D01*
X25594000Y-105604000D02*
X25594000Y-108264000D01*
X46034000Y-108264000D02*
X44704000Y-108264000D01*
%TO.C,J4*%
X103886000Y-104200000D02*
X103886000Y-101540000D01*
X101286000Y-101540000D02*
X102616000Y-101540000D01*
X103886000Y-101540000D02*
X106486000Y-101540000D01*
X106486000Y-104200000D02*
X106486000Y-101540000D01*
X103886000Y-104200000D02*
X106486000Y-104200000D01*
X101286000Y-102870000D02*
X101286000Y-101540000D01*
%TO.C,R38*%
X73087936Y-36349000D02*
X73542064Y-36349000D01*
X73087936Y-37819000D02*
X73542064Y-37819000D01*
%TO.C,C4*%
X125035000Y-54027064D02*
X125035000Y-53572936D01*
X123565000Y-54027064D02*
X123565000Y-53572936D01*
%TO.C,R1*%
X97335064Y-123398000D02*
X96880936Y-123398000D01*
X97335064Y-121928000D02*
X96880936Y-121928000D01*
%TO.C,C20*%
X67015000Y-85317064D02*
X67015000Y-84862936D01*
X68485000Y-85317064D02*
X68485000Y-84862936D01*
%TO.C,J_V1*%
X126370000Y-33170000D02*
X126370000Y-40910000D01*
X131570000Y-33170000D02*
X131570000Y-34500000D01*
X128970000Y-33170000D02*
X128970000Y-35770000D01*
X126370000Y-40910000D02*
X131570000Y-40910000D01*
X126370000Y-33170000D02*
X128970000Y-33170000D01*
X128970000Y-35770000D02*
X131570000Y-35770000D01*
X130240000Y-33170000D02*
X131570000Y-33170000D01*
X131570000Y-35770000D02*
X131570000Y-40910000D01*
%TO.C,C10*%
X41772936Y-84435000D02*
X42227064Y-84435000D01*
X41772936Y-82965000D02*
X42227064Y-82965000D01*
%TO.C,J8*%
X60720000Y-45495000D02*
X60720000Y-63335000D01*
X55520000Y-63335000D02*
X60720000Y-63335000D01*
X58120000Y-45495000D02*
X60720000Y-45495000D01*
X55520000Y-42895000D02*
X55520000Y-63335000D01*
X58120000Y-42895000D02*
X58120000Y-45495000D01*
X55520000Y-42895000D02*
X58120000Y-42895000D01*
X59390000Y-42895000D02*
X60720000Y-42895000D01*
X60720000Y-42895000D02*
X60720000Y-44225000D01*
%TO.C,R3*%
X113740064Y-121928000D02*
X113285936Y-121928000D01*
X113740064Y-123398000D02*
X113285936Y-123398000D01*
%TO.C,R27*%
X56372936Y-89365000D02*
X56827064Y-89365000D01*
X56372936Y-90835000D02*
X56827064Y-90835000D01*
%TO.C,R13*%
X128565000Y-54027064D02*
X128565000Y-53572936D01*
X130035000Y-54027064D02*
X130035000Y-53572936D01*
%TO.C,R37*%
X73542064Y-40359000D02*
X73087936Y-40359000D01*
X73542064Y-38889000D02*
X73087936Y-38889000D01*
%TO.C,U4*%
X69340000Y-83600000D02*
X69340000Y-82100000D01*
X69340000Y-83600000D02*
X69340000Y-85100000D01*
X72560000Y-83600000D02*
X72560000Y-85100000D01*
X72560000Y-83600000D02*
X72560000Y-80675000D01*
%TO.C,J6*%
X134426000Y-87182000D02*
X133096000Y-87182000D01*
X131826000Y-84522000D02*
X113986000Y-84522000D01*
X113986000Y-84522000D02*
X113986000Y-87182000D01*
X134426000Y-85852000D02*
X134426000Y-87182000D01*
X131826000Y-84522000D02*
X131826000Y-87182000D01*
X131826000Y-87182000D02*
X113986000Y-87182000D01*
%TD*%
M02*
