%TF.GenerationSoftware,KiCad,Pcbnew,6.0.8-f2edbf62ab~116~ubuntu20.04.1*%
%TF.CreationDate,2023-10-04T21:41:10+02:00*%
%TF.ProjectId,Board_Bluetooth_radio_platform,426f6172-645f-4426-9c75-65746f6f7468,1.1*%
%TF.SameCoordinates,Original*%
%TF.FileFunction,Legend,Top*%
%TF.FilePolarity,Positive*%
%FSLAX46Y46*%
G04 Gerber Fmt 4.6, Leading zero omitted, Abs format (unit mm)*
G04 Created by KiCad (PCBNEW 6.0.8-f2edbf62ab~116~ubuntu20.04.1) date 2023-10-04 21:41:10*
%MOMM*%
%LPD*%
G01*
G04 APERTURE LIST*
%TA.AperFunction,Profile*%
%ADD10C,0.100000*%
%TD*%
%ADD11C,0.150000*%
%ADD12C,0.120000*%
G04 APERTURE END LIST*
D10*
X277500000Y-19000000D02*
X277500000Y-45000000D01*
X277500000Y-45000000D02*
X250500000Y-45000000D01*
X57000000Y-106000000D02*
X133000000Y-105934000D01*
X202500000Y-140000000D02*
X202500000Y-93000000D01*
X64000000Y-19000000D02*
X64000000Y-44000000D01*
X250500000Y-45000000D02*
G75*
G03*
X202500000Y-93000000I0J-48000000D01*
G01*
X133000000Y-140000000D02*
X202500000Y-140000000D01*
X133000000Y-105934000D02*
X133000000Y-140000000D01*
X57000000Y-44000000D02*
X57000000Y-106000000D01*
X64000000Y-44000000D02*
X57000000Y-44000000D01*
X64000000Y-19000000D02*
X277500000Y-19000000D01*
X58666666Y-19000000D02*
G75*
G03*
X58666666Y-19000000I-1666666J0D01*
G01*
X54500000Y-19000000D02*
X59500000Y-19000000D01*
X57000000Y-16500000D02*
X57000000Y-21500000D01*
D11*
%TO.C,J_III1*%
X233971428Y-39452380D02*
X233971428Y-40166666D01*
X233923809Y-40309523D01*
X233828571Y-40404761D01*
X233685714Y-40452380D01*
X233590476Y-40452380D01*
X234209523Y-40547619D02*
X234971428Y-40547619D01*
X235209523Y-40452380D02*
X235209523Y-39452380D01*
X235685714Y-40452380D02*
X235685714Y-39452380D01*
X236161904Y-40452380D02*
X236161904Y-39452380D01*
X237161904Y-40452380D02*
X236590476Y-40452380D01*
X236876190Y-40452380D02*
X236876190Y-39452380D01*
X236780952Y-39595238D01*
X236685714Y-39690476D01*
X236590476Y-39738095D01*
%TO.C,C11*%
X72452142Y-77750989D02*
X72404523Y-77798608D01*
X72261666Y-77846227D01*
X72166428Y-77846227D01*
X72023571Y-77798608D01*
X71928333Y-77703370D01*
X71880714Y-77608132D01*
X71833095Y-77417656D01*
X71833095Y-77274799D01*
X71880714Y-77084323D01*
X71928333Y-76989085D01*
X72023571Y-76893847D01*
X72166428Y-76846227D01*
X72261666Y-76846227D01*
X72404523Y-76893847D01*
X72452142Y-76941466D01*
X73404523Y-77846227D02*
X72833095Y-77846227D01*
X73118809Y-77846227D02*
X73118809Y-76846227D01*
X73023571Y-76989085D01*
X72928333Y-77084323D01*
X72833095Y-77131942D01*
X74356904Y-77846227D02*
X73785476Y-77846227D01*
X74071190Y-77846227D02*
X74071190Y-76846227D01*
X73975952Y-76989085D01*
X73880714Y-77084323D01*
X73785476Y-77131942D01*
%TO.C,C17*%
X95857142Y-78537142D02*
X95809523Y-78584761D01*
X95666666Y-78632380D01*
X95571428Y-78632380D01*
X95428571Y-78584761D01*
X95333333Y-78489523D01*
X95285714Y-78394285D01*
X95238095Y-78203809D01*
X95238095Y-78060952D01*
X95285714Y-77870476D01*
X95333333Y-77775238D01*
X95428571Y-77680000D01*
X95571428Y-77632380D01*
X95666666Y-77632380D01*
X95809523Y-77680000D01*
X95857142Y-77727619D01*
X96809523Y-78632380D02*
X96238095Y-78632380D01*
X96523809Y-78632380D02*
X96523809Y-77632380D01*
X96428571Y-77775238D01*
X96333333Y-77870476D01*
X96238095Y-77918095D01*
X97142857Y-77632380D02*
X97809523Y-77632380D01*
X97380952Y-78632380D01*
%TO.C,J_sys1*%
X201244380Y-49606761D02*
X201958666Y-49606761D01*
X202101523Y-49654380D01*
X202196761Y-49749619D01*
X202244380Y-49892476D01*
X202244380Y-49987714D01*
X202339619Y-49368666D02*
X202339619Y-48606761D01*
X202196761Y-48416285D02*
X202244380Y-48321047D01*
X202244380Y-48130571D01*
X202196761Y-48035333D01*
X202101523Y-47987714D01*
X202053904Y-47987714D01*
X201958666Y-48035333D01*
X201911047Y-48130571D01*
X201911047Y-48273428D01*
X201863428Y-48368666D01*
X201768190Y-48416285D01*
X201720571Y-48416285D01*
X201625333Y-48368666D01*
X201577714Y-48273428D01*
X201577714Y-48130571D01*
X201625333Y-48035333D01*
X201577714Y-47654380D02*
X202244380Y-47416285D01*
X201577714Y-47178190D02*
X202244380Y-47416285D01*
X202482476Y-47511523D01*
X202530095Y-47559142D01*
X202577714Y-47654380D01*
X202196761Y-46844857D02*
X202244380Y-46749619D01*
X202244380Y-46559142D01*
X202196761Y-46463904D01*
X202101523Y-46416285D01*
X202053904Y-46416285D01*
X201958666Y-46463904D01*
X201911047Y-46559142D01*
X201911047Y-46702000D01*
X201863428Y-46797238D01*
X201768190Y-46844857D01*
X201720571Y-46844857D01*
X201625333Y-46797238D01*
X201577714Y-46702000D01*
X201577714Y-46559142D01*
X201625333Y-46463904D01*
X202244380Y-45463904D02*
X202244380Y-46035333D01*
X202244380Y-45749619D02*
X201244380Y-45749619D01*
X201387238Y-45844857D01*
X201482476Y-45940095D01*
X201530095Y-46035333D01*
%TO.C,J_VI1*%
X164485712Y-38880952D02*
X165199998Y-38880952D01*
X165342855Y-38928571D01*
X165438093Y-39023809D01*
X165485712Y-39166666D01*
X165485712Y-39261904D01*
X165580951Y-38642857D02*
X165580951Y-37880952D01*
X164485712Y-37785714D02*
X165485712Y-37452380D01*
X164485712Y-37119047D01*
X165485712Y-36785714D02*
X164485712Y-36785714D01*
X165485712Y-35785714D02*
X165485712Y-36357142D01*
X165485712Y-36071428D02*
X164485712Y-36071428D01*
X164628570Y-36166666D01*
X164723808Y-36261904D01*
X164771427Y-36357142D01*
%TO.C,C6*%
X185589142Y-55900666D02*
X185636761Y-55948285D01*
X185684380Y-56091142D01*
X185684380Y-56186380D01*
X185636761Y-56329238D01*
X185541523Y-56424476D01*
X185446285Y-56472095D01*
X185255809Y-56519714D01*
X185112952Y-56519714D01*
X184922476Y-56472095D01*
X184827238Y-56424476D01*
X184732000Y-56329238D01*
X184684380Y-56186380D01*
X184684380Y-56091142D01*
X184732000Y-55948285D01*
X184779619Y-55900666D01*
X184684380Y-55043523D02*
X184684380Y-55234000D01*
X184732000Y-55329238D01*
X184779619Y-55376857D01*
X184922476Y-55472095D01*
X185112952Y-55519714D01*
X185493904Y-55519714D01*
X185589142Y-55472095D01*
X185636761Y-55424476D01*
X185684380Y-55329238D01*
X185684380Y-55138761D01*
X185636761Y-55043523D01*
X185589142Y-54995904D01*
X185493904Y-54948285D01*
X185255809Y-54948285D01*
X185160571Y-54995904D01*
X185112952Y-55043523D01*
X185065333Y-55138761D01*
X185065333Y-55329238D01*
X185112952Y-55424476D01*
X185160571Y-55472095D01*
X185255809Y-55519714D01*
%TO.C,J_pwrLed1*%
X170246380Y-119039714D02*
X170960666Y-119039714D01*
X171103523Y-119087333D01*
X171198761Y-119182571D01*
X171246380Y-119325428D01*
X171246380Y-119420666D01*
X171341619Y-118801619D02*
X171341619Y-118039714D01*
X170579714Y-117801619D02*
X171579714Y-117801619D01*
X170627333Y-117801619D02*
X170579714Y-117706380D01*
X170579714Y-117515904D01*
X170627333Y-117420666D01*
X170674952Y-117373047D01*
X170770190Y-117325428D01*
X171055904Y-117325428D01*
X171151142Y-117373047D01*
X171198761Y-117420666D01*
X171246380Y-117515904D01*
X171246380Y-117706380D01*
X171198761Y-117801619D01*
X170579714Y-116992095D02*
X171246380Y-116801619D01*
X170770190Y-116611142D01*
X171246380Y-116420666D01*
X170579714Y-116230190D01*
X171246380Y-115849238D02*
X170579714Y-115849238D01*
X170770190Y-115849238D02*
X170674952Y-115801619D01*
X170627333Y-115754000D01*
X170579714Y-115658761D01*
X170579714Y-115563523D01*
X171246380Y-114754000D02*
X171246380Y-115230190D01*
X170246380Y-115230190D01*
X171198761Y-114039714D02*
X171246380Y-114134952D01*
X171246380Y-114325428D01*
X171198761Y-114420666D01*
X171103523Y-114468285D01*
X170722571Y-114468285D01*
X170627333Y-114420666D01*
X170579714Y-114325428D01*
X170579714Y-114134952D01*
X170627333Y-114039714D01*
X170722571Y-113992095D01*
X170817809Y-113992095D01*
X170913047Y-114468285D01*
X171246380Y-113134952D02*
X170246380Y-113134952D01*
X171198761Y-113134952D02*
X171246380Y-113230190D01*
X171246380Y-113420666D01*
X171198761Y-113515904D01*
X171151142Y-113563523D01*
X171055904Y-113611142D01*
X170770190Y-113611142D01*
X170674952Y-113563523D01*
X170627333Y-113515904D01*
X170579714Y-113420666D01*
X170579714Y-113230190D01*
X170627333Y-113134952D01*
X171246380Y-112134952D02*
X171246380Y-112706380D01*
X171246380Y-112420666D02*
X170246380Y-112420666D01*
X170389238Y-112515904D01*
X170484476Y-112611142D01*
X170532095Y-112706380D01*
%TO.C,J13*%
X192339476Y-99439380D02*
X192339476Y-100153666D01*
X192291857Y-100296523D01*
X192196619Y-100391761D01*
X192053761Y-100439380D01*
X191958523Y-100439380D01*
X193339476Y-100439380D02*
X192768047Y-100439380D01*
X193053761Y-100439380D02*
X193053761Y-99439380D01*
X192958523Y-99582238D01*
X192863285Y-99677476D01*
X192768047Y-99725095D01*
X193672809Y-99439380D02*
X194291857Y-99439380D01*
X193958523Y-99820333D01*
X194101380Y-99820333D01*
X194196619Y-99867952D01*
X194244238Y-99915571D01*
X194291857Y-100010809D01*
X194291857Y-100248904D01*
X194244238Y-100344142D01*
X194196619Y-100391761D01*
X194101380Y-100439380D01*
X193815666Y-100439380D01*
X193720428Y-100391761D01*
X193672809Y-100344142D01*
%TO.C,J3*%
X110353666Y-93610227D02*
X110353666Y-94324513D01*
X110306047Y-94467370D01*
X110210809Y-94562608D01*
X110067952Y-94610227D01*
X109972714Y-94610227D01*
X110734619Y-93610227D02*
X111353666Y-93610227D01*
X111020333Y-93991180D01*
X111163190Y-93991180D01*
X111258428Y-94038799D01*
X111306047Y-94086418D01*
X111353666Y-94181656D01*
X111353666Y-94419751D01*
X111306047Y-94514989D01*
X111258428Y-94562608D01*
X111163190Y-94610227D01*
X110877476Y-94610227D01*
X110782238Y-94562608D01*
X110734619Y-94514989D01*
%TO.C,R43*%
X121337642Y-81959880D02*
X121004309Y-81483690D01*
X120766214Y-81959880D02*
X120766214Y-80959880D01*
X121147166Y-80959880D01*
X121242404Y-81007500D01*
X121290023Y-81055119D01*
X121337642Y-81150357D01*
X121337642Y-81293214D01*
X121290023Y-81388452D01*
X121242404Y-81436071D01*
X121147166Y-81483690D01*
X120766214Y-81483690D01*
X122194785Y-81293214D02*
X122194785Y-81959880D01*
X121956690Y-80912261D02*
X121718595Y-81626547D01*
X122337642Y-81626547D01*
X122623357Y-80959880D02*
X123242404Y-80959880D01*
X122909071Y-81340833D01*
X123051928Y-81340833D01*
X123147166Y-81388452D01*
X123194785Y-81436071D01*
X123242404Y-81531309D01*
X123242404Y-81769404D01*
X123194785Y-81864642D01*
X123147166Y-81912261D01*
X123051928Y-81959880D01*
X122766214Y-81959880D01*
X122670976Y-81912261D01*
X122623357Y-81864642D01*
%TO.C,C16*%
X95857142Y-66037142D02*
X95809523Y-66084761D01*
X95666666Y-66132380D01*
X95571428Y-66132380D01*
X95428571Y-66084761D01*
X95333333Y-65989523D01*
X95285714Y-65894285D01*
X95238095Y-65703809D01*
X95238095Y-65560952D01*
X95285714Y-65370476D01*
X95333333Y-65275238D01*
X95428571Y-65180000D01*
X95571428Y-65132380D01*
X95666666Y-65132380D01*
X95809523Y-65180000D01*
X95857142Y-65227619D01*
X96809523Y-66132380D02*
X96238095Y-66132380D01*
X96523809Y-66132380D02*
X96523809Y-65132380D01*
X96428571Y-65275238D01*
X96333333Y-65370476D01*
X96238095Y-65418095D01*
X97666666Y-65132380D02*
X97476190Y-65132380D01*
X97380952Y-65180000D01*
X97333333Y-65227619D01*
X97238095Y-65370476D01*
X97190476Y-65560952D01*
X97190476Y-65941904D01*
X97238095Y-66037142D01*
X97285714Y-66084761D01*
X97380952Y-66132380D01*
X97571428Y-66132380D01*
X97666666Y-66084761D01*
X97714285Y-66037142D01*
X97761904Y-65941904D01*
X97761904Y-65703809D01*
X97714285Y-65608571D01*
X97666666Y-65560952D01*
X97571428Y-65513333D01*
X97380952Y-65513333D01*
X97285714Y-65560952D01*
X97238095Y-65608571D01*
X97190476Y-65703809D01*
%TO.C,J_IX1*%
X103335713Y-44428571D02*
X104049999Y-44428571D01*
X104192856Y-44476190D01*
X104288094Y-44571428D01*
X104335713Y-44714285D01*
X104335713Y-44809523D01*
X104430952Y-44190476D02*
X104430952Y-43428571D01*
X104335713Y-43190476D02*
X103335713Y-43190476D01*
X103335713Y-42809523D02*
X104335713Y-42142857D01*
X103335713Y-42142857D02*
X104335713Y-42809523D01*
X104335713Y-41238095D02*
X104335713Y-41809523D01*
X104335713Y-41523809D02*
X103335713Y-41523809D01*
X103478571Y-41619047D01*
X103573809Y-41714285D01*
X103621428Y-41809523D01*
%TO.C,J_I1*%
X270147619Y-40452380D02*
X270147619Y-41166666D01*
X270100000Y-41309523D01*
X270004761Y-41404761D01*
X269861904Y-41452380D01*
X269766666Y-41452380D01*
X270385714Y-41547619D02*
X271147619Y-41547619D01*
X271385714Y-41452380D02*
X271385714Y-40452380D01*
X272385714Y-41452380D02*
X271814285Y-41452380D01*
X272100000Y-41452380D02*
X272100000Y-40452380D01*
X272004761Y-40595238D01*
X271909523Y-40690476D01*
X271814285Y-40738095D01*
%TO.C,J8*%
X100166666Y-38952380D02*
X100166666Y-39666666D01*
X100119047Y-39809523D01*
X100023809Y-39904761D01*
X99880952Y-39952380D01*
X99785714Y-39952380D01*
X100785714Y-39380952D02*
X100690476Y-39333333D01*
X100642857Y-39285714D01*
X100595238Y-39190476D01*
X100595238Y-39142857D01*
X100642857Y-39047619D01*
X100690476Y-39000000D01*
X100785714Y-38952380D01*
X100976190Y-38952380D01*
X101071428Y-39000000D01*
X101119047Y-39047619D01*
X101166666Y-39142857D01*
X101166666Y-39190476D01*
X101119047Y-39285714D01*
X101071428Y-39333333D01*
X100976190Y-39380952D01*
X100785714Y-39380952D01*
X100690476Y-39428571D01*
X100642857Y-39476190D01*
X100595238Y-39571428D01*
X100595238Y-39761904D01*
X100642857Y-39857142D01*
X100690476Y-39904761D01*
X100785714Y-39952380D01*
X100976190Y-39952380D01*
X101071428Y-39904761D01*
X101119047Y-39857142D01*
X101166666Y-39761904D01*
X101166666Y-39571428D01*
X101119047Y-39476190D01*
X101071428Y-39428571D01*
X100976190Y-39380952D01*
%TO.C,J11*%
X173054476Y-50202380D02*
X173054476Y-50916666D01*
X173006857Y-51059523D01*
X172911619Y-51154761D01*
X172768761Y-51202380D01*
X172673523Y-51202380D01*
X174054476Y-51202380D02*
X173483047Y-51202380D01*
X173768761Y-51202380D02*
X173768761Y-50202380D01*
X173673523Y-50345238D01*
X173578285Y-50440476D01*
X173483047Y-50488095D01*
X175006857Y-51202380D02*
X174435428Y-51202380D01*
X174721142Y-51202380D02*
X174721142Y-50202380D01*
X174625904Y-50345238D01*
X174530666Y-50440476D01*
X174435428Y-50488095D01*
%TO.C,REF5*%
X125452380Y-97452380D02*
X125119047Y-96976190D01*
X124880952Y-97452380D02*
X124880952Y-96452380D01*
X125261904Y-96452380D01*
X125357142Y-96500000D01*
X125404761Y-96547619D01*
X125452380Y-96642857D01*
X125452380Y-96785714D01*
X125404761Y-96880952D01*
X125357142Y-96928571D01*
X125261904Y-96976190D01*
X124880952Y-96976190D01*
X125880952Y-96928571D02*
X126214285Y-96928571D01*
X126357142Y-97452380D02*
X125880952Y-97452380D01*
X125880952Y-96452380D01*
X126357142Y-96452380D01*
X127119047Y-96928571D02*
X126785714Y-96928571D01*
X126785714Y-97452380D02*
X126785714Y-96452380D01*
X127261904Y-96452380D01*
X128119047Y-96452380D02*
X127642857Y-96452380D01*
X127595238Y-96928571D01*
X127642857Y-96880952D01*
X127738095Y-96833333D01*
X127976190Y-96833333D01*
X128071428Y-96880952D01*
X128119047Y-96928571D01*
X128166666Y-97023809D01*
X128166666Y-97261904D01*
X128119047Y-97357142D01*
X128071428Y-97404761D01*
X127976190Y-97452380D01*
X127738095Y-97452380D01*
X127642857Y-97404761D01*
X127595238Y-97357142D01*
%TO.C,J12*%
X154298476Y-50306380D02*
X154298476Y-51020666D01*
X154250857Y-51163523D01*
X154155619Y-51258761D01*
X154012761Y-51306380D01*
X153917523Y-51306380D01*
X155298476Y-51306380D02*
X154727047Y-51306380D01*
X155012761Y-51306380D02*
X155012761Y-50306380D01*
X154917523Y-50449238D01*
X154822285Y-50544476D01*
X154727047Y-50592095D01*
X155679428Y-50401619D02*
X155727047Y-50354000D01*
X155822285Y-50306380D01*
X156060380Y-50306380D01*
X156155619Y-50354000D01*
X156203238Y-50401619D01*
X156250857Y-50496857D01*
X156250857Y-50592095D01*
X156203238Y-50734952D01*
X155631809Y-51306380D01*
X156250857Y-51306380D01*
%TO.C,J_VIII1*%
X123719046Y-44857142D02*
X124433332Y-44857142D01*
X124576189Y-44904761D01*
X124671427Y-45000000D01*
X124719046Y-45142857D01*
X124719046Y-45238095D01*
X124814285Y-44619047D02*
X124814285Y-43857142D01*
X123719046Y-43761904D02*
X124719046Y-43428571D01*
X123719046Y-43095238D01*
X124719046Y-42761904D02*
X123719046Y-42761904D01*
X124719046Y-42285714D02*
X123719046Y-42285714D01*
X124719046Y-41809523D02*
X123719046Y-41809523D01*
X124719046Y-40809523D02*
X124719046Y-41380952D01*
X124719046Y-41095238D02*
X123719046Y-41095238D01*
X123861904Y-41190476D01*
X123957142Y-41285714D01*
X124004761Y-41380952D01*
%TO.C,U1*%
X148696095Y-125540380D02*
X148696095Y-126349904D01*
X148743714Y-126445142D01*
X148791333Y-126492761D01*
X148886571Y-126540380D01*
X149077047Y-126540380D01*
X149172285Y-126492761D01*
X149219904Y-126445142D01*
X149267523Y-126349904D01*
X149267523Y-125540380D01*
X150267523Y-126540380D02*
X149696095Y-126540380D01*
X149981809Y-126540380D02*
X149981809Y-125540380D01*
X149886571Y-125683238D01*
X149791333Y-125778476D01*
X149696095Y-125826095D01*
%TO.C,R16*%
X162254380Y-56776857D02*
X161778190Y-57110190D01*
X162254380Y-57348285D02*
X161254380Y-57348285D01*
X161254380Y-56967333D01*
X161302000Y-56872095D01*
X161349619Y-56824476D01*
X161444857Y-56776857D01*
X161587714Y-56776857D01*
X161682952Y-56824476D01*
X161730571Y-56872095D01*
X161778190Y-56967333D01*
X161778190Y-57348285D01*
X162254380Y-55824476D02*
X162254380Y-56395904D01*
X162254380Y-56110190D02*
X161254380Y-56110190D01*
X161397238Y-56205428D01*
X161492476Y-56300666D01*
X161540095Y-56395904D01*
X161254380Y-54967333D02*
X161254380Y-55157809D01*
X161302000Y-55253047D01*
X161349619Y-55300666D01*
X161492476Y-55395904D01*
X161682952Y-55443523D01*
X162063904Y-55443523D01*
X162159142Y-55395904D01*
X162206761Y-55348285D01*
X162254380Y-55253047D01*
X162254380Y-55062571D01*
X162206761Y-54967333D01*
X162159142Y-54919714D01*
X162063904Y-54872095D01*
X161825809Y-54872095D01*
X161730571Y-54919714D01*
X161682952Y-54967333D01*
X161635333Y-55062571D01*
X161635333Y-55253047D01*
X161682952Y-55348285D01*
X161730571Y-55395904D01*
X161825809Y-55443523D01*
%TO.C,J14*%
X106829476Y-79640227D02*
X106829476Y-80354513D01*
X106781857Y-80497370D01*
X106686619Y-80592608D01*
X106543761Y-80640227D01*
X106448523Y-80640227D01*
X107829476Y-80640227D02*
X107258047Y-80640227D01*
X107543761Y-80640227D02*
X107543761Y-79640227D01*
X107448523Y-79783085D01*
X107353285Y-79878323D01*
X107258047Y-79925942D01*
X108686619Y-79973561D02*
X108686619Y-80640227D01*
X108448523Y-79592608D02*
X108210428Y-80306894D01*
X108829476Y-80306894D01*
%TO.C,J_VII1*%
X146776283Y-41452380D02*
X146776283Y-42166666D01*
X146728664Y-42309523D01*
X146633426Y-42404761D01*
X146490569Y-42452380D01*
X146395331Y-42452380D01*
X147014378Y-42547619D02*
X147776283Y-42547619D01*
X147871521Y-41452380D02*
X148204854Y-42452380D01*
X148538188Y-41452380D01*
X148871521Y-42452380D02*
X148871521Y-41452380D01*
X149347711Y-42452380D02*
X149347711Y-41452380D01*
X150347711Y-42452380D02*
X149776283Y-42452380D01*
X150061997Y-42452380D02*
X150061997Y-41452380D01*
X149966759Y-41595238D01*
X149871521Y-41690476D01*
X149776283Y-41738095D01*
%TO.C,R30*%
X217913142Y-36470380D02*
X217579809Y-35994190D01*
X217341714Y-36470380D02*
X217341714Y-35470380D01*
X217722666Y-35470380D01*
X217817904Y-35518000D01*
X217865523Y-35565619D01*
X217913142Y-35660857D01*
X217913142Y-35803714D01*
X217865523Y-35898952D01*
X217817904Y-35946571D01*
X217722666Y-35994190D01*
X217341714Y-35994190D01*
X218246476Y-35470380D02*
X218865523Y-35470380D01*
X218532190Y-35851333D01*
X218675047Y-35851333D01*
X218770285Y-35898952D01*
X218817904Y-35946571D01*
X218865523Y-36041809D01*
X218865523Y-36279904D01*
X218817904Y-36375142D01*
X218770285Y-36422761D01*
X218675047Y-36470380D01*
X218389333Y-36470380D01*
X218294095Y-36422761D01*
X218246476Y-36375142D01*
X219484571Y-35470380D02*
X219579809Y-35470380D01*
X219675047Y-35518000D01*
X219722666Y-35565619D01*
X219770285Y-35660857D01*
X219817904Y-35851333D01*
X219817904Y-36089428D01*
X219770285Y-36279904D01*
X219722666Y-36375142D01*
X219675047Y-36422761D01*
X219579809Y-36470380D01*
X219484571Y-36470380D01*
X219389333Y-36422761D01*
X219341714Y-36375142D01*
X219294095Y-36279904D01*
X219246476Y-36089428D01*
X219246476Y-35851333D01*
X219294095Y-35660857D01*
X219341714Y-35565619D01*
X219389333Y-35518000D01*
X219484571Y-35470380D01*
%TO.C,D2*%
X67052380Y-51038095D02*
X66052380Y-51038095D01*
X66052380Y-50800000D01*
X66100000Y-50657142D01*
X66195238Y-50561904D01*
X66290476Y-50514285D01*
X66480952Y-50466666D01*
X66623809Y-50466666D01*
X66814285Y-50514285D01*
X66909523Y-50561904D01*
X67004761Y-50657142D01*
X67052380Y-50800000D01*
X67052380Y-51038095D01*
X66147619Y-50085714D02*
X66100000Y-50038095D01*
X66052380Y-49942857D01*
X66052380Y-49704761D01*
X66100000Y-49609523D01*
X66147619Y-49561904D01*
X66242857Y-49514285D01*
X66338095Y-49514285D01*
X66480952Y-49561904D01*
X67052380Y-50133333D01*
X67052380Y-49514285D01*
%TO.C,R32*%
X197889142Y-36470380D02*
X197555809Y-35994190D01*
X197317714Y-36470380D02*
X197317714Y-35470380D01*
X197698666Y-35470380D01*
X197793904Y-35518000D01*
X197841523Y-35565619D01*
X197889142Y-35660857D01*
X197889142Y-35803714D01*
X197841523Y-35898952D01*
X197793904Y-35946571D01*
X197698666Y-35994190D01*
X197317714Y-35994190D01*
X198222476Y-35470380D02*
X198841523Y-35470380D01*
X198508190Y-35851333D01*
X198651047Y-35851333D01*
X198746285Y-35898952D01*
X198793904Y-35946571D01*
X198841523Y-36041809D01*
X198841523Y-36279904D01*
X198793904Y-36375142D01*
X198746285Y-36422761D01*
X198651047Y-36470380D01*
X198365333Y-36470380D01*
X198270095Y-36422761D01*
X198222476Y-36375142D01*
X199222476Y-35565619D02*
X199270095Y-35518000D01*
X199365333Y-35470380D01*
X199603428Y-35470380D01*
X199698666Y-35518000D01*
X199746285Y-35565619D01*
X199793904Y-35660857D01*
X199793904Y-35756095D01*
X199746285Y-35898952D01*
X199174857Y-36470380D01*
X199793904Y-36470380D01*
%TO.C,JGPIO9*%
X81404761Y-95452380D02*
X81404761Y-96166666D01*
X81357142Y-96309523D01*
X81261904Y-96404761D01*
X81119047Y-96452380D01*
X81023809Y-96452380D01*
X82404761Y-95500000D02*
X82309523Y-95452380D01*
X82166666Y-95452380D01*
X82023809Y-95500000D01*
X81928571Y-95595238D01*
X81880952Y-95690476D01*
X81833333Y-95880952D01*
X81833333Y-96023809D01*
X81880952Y-96214285D01*
X81928571Y-96309523D01*
X82023809Y-96404761D01*
X82166666Y-96452380D01*
X82261904Y-96452380D01*
X82404761Y-96404761D01*
X82452380Y-96357142D01*
X82452380Y-96023809D01*
X82261904Y-96023809D01*
X82880952Y-96452380D02*
X82880952Y-95452380D01*
X83261904Y-95452380D01*
X83357142Y-95500000D01*
X83404761Y-95547619D01*
X83452380Y-95642857D01*
X83452380Y-95785714D01*
X83404761Y-95880952D01*
X83357142Y-95928571D01*
X83261904Y-95976190D01*
X82880952Y-95976190D01*
X83880952Y-96452380D02*
X83880952Y-95452380D01*
X84547619Y-95452380D02*
X84738095Y-95452380D01*
X84833333Y-95500000D01*
X84928571Y-95595238D01*
X84976190Y-95785714D01*
X84976190Y-96119047D01*
X84928571Y-96309523D01*
X84833333Y-96404761D01*
X84738095Y-96452380D01*
X84547619Y-96452380D01*
X84452380Y-96404761D01*
X84357142Y-96309523D01*
X84309523Y-96119047D01*
X84309523Y-95785714D01*
X84357142Y-95595238D01*
X84452380Y-95500000D01*
X84547619Y-95452380D01*
X85452380Y-96452380D02*
X85642857Y-96452380D01*
X85738095Y-96404761D01*
X85785714Y-96357142D01*
X85880952Y-96214285D01*
X85928571Y-96023809D01*
X85928571Y-95642857D01*
X85880952Y-95547619D01*
X85833333Y-95500000D01*
X85738095Y-95452380D01*
X85547619Y-95452380D01*
X85452380Y-95500000D01*
X85404761Y-95547619D01*
X85357142Y-95642857D01*
X85357142Y-95880952D01*
X85404761Y-95976190D01*
X85452380Y-96023809D01*
X85547619Y-96071428D01*
X85738095Y-96071428D01*
X85833333Y-96023809D01*
X85880952Y-95976190D01*
X85928571Y-95880952D01*
%TO.C,J9*%
X198452380Y-70833333D02*
X199166666Y-70833333D01*
X199309523Y-70880952D01*
X199404761Y-70976190D01*
X199452380Y-71119047D01*
X199452380Y-71214285D01*
X199452380Y-70309523D02*
X199452380Y-70119047D01*
X199404761Y-70023809D01*
X199357142Y-69976190D01*
X199214285Y-69880952D01*
X199023809Y-69833333D01*
X198642857Y-69833333D01*
X198547619Y-69880952D01*
X198500000Y-69928571D01*
X198452380Y-70023809D01*
X198452380Y-70214285D01*
X198500000Y-70309523D01*
X198547619Y-70357142D01*
X198642857Y-70404761D01*
X198880952Y-70404761D01*
X198976190Y-70357142D01*
X199023809Y-70309523D01*
X199071428Y-70214285D01*
X199071428Y-70023809D01*
X199023809Y-69928571D01*
X198976190Y-69880952D01*
X198880952Y-69833333D01*
%TO.C,R20*%
X80326142Y-74544227D02*
X79992809Y-74068037D01*
X79754714Y-74544227D02*
X79754714Y-73544227D01*
X80135666Y-73544227D01*
X80230904Y-73591847D01*
X80278523Y-73639466D01*
X80326142Y-73734704D01*
X80326142Y-73877561D01*
X80278523Y-73972799D01*
X80230904Y-74020418D01*
X80135666Y-74068037D01*
X79754714Y-74068037D01*
X80707095Y-73639466D02*
X80754714Y-73591847D01*
X80849952Y-73544227D01*
X81088047Y-73544227D01*
X81183285Y-73591847D01*
X81230904Y-73639466D01*
X81278523Y-73734704D01*
X81278523Y-73829942D01*
X81230904Y-73972799D01*
X80659476Y-74544227D01*
X81278523Y-74544227D01*
X81897571Y-73544227D02*
X81992809Y-73544227D01*
X82088047Y-73591847D01*
X82135666Y-73639466D01*
X82183285Y-73734704D01*
X82230904Y-73925180D01*
X82230904Y-74163275D01*
X82183285Y-74353751D01*
X82135666Y-74448989D01*
X82088047Y-74496608D01*
X81992809Y-74544227D01*
X81897571Y-74544227D01*
X81802333Y-74496608D01*
X81754714Y-74448989D01*
X81707095Y-74353751D01*
X81659476Y-74163275D01*
X81659476Y-73925180D01*
X81707095Y-73734704D01*
X81754714Y-73639466D01*
X81802333Y-73591847D01*
X81897571Y-73544227D01*
%TO.C,R33*%
X177615142Y-39010380D02*
X177281809Y-38534190D01*
X177043714Y-39010380D02*
X177043714Y-38010380D01*
X177424666Y-38010380D01*
X177519904Y-38058000D01*
X177567523Y-38105619D01*
X177615142Y-38200857D01*
X177615142Y-38343714D01*
X177567523Y-38438952D01*
X177519904Y-38486571D01*
X177424666Y-38534190D01*
X177043714Y-38534190D01*
X177948476Y-38010380D02*
X178567523Y-38010380D01*
X178234190Y-38391333D01*
X178377047Y-38391333D01*
X178472285Y-38438952D01*
X178519904Y-38486571D01*
X178567523Y-38581809D01*
X178567523Y-38819904D01*
X178519904Y-38915142D01*
X178472285Y-38962761D01*
X178377047Y-39010380D01*
X178091333Y-39010380D01*
X177996095Y-38962761D01*
X177948476Y-38915142D01*
X178900857Y-38010380D02*
X179519904Y-38010380D01*
X179186571Y-38391333D01*
X179329428Y-38391333D01*
X179424666Y-38438952D01*
X179472285Y-38486571D01*
X179519904Y-38581809D01*
X179519904Y-38819904D01*
X179472285Y-38915142D01*
X179424666Y-38962761D01*
X179329428Y-39010380D01*
X179043714Y-39010380D01*
X178948476Y-38962761D01*
X178900857Y-38915142D01*
%TO.C,R12*%
X162593142Y-45868380D02*
X162259809Y-45392190D01*
X162021714Y-45868380D02*
X162021714Y-44868380D01*
X162402666Y-44868380D01*
X162497904Y-44916000D01*
X162545523Y-44963619D01*
X162593142Y-45058857D01*
X162593142Y-45201714D01*
X162545523Y-45296952D01*
X162497904Y-45344571D01*
X162402666Y-45392190D01*
X162021714Y-45392190D01*
X163545523Y-45868380D02*
X162974095Y-45868380D01*
X163259809Y-45868380D02*
X163259809Y-44868380D01*
X163164571Y-45011238D01*
X163069333Y-45106476D01*
X162974095Y-45154095D01*
X163926476Y-44963619D02*
X163974095Y-44916000D01*
X164069333Y-44868380D01*
X164307428Y-44868380D01*
X164402666Y-44916000D01*
X164450285Y-44963619D01*
X164497904Y-45058857D01*
X164497904Y-45154095D01*
X164450285Y-45296952D01*
X163878857Y-45868380D01*
X164497904Y-45868380D01*
%TO.C,C3*%
X166579142Y-108300666D02*
X166626761Y-108348285D01*
X166674380Y-108491142D01*
X166674380Y-108586380D01*
X166626761Y-108729238D01*
X166531523Y-108824476D01*
X166436285Y-108872095D01*
X166245809Y-108919714D01*
X166102952Y-108919714D01*
X165912476Y-108872095D01*
X165817238Y-108824476D01*
X165722000Y-108729238D01*
X165674380Y-108586380D01*
X165674380Y-108491142D01*
X165722000Y-108348285D01*
X165769619Y-108300666D01*
X165674380Y-107967333D02*
X165674380Y-107348285D01*
X166055333Y-107681619D01*
X166055333Y-107538761D01*
X166102952Y-107443523D01*
X166150571Y-107395904D01*
X166245809Y-107348285D01*
X166483904Y-107348285D01*
X166579142Y-107395904D01*
X166626761Y-107443523D01*
X166674380Y-107538761D01*
X166674380Y-107824476D01*
X166626761Y-107919714D01*
X166579142Y-107967333D01*
%TO.C,C7*%
X167159142Y-56050666D02*
X167206761Y-56098285D01*
X167254380Y-56241142D01*
X167254380Y-56336380D01*
X167206761Y-56479238D01*
X167111523Y-56574476D01*
X167016285Y-56622095D01*
X166825809Y-56669714D01*
X166682952Y-56669714D01*
X166492476Y-56622095D01*
X166397238Y-56574476D01*
X166302000Y-56479238D01*
X166254380Y-56336380D01*
X166254380Y-56241142D01*
X166302000Y-56098285D01*
X166349619Y-56050666D01*
X166254380Y-55717333D02*
X166254380Y-55050666D01*
X167254380Y-55479238D01*
%TO.C,R34*%
X177615142Y-36470380D02*
X177281809Y-35994190D01*
X177043714Y-36470380D02*
X177043714Y-35470380D01*
X177424666Y-35470380D01*
X177519904Y-35518000D01*
X177567523Y-35565619D01*
X177615142Y-35660857D01*
X177615142Y-35803714D01*
X177567523Y-35898952D01*
X177519904Y-35946571D01*
X177424666Y-35994190D01*
X177043714Y-35994190D01*
X177948476Y-35470380D02*
X178567523Y-35470380D01*
X178234190Y-35851333D01*
X178377047Y-35851333D01*
X178472285Y-35898952D01*
X178519904Y-35946571D01*
X178567523Y-36041809D01*
X178567523Y-36279904D01*
X178519904Y-36375142D01*
X178472285Y-36422761D01*
X178377047Y-36470380D01*
X178091333Y-36470380D01*
X177996095Y-36422761D01*
X177948476Y-36375142D01*
X179424666Y-35803714D02*
X179424666Y-36470380D01*
X179186571Y-35422761D02*
X178948476Y-36137047D01*
X179567523Y-36137047D01*
%TO.C,C12*%
X72452142Y-80474989D02*
X72404523Y-80522608D01*
X72261666Y-80570227D01*
X72166428Y-80570227D01*
X72023571Y-80522608D01*
X71928333Y-80427370D01*
X71880714Y-80332132D01*
X71833095Y-80141656D01*
X71833095Y-79998799D01*
X71880714Y-79808323D01*
X71928333Y-79713085D01*
X72023571Y-79617847D01*
X72166428Y-79570227D01*
X72261666Y-79570227D01*
X72404523Y-79617847D01*
X72452142Y-79665466D01*
X73404523Y-80570227D02*
X72833095Y-80570227D01*
X73118809Y-80570227D02*
X73118809Y-79570227D01*
X73023571Y-79713085D01*
X72928333Y-79808323D01*
X72833095Y-79855942D01*
X73785476Y-79665466D02*
X73833095Y-79617847D01*
X73928333Y-79570227D01*
X74166428Y-79570227D01*
X74261666Y-79617847D01*
X74309285Y-79665466D01*
X74356904Y-79760704D01*
X74356904Y-79855942D01*
X74309285Y-79998799D01*
X73737857Y-80570227D01*
X74356904Y-80570227D01*
%TO.C,C15*%
X101408142Y-72416989D02*
X101360523Y-72464608D01*
X101217666Y-72512227D01*
X101122428Y-72512227D01*
X100979571Y-72464608D01*
X100884333Y-72369370D01*
X100836714Y-72274132D01*
X100789095Y-72083656D01*
X100789095Y-71940799D01*
X100836714Y-71750323D01*
X100884333Y-71655085D01*
X100979571Y-71559847D01*
X101122428Y-71512227D01*
X101217666Y-71512227D01*
X101360523Y-71559847D01*
X101408142Y-71607466D01*
X102360523Y-72512227D02*
X101789095Y-72512227D01*
X102074809Y-72512227D02*
X102074809Y-71512227D01*
X101979571Y-71655085D01*
X101884333Y-71750323D01*
X101789095Y-71797942D01*
X103265285Y-71512227D02*
X102789095Y-71512227D01*
X102741476Y-71988418D01*
X102789095Y-71940799D01*
X102884333Y-71893180D01*
X103122428Y-71893180D01*
X103217666Y-71940799D01*
X103265285Y-71988418D01*
X103312904Y-72083656D01*
X103312904Y-72321751D01*
X103265285Y-72416989D01*
X103217666Y-72464608D01*
X103122428Y-72512227D01*
X102884333Y-72512227D01*
X102789095Y-72464608D01*
X102741476Y-72416989D01*
%TO.C,R36*%
X157341142Y-36470380D02*
X157007809Y-35994190D01*
X156769714Y-36470380D02*
X156769714Y-35470380D01*
X157150666Y-35470380D01*
X157245904Y-35518000D01*
X157293523Y-35565619D01*
X157341142Y-35660857D01*
X157341142Y-35803714D01*
X157293523Y-35898952D01*
X157245904Y-35946571D01*
X157150666Y-35994190D01*
X156769714Y-35994190D01*
X157674476Y-35470380D02*
X158293523Y-35470380D01*
X157960190Y-35851333D01*
X158103047Y-35851333D01*
X158198285Y-35898952D01*
X158245904Y-35946571D01*
X158293523Y-36041809D01*
X158293523Y-36279904D01*
X158245904Y-36375142D01*
X158198285Y-36422761D01*
X158103047Y-36470380D01*
X157817333Y-36470380D01*
X157722095Y-36422761D01*
X157674476Y-36375142D01*
X159150666Y-35470380D02*
X158960190Y-35470380D01*
X158864952Y-35518000D01*
X158817333Y-35565619D01*
X158722095Y-35708476D01*
X158674476Y-35898952D01*
X158674476Y-36279904D01*
X158722095Y-36375142D01*
X158769714Y-36422761D01*
X158864952Y-36470380D01*
X159055428Y-36470380D01*
X159150666Y-36422761D01*
X159198285Y-36375142D01*
X159245904Y-36279904D01*
X159245904Y-36041809D01*
X159198285Y-35946571D01*
X159150666Y-35898952D01*
X159055428Y-35851333D01*
X158864952Y-35851333D01*
X158769714Y-35898952D01*
X158722095Y-35946571D01*
X158674476Y-36041809D01*
%TO.C,R7*%
X67833333Y-47952380D02*
X67500000Y-47476190D01*
X67261904Y-47952380D02*
X67261904Y-46952380D01*
X67642857Y-46952380D01*
X67738095Y-47000000D01*
X67785714Y-47047619D01*
X67833333Y-47142857D01*
X67833333Y-47285714D01*
X67785714Y-47380952D01*
X67738095Y-47428571D01*
X67642857Y-47476190D01*
X67261904Y-47476190D01*
X68166666Y-46952380D02*
X68833333Y-46952380D01*
X68404761Y-47952380D01*
%TO.C,J_IV1*%
X207919047Y-41452380D02*
X207919047Y-42166666D01*
X207871428Y-42309523D01*
X207776190Y-42404761D01*
X207633333Y-42452380D01*
X207538095Y-42452380D01*
X208157142Y-42547619D02*
X208919047Y-42547619D01*
X209157142Y-42452380D02*
X209157142Y-41452380D01*
X209490476Y-41452380D02*
X209823809Y-42452380D01*
X210157142Y-41452380D01*
X211014285Y-42452380D02*
X210442857Y-42452380D01*
X210728571Y-42452380D02*
X210728571Y-41452380D01*
X210633333Y-41595238D01*
X210538095Y-41690476D01*
X210442857Y-41738095D01*
%TO.C,C18*%
X99630142Y-70638989D02*
X99582523Y-70686608D01*
X99439666Y-70734227D01*
X99344428Y-70734227D01*
X99201571Y-70686608D01*
X99106333Y-70591370D01*
X99058714Y-70496132D01*
X99011095Y-70305656D01*
X99011095Y-70162799D01*
X99058714Y-69972323D01*
X99106333Y-69877085D01*
X99201571Y-69781847D01*
X99344428Y-69734227D01*
X99439666Y-69734227D01*
X99582523Y-69781847D01*
X99630142Y-69829466D01*
X100582523Y-70734227D02*
X100011095Y-70734227D01*
X100296809Y-70734227D02*
X100296809Y-69734227D01*
X100201571Y-69877085D01*
X100106333Y-69972323D01*
X100011095Y-70019942D01*
X101153952Y-70162799D02*
X101058714Y-70115180D01*
X101011095Y-70067561D01*
X100963476Y-69972323D01*
X100963476Y-69924704D01*
X101011095Y-69829466D01*
X101058714Y-69781847D01*
X101153952Y-69734227D01*
X101344428Y-69734227D01*
X101439666Y-69781847D01*
X101487285Y-69829466D01*
X101534904Y-69924704D01*
X101534904Y-69972323D01*
X101487285Y-70067561D01*
X101439666Y-70115180D01*
X101344428Y-70162799D01*
X101153952Y-70162799D01*
X101058714Y-70210418D01*
X101011095Y-70258037D01*
X100963476Y-70353275D01*
X100963476Y-70543751D01*
X101011095Y-70638989D01*
X101058714Y-70686608D01*
X101153952Y-70734227D01*
X101344428Y-70734227D01*
X101439666Y-70686608D01*
X101487285Y-70638989D01*
X101534904Y-70543751D01*
X101534904Y-70353275D01*
X101487285Y-70258037D01*
X101439666Y-70210418D01*
X101344428Y-70162799D01*
%TO.C,RV1*%
X172474761Y-111855380D02*
X172141428Y-111379190D01*
X171903333Y-111855380D02*
X171903333Y-110855380D01*
X172284285Y-110855380D01*
X172379523Y-110903000D01*
X172427142Y-110950619D01*
X172474761Y-111045857D01*
X172474761Y-111188714D01*
X172427142Y-111283952D01*
X172379523Y-111331571D01*
X172284285Y-111379190D01*
X171903333Y-111379190D01*
X172760476Y-110855380D02*
X173093809Y-111855380D01*
X173427142Y-110855380D01*
X174284285Y-111855380D02*
X173712857Y-111855380D01*
X173998571Y-111855380D02*
X173998571Y-110855380D01*
X173903333Y-110998238D01*
X173808095Y-111093476D01*
X173712857Y-111141095D01*
%TO.C,R15*%
X164754380Y-57026857D02*
X164278190Y-57360190D01*
X164754380Y-57598285D02*
X163754380Y-57598285D01*
X163754380Y-57217333D01*
X163802000Y-57122095D01*
X163849619Y-57074476D01*
X163944857Y-57026857D01*
X164087714Y-57026857D01*
X164182952Y-57074476D01*
X164230571Y-57122095D01*
X164278190Y-57217333D01*
X164278190Y-57598285D01*
X164754380Y-56074476D02*
X164754380Y-56645904D01*
X164754380Y-56360190D02*
X163754380Y-56360190D01*
X163897238Y-56455428D01*
X163992476Y-56550666D01*
X164040095Y-56645904D01*
X163754380Y-55169714D02*
X163754380Y-55645904D01*
X164230571Y-55693523D01*
X164182952Y-55645904D01*
X164135333Y-55550666D01*
X164135333Y-55312571D01*
X164182952Y-55217333D01*
X164230571Y-55169714D01*
X164325809Y-55122095D01*
X164563904Y-55122095D01*
X164659142Y-55169714D01*
X164706761Y-55217333D01*
X164754380Y-55312571D01*
X164754380Y-55550666D01*
X164706761Y-55645904D01*
X164659142Y-55693523D01*
%TO.C,D3*%
X75052380Y-50838095D02*
X74052380Y-50838095D01*
X74052380Y-50600000D01*
X74100000Y-50457142D01*
X74195238Y-50361904D01*
X74290476Y-50314285D01*
X74480952Y-50266666D01*
X74623809Y-50266666D01*
X74814285Y-50314285D01*
X74909523Y-50361904D01*
X75004761Y-50457142D01*
X75052380Y-50600000D01*
X75052380Y-50838095D01*
X74052380Y-49933333D02*
X74052380Y-49314285D01*
X74433333Y-49647619D01*
X74433333Y-49504761D01*
X74480952Y-49409523D01*
X74528571Y-49361904D01*
X74623809Y-49314285D01*
X74861904Y-49314285D01*
X74957142Y-49361904D01*
X75004761Y-49409523D01*
X75052380Y-49504761D01*
X75052380Y-49790476D01*
X75004761Y-49885714D01*
X74957142Y-49933333D01*
%TO.C,R10*%
X164642380Y-118174857D02*
X164166190Y-118508190D01*
X164642380Y-118746285D02*
X163642380Y-118746285D01*
X163642380Y-118365333D01*
X163690000Y-118270095D01*
X163737619Y-118222476D01*
X163832857Y-118174857D01*
X163975714Y-118174857D01*
X164070952Y-118222476D01*
X164118571Y-118270095D01*
X164166190Y-118365333D01*
X164166190Y-118746285D01*
X164642380Y-117222476D02*
X164642380Y-117793904D01*
X164642380Y-117508190D02*
X163642380Y-117508190D01*
X163785238Y-117603428D01*
X163880476Y-117698666D01*
X163928095Y-117793904D01*
X163642380Y-116603428D02*
X163642380Y-116508190D01*
X163690000Y-116412952D01*
X163737619Y-116365333D01*
X163832857Y-116317714D01*
X164023333Y-116270095D01*
X164261428Y-116270095D01*
X164451904Y-116317714D01*
X164547142Y-116365333D01*
X164594761Y-116412952D01*
X164642380Y-116508190D01*
X164642380Y-116603428D01*
X164594761Y-116698666D01*
X164547142Y-116746285D01*
X164451904Y-116793904D01*
X164261428Y-116841523D01*
X164023333Y-116841523D01*
X163832857Y-116793904D01*
X163737619Y-116746285D01*
X163690000Y-116698666D01*
X163642380Y-116603428D01*
%TO.C,R4*%
X109333333Y-101952380D02*
X109000000Y-101476190D01*
X108761904Y-101952380D02*
X108761904Y-100952380D01*
X109142857Y-100952380D01*
X109238095Y-101000000D01*
X109285714Y-101047619D01*
X109333333Y-101142857D01*
X109333333Y-101285714D01*
X109285714Y-101380952D01*
X109238095Y-101428571D01*
X109142857Y-101476190D01*
X108761904Y-101476190D01*
X110190476Y-101285714D02*
X110190476Y-101952380D01*
X109952380Y-100904761D02*
X109714285Y-101619047D01*
X110333333Y-101619047D01*
%TO.C,J10*%
X186425380Y-60330523D02*
X187139666Y-60330523D01*
X187282523Y-60378142D01*
X187377761Y-60473380D01*
X187425380Y-60616238D01*
X187425380Y-60711476D01*
X187425380Y-59330523D02*
X187425380Y-59901952D01*
X187425380Y-59616238D02*
X186425380Y-59616238D01*
X186568238Y-59711476D01*
X186663476Y-59806714D01*
X186711095Y-59901952D01*
X186425380Y-58711476D02*
X186425380Y-58616238D01*
X186473000Y-58521000D01*
X186520619Y-58473380D01*
X186615857Y-58425761D01*
X186806333Y-58378142D01*
X187044428Y-58378142D01*
X187234904Y-58425761D01*
X187330142Y-58473380D01*
X187377761Y-58521000D01*
X187425380Y-58616238D01*
X187425380Y-58711476D01*
X187377761Y-58806714D01*
X187330142Y-58854333D01*
X187234904Y-58901952D01*
X187044428Y-58949571D01*
X186806333Y-58949571D01*
X186615857Y-58901952D01*
X186520619Y-58854333D01*
X186473000Y-58806714D01*
X186425380Y-58711476D01*
%TO.C,C5*%
X159909142Y-56050666D02*
X159956761Y-56098285D01*
X160004380Y-56241142D01*
X160004380Y-56336380D01*
X159956761Y-56479238D01*
X159861523Y-56574476D01*
X159766285Y-56622095D01*
X159575809Y-56669714D01*
X159432952Y-56669714D01*
X159242476Y-56622095D01*
X159147238Y-56574476D01*
X159052000Y-56479238D01*
X159004380Y-56336380D01*
X159004380Y-56241142D01*
X159052000Y-56098285D01*
X159099619Y-56050666D01*
X159004380Y-55145904D02*
X159004380Y-55622095D01*
X159480571Y-55669714D01*
X159432952Y-55622095D01*
X159385333Y-55526857D01*
X159385333Y-55288761D01*
X159432952Y-55193523D01*
X159480571Y-55145904D01*
X159575809Y-55098285D01*
X159813904Y-55098285D01*
X159909142Y-55145904D01*
X159956761Y-55193523D01*
X160004380Y-55288761D01*
X160004380Y-55526857D01*
X159956761Y-55622095D01*
X159909142Y-55669714D01*
%TO.C,R18*%
X80202142Y-69464227D02*
X79868809Y-68988037D01*
X79630714Y-69464227D02*
X79630714Y-68464227D01*
X80011666Y-68464227D01*
X80106904Y-68511847D01*
X80154523Y-68559466D01*
X80202142Y-68654704D01*
X80202142Y-68797561D01*
X80154523Y-68892799D01*
X80106904Y-68940418D01*
X80011666Y-68988037D01*
X79630714Y-68988037D01*
X81154523Y-69464227D02*
X80583095Y-69464227D01*
X80868809Y-69464227D02*
X80868809Y-68464227D01*
X80773571Y-68607085D01*
X80678333Y-68702323D01*
X80583095Y-68749942D01*
X81725952Y-68892799D02*
X81630714Y-68845180D01*
X81583095Y-68797561D01*
X81535476Y-68702323D01*
X81535476Y-68654704D01*
X81583095Y-68559466D01*
X81630714Y-68511847D01*
X81725952Y-68464227D01*
X81916428Y-68464227D01*
X82011666Y-68511847D01*
X82059285Y-68559466D01*
X82106904Y-68654704D01*
X82106904Y-68702323D01*
X82059285Y-68797561D01*
X82011666Y-68845180D01*
X81916428Y-68892799D01*
X81725952Y-68892799D01*
X81630714Y-68940418D01*
X81583095Y-68988037D01*
X81535476Y-69083275D01*
X81535476Y-69273751D01*
X81583095Y-69368989D01*
X81630714Y-69416608D01*
X81725952Y-69464227D01*
X81916428Y-69464227D01*
X82011666Y-69416608D01*
X82059285Y-69368989D01*
X82106904Y-69273751D01*
X82106904Y-69083275D01*
X82059285Y-68988037D01*
X82011666Y-68940418D01*
X81916428Y-68892799D01*
%TO.C,R41*%
X91757142Y-40952380D02*
X91423809Y-40476190D01*
X91185714Y-40952380D02*
X91185714Y-39952380D01*
X91566666Y-39952380D01*
X91661904Y-40000000D01*
X91709523Y-40047619D01*
X91757142Y-40142857D01*
X91757142Y-40285714D01*
X91709523Y-40380952D01*
X91661904Y-40428571D01*
X91566666Y-40476190D01*
X91185714Y-40476190D01*
X92614285Y-40285714D02*
X92614285Y-40952380D01*
X92376190Y-39904761D02*
X92138095Y-40619047D01*
X92757142Y-40619047D01*
X93661904Y-40952380D02*
X93090476Y-40952380D01*
X93376190Y-40952380D02*
X93376190Y-39952380D01*
X93280952Y-40095238D01*
X93185714Y-40190476D01*
X93090476Y-40238095D01*
%TO.C,R42*%
X93757142Y-34452380D02*
X93423809Y-33976190D01*
X93185714Y-34452380D02*
X93185714Y-33452380D01*
X93566666Y-33452380D01*
X93661904Y-33500000D01*
X93709523Y-33547619D01*
X93757142Y-33642857D01*
X93757142Y-33785714D01*
X93709523Y-33880952D01*
X93661904Y-33928571D01*
X93566666Y-33976190D01*
X93185714Y-33976190D01*
X94614285Y-33785714D02*
X94614285Y-34452380D01*
X94376190Y-33404761D02*
X94138095Y-34119047D01*
X94757142Y-34119047D01*
X95090476Y-33547619D02*
X95138095Y-33500000D01*
X95233333Y-33452380D01*
X95471428Y-33452380D01*
X95566666Y-33500000D01*
X95614285Y-33547619D01*
X95661904Y-33642857D01*
X95661904Y-33738095D01*
X95614285Y-33880952D01*
X95042857Y-34452380D01*
X95661904Y-34452380D01*
%TO.C,REF1*%
X93152380Y-22552380D02*
X92819047Y-22076190D01*
X92580952Y-22552380D02*
X92580952Y-21552380D01*
X92961904Y-21552380D01*
X93057142Y-21600000D01*
X93104761Y-21647619D01*
X93152380Y-21742857D01*
X93152380Y-21885714D01*
X93104761Y-21980952D01*
X93057142Y-22028571D01*
X92961904Y-22076190D01*
X92580952Y-22076190D01*
X93580952Y-22028571D02*
X93914285Y-22028571D01*
X94057142Y-22552380D02*
X93580952Y-22552380D01*
X93580952Y-21552380D01*
X94057142Y-21552380D01*
X94819047Y-22028571D02*
X94485714Y-22028571D01*
X94485714Y-22552380D02*
X94485714Y-21552380D01*
X94961904Y-21552380D01*
X95866666Y-22552380D02*
X95295238Y-22552380D01*
X95580952Y-22552380D02*
X95580952Y-21552380D01*
X95485714Y-21695238D01*
X95390476Y-21790476D01*
X95295238Y-21838095D01*
%TO.C,R35*%
X157341142Y-39010380D02*
X157007809Y-38534190D01*
X156769714Y-39010380D02*
X156769714Y-38010380D01*
X157150666Y-38010380D01*
X157245904Y-38058000D01*
X157293523Y-38105619D01*
X157341142Y-38200857D01*
X157341142Y-38343714D01*
X157293523Y-38438952D01*
X157245904Y-38486571D01*
X157150666Y-38534190D01*
X156769714Y-38534190D01*
X157674476Y-38010380D02*
X158293523Y-38010380D01*
X157960190Y-38391333D01*
X158103047Y-38391333D01*
X158198285Y-38438952D01*
X158245904Y-38486571D01*
X158293523Y-38581809D01*
X158293523Y-38819904D01*
X158245904Y-38915142D01*
X158198285Y-38962761D01*
X158103047Y-39010380D01*
X157817333Y-39010380D01*
X157722095Y-38962761D01*
X157674476Y-38915142D01*
X159198285Y-38010380D02*
X158722095Y-38010380D01*
X158674476Y-38486571D01*
X158722095Y-38438952D01*
X158817333Y-38391333D01*
X159055428Y-38391333D01*
X159150666Y-38438952D01*
X159198285Y-38486571D01*
X159245904Y-38581809D01*
X159245904Y-38819904D01*
X159198285Y-38915142D01*
X159150666Y-38962761D01*
X159055428Y-39010380D01*
X158817333Y-39010380D01*
X158722095Y-38962761D01*
X158674476Y-38915142D01*
%TO.C,J_X1*%
X82952380Y-44190476D02*
X83666666Y-44190476D01*
X83809523Y-44238095D01*
X83904761Y-44333333D01*
X83952380Y-44476190D01*
X83952380Y-44571428D01*
X84047619Y-43952380D02*
X84047619Y-43190476D01*
X82952380Y-43047619D02*
X83952380Y-42380952D01*
X82952380Y-42380952D02*
X83952380Y-43047619D01*
X83952380Y-41476190D02*
X83952380Y-42047619D01*
X83952380Y-41761904D02*
X82952380Y-41761904D01*
X83095238Y-41857142D01*
X83190476Y-41952380D01*
X83238095Y-42047619D01*
%TO.C,J20*%
X116226976Y-76971880D02*
X116226976Y-77686166D01*
X116179357Y-77829023D01*
X116084119Y-77924261D01*
X115941261Y-77971880D01*
X115846023Y-77971880D01*
X116655547Y-77067119D02*
X116703166Y-77019500D01*
X116798404Y-76971880D01*
X117036500Y-76971880D01*
X117131738Y-77019500D01*
X117179357Y-77067119D01*
X117226976Y-77162357D01*
X117226976Y-77257595D01*
X117179357Y-77400452D01*
X116607928Y-77971880D01*
X117226976Y-77971880D01*
X117846023Y-76971880D02*
X117941261Y-76971880D01*
X118036500Y-77019500D01*
X118084119Y-77067119D01*
X118131738Y-77162357D01*
X118179357Y-77352833D01*
X118179357Y-77590928D01*
X118131738Y-77781404D01*
X118084119Y-77876642D01*
X118036500Y-77924261D01*
X117941261Y-77971880D01*
X117846023Y-77971880D01*
X117750785Y-77924261D01*
X117703166Y-77876642D01*
X117655547Y-77781404D01*
X117607928Y-77590928D01*
X117607928Y-77352833D01*
X117655547Y-77162357D01*
X117703166Y-77067119D01*
X117750785Y-77019500D01*
X117846023Y-76971880D01*
%TO.C,D1*%
X185476380Y-103484095D02*
X184476380Y-103484095D01*
X184476380Y-103246000D01*
X184524000Y-103103142D01*
X184619238Y-103007904D01*
X184714476Y-102960285D01*
X184904952Y-102912666D01*
X185047809Y-102912666D01*
X185238285Y-102960285D01*
X185333523Y-103007904D01*
X185428761Y-103103142D01*
X185476380Y-103246000D01*
X185476380Y-103484095D01*
X185476380Y-101960285D02*
X185476380Y-102531714D01*
X185476380Y-102246000D02*
X184476380Y-102246000D01*
X184619238Y-102341238D01*
X184714476Y-102436476D01*
X184762095Y-102531714D01*
X185410880Y-97727904D02*
X184410880Y-97727904D01*
X185410880Y-97156476D02*
X184839452Y-97585047D01*
X184410880Y-97156476D02*
X184982309Y-97727904D01*
%TO.C,R39*%
X113057142Y-41452380D02*
X112723809Y-40976190D01*
X112485714Y-41452380D02*
X112485714Y-40452380D01*
X112866666Y-40452380D01*
X112961904Y-40500000D01*
X113009523Y-40547619D01*
X113057142Y-40642857D01*
X113057142Y-40785714D01*
X113009523Y-40880952D01*
X112961904Y-40928571D01*
X112866666Y-40976190D01*
X112485714Y-40976190D01*
X113390476Y-40452380D02*
X114009523Y-40452380D01*
X113676190Y-40833333D01*
X113819047Y-40833333D01*
X113914285Y-40880952D01*
X113961904Y-40928571D01*
X114009523Y-41023809D01*
X114009523Y-41261904D01*
X113961904Y-41357142D01*
X113914285Y-41404761D01*
X113819047Y-41452380D01*
X113533333Y-41452380D01*
X113438095Y-41404761D01*
X113390476Y-41357142D01*
X114485714Y-41452380D02*
X114676190Y-41452380D01*
X114771428Y-41404761D01*
X114819047Y-41357142D01*
X114914285Y-41214285D01*
X114961904Y-41023809D01*
X114961904Y-40642857D01*
X114914285Y-40547619D01*
X114866666Y-40500000D01*
X114771428Y-40452380D01*
X114580952Y-40452380D01*
X114485714Y-40500000D01*
X114438095Y-40547619D01*
X114390476Y-40642857D01*
X114390476Y-40880952D01*
X114438095Y-40976190D01*
X114485714Y-41023809D01*
X114580952Y-41071428D01*
X114771428Y-41071428D01*
X114866666Y-41023809D01*
X114914285Y-40976190D01*
X114961904Y-40880952D01*
%TO.C,R14*%
X180654380Y-57488857D02*
X180178190Y-57822190D01*
X180654380Y-58060285D02*
X179654380Y-58060285D01*
X179654380Y-57679333D01*
X179702000Y-57584095D01*
X179749619Y-57536476D01*
X179844857Y-57488857D01*
X179987714Y-57488857D01*
X180082952Y-57536476D01*
X180130571Y-57584095D01*
X180178190Y-57679333D01*
X180178190Y-58060285D01*
X180654380Y-56536476D02*
X180654380Y-57107904D01*
X180654380Y-56822190D02*
X179654380Y-56822190D01*
X179797238Y-56917428D01*
X179892476Y-57012666D01*
X179940095Y-57107904D01*
X179987714Y-55679333D02*
X180654380Y-55679333D01*
X179606761Y-55917428D02*
X180321047Y-56155523D01*
X180321047Y-55536476D01*
%TO.C,J15*%
X108618476Y-83452380D02*
X108618476Y-84166666D01*
X108570857Y-84309523D01*
X108475619Y-84404761D01*
X108332761Y-84452380D01*
X108237523Y-84452380D01*
X109618476Y-84452380D02*
X109047047Y-84452380D01*
X109332761Y-84452380D02*
X109332761Y-83452380D01*
X109237523Y-83595238D01*
X109142285Y-83690476D01*
X109047047Y-83738095D01*
X110523238Y-83452380D02*
X110047047Y-83452380D01*
X109999428Y-83928571D01*
X110047047Y-83880952D01*
X110142285Y-83833333D01*
X110380380Y-83833333D01*
X110475619Y-83880952D01*
X110523238Y-83928571D01*
X110570857Y-84023809D01*
X110570857Y-84261904D01*
X110523238Y-84357142D01*
X110475619Y-84404761D01*
X110380380Y-84452380D01*
X110142285Y-84452380D01*
X110047047Y-84404761D01*
X109999428Y-84357142D01*
%TO.C,R2*%
X92833333Y-102952380D02*
X92500000Y-102476190D01*
X92261904Y-102952380D02*
X92261904Y-101952380D01*
X92642857Y-101952380D01*
X92738095Y-102000000D01*
X92785714Y-102047619D01*
X92833333Y-102142857D01*
X92833333Y-102285714D01*
X92785714Y-102380952D01*
X92738095Y-102428571D01*
X92642857Y-102476190D01*
X92261904Y-102476190D01*
X93214285Y-102047619D02*
X93261904Y-102000000D01*
X93357142Y-101952380D01*
X93595238Y-101952380D01*
X93690476Y-102000000D01*
X93738095Y-102047619D01*
X93785714Y-102142857D01*
X93785714Y-102238095D01*
X93738095Y-102380952D01*
X93166666Y-102952380D01*
X93785714Y-102952380D01*
%TO.C,REF4*%
X122452380Y-95452380D02*
X122119047Y-94976190D01*
X121880952Y-95452380D02*
X121880952Y-94452380D01*
X122261904Y-94452380D01*
X122357142Y-94500000D01*
X122404761Y-94547619D01*
X122452380Y-94642857D01*
X122452380Y-94785714D01*
X122404761Y-94880952D01*
X122357142Y-94928571D01*
X122261904Y-94976190D01*
X121880952Y-94976190D01*
X122880952Y-94928571D02*
X123214285Y-94928571D01*
X123357142Y-95452380D02*
X122880952Y-95452380D01*
X122880952Y-94452380D01*
X123357142Y-94452380D01*
X124119047Y-94928571D02*
X123785714Y-94928571D01*
X123785714Y-95452380D02*
X123785714Y-94452380D01*
X124261904Y-94452380D01*
X125071428Y-94785714D02*
X125071428Y-95452380D01*
X124833333Y-94404761D02*
X124595238Y-95119047D01*
X125214285Y-95119047D01*
%TO.C,JRP4020L_1*%
X133476190Y-79920380D02*
X133476190Y-80634666D01*
X133428571Y-80777523D01*
X133333333Y-80872761D01*
X133190476Y-80920380D01*
X133095238Y-80920380D01*
X134523809Y-80920380D02*
X134190476Y-80444190D01*
X133952380Y-80920380D02*
X133952380Y-79920380D01*
X134333333Y-79920380D01*
X134428571Y-79968000D01*
X134476190Y-80015619D01*
X134523809Y-80110857D01*
X134523809Y-80253714D01*
X134476190Y-80348952D01*
X134428571Y-80396571D01*
X134333333Y-80444190D01*
X133952380Y-80444190D01*
X134952380Y-80920380D02*
X134952380Y-79920380D01*
X135333333Y-79920380D01*
X135428571Y-79968000D01*
X135476190Y-80015619D01*
X135523809Y-80110857D01*
X135523809Y-80253714D01*
X135476190Y-80348952D01*
X135428571Y-80396571D01*
X135333333Y-80444190D01*
X134952380Y-80444190D01*
X136380952Y-80253714D02*
X136380952Y-80920380D01*
X136142857Y-79872761D02*
X135904761Y-80587047D01*
X136523809Y-80587047D01*
X137095238Y-79920380D02*
X137190476Y-79920380D01*
X137285714Y-79968000D01*
X137333333Y-80015619D01*
X137380952Y-80110857D01*
X137428571Y-80301333D01*
X137428571Y-80539428D01*
X137380952Y-80729904D01*
X137333333Y-80825142D01*
X137285714Y-80872761D01*
X137190476Y-80920380D01*
X137095238Y-80920380D01*
X137000000Y-80872761D01*
X136952380Y-80825142D01*
X136904761Y-80729904D01*
X136857142Y-80539428D01*
X136857142Y-80301333D01*
X136904761Y-80110857D01*
X136952380Y-80015619D01*
X137000000Y-79968000D01*
X137095238Y-79920380D01*
X137809523Y-80015619D02*
X137857142Y-79968000D01*
X137952380Y-79920380D01*
X138190476Y-79920380D01*
X138285714Y-79968000D01*
X138333333Y-80015619D01*
X138380952Y-80110857D01*
X138380952Y-80206095D01*
X138333333Y-80348952D01*
X137761904Y-80920380D01*
X138380952Y-80920380D01*
X139000000Y-79920380D02*
X139095238Y-79920380D01*
X139190476Y-79968000D01*
X139238095Y-80015619D01*
X139285714Y-80110857D01*
X139333333Y-80301333D01*
X139333333Y-80539428D01*
X139285714Y-80729904D01*
X139238095Y-80825142D01*
X139190476Y-80872761D01*
X139095238Y-80920380D01*
X139000000Y-80920380D01*
X138904761Y-80872761D01*
X138857142Y-80825142D01*
X138809523Y-80729904D01*
X138761904Y-80539428D01*
X138761904Y-80301333D01*
X138809523Y-80110857D01*
X138857142Y-80015619D01*
X138904761Y-79968000D01*
X139000000Y-79920380D01*
X140238095Y-80920380D02*
X139761904Y-80920380D01*
X139761904Y-79920380D01*
X140333333Y-81015619D02*
X141095238Y-81015619D01*
X141857142Y-80920380D02*
X141285714Y-80920380D01*
X141571428Y-80920380D02*
X141571428Y-79920380D01*
X141476190Y-80063238D01*
X141380952Y-80158476D01*
X141285714Y-80206095D01*
%TO.C,REF3*%
X255652380Y-22552380D02*
X255319047Y-22076190D01*
X255080952Y-22552380D02*
X255080952Y-21552380D01*
X255461904Y-21552380D01*
X255557142Y-21600000D01*
X255604761Y-21647619D01*
X255652380Y-21742857D01*
X255652380Y-21885714D01*
X255604761Y-21980952D01*
X255557142Y-22028571D01*
X255461904Y-22076190D01*
X255080952Y-22076190D01*
X256080952Y-22028571D02*
X256414285Y-22028571D01*
X256557142Y-22552380D02*
X256080952Y-22552380D01*
X256080952Y-21552380D01*
X256557142Y-21552380D01*
X257319047Y-22028571D02*
X256985714Y-22028571D01*
X256985714Y-22552380D02*
X256985714Y-21552380D01*
X257461904Y-21552380D01*
X257747619Y-21552380D02*
X258366666Y-21552380D01*
X258033333Y-21933333D01*
X258176190Y-21933333D01*
X258271428Y-21980952D01*
X258319047Y-22028571D01*
X258366666Y-22123809D01*
X258366666Y-22361904D01*
X258319047Y-22457142D01*
X258271428Y-22504761D01*
X258176190Y-22552380D01*
X257890476Y-22552380D01*
X257795238Y-22504761D01*
X257747619Y-22457142D01*
%TO.C,R40*%
X114057142Y-33952380D02*
X113723809Y-33476190D01*
X113485714Y-33952380D02*
X113485714Y-32952380D01*
X113866666Y-32952380D01*
X113961904Y-33000000D01*
X114009523Y-33047619D01*
X114057142Y-33142857D01*
X114057142Y-33285714D01*
X114009523Y-33380952D01*
X113961904Y-33428571D01*
X113866666Y-33476190D01*
X113485714Y-33476190D01*
X114914285Y-33285714D02*
X114914285Y-33952380D01*
X114676190Y-32904761D02*
X114438095Y-33619047D01*
X115057142Y-33619047D01*
X115628571Y-32952380D02*
X115723809Y-32952380D01*
X115819047Y-33000000D01*
X115866666Y-33047619D01*
X115914285Y-33142857D01*
X115961904Y-33333333D01*
X115961904Y-33571428D01*
X115914285Y-33761904D01*
X115866666Y-33857142D01*
X115819047Y-33904761D01*
X115723809Y-33952380D01*
X115628571Y-33952380D01*
X115533333Y-33904761D01*
X115485714Y-33857142D01*
X115438095Y-33761904D01*
X115390476Y-33571428D01*
X115390476Y-33333333D01*
X115438095Y-33142857D01*
X115485714Y-33047619D01*
X115533333Y-33000000D01*
X115628571Y-32952380D01*
%TO.C,R8*%
X166674380Y-104490666D02*
X166198190Y-104824000D01*
X166674380Y-105062095D02*
X165674380Y-105062095D01*
X165674380Y-104681142D01*
X165722000Y-104585904D01*
X165769619Y-104538285D01*
X165864857Y-104490666D01*
X166007714Y-104490666D01*
X166102952Y-104538285D01*
X166150571Y-104585904D01*
X166198190Y-104681142D01*
X166198190Y-105062095D01*
X166102952Y-103919238D02*
X166055333Y-104014476D01*
X166007714Y-104062095D01*
X165912476Y-104109714D01*
X165864857Y-104109714D01*
X165769619Y-104062095D01*
X165722000Y-104014476D01*
X165674380Y-103919238D01*
X165674380Y-103728761D01*
X165722000Y-103633523D01*
X165769619Y-103585904D01*
X165864857Y-103538285D01*
X165912476Y-103538285D01*
X166007714Y-103585904D01*
X166055333Y-103633523D01*
X166102952Y-103728761D01*
X166102952Y-103919238D01*
X166150571Y-104014476D01*
X166198190Y-104062095D01*
X166293428Y-104109714D01*
X166483904Y-104109714D01*
X166579142Y-104062095D01*
X166626761Y-104014476D01*
X166674380Y-103919238D01*
X166674380Y-103728761D01*
X166626761Y-103633523D01*
X166579142Y-103585904D01*
X166483904Y-103538285D01*
X166293428Y-103538285D01*
X166198190Y-103585904D01*
X166150571Y-103633523D01*
X166102952Y-103728761D01*
%TO.C,SW1*%
X151742666Y-93964761D02*
X151885523Y-94012380D01*
X152123619Y-94012380D01*
X152218857Y-93964761D01*
X152266476Y-93917142D01*
X152314095Y-93821904D01*
X152314095Y-93726666D01*
X152266476Y-93631428D01*
X152218857Y-93583809D01*
X152123619Y-93536190D01*
X151933142Y-93488571D01*
X151837904Y-93440952D01*
X151790285Y-93393333D01*
X151742666Y-93298095D01*
X151742666Y-93202857D01*
X151790285Y-93107619D01*
X151837904Y-93060000D01*
X151933142Y-93012380D01*
X152171238Y-93012380D01*
X152314095Y-93060000D01*
X152647428Y-93012380D02*
X152885523Y-94012380D01*
X153076000Y-93298095D01*
X153266476Y-94012380D01*
X153504571Y-93012380D01*
X154409333Y-94012380D02*
X153837904Y-94012380D01*
X154123619Y-94012380D02*
X154123619Y-93012380D01*
X154028380Y-93155238D01*
X153933142Y-93250476D01*
X153837904Y-93298095D01*
%TO.C,C8*%
X73690333Y-67082989D02*
X73642714Y-67130608D01*
X73499857Y-67178227D01*
X73404619Y-67178227D01*
X73261761Y-67130608D01*
X73166523Y-67035370D01*
X73118904Y-66940132D01*
X73071285Y-66749656D01*
X73071285Y-66606799D01*
X73118904Y-66416323D01*
X73166523Y-66321085D01*
X73261761Y-66225847D01*
X73404619Y-66178227D01*
X73499857Y-66178227D01*
X73642714Y-66225847D01*
X73690333Y-66273466D01*
X74261761Y-66606799D02*
X74166523Y-66559180D01*
X74118904Y-66511561D01*
X74071285Y-66416323D01*
X74071285Y-66368704D01*
X74118904Y-66273466D01*
X74166523Y-66225847D01*
X74261761Y-66178227D01*
X74452238Y-66178227D01*
X74547476Y-66225847D01*
X74595095Y-66273466D01*
X74642714Y-66368704D01*
X74642714Y-66416323D01*
X74595095Y-66511561D01*
X74547476Y-66559180D01*
X74452238Y-66606799D01*
X74261761Y-66606799D01*
X74166523Y-66654418D01*
X74118904Y-66702037D01*
X74071285Y-66797275D01*
X74071285Y-66987751D01*
X74118904Y-67082989D01*
X74166523Y-67130608D01*
X74261761Y-67178227D01*
X74452238Y-67178227D01*
X74547476Y-67130608D01*
X74595095Y-67082989D01*
X74642714Y-66987751D01*
X74642714Y-66797275D01*
X74595095Y-66702037D01*
X74547476Y-66654418D01*
X74452238Y-66606799D01*
%TO.C,R11*%
X173809142Y-45868380D02*
X173475809Y-45392190D01*
X173237714Y-45868380D02*
X173237714Y-44868380D01*
X173618666Y-44868380D01*
X173713904Y-44916000D01*
X173761523Y-44963619D01*
X173809142Y-45058857D01*
X173809142Y-45201714D01*
X173761523Y-45296952D01*
X173713904Y-45344571D01*
X173618666Y-45392190D01*
X173237714Y-45392190D01*
X174761523Y-45868380D02*
X174190095Y-45868380D01*
X174475809Y-45868380D02*
X174475809Y-44868380D01*
X174380571Y-45011238D01*
X174285333Y-45106476D01*
X174190095Y-45154095D01*
X175713904Y-45868380D02*
X175142476Y-45868380D01*
X175428190Y-45868380D02*
X175428190Y-44868380D01*
X175332952Y-45011238D01*
X175237714Y-45106476D01*
X175142476Y-45154095D01*
%TO.C,C2*%
X155133333Y-102903142D02*
X155085714Y-102950761D01*
X154942857Y-102998380D01*
X154847619Y-102998380D01*
X154704761Y-102950761D01*
X154609523Y-102855523D01*
X154561904Y-102760285D01*
X154514285Y-102569809D01*
X154514285Y-102426952D01*
X154561904Y-102236476D01*
X154609523Y-102141238D01*
X154704761Y-102046000D01*
X154847619Y-101998380D01*
X154942857Y-101998380D01*
X155085714Y-102046000D01*
X155133333Y-102093619D01*
X155514285Y-102093619D02*
X155561904Y-102046000D01*
X155657142Y-101998380D01*
X155895238Y-101998380D01*
X155990476Y-102046000D01*
X156038095Y-102093619D01*
X156085714Y-102188857D01*
X156085714Y-102284095D01*
X156038095Y-102426952D01*
X155466666Y-102998380D01*
X156085714Y-102998380D01*
%TO.C,J5*%
X110353666Y-59000227D02*
X110353666Y-59714513D01*
X110306047Y-59857370D01*
X110210809Y-59952608D01*
X110067952Y-60000227D01*
X109972714Y-60000227D01*
X111306047Y-59000227D02*
X110829857Y-59000227D01*
X110782238Y-59476418D01*
X110829857Y-59428799D01*
X110925095Y-59381180D01*
X111163190Y-59381180D01*
X111258428Y-59428799D01*
X111306047Y-59476418D01*
X111353666Y-59571656D01*
X111353666Y-59809751D01*
X111306047Y-59904989D01*
X111258428Y-59952608D01*
X111163190Y-60000227D01*
X110925095Y-60000227D01*
X110829857Y-59952608D01*
X110782238Y-59904989D01*
%TO.C,R21*%
X80352142Y-77084227D02*
X80018809Y-76608037D01*
X79780714Y-77084227D02*
X79780714Y-76084227D01*
X80161666Y-76084227D01*
X80256904Y-76131847D01*
X80304523Y-76179466D01*
X80352142Y-76274704D01*
X80352142Y-76417561D01*
X80304523Y-76512799D01*
X80256904Y-76560418D01*
X80161666Y-76608037D01*
X79780714Y-76608037D01*
X80733095Y-76179466D02*
X80780714Y-76131847D01*
X80875952Y-76084227D01*
X81114047Y-76084227D01*
X81209285Y-76131847D01*
X81256904Y-76179466D01*
X81304523Y-76274704D01*
X81304523Y-76369942D01*
X81256904Y-76512799D01*
X80685476Y-77084227D01*
X81304523Y-77084227D01*
X82256904Y-77084227D02*
X81685476Y-77084227D01*
X81971190Y-77084227D02*
X81971190Y-76084227D01*
X81875952Y-76227085D01*
X81780714Y-76322323D01*
X81685476Y-76369942D01*
%TO.C,J19*%
X97190476Y-95452380D02*
X97190476Y-96166666D01*
X97142857Y-96309523D01*
X97047619Y-96404761D01*
X96904761Y-96452380D01*
X96809523Y-96452380D01*
X98190476Y-96452380D02*
X97619047Y-96452380D01*
X97904761Y-96452380D02*
X97904761Y-95452380D01*
X97809523Y-95595238D01*
X97714285Y-95690476D01*
X97619047Y-95738095D01*
X98666666Y-96452380D02*
X98857142Y-96452380D01*
X98952380Y-96404761D01*
X99000000Y-96357142D01*
X99095238Y-96214285D01*
X99142857Y-96023809D01*
X99142857Y-95642857D01*
X99095238Y-95547619D01*
X99047619Y-95500000D01*
X98952380Y-95452380D01*
X98761904Y-95452380D01*
X98666666Y-95500000D01*
X98619047Y-95547619D01*
X98571428Y-95642857D01*
X98571428Y-95880952D01*
X98619047Y-95976190D01*
X98666666Y-96023809D01*
X98761904Y-96071428D01*
X98952380Y-96071428D01*
X99047619Y-96023809D01*
X99095238Y-95976190D01*
X99142857Y-95880952D01*
%TO.C,J_II1*%
X244309523Y-39452380D02*
X244309523Y-40166666D01*
X244261904Y-40309523D01*
X244166666Y-40404761D01*
X244023809Y-40452380D01*
X243928571Y-40452380D01*
X244547619Y-40547619D02*
X245309523Y-40547619D01*
X245547619Y-40452380D02*
X245547619Y-39452380D01*
X246023809Y-40452380D02*
X246023809Y-39452380D01*
X247023809Y-40452380D02*
X246452380Y-40452380D01*
X246738095Y-40452380D02*
X246738095Y-39452380D01*
X246642857Y-39595238D01*
X246547619Y-39690476D01*
X246452380Y-39738095D01*
%TO.C,F1*%
X178732666Y-102587571D02*
X178399333Y-102587571D01*
X178399333Y-103111380D02*
X178399333Y-102111380D01*
X178875523Y-102111380D01*
X179780285Y-103111380D02*
X179208857Y-103111380D01*
X179494571Y-103111380D02*
X179494571Y-102111380D01*
X179399333Y-102254238D01*
X179304095Y-102349476D01*
X179208857Y-102397095D01*
%TO.C,R26*%
X90952142Y-66162227D02*
X90618809Y-65686037D01*
X90380714Y-66162227D02*
X90380714Y-65162227D01*
X90761666Y-65162227D01*
X90856904Y-65209847D01*
X90904523Y-65257466D01*
X90952142Y-65352704D01*
X90952142Y-65495561D01*
X90904523Y-65590799D01*
X90856904Y-65638418D01*
X90761666Y-65686037D01*
X90380714Y-65686037D01*
X91333095Y-65257466D02*
X91380714Y-65209847D01*
X91475952Y-65162227D01*
X91714047Y-65162227D01*
X91809285Y-65209847D01*
X91856904Y-65257466D01*
X91904523Y-65352704D01*
X91904523Y-65447942D01*
X91856904Y-65590799D01*
X91285476Y-66162227D01*
X91904523Y-66162227D01*
X92761666Y-65162227D02*
X92571190Y-65162227D01*
X92475952Y-65209847D01*
X92428333Y-65257466D01*
X92333095Y-65400323D01*
X92285476Y-65590799D01*
X92285476Y-65971751D01*
X92333095Y-66066989D01*
X92380714Y-66114608D01*
X92475952Y-66162227D01*
X92666428Y-66162227D01*
X92761666Y-66114608D01*
X92809285Y-66066989D01*
X92856904Y-65971751D01*
X92856904Y-65733656D01*
X92809285Y-65638418D01*
X92761666Y-65590799D01*
X92666428Y-65543180D01*
X92475952Y-65543180D01*
X92380714Y-65590799D01*
X92333095Y-65638418D01*
X92285476Y-65733656D01*
%TO.C,J7*%
X141994666Y-95446380D02*
X141994666Y-96160666D01*
X141947047Y-96303523D01*
X141851809Y-96398761D01*
X141708952Y-96446380D01*
X141613714Y-96446380D01*
X142375619Y-95446380D02*
X143042285Y-95446380D01*
X142613714Y-96446380D01*
%TO.C,R22*%
X80326142Y-79624227D02*
X79992809Y-79148037D01*
X79754714Y-79624227D02*
X79754714Y-78624227D01*
X80135666Y-78624227D01*
X80230904Y-78671847D01*
X80278523Y-78719466D01*
X80326142Y-78814704D01*
X80326142Y-78957561D01*
X80278523Y-79052799D01*
X80230904Y-79100418D01*
X80135666Y-79148037D01*
X79754714Y-79148037D01*
X80707095Y-78719466D02*
X80754714Y-78671847D01*
X80849952Y-78624227D01*
X81088047Y-78624227D01*
X81183285Y-78671847D01*
X81230904Y-78719466D01*
X81278523Y-78814704D01*
X81278523Y-78909942D01*
X81230904Y-79052799D01*
X80659476Y-79624227D01*
X81278523Y-79624227D01*
X81659476Y-78719466D02*
X81707095Y-78671847D01*
X81802333Y-78624227D01*
X82040428Y-78624227D01*
X82135666Y-78671847D01*
X82183285Y-78719466D01*
X82230904Y-78814704D01*
X82230904Y-78909942D01*
X82183285Y-79052799D01*
X81611857Y-79624227D01*
X82230904Y-79624227D01*
%TO.C,R29*%
X217913142Y-39010380D02*
X217579809Y-38534190D01*
X217341714Y-39010380D02*
X217341714Y-38010380D01*
X217722666Y-38010380D01*
X217817904Y-38058000D01*
X217865523Y-38105619D01*
X217913142Y-38200857D01*
X217913142Y-38343714D01*
X217865523Y-38438952D01*
X217817904Y-38486571D01*
X217722666Y-38534190D01*
X217341714Y-38534190D01*
X218294095Y-38105619D02*
X218341714Y-38058000D01*
X218436952Y-38010380D01*
X218675047Y-38010380D01*
X218770285Y-38058000D01*
X218817904Y-38105619D01*
X218865523Y-38200857D01*
X218865523Y-38296095D01*
X218817904Y-38438952D01*
X218246476Y-39010380D01*
X218865523Y-39010380D01*
X219341714Y-39010380D02*
X219532190Y-39010380D01*
X219627428Y-38962761D01*
X219675047Y-38915142D01*
X219770285Y-38772285D01*
X219817904Y-38581809D01*
X219817904Y-38200857D01*
X219770285Y-38105619D01*
X219722666Y-38058000D01*
X219627428Y-38010380D01*
X219436952Y-38010380D01*
X219341714Y-38058000D01*
X219294095Y-38105619D01*
X219246476Y-38200857D01*
X219246476Y-38438952D01*
X219294095Y-38534190D01*
X219341714Y-38581809D01*
X219436952Y-38629428D01*
X219627428Y-38629428D01*
X219722666Y-38581809D01*
X219770285Y-38534190D01*
X219817904Y-38438952D01*
%TO.C,R31*%
X197889142Y-39010380D02*
X197555809Y-38534190D01*
X197317714Y-39010380D02*
X197317714Y-38010380D01*
X197698666Y-38010380D01*
X197793904Y-38058000D01*
X197841523Y-38105619D01*
X197889142Y-38200857D01*
X197889142Y-38343714D01*
X197841523Y-38438952D01*
X197793904Y-38486571D01*
X197698666Y-38534190D01*
X197317714Y-38534190D01*
X198222476Y-38010380D02*
X198841523Y-38010380D01*
X198508190Y-38391333D01*
X198651047Y-38391333D01*
X198746285Y-38438952D01*
X198793904Y-38486571D01*
X198841523Y-38581809D01*
X198841523Y-38819904D01*
X198793904Y-38915142D01*
X198746285Y-38962761D01*
X198651047Y-39010380D01*
X198365333Y-39010380D01*
X198270095Y-38962761D01*
X198222476Y-38915142D01*
X199793904Y-39010380D02*
X199222476Y-39010380D01*
X199508190Y-39010380D02*
X199508190Y-38010380D01*
X199412952Y-38153238D01*
X199317714Y-38248476D01*
X199222476Y-38296095D01*
%TO.C,U3*%
X88497380Y-74069751D02*
X89306904Y-74069751D01*
X89402142Y-74022132D01*
X89449761Y-73974513D01*
X89497380Y-73879275D01*
X89497380Y-73688799D01*
X89449761Y-73593561D01*
X89402142Y-73545942D01*
X89306904Y-73498323D01*
X88497380Y-73498323D01*
X88497380Y-73117370D02*
X88497380Y-72498323D01*
X88878333Y-72831656D01*
X88878333Y-72688799D01*
X88925952Y-72593561D01*
X88973571Y-72545942D01*
X89068809Y-72498323D01*
X89306904Y-72498323D01*
X89402142Y-72545942D01*
X89449761Y-72593561D01*
X89497380Y-72688799D01*
X89497380Y-72974513D01*
X89449761Y-73069751D01*
X89402142Y-73117370D01*
%TO.C,C19*%
X96582142Y-70638989D02*
X96534523Y-70686608D01*
X96391666Y-70734227D01*
X96296428Y-70734227D01*
X96153571Y-70686608D01*
X96058333Y-70591370D01*
X96010714Y-70496132D01*
X95963095Y-70305656D01*
X95963095Y-70162799D01*
X96010714Y-69972323D01*
X96058333Y-69877085D01*
X96153571Y-69781847D01*
X96296428Y-69734227D01*
X96391666Y-69734227D01*
X96534523Y-69781847D01*
X96582142Y-69829466D01*
X97534523Y-70734227D02*
X96963095Y-70734227D01*
X97248809Y-70734227D02*
X97248809Y-69734227D01*
X97153571Y-69877085D01*
X97058333Y-69972323D01*
X96963095Y-70019942D01*
X98010714Y-70734227D02*
X98201190Y-70734227D01*
X98296428Y-70686608D01*
X98344047Y-70638989D01*
X98439285Y-70496132D01*
X98486904Y-70305656D01*
X98486904Y-69924704D01*
X98439285Y-69829466D01*
X98391666Y-69781847D01*
X98296428Y-69734227D01*
X98105952Y-69734227D01*
X98010714Y-69781847D01*
X97963095Y-69829466D01*
X97915476Y-69924704D01*
X97915476Y-70162799D01*
X97963095Y-70258037D01*
X98010714Y-70305656D01*
X98105952Y-70353275D01*
X98296428Y-70353275D01*
X98391666Y-70305656D01*
X98439285Y-70258037D01*
X98486904Y-70162799D01*
%TO.C,REF2*%
X194652380Y-22552380D02*
X194319047Y-22076190D01*
X194080952Y-22552380D02*
X194080952Y-21552380D01*
X194461904Y-21552380D01*
X194557142Y-21600000D01*
X194604761Y-21647619D01*
X194652380Y-21742857D01*
X194652380Y-21885714D01*
X194604761Y-21980952D01*
X194557142Y-22028571D01*
X194461904Y-22076190D01*
X194080952Y-22076190D01*
X195080952Y-22028571D02*
X195414285Y-22028571D01*
X195557142Y-22552380D02*
X195080952Y-22552380D01*
X195080952Y-21552380D01*
X195557142Y-21552380D01*
X196319047Y-22028571D02*
X195985714Y-22028571D01*
X195985714Y-22552380D02*
X195985714Y-21552380D01*
X196461904Y-21552380D01*
X196795238Y-21647619D02*
X196842857Y-21600000D01*
X196938095Y-21552380D01*
X197176190Y-21552380D01*
X197271428Y-21600000D01*
X197319047Y-21647619D01*
X197366666Y-21742857D01*
X197366666Y-21838095D01*
X197319047Y-21980952D01*
X196747619Y-22552380D01*
X197366666Y-22552380D01*
%TO.C,R19*%
X80202142Y-72870227D02*
X79868809Y-72394037D01*
X79630714Y-72870227D02*
X79630714Y-71870227D01*
X80011666Y-71870227D01*
X80106904Y-71917847D01*
X80154523Y-71965466D01*
X80202142Y-72060704D01*
X80202142Y-72203561D01*
X80154523Y-72298799D01*
X80106904Y-72346418D01*
X80011666Y-72394037D01*
X79630714Y-72394037D01*
X81154523Y-72870227D02*
X80583095Y-72870227D01*
X80868809Y-72870227D02*
X80868809Y-71870227D01*
X80773571Y-72013085D01*
X80678333Y-72108323D01*
X80583095Y-72155942D01*
X81630714Y-72870227D02*
X81821190Y-72870227D01*
X81916428Y-72822608D01*
X81964047Y-72774989D01*
X82059285Y-72632132D01*
X82106904Y-72441656D01*
X82106904Y-72060704D01*
X82059285Y-71965466D01*
X82011666Y-71917847D01*
X81916428Y-71870227D01*
X81725952Y-71870227D01*
X81630714Y-71917847D01*
X81583095Y-71965466D01*
X81535476Y-72060704D01*
X81535476Y-72298799D01*
X81583095Y-72394037D01*
X81630714Y-72441656D01*
X81725952Y-72489275D01*
X81916428Y-72489275D01*
X82011666Y-72441656D01*
X82059285Y-72394037D01*
X82106904Y-72298799D01*
%TO.C,R17*%
X80202142Y-66924227D02*
X79868809Y-66448037D01*
X79630714Y-66924227D02*
X79630714Y-65924227D01*
X80011666Y-65924227D01*
X80106904Y-65971847D01*
X80154523Y-66019466D01*
X80202142Y-66114704D01*
X80202142Y-66257561D01*
X80154523Y-66352799D01*
X80106904Y-66400418D01*
X80011666Y-66448037D01*
X79630714Y-66448037D01*
X81154523Y-66924227D02*
X80583095Y-66924227D01*
X80868809Y-66924227D02*
X80868809Y-65924227D01*
X80773571Y-66067085D01*
X80678333Y-66162323D01*
X80583095Y-66209942D01*
X81487857Y-65924227D02*
X82154523Y-65924227D01*
X81725952Y-66924227D01*
%TO.C,JGPIO7*%
X102476761Y-95289380D02*
X102476761Y-96003666D01*
X102429142Y-96146523D01*
X102333904Y-96241761D01*
X102191047Y-96289380D01*
X102095809Y-96289380D01*
X103476761Y-95337000D02*
X103381523Y-95289380D01*
X103238666Y-95289380D01*
X103095809Y-95337000D01*
X103000571Y-95432238D01*
X102952952Y-95527476D01*
X102905333Y-95717952D01*
X102905333Y-95860809D01*
X102952952Y-96051285D01*
X103000571Y-96146523D01*
X103095809Y-96241761D01*
X103238666Y-96289380D01*
X103333904Y-96289380D01*
X103476761Y-96241761D01*
X103524380Y-96194142D01*
X103524380Y-95860809D01*
X103333904Y-95860809D01*
X103952952Y-96289380D02*
X103952952Y-95289380D01*
X104333904Y-95289380D01*
X104429142Y-95337000D01*
X104476761Y-95384619D01*
X104524380Y-95479857D01*
X104524380Y-95622714D01*
X104476761Y-95717952D01*
X104429142Y-95765571D01*
X104333904Y-95813190D01*
X103952952Y-95813190D01*
X104952952Y-96289380D02*
X104952952Y-95289380D01*
X105619619Y-95289380D02*
X105810095Y-95289380D01*
X105905333Y-95337000D01*
X106000571Y-95432238D01*
X106048190Y-95622714D01*
X106048190Y-95956047D01*
X106000571Y-96146523D01*
X105905333Y-96241761D01*
X105810095Y-96289380D01*
X105619619Y-96289380D01*
X105524380Y-96241761D01*
X105429142Y-96146523D01*
X105381523Y-95956047D01*
X105381523Y-95622714D01*
X105429142Y-95432238D01*
X105524380Y-95337000D01*
X105619619Y-95289380D01*
X106381523Y-95289380D02*
X107048190Y-95289380D01*
X106619619Y-96289380D01*
%TO.C,R28*%
X165450380Y-64854857D02*
X164974190Y-65188190D01*
X165450380Y-65426285D02*
X164450380Y-65426285D01*
X164450380Y-65045333D01*
X164498000Y-64950095D01*
X164545619Y-64902476D01*
X164640857Y-64854857D01*
X164783714Y-64854857D01*
X164878952Y-64902476D01*
X164926571Y-64950095D01*
X164974190Y-65045333D01*
X164974190Y-65426285D01*
X164545619Y-64473904D02*
X164498000Y-64426285D01*
X164450380Y-64331047D01*
X164450380Y-64092952D01*
X164498000Y-63997714D01*
X164545619Y-63950095D01*
X164640857Y-63902476D01*
X164736095Y-63902476D01*
X164878952Y-63950095D01*
X165450380Y-64521523D01*
X165450380Y-63902476D01*
X164878952Y-63331047D02*
X164831333Y-63426285D01*
X164783714Y-63473904D01*
X164688476Y-63521523D01*
X164640857Y-63521523D01*
X164545619Y-63473904D01*
X164498000Y-63426285D01*
X164450380Y-63331047D01*
X164450380Y-63140571D01*
X164498000Y-63045333D01*
X164545619Y-62997714D01*
X164640857Y-62950095D01*
X164688476Y-62950095D01*
X164783714Y-62997714D01*
X164831333Y-63045333D01*
X164878952Y-63140571D01*
X164878952Y-63331047D01*
X164926571Y-63426285D01*
X164974190Y-63473904D01*
X165069428Y-63521523D01*
X165259904Y-63521523D01*
X165355142Y-63473904D01*
X165402761Y-63426285D01*
X165450380Y-63331047D01*
X165450380Y-63140571D01*
X165402761Y-63045333D01*
X165355142Y-62997714D01*
X165259904Y-62950095D01*
X165069428Y-62950095D01*
X164974190Y-62997714D01*
X164926571Y-63045333D01*
X164878952Y-63140571D01*
%TO.C,C9*%
X73628333Y-71146989D02*
X73580714Y-71194608D01*
X73437857Y-71242227D01*
X73342619Y-71242227D01*
X73199761Y-71194608D01*
X73104523Y-71099370D01*
X73056904Y-71004132D01*
X73009285Y-70813656D01*
X73009285Y-70670799D01*
X73056904Y-70480323D01*
X73104523Y-70385085D01*
X73199761Y-70289847D01*
X73342619Y-70242227D01*
X73437857Y-70242227D01*
X73580714Y-70289847D01*
X73628333Y-70337466D01*
X74104523Y-71242227D02*
X74295000Y-71242227D01*
X74390238Y-71194608D01*
X74437857Y-71146989D01*
X74533095Y-71004132D01*
X74580714Y-70813656D01*
X74580714Y-70432704D01*
X74533095Y-70337466D01*
X74485476Y-70289847D01*
X74390238Y-70242227D01*
X74199761Y-70242227D01*
X74104523Y-70289847D01*
X74056904Y-70337466D01*
X74009285Y-70432704D01*
X74009285Y-70670799D01*
X74056904Y-70766037D01*
X74104523Y-70813656D01*
X74199761Y-70861275D01*
X74390238Y-70861275D01*
X74485476Y-70813656D01*
X74533095Y-70766037D01*
X74580714Y-70670799D01*
%TO.C,J1*%
X256646666Y-39427380D02*
X256646666Y-40141666D01*
X256599047Y-40284523D01*
X256503809Y-40379761D01*
X256360952Y-40427380D01*
X256265714Y-40427380D01*
X257646666Y-40427380D02*
X257075238Y-40427380D01*
X257360952Y-40427380D02*
X257360952Y-39427380D01*
X257265714Y-39570238D01*
X257170476Y-39665476D01*
X257075238Y-39713095D01*
%TO.C,C1*%
X141925333Y-108405143D02*
X141877714Y-108452762D01*
X141734857Y-108500381D01*
X141639619Y-108500381D01*
X141496761Y-108452762D01*
X141401523Y-108357524D01*
X141353904Y-108262286D01*
X141306285Y-108071810D01*
X141306285Y-107928953D01*
X141353904Y-107738477D01*
X141401523Y-107643239D01*
X141496761Y-107548001D01*
X141639619Y-107500381D01*
X141734857Y-107500381D01*
X141877714Y-107548001D01*
X141925333Y-107595620D01*
X142877714Y-108500381D02*
X142306285Y-108500381D01*
X142592000Y-108500381D02*
X142592000Y-107500381D01*
X142496761Y-107643239D01*
X142401523Y-107738477D01*
X142306285Y-107786096D01*
%TO.C,R9*%
X80833333Y-47952380D02*
X80500000Y-47476190D01*
X80261904Y-47952380D02*
X80261904Y-46952380D01*
X80642857Y-46952380D01*
X80738095Y-47000000D01*
X80785714Y-47047619D01*
X80833333Y-47142857D01*
X80833333Y-47285714D01*
X80785714Y-47380952D01*
X80738095Y-47428571D01*
X80642857Y-47476190D01*
X80261904Y-47476190D01*
X81309523Y-47952380D02*
X81500000Y-47952380D01*
X81595238Y-47904761D01*
X81642857Y-47857142D01*
X81738095Y-47714285D01*
X81785714Y-47523809D01*
X81785714Y-47142857D01*
X81738095Y-47047619D01*
X81690476Y-47000000D01*
X81595238Y-46952380D01*
X81404761Y-46952380D01*
X81309523Y-47000000D01*
X81261904Y-47047619D01*
X81214285Y-47142857D01*
X81214285Y-47380952D01*
X81261904Y-47476190D01*
X81309523Y-47523809D01*
X81404761Y-47571428D01*
X81595238Y-47571428D01*
X81690476Y-47523809D01*
X81738095Y-47476190D01*
X81785714Y-47380952D01*
%TO.C,REF6*%
X217452380Y-22552380D02*
X217119047Y-22076190D01*
X216880952Y-22552380D02*
X216880952Y-21552380D01*
X217261904Y-21552380D01*
X217357142Y-21600000D01*
X217404761Y-21647619D01*
X217452380Y-21742857D01*
X217452380Y-21885714D01*
X217404761Y-21980952D01*
X217357142Y-22028571D01*
X217261904Y-22076190D01*
X216880952Y-22076190D01*
X217880952Y-22028571D02*
X218214285Y-22028571D01*
X218357142Y-22552380D02*
X217880952Y-22552380D01*
X217880952Y-21552380D01*
X218357142Y-21552380D01*
X219119047Y-22028571D02*
X218785714Y-22028571D01*
X218785714Y-22552380D02*
X218785714Y-21552380D01*
X219261904Y-21552380D01*
X220071428Y-21552380D02*
X219880952Y-21552380D01*
X219785714Y-21600000D01*
X219738095Y-21647619D01*
X219642857Y-21790476D01*
X219595238Y-21980952D01*
X219595238Y-22361904D01*
X219642857Y-22457142D01*
X219690476Y-22504761D01*
X219785714Y-22552380D01*
X219976190Y-22552380D01*
X220071428Y-22504761D01*
X220119047Y-22457142D01*
X220166666Y-22361904D01*
X220166666Y-22123809D01*
X220119047Y-22028571D01*
X220071428Y-21980952D01*
X219976190Y-21933333D01*
X219785714Y-21933333D01*
X219690476Y-21980952D01*
X219642857Y-22028571D01*
X219595238Y-22123809D01*
%TO.C,JRP2040R_1*%
X140492952Y-56806380D02*
X140492952Y-57520666D01*
X140445333Y-57663523D01*
X140350095Y-57758761D01*
X140207238Y-57806380D01*
X140112000Y-57806380D01*
X141540571Y-57806380D02*
X141207238Y-57330190D01*
X140969142Y-57806380D02*
X140969142Y-56806380D01*
X141350095Y-56806380D01*
X141445333Y-56854000D01*
X141492952Y-56901619D01*
X141540571Y-56996857D01*
X141540571Y-57139714D01*
X141492952Y-57234952D01*
X141445333Y-57282571D01*
X141350095Y-57330190D01*
X140969142Y-57330190D01*
X141969142Y-57806380D02*
X141969142Y-56806380D01*
X142350095Y-56806380D01*
X142445333Y-56854000D01*
X142492952Y-56901619D01*
X142540571Y-56996857D01*
X142540571Y-57139714D01*
X142492952Y-57234952D01*
X142445333Y-57282571D01*
X142350095Y-57330190D01*
X141969142Y-57330190D01*
X142921523Y-56901619D02*
X142969142Y-56854000D01*
X143064380Y-56806380D01*
X143302476Y-56806380D01*
X143397714Y-56854000D01*
X143445333Y-56901619D01*
X143492952Y-56996857D01*
X143492952Y-57092095D01*
X143445333Y-57234952D01*
X142873904Y-57806380D01*
X143492952Y-57806380D01*
X144112000Y-56806380D02*
X144207238Y-56806380D01*
X144302476Y-56854000D01*
X144350095Y-56901619D01*
X144397714Y-56996857D01*
X144445333Y-57187333D01*
X144445333Y-57425428D01*
X144397714Y-57615904D01*
X144350095Y-57711142D01*
X144302476Y-57758761D01*
X144207238Y-57806380D01*
X144112000Y-57806380D01*
X144016761Y-57758761D01*
X143969142Y-57711142D01*
X143921523Y-57615904D01*
X143873904Y-57425428D01*
X143873904Y-57187333D01*
X143921523Y-56996857D01*
X143969142Y-56901619D01*
X144016761Y-56854000D01*
X144112000Y-56806380D01*
X145302476Y-57139714D02*
X145302476Y-57806380D01*
X145064380Y-56758761D02*
X144826285Y-57473047D01*
X145445333Y-57473047D01*
X146016761Y-56806380D02*
X146112000Y-56806380D01*
X146207238Y-56854000D01*
X146254857Y-56901619D01*
X146302476Y-56996857D01*
X146350095Y-57187333D01*
X146350095Y-57425428D01*
X146302476Y-57615904D01*
X146254857Y-57711142D01*
X146207238Y-57758761D01*
X146112000Y-57806380D01*
X146016761Y-57806380D01*
X145921523Y-57758761D01*
X145873904Y-57711142D01*
X145826285Y-57615904D01*
X145778666Y-57425428D01*
X145778666Y-57187333D01*
X145826285Y-56996857D01*
X145873904Y-56901619D01*
X145921523Y-56854000D01*
X146016761Y-56806380D01*
X147350095Y-57806380D02*
X147016761Y-57330190D01*
X146778666Y-57806380D02*
X146778666Y-56806380D01*
X147159619Y-56806380D01*
X147254857Y-56854000D01*
X147302476Y-56901619D01*
X147350095Y-56996857D01*
X147350095Y-57139714D01*
X147302476Y-57234952D01*
X147254857Y-57282571D01*
X147159619Y-57330190D01*
X146778666Y-57330190D01*
X147540571Y-57901619D02*
X148302476Y-57901619D01*
X149064380Y-57806380D02*
X148492952Y-57806380D01*
X148778666Y-57806380D02*
X148778666Y-56806380D01*
X148683428Y-56949238D01*
X148588190Y-57044476D01*
X148492952Y-57092095D01*
%TO.C,J2*%
X79166666Y-100452380D02*
X79166666Y-101166666D01*
X79119047Y-101309523D01*
X79023809Y-101404761D01*
X78880952Y-101452380D01*
X78785714Y-101452380D01*
X79595238Y-100547619D02*
X79642857Y-100500000D01*
X79738095Y-100452380D01*
X79976190Y-100452380D01*
X80071428Y-100500000D01*
X80119047Y-100547619D01*
X80166666Y-100642857D01*
X80166666Y-100738095D01*
X80119047Y-100880952D01*
X79547619Y-101452380D01*
X80166666Y-101452380D01*
%TO.C,J4*%
X154166666Y-95452380D02*
X154166666Y-96166666D01*
X154119047Y-96309523D01*
X154023809Y-96404761D01*
X153880952Y-96452380D01*
X153785714Y-96452380D01*
X155071428Y-95785714D02*
X155071428Y-96452380D01*
X154833333Y-95404761D02*
X154595238Y-96119047D01*
X155214285Y-96119047D01*
%TO.C,R38*%
X134457142Y-34452380D02*
X134123809Y-33976190D01*
X133885714Y-34452380D02*
X133885714Y-33452380D01*
X134266666Y-33452380D01*
X134361904Y-33500000D01*
X134409523Y-33547619D01*
X134457142Y-33642857D01*
X134457142Y-33785714D01*
X134409523Y-33880952D01*
X134361904Y-33928571D01*
X134266666Y-33976190D01*
X133885714Y-33976190D01*
X134790476Y-33452380D02*
X135409523Y-33452380D01*
X135076190Y-33833333D01*
X135219047Y-33833333D01*
X135314285Y-33880952D01*
X135361904Y-33928571D01*
X135409523Y-34023809D01*
X135409523Y-34261904D01*
X135361904Y-34357142D01*
X135314285Y-34404761D01*
X135219047Y-34452380D01*
X134933333Y-34452380D01*
X134838095Y-34404761D01*
X134790476Y-34357142D01*
X135980952Y-33880952D02*
X135885714Y-33833333D01*
X135838095Y-33785714D01*
X135790476Y-33690476D01*
X135790476Y-33642857D01*
X135838095Y-33547619D01*
X135885714Y-33500000D01*
X135980952Y-33452380D01*
X136171428Y-33452380D01*
X136266666Y-33500000D01*
X136314285Y-33547619D01*
X136361904Y-33642857D01*
X136361904Y-33690476D01*
X136314285Y-33785714D01*
X136266666Y-33833333D01*
X136171428Y-33880952D01*
X135980952Y-33880952D01*
X135885714Y-33928571D01*
X135838095Y-33976190D01*
X135790476Y-34071428D01*
X135790476Y-34261904D01*
X135838095Y-34357142D01*
X135885714Y-34404761D01*
X135980952Y-34452380D01*
X136171428Y-34452380D01*
X136266666Y-34404761D01*
X136314285Y-34357142D01*
X136361904Y-34261904D01*
X136361904Y-34071428D01*
X136314285Y-33976190D01*
X136266666Y-33928571D01*
X136171428Y-33880952D01*
%TO.C,C4*%
X176253142Y-53964666D02*
X176300761Y-54012285D01*
X176348380Y-54155142D01*
X176348380Y-54250380D01*
X176300761Y-54393238D01*
X176205523Y-54488476D01*
X176110285Y-54536095D01*
X175919809Y-54583714D01*
X175776952Y-54583714D01*
X175586476Y-54536095D01*
X175491238Y-54488476D01*
X175396000Y-54393238D01*
X175348380Y-54250380D01*
X175348380Y-54155142D01*
X175396000Y-54012285D01*
X175443619Y-53964666D01*
X175681714Y-53107523D02*
X176348380Y-53107523D01*
X175300761Y-53345619D02*
X176015047Y-53583714D01*
X176015047Y-52964666D01*
%TO.C,R1*%
X81833333Y-103452380D02*
X81500000Y-102976190D01*
X81261904Y-103452380D02*
X81261904Y-102452380D01*
X81642857Y-102452380D01*
X81738095Y-102500000D01*
X81785714Y-102547619D01*
X81833333Y-102642857D01*
X81833333Y-102785714D01*
X81785714Y-102880952D01*
X81738095Y-102928571D01*
X81642857Y-102976190D01*
X81261904Y-102976190D01*
X82785714Y-103452380D02*
X82214285Y-103452380D01*
X82500000Y-103452380D02*
X82500000Y-102452380D01*
X82404761Y-102595238D01*
X82309523Y-102690476D01*
X82214285Y-102738095D01*
%TO.C,C20*%
X101332142Y-78357142D02*
X101284523Y-78404761D01*
X101141666Y-78452380D01*
X101046428Y-78452380D01*
X100903571Y-78404761D01*
X100808333Y-78309523D01*
X100760714Y-78214285D01*
X100713095Y-78023809D01*
X100713095Y-77880952D01*
X100760714Y-77690476D01*
X100808333Y-77595238D01*
X100903571Y-77500000D01*
X101046428Y-77452380D01*
X101141666Y-77452380D01*
X101284523Y-77500000D01*
X101332142Y-77547619D01*
X101713095Y-77547619D02*
X101760714Y-77500000D01*
X101855952Y-77452380D01*
X102094047Y-77452380D01*
X102189285Y-77500000D01*
X102236904Y-77547619D01*
X102284523Y-77642857D01*
X102284523Y-77738095D01*
X102236904Y-77880952D01*
X101665476Y-78452380D01*
X102284523Y-78452380D01*
X102903571Y-77452380D02*
X102998809Y-77452380D01*
X103094047Y-77500000D01*
X103141666Y-77547619D01*
X103189285Y-77642857D01*
X103236904Y-77833333D01*
X103236904Y-78071428D01*
X103189285Y-78261904D01*
X103141666Y-78357142D01*
X103094047Y-78404761D01*
X102998809Y-78452380D01*
X102903571Y-78452380D01*
X102808333Y-78404761D01*
X102760714Y-78357142D01*
X102713095Y-78261904D01*
X102665476Y-78071428D01*
X102665476Y-77833333D01*
X102713095Y-77642857D01*
X102760714Y-77547619D01*
X102808333Y-77500000D01*
X102903571Y-77452380D01*
%TO.C,J_V1*%
X184869045Y-39142857D02*
X185583331Y-39142857D01*
X185726188Y-39190476D01*
X185821426Y-39285714D01*
X185869045Y-39428571D01*
X185869045Y-39523809D01*
X185964284Y-38904761D02*
X185964284Y-38142857D01*
X184869045Y-38047619D02*
X185869045Y-37714285D01*
X184869045Y-37380952D01*
X185869045Y-36523809D02*
X185869045Y-37095238D01*
X185869045Y-36809523D02*
X184869045Y-36809523D01*
X185011903Y-36904761D01*
X185107141Y-37000000D01*
X185154760Y-37095238D01*
%TO.C,C10*%
X72960142Y-73940989D02*
X72912523Y-73988608D01*
X72769666Y-74036227D01*
X72674428Y-74036227D01*
X72531571Y-73988608D01*
X72436333Y-73893370D01*
X72388714Y-73798132D01*
X72341095Y-73607656D01*
X72341095Y-73464799D01*
X72388714Y-73274323D01*
X72436333Y-73179085D01*
X72531571Y-73083847D01*
X72674428Y-73036227D01*
X72769666Y-73036227D01*
X72912523Y-73083847D01*
X72960142Y-73131466D01*
X73912523Y-74036227D02*
X73341095Y-74036227D01*
X73626809Y-74036227D02*
X73626809Y-73036227D01*
X73531571Y-73179085D01*
X73436333Y-73274323D01*
X73341095Y-73321942D01*
X74531571Y-73036227D02*
X74626809Y-73036227D01*
X74722047Y-73083847D01*
X74769666Y-73131466D01*
X74817285Y-73226704D01*
X74864904Y-73417180D01*
X74864904Y-73655275D01*
X74817285Y-73845751D01*
X74769666Y-73940989D01*
X74722047Y-73988608D01*
X74626809Y-74036227D01*
X74531571Y-74036227D01*
X74436333Y-73988608D01*
X74388714Y-73940989D01*
X74341095Y-73845751D01*
X74293476Y-73655275D01*
X74293476Y-73417180D01*
X74341095Y-73226704D01*
X74388714Y-73131466D01*
X74436333Y-73083847D01*
X74531571Y-73036227D01*
%TO.C,R3*%
X97833333Y-100952380D02*
X97500000Y-100476190D01*
X97261904Y-100952380D02*
X97261904Y-99952380D01*
X97642857Y-99952380D01*
X97738095Y-100000000D01*
X97785714Y-100047619D01*
X97833333Y-100142857D01*
X97833333Y-100285714D01*
X97785714Y-100380952D01*
X97738095Y-100428571D01*
X97642857Y-100476190D01*
X97261904Y-100476190D01*
X98166666Y-99952380D02*
X98785714Y-99952380D01*
X98452380Y-100333333D01*
X98595238Y-100333333D01*
X98690476Y-100380952D01*
X98738095Y-100428571D01*
X98785714Y-100523809D01*
X98785714Y-100761904D01*
X98738095Y-100857142D01*
X98690476Y-100904761D01*
X98595238Y-100952380D01*
X98309523Y-100952380D01*
X98214285Y-100904761D01*
X98166666Y-100857142D01*
%TO.C,R27*%
X91152142Y-82570227D02*
X90818809Y-82094037D01*
X90580714Y-82570227D02*
X90580714Y-81570227D01*
X90961666Y-81570227D01*
X91056904Y-81617847D01*
X91104523Y-81665466D01*
X91152142Y-81760704D01*
X91152142Y-81903561D01*
X91104523Y-81998799D01*
X91056904Y-82046418D01*
X90961666Y-82094037D01*
X90580714Y-82094037D01*
X91533095Y-81665466D02*
X91580714Y-81617847D01*
X91675952Y-81570227D01*
X91914047Y-81570227D01*
X92009285Y-81617847D01*
X92056904Y-81665466D01*
X92104523Y-81760704D01*
X92104523Y-81855942D01*
X92056904Y-81998799D01*
X91485476Y-82570227D01*
X92104523Y-82570227D01*
X92437857Y-81570227D02*
X93104523Y-81570227D01*
X92675952Y-82570227D01*
%TO.C,R13*%
X183154380Y-57488857D02*
X182678190Y-57822190D01*
X183154380Y-58060285D02*
X182154380Y-58060285D01*
X182154380Y-57679333D01*
X182202000Y-57584095D01*
X182249619Y-57536476D01*
X182344857Y-57488857D01*
X182487714Y-57488857D01*
X182582952Y-57536476D01*
X182630571Y-57584095D01*
X182678190Y-57679333D01*
X182678190Y-58060285D01*
X183154380Y-56536476D02*
X183154380Y-57107904D01*
X183154380Y-56822190D02*
X182154380Y-56822190D01*
X182297238Y-56917428D01*
X182392476Y-57012666D01*
X182440095Y-57107904D01*
X182154380Y-56203142D02*
X182154380Y-55584095D01*
X182535333Y-55917428D01*
X182535333Y-55774571D01*
X182582952Y-55679333D01*
X182630571Y-55631714D01*
X182725809Y-55584095D01*
X182963904Y-55584095D01*
X183059142Y-55631714D01*
X183106761Y-55679333D01*
X183154380Y-55774571D01*
X183154380Y-56060285D01*
X183106761Y-56155523D01*
X183059142Y-56203142D01*
%TO.C,R37*%
X132457142Y-41452380D02*
X132123809Y-40976190D01*
X131885714Y-41452380D02*
X131885714Y-40452380D01*
X132266666Y-40452380D01*
X132361904Y-40500000D01*
X132409523Y-40547619D01*
X132457142Y-40642857D01*
X132457142Y-40785714D01*
X132409523Y-40880952D01*
X132361904Y-40928571D01*
X132266666Y-40976190D01*
X131885714Y-40976190D01*
X132790476Y-40452380D02*
X133409523Y-40452380D01*
X133076190Y-40833333D01*
X133219047Y-40833333D01*
X133314285Y-40880952D01*
X133361904Y-40928571D01*
X133409523Y-41023809D01*
X133409523Y-41261904D01*
X133361904Y-41357142D01*
X133314285Y-41404761D01*
X133219047Y-41452380D01*
X132933333Y-41452380D01*
X132838095Y-41404761D01*
X132790476Y-41357142D01*
X133742857Y-40452380D02*
X134409523Y-40452380D01*
X133980952Y-41452380D01*
%TO.C,U4*%
X107952380Y-71761904D02*
X108761904Y-71761904D01*
X108857142Y-71714285D01*
X108904761Y-71666666D01*
X108952380Y-71571428D01*
X108952380Y-71380952D01*
X108904761Y-71285714D01*
X108857142Y-71238095D01*
X108761904Y-71190476D01*
X107952380Y-71190476D01*
X108285714Y-70285714D02*
X108952380Y-70285714D01*
X107904761Y-70523809D02*
X108619047Y-70761904D01*
X108619047Y-70142857D01*
%TO.C,J6*%
X187220380Y-85119333D02*
X187934666Y-85119333D01*
X188077523Y-85166952D01*
X188172761Y-85262190D01*
X188220380Y-85405047D01*
X188220380Y-85500285D01*
X187220380Y-84214571D02*
X187220380Y-84405047D01*
X187268000Y-84500285D01*
X187315619Y-84547904D01*
X187458476Y-84643142D01*
X187648952Y-84690761D01*
X188029904Y-84690761D01*
X188125142Y-84643142D01*
X188172761Y-84595523D01*
X188220380Y-84500285D01*
X188220380Y-84309809D01*
X188172761Y-84214571D01*
X188125142Y-84166952D01*
X188029904Y-84119333D01*
X187791809Y-84119333D01*
X187696571Y-84166952D01*
X187648952Y-84214571D01*
X187601333Y-84309809D01*
X187601333Y-84500285D01*
X187648952Y-84595523D01*
X187696571Y-84643142D01*
X187791809Y-84690761D01*
D12*
%TO.C,J_III1*%
X232523108Y-32104000D02*
X232523108Y-33434000D01*
X227323108Y-32104000D02*
X229923108Y-32104000D01*
X232523108Y-34704000D02*
X232523108Y-39844000D01*
X227323108Y-32104000D02*
X227323108Y-39844000D01*
X229923108Y-32104000D02*
X229923108Y-34704000D01*
X231193108Y-32104000D02*
X232523108Y-32104000D01*
X229923108Y-34704000D02*
X232523108Y-34704000D01*
X227323108Y-39844000D02*
X232523108Y-39844000D01*
%TO.C,C11*%
X76767936Y-76782847D02*
X77222064Y-76782847D01*
X76767936Y-78252847D02*
X77222064Y-78252847D01*
%TO.C,C17*%
X95772936Y-80910000D02*
X97227064Y-80910000D01*
X95772936Y-79090000D02*
X97227064Y-79090000D01*
%TO.C,J_sys1*%
X197180000Y-42029000D02*
X198510000Y-42029000D01*
X197180000Y-43359000D02*
X197180000Y-42029000D01*
X199780000Y-44689000D02*
X199780000Y-42029000D01*
X199780000Y-42029000D02*
X202380000Y-42029000D01*
X202380000Y-44689000D02*
X202380000Y-42029000D01*
X199780000Y-44689000D02*
X202380000Y-44689000D01*
%TO.C,J_VI1*%
X168723108Y-34704000D02*
X171323108Y-34704000D01*
X168723108Y-32104000D02*
X168723108Y-34704000D01*
X171323108Y-34704000D02*
X171323108Y-39844000D01*
X166123108Y-32104000D02*
X168723108Y-32104000D01*
X166123108Y-39844000D02*
X171323108Y-39844000D01*
X171323108Y-32104000D02*
X171323108Y-33434000D01*
X169993108Y-32104000D02*
X171323108Y-32104000D01*
X166123108Y-32104000D02*
X166123108Y-39844000D01*
%TO.C,C6*%
X185937000Y-52506936D02*
X185937000Y-52961064D01*
X184467000Y-52506936D02*
X184467000Y-52961064D01*
%TO.C,J_pwrLed1*%
X169330000Y-111630000D02*
X166670000Y-111630000D01*
X169330000Y-114230000D02*
X169330000Y-111630000D01*
X168000000Y-116830000D02*
X166670000Y-116830000D01*
X166670000Y-114230000D02*
X166670000Y-111630000D01*
X166670000Y-116830000D02*
X166670000Y-115500000D01*
X169330000Y-114230000D02*
X166670000Y-114230000D01*
%TO.C,J13*%
X193149000Y-98547000D02*
X191819000Y-98547000D01*
X194479000Y-95947000D02*
X191819000Y-95947000D01*
X191819000Y-98547000D02*
X191819000Y-97217000D01*
X194479000Y-78107000D02*
X191819000Y-78107000D01*
X194479000Y-95947000D02*
X194479000Y-78107000D01*
X191819000Y-95947000D02*
X191819000Y-78107000D01*
%TO.C,J3*%
X106450000Y-91237847D02*
X58130000Y-91237847D01*
X109050000Y-93897847D02*
X107720000Y-93897847D01*
X106450000Y-91237847D02*
X106450000Y-93897847D01*
X109050000Y-92567847D02*
X109050000Y-93897847D01*
X106450000Y-93897847D02*
X58130000Y-93897847D01*
X58130000Y-91237847D02*
X58130000Y-93897847D01*
%TO.C,R43*%
X124293500Y-81788436D02*
X124293500Y-82242564D01*
X125763500Y-81788436D02*
X125763500Y-82242564D01*
%TO.C,C16*%
X95772936Y-66590000D02*
X97227064Y-66590000D01*
X95772936Y-68410000D02*
X97227064Y-68410000D01*
%TO.C,J_IX1*%
X105139777Y-32104000D02*
X107739777Y-32104000D01*
X105139777Y-55084000D02*
X110339777Y-55084000D01*
X107739777Y-32104000D02*
X107739777Y-34704000D01*
X107739777Y-34704000D02*
X110339777Y-34704000D01*
X110339777Y-32104000D02*
X110339777Y-33434000D01*
X109009777Y-32104000D02*
X110339777Y-32104000D01*
X105139777Y-32104000D02*
X105139777Y-55084000D01*
X110339777Y-34704000D02*
X110339777Y-55084000D01*
%TO.C,J_I1*%
X272282000Y-32104000D02*
X273612000Y-32104000D01*
X271012000Y-32104000D02*
X271012000Y-34704000D01*
X268412000Y-32104000D02*
X271012000Y-32104000D01*
X273612000Y-34704000D02*
X273612000Y-39844000D01*
X268412000Y-39844000D02*
X273612000Y-39844000D01*
X268412000Y-32104000D02*
X268412000Y-39844000D01*
X271012000Y-34704000D02*
X273612000Y-34704000D01*
X273612000Y-32104000D02*
X273612000Y-33434000D01*
%TO.C,J8*%
X99790000Y-40845000D02*
X101120000Y-40845000D01*
X95920000Y-40845000D02*
X95920000Y-56205000D01*
X98520000Y-43445000D02*
X101120000Y-43445000D01*
X98520000Y-40845000D02*
X98520000Y-43445000D01*
X101120000Y-43445000D02*
X101120000Y-56205000D01*
X101120000Y-40845000D02*
X101120000Y-42175000D01*
X95920000Y-56205000D02*
X101120000Y-56205000D01*
X95920000Y-40845000D02*
X98520000Y-40845000D01*
%TO.C,J11*%
X182732000Y-46929000D02*
X182732000Y-49589000D01*
X172512000Y-46929000D02*
X172512000Y-49589000D01*
X185332000Y-48259000D02*
X185332000Y-49589000D01*
X185332000Y-49589000D02*
X184002000Y-49589000D01*
X182732000Y-46929000D02*
X172512000Y-46929000D01*
X182732000Y-49589000D02*
X172512000Y-49589000D01*
%TO.C,J12*%
X164332000Y-49589000D02*
X154112000Y-49589000D01*
X164332000Y-46929000D02*
X164332000Y-49589000D01*
X164332000Y-46929000D02*
X154112000Y-46929000D01*
X154112000Y-46929000D02*
X154112000Y-49589000D01*
X166932000Y-49589000D02*
X165602000Y-49589000D01*
X166932000Y-48259000D02*
X166932000Y-49589000D01*
%TO.C,J_VIII1*%
X130667554Y-32104000D02*
X130667554Y-33434000D01*
X129337554Y-32104000D02*
X130667554Y-32104000D01*
X125467554Y-32104000D02*
X125467554Y-62704000D01*
X130667554Y-34704000D02*
X130667554Y-62704000D01*
X128067554Y-32104000D02*
X128067554Y-34704000D01*
X125467554Y-32104000D02*
X128067554Y-32104000D01*
X125467554Y-62704000D02*
X130667554Y-62704000D01*
X128067554Y-34704000D02*
X130667554Y-34704000D01*
%TO.C,U1*%
X149458000Y-109198000D02*
X149458000Y-106658000D01*
X146918000Y-109198000D02*
X146918000Y-106658000D01*
X144338000Y-125088000D02*
X144338000Y-109198000D01*
X151998000Y-109198000D02*
X151998000Y-106658000D01*
X154578000Y-125088000D02*
X144338000Y-125088000D01*
X154578000Y-109198000D02*
X144338000Y-109198000D01*
X154578000Y-125088000D02*
X154578000Y-109198000D01*
%TO.C,R16*%
X161067000Y-52861064D02*
X161067000Y-52406936D01*
X162537000Y-52861064D02*
X162537000Y-52406936D01*
%TO.C,J14*%
X112779000Y-75456847D02*
X112779000Y-80596847D01*
X110119000Y-80596847D02*
X112779000Y-80596847D01*
X110119000Y-75456847D02*
X110119000Y-80596847D01*
X110119000Y-75456847D02*
X112779000Y-75456847D01*
X112779000Y-72856847D02*
X112779000Y-74186847D01*
X111449000Y-72856847D02*
X112779000Y-72856847D01*
%TO.C,J_VII1*%
X145795331Y-39844000D02*
X150995331Y-39844000D01*
X150995331Y-32104000D02*
X150995331Y-33434000D01*
X148395331Y-34704000D02*
X150995331Y-34704000D01*
X149665331Y-32104000D02*
X150995331Y-32104000D01*
X148395331Y-32104000D02*
X148395331Y-34704000D01*
X145795331Y-32104000D02*
X145795331Y-39844000D01*
X150995331Y-34704000D02*
X150995331Y-39844000D01*
X145795331Y-32104000D02*
X148395331Y-32104000D01*
%TO.C,R30*%
X214772936Y-35283000D02*
X215227064Y-35283000D01*
X214772936Y-36753000D02*
X215227064Y-36753000D01*
%TO.C,D2*%
X69055000Y-55190000D02*
X72145000Y-55190000D01*
X72144830Y-55190000D02*
G75*
G03*
X70599538Y-49640000I-1544830J2560000D01*
G01*
X70600462Y-49640000D02*
G75*
G03*
X69055170Y-55190000I-462J-2990000D01*
G01*
X73100000Y-52630000D02*
G75*
G03*
X73100000Y-52630000I-2500000J0D01*
G01*
%TO.C,R32*%
X194748936Y-35283000D02*
X195203064Y-35283000D01*
X194748936Y-36753000D02*
X195203064Y-36753000D01*
%TO.C,JGPIO9*%
X90910000Y-97170000D02*
X90910000Y-98500000D01*
X89580000Y-97170000D02*
X90910000Y-97170000D01*
X88310000Y-97170000D02*
X83170000Y-97170000D01*
X88310000Y-97170000D02*
X88310000Y-99830000D01*
X88310000Y-99830000D02*
X83170000Y-99830000D01*
X83170000Y-97170000D02*
X83170000Y-99830000D01*
%TO.C,J9*%
X192920000Y-58620000D02*
X192920000Y-71440000D01*
X195520000Y-58620000D02*
X195520000Y-61220000D01*
X192920000Y-71440000D02*
X198120000Y-71440000D01*
X196790000Y-58620000D02*
X198120000Y-58620000D01*
X198120000Y-61220000D02*
X198120000Y-71440000D01*
X198120000Y-58620000D02*
X198120000Y-59950000D01*
X192920000Y-58620000D02*
X195520000Y-58620000D01*
X195520000Y-61220000D02*
X198120000Y-61220000D01*
%TO.C,R20*%
X84367936Y-74182847D02*
X84822064Y-74182847D01*
X84367936Y-75652847D02*
X84822064Y-75652847D01*
%TO.C,R33*%
X174929064Y-39293000D02*
X174474936Y-39293000D01*
X174929064Y-37823000D02*
X174474936Y-37823000D01*
%TO.C,R12*%
X159324936Y-44681000D02*
X159779064Y-44681000D01*
X159324936Y-46151000D02*
X159779064Y-46151000D01*
%TO.C,C3*%
X164925000Y-107906936D02*
X164925000Y-108361064D01*
X163455000Y-107906936D02*
X163455000Y-108361064D01*
%TO.C,C7*%
X166067000Y-52406936D02*
X166067000Y-52861064D01*
X167537000Y-52406936D02*
X167537000Y-52861064D01*
%TO.C,R34*%
X174474936Y-36753000D02*
X174929064Y-36753000D01*
X174474936Y-35283000D02*
X174929064Y-35283000D01*
%TO.C,C12*%
X76767936Y-79382847D02*
X77222064Y-79382847D01*
X76767936Y-80852847D02*
X77222064Y-80852847D01*
%TO.C,C15*%
X100250000Y-73318911D02*
X100250000Y-72864783D01*
X98780000Y-73318911D02*
X98780000Y-72864783D01*
%TO.C,R36*%
X154200936Y-36753000D02*
X154655064Y-36753000D01*
X154200936Y-35283000D02*
X154655064Y-35283000D01*
%TO.C,R7*%
X71627064Y-48485000D02*
X71172936Y-48485000D01*
X71627064Y-47015000D02*
X71172936Y-47015000D01*
%TO.C,J_IV1*%
X206778664Y-32104000D02*
X206778664Y-39844000D01*
X211978664Y-34704000D02*
X211978664Y-39844000D01*
X211978664Y-32104000D02*
X211978664Y-33434000D01*
X210648664Y-32104000D02*
X211978664Y-32104000D01*
X209378664Y-32104000D02*
X209378664Y-34704000D01*
X209378664Y-34704000D02*
X211978664Y-34704000D01*
X206778664Y-32104000D02*
X209378664Y-32104000D01*
X206778664Y-39844000D02*
X211978664Y-39844000D01*
%TO.C,C18*%
X98000000Y-73318911D02*
X98000000Y-72864783D01*
X96530000Y-73318911D02*
X96530000Y-72864783D01*
%TO.C,RV1*%
X177955000Y-103933000D02*
X168185000Y-103933000D01*
X177955000Y-110273000D02*
X168185000Y-110273000D01*
X168185000Y-110273000D02*
X168185000Y-103933000D01*
X177955000Y-110273000D02*
X177955000Y-103933000D01*
%TO.C,R15*%
X163567000Y-52861064D02*
X163567000Y-52406936D01*
X165037000Y-52861064D02*
X165037000Y-52406936D01*
%TO.C,D3*%
X77105000Y-55140000D02*
X80195000Y-55140000D01*
X80194830Y-55140000D02*
G75*
G03*
X78649538Y-49590000I-1544830J2560000D01*
G01*
X78650462Y-49590000D02*
G75*
G03*
X77105170Y-55140000I-462J-2990000D01*
G01*
X81150000Y-52580000D02*
G75*
G03*
X81150000Y-52580000I-2500000J0D01*
G01*
%TO.C,R10*%
X163455000Y-114203064D02*
X163455000Y-113748936D01*
X164925000Y-114203064D02*
X164925000Y-113748936D01*
%TO.C,R4*%
X105757936Y-100965000D02*
X106212064Y-100965000D01*
X105757936Y-102435000D02*
X106212064Y-102435000D01*
%TO.C,J10*%
X190830000Y-58615000D02*
X188170000Y-58615000D01*
X189500000Y-66355000D02*
X188170000Y-66355000D01*
X188170000Y-63755000D02*
X188170000Y-58615000D01*
X188170000Y-66355000D02*
X188170000Y-65025000D01*
X190830000Y-63755000D02*
X190830000Y-58615000D01*
X190830000Y-63755000D02*
X188170000Y-63755000D01*
%TO.C,C5*%
X160037000Y-52861064D02*
X160037000Y-52406936D01*
X158567000Y-52861064D02*
X158567000Y-52406936D01*
%TO.C,R18*%
X84367936Y-69182847D02*
X84822064Y-69182847D01*
X84367936Y-70652847D02*
X84822064Y-70652847D01*
%TO.C,R41*%
X93833064Y-37823000D02*
X93378936Y-37823000D01*
X93833064Y-39293000D02*
X93378936Y-39293000D01*
%TO.C,R42*%
X93378936Y-35283000D02*
X93833064Y-35283000D01*
X93378936Y-36753000D02*
X93833064Y-36753000D01*
%TO.C,R35*%
X154655064Y-37823000D02*
X154200936Y-37823000D01*
X154655064Y-39293000D02*
X154200936Y-39293000D01*
%TO.C,J_X1*%
X84812000Y-55084000D02*
X90012000Y-55084000D01*
X90012000Y-32104000D02*
X90012000Y-33434000D01*
X87412000Y-34704000D02*
X90012000Y-34704000D01*
X88682000Y-32104000D02*
X90012000Y-32104000D01*
X84812000Y-32104000D02*
X84812000Y-55084000D01*
X87412000Y-32104000D02*
X87412000Y-34704000D01*
X90012000Y-34704000D02*
X90012000Y-55084000D01*
X84812000Y-32104000D02*
X87412000Y-32104000D01*
%TO.C,J20*%
X131426500Y-78874500D02*
X131426500Y-76214500D01*
X118606500Y-76214500D02*
X119936500Y-76214500D01*
X121206500Y-78874500D02*
X121206500Y-76214500D01*
X121206500Y-78874500D02*
X131426500Y-78874500D01*
X121206500Y-76214500D02*
X131426500Y-76214500D01*
X118606500Y-77544500D02*
X118606500Y-76214500D01*
%TO.C,D1*%
X182224000Y-98806000D02*
X182224000Y-99826000D01*
X183694000Y-100726000D02*
X180754000Y-100726000D01*
X183694000Y-100606000D02*
X180754000Y-100606000D01*
X180754000Y-99826000D02*
X180754000Y-105266000D01*
X183694000Y-100846000D02*
X180754000Y-100846000D01*
X182224000Y-106286000D02*
X182224000Y-105266000D01*
X183694000Y-99826000D02*
X180754000Y-99826000D01*
X180754000Y-105266000D02*
X183694000Y-105266000D01*
X183694000Y-105266000D02*
X183694000Y-99826000D01*
%TO.C,R39*%
X113853064Y-37823000D02*
X113398936Y-37823000D01*
X113853064Y-39293000D02*
X113398936Y-39293000D01*
%TO.C,R14*%
X180937000Y-52961064D02*
X180937000Y-52506936D01*
X179467000Y-52961064D02*
X179467000Y-52506936D01*
%TO.C,J15*%
X116580000Y-84025000D02*
X116580000Y-85355000D01*
X116580000Y-85355000D02*
X115250000Y-85355000D01*
X113980000Y-82695000D02*
X111380000Y-82695000D01*
X111380000Y-82695000D02*
X111380000Y-85355000D01*
X113980000Y-82695000D02*
X113980000Y-85355000D01*
X113980000Y-85355000D02*
X111380000Y-85355000D01*
%TO.C,R2*%
X89302936Y-100965000D02*
X89757064Y-100965000D01*
X89302936Y-102435000D02*
X89757064Y-102435000D01*
%TO.C,JRP4020L_1*%
X184692000Y-78879000D02*
X184692000Y-76219000D01*
X133772000Y-77549000D02*
X133772000Y-76219000D01*
X136372000Y-76219000D02*
X184692000Y-76219000D01*
X136372000Y-78879000D02*
X136372000Y-76219000D01*
X133772000Y-76219000D02*
X135102000Y-76219000D01*
X136372000Y-78879000D02*
X184692000Y-78879000D01*
%TO.C,R40*%
X113398936Y-35283000D02*
X113853064Y-35283000D01*
X113398936Y-36753000D02*
X113853064Y-36753000D01*
%TO.C,R8*%
X164925000Y-103535064D02*
X164925000Y-103080936D01*
X163455000Y-103535064D02*
X163455000Y-103080936D01*
%TO.C,SW1*%
X149634000Y-91822000D02*
X154134000Y-91822000D01*
X148384000Y-87822000D02*
X148384000Y-89322000D01*
X154134000Y-85322000D02*
X149634000Y-85322000D01*
X155384000Y-89322000D02*
X155384000Y-87822000D01*
%TO.C,C8*%
X76767936Y-68252847D02*
X77222064Y-68252847D01*
X76767936Y-66782847D02*
X77222064Y-66782847D01*
%TO.C,R11*%
X177724936Y-46151000D02*
X178179064Y-46151000D01*
X177724936Y-44681000D02*
X178179064Y-44681000D01*
%TO.C,C2*%
X159896000Y-102486113D02*
X160555000Y-102486113D01*
X159896000Y-102206113D02*
X160175000Y-102206113D01*
X157356000Y-102326113D02*
X157816000Y-102326113D01*
X158051000Y-101966113D02*
X159661000Y-101966113D01*
X156313000Y-104007113D02*
X157816000Y-104007113D01*
X159896000Y-102166113D02*
X160107000Y-102166113D01*
X157030000Y-102606113D02*
X157816000Y-102606113D01*
X157678000Y-102126113D02*
X160034000Y-102126113D01*
X159896000Y-102806113D02*
X160860000Y-102806113D01*
X159896000Y-104127113D02*
X161417000Y-104127113D01*
X159896000Y-103366113D02*
X161204000Y-103366113D01*
X159896000Y-103887113D02*
X161376000Y-103887113D01*
X159896000Y-102686113D02*
X160757000Y-102686113D01*
X156365000Y-103767113D02*
X157816000Y-103767113D01*
X156278000Y-104327113D02*
X161434000Y-104327113D01*
X156306000Y-104047113D02*
X157816000Y-104047113D01*
X159896000Y-103767113D02*
X161347000Y-103767113D01*
X156566000Y-103246113D02*
X157816000Y-103246113D01*
X156276000Y-104407113D02*
X161436000Y-104407113D01*
X156276000Y-104447113D02*
X161436000Y-104447113D01*
X159896000Y-102726113D02*
X160793000Y-102726113D01*
X157071000Y-102566113D02*
X157816000Y-102566113D01*
X156428000Y-103566113D02*
X157816000Y-103566113D01*
X156287000Y-104207113D02*
X157816000Y-104207113D01*
X156588000Y-103206113D02*
X157816000Y-103206113D01*
X158572000Y-101846113D02*
X159140000Y-101846113D01*
X159896000Y-102886113D02*
X160921000Y-102886113D01*
X159896000Y-102766113D02*
X160827000Y-102766113D01*
X159896000Y-103206113D02*
X161124000Y-103206113D01*
X156300000Y-104087113D02*
X157816000Y-104087113D01*
X159896000Y-103847113D02*
X161367000Y-103847113D01*
X159896000Y-103967113D02*
X161392000Y-103967113D01*
X156336000Y-103887113D02*
X157816000Y-103887113D01*
X159896000Y-103927113D02*
X161384000Y-103927113D01*
X159896000Y-102246113D02*
X160239000Y-102246113D01*
X159896000Y-104167113D02*
X161421000Y-104167113D01*
X156328000Y-103927113D02*
X157816000Y-103927113D01*
X156681000Y-103046113D02*
X157816000Y-103046113D01*
X159896000Y-103807113D02*
X161357000Y-103807113D01*
X156277000Y-104367113D02*
X161435000Y-104367113D01*
X156791000Y-102886113D02*
X157816000Y-102886113D01*
X159896000Y-103246113D02*
X161146000Y-103246113D01*
X156442000Y-103526113D02*
X157816000Y-103526113D01*
X158179000Y-101926113D02*
X159533000Y-101926113D01*
X156919000Y-102726113D02*
X157816000Y-102726113D01*
X159896000Y-103126113D02*
X161080000Y-103126113D01*
X156376000Y-103726113D02*
X157816000Y-103726113D01*
X159896000Y-102926113D02*
X160951000Y-102926113D01*
X159896000Y-104207113D02*
X161425000Y-104207113D01*
X156291000Y-104167113D02*
X157816000Y-104167113D01*
X159896000Y-103606113D02*
X161298000Y-103606113D01*
X156656000Y-103086113D02*
X157816000Y-103086113D01*
X157605000Y-102166113D02*
X157816000Y-102166113D01*
X156546000Y-103286113D02*
X157816000Y-103286113D01*
X156761000Y-102926113D02*
X157816000Y-102926113D01*
X156320000Y-103967113D02*
X157816000Y-103967113D01*
X157203000Y-102446113D02*
X157816000Y-102446113D01*
X157157000Y-102486113D02*
X157816000Y-102486113D01*
X159896000Y-102646113D02*
X160720000Y-102646113D01*
X156885000Y-102766113D02*
X157816000Y-102766113D01*
X159896000Y-102606113D02*
X160682000Y-102606113D01*
X156821000Y-102846113D02*
X157816000Y-102846113D01*
X156474000Y-103446113D02*
X157816000Y-103446113D01*
X157413000Y-102286113D02*
X157816000Y-102286113D01*
X156852000Y-102806113D02*
X157816000Y-102806113D01*
X157845000Y-102046113D02*
X159867000Y-102046113D01*
X159896000Y-103566113D02*
X161284000Y-103566113D01*
X156355000Y-103807113D02*
X157816000Y-103807113D01*
X158338000Y-101886113D02*
X159374000Y-101886113D01*
X159896000Y-102966113D02*
X160978000Y-102966113D01*
X159896000Y-103446113D02*
X161238000Y-103446113D01*
X156734000Y-102966113D02*
X157816000Y-102966113D01*
X159896000Y-102326113D02*
X160356000Y-102326113D01*
X159896000Y-103526113D02*
X161270000Y-103526113D01*
X159896000Y-102526113D02*
X160599000Y-102526113D01*
X159896000Y-103086113D02*
X161056000Y-103086113D01*
X159896000Y-103006113D02*
X161005000Y-103006113D01*
X159896000Y-103686113D02*
X161324000Y-103686113D01*
X159896000Y-102366113D02*
X160410000Y-102366113D01*
X156707000Y-103006113D02*
X157816000Y-103006113D01*
X156632000Y-103126113D02*
X157816000Y-103126113D01*
X159896000Y-102406113D02*
X160461000Y-102406113D01*
X156992000Y-102646113D02*
X157816000Y-102646113D01*
X156609000Y-103166113D02*
X157816000Y-103166113D01*
X157251000Y-102406113D02*
X157816000Y-102406113D01*
X159896000Y-103726113D02*
X161336000Y-103726113D01*
X159896000Y-104047113D02*
X161406000Y-104047113D01*
X159896000Y-103286113D02*
X161166000Y-103286113D01*
X157381000Y-107251888D02*
X157381000Y-106751888D01*
X156527000Y-103326113D02*
X157816000Y-103326113D01*
X156491000Y-103406113D02*
X157816000Y-103406113D01*
X157113000Y-102526113D02*
X157816000Y-102526113D01*
X157537000Y-102206113D02*
X157816000Y-102206113D01*
X156458000Y-103486113D02*
X157816000Y-103486113D01*
X159896000Y-103486113D02*
X161254000Y-103486113D01*
X157473000Y-102246113D02*
X157816000Y-102246113D01*
X156295000Y-104127113D02*
X157816000Y-104127113D01*
X156401000Y-103646113D02*
X157816000Y-103646113D01*
X157131000Y-107001888D02*
X157631000Y-107001888D01*
X157758000Y-102086113D02*
X159954000Y-102086113D01*
X159896000Y-103166113D02*
X161103000Y-103166113D01*
X159896000Y-102286113D02*
X160299000Y-102286113D01*
X159896000Y-102566113D02*
X160641000Y-102566113D01*
X159896000Y-103646113D02*
X161311000Y-103646113D01*
X156508000Y-103366113D02*
X157816000Y-103366113D01*
X159896000Y-102446113D02*
X160509000Y-102446113D01*
X157941000Y-102006113D02*
X159771000Y-102006113D01*
X159896000Y-102846113D02*
X160891000Y-102846113D01*
X159896000Y-103326113D02*
X161185000Y-103326113D01*
X156280000Y-104287113D02*
X161432000Y-104287113D01*
X157302000Y-102366113D02*
X157816000Y-102366113D01*
X156388000Y-103686113D02*
X157816000Y-103686113D01*
X156345000Y-103847113D02*
X157816000Y-103847113D01*
X159896000Y-103406113D02*
X161221000Y-103406113D01*
X156955000Y-102686113D02*
X157816000Y-102686113D01*
X159896000Y-104087113D02*
X161412000Y-104087113D01*
X156414000Y-103606113D02*
X157816000Y-103606113D01*
X159896000Y-103046113D02*
X161031000Y-103046113D01*
X156283000Y-104247113D02*
X161429000Y-104247113D01*
X159896000Y-104007113D02*
X161399000Y-104007113D01*
X161476000Y-104447113D02*
G75*
G03*
X161476000Y-104447113I-2620000J0D01*
G01*
%TO.C,J5*%
X58190000Y-58217847D02*
X59520000Y-58217847D01*
X109110000Y-60877847D02*
X109110000Y-58217847D01*
X58190000Y-59547847D02*
X58190000Y-58217847D01*
X60790000Y-60877847D02*
X60790000Y-58217847D01*
X60790000Y-58217847D02*
X109110000Y-58217847D01*
X60790000Y-60877847D02*
X109110000Y-60877847D01*
%TO.C,R21*%
X84367936Y-76782847D02*
X84822064Y-76782847D01*
X84367936Y-78252847D02*
X84822064Y-78252847D01*
%TO.C,J19*%
X97660000Y-97170000D02*
X97660000Y-98500000D01*
X92460000Y-97170000D02*
X92460000Y-99830000D01*
X95060000Y-97170000D02*
X95060000Y-99830000D01*
X95060000Y-97170000D02*
X92460000Y-97170000D01*
X96330000Y-97170000D02*
X97660000Y-97170000D01*
X95060000Y-99830000D02*
X92460000Y-99830000D01*
%TO.C,J_II1*%
X253067552Y-34704000D02*
X253067552Y-39844000D01*
X250467552Y-34704000D02*
X253067552Y-34704000D01*
X247867552Y-39844000D02*
X253067552Y-39844000D01*
X253067552Y-32104000D02*
X253067552Y-33434000D01*
X251737552Y-32104000D02*
X253067552Y-32104000D01*
X247867552Y-32104000D02*
X247867552Y-39844000D01*
X250467552Y-32104000D02*
X250467552Y-34704000D01*
X247867552Y-32104000D02*
X250467552Y-32104000D01*
%TO.C,F1*%
X177878000Y-103288000D02*
X169278000Y-103288000D01*
X169278000Y-103288000D02*
X169278000Y-99188000D01*
X177878000Y-103288000D02*
X177878000Y-99188000D01*
X177878000Y-99188000D02*
X169278000Y-99188000D01*
%TO.C,R26*%
X91367936Y-66882847D02*
X91822064Y-66882847D01*
X91367936Y-68352847D02*
X91822064Y-68352847D01*
%TO.C,J7*%
X143272000Y-94514000D02*
X140672000Y-94514000D01*
X138072000Y-94514000D02*
X138072000Y-93184000D01*
X143272000Y-94514000D02*
X143272000Y-84234000D01*
X140672000Y-94514000D02*
X140672000Y-91914000D01*
X143272000Y-84234000D02*
X138072000Y-84234000D01*
X139402000Y-94514000D02*
X138072000Y-94514000D01*
X138072000Y-91914000D02*
X138072000Y-84234000D01*
X140672000Y-91914000D02*
X138072000Y-91914000D01*
%TO.C,R22*%
X84367936Y-80852847D02*
X84822064Y-80852847D01*
X84367936Y-79382847D02*
X84822064Y-79382847D01*
%TO.C,R29*%
X215227064Y-37823000D02*
X214772936Y-37823000D01*
X215227064Y-39293000D02*
X214772936Y-39293000D01*
%TO.C,R31*%
X195203064Y-39293000D02*
X194748936Y-39293000D01*
X195203064Y-37823000D02*
X194748936Y-37823000D01*
%TO.C,U3*%
X89935000Y-73307847D02*
X89935000Y-74807847D01*
X93155000Y-73307847D02*
X93155000Y-70432847D01*
X93155000Y-73307847D02*
X93155000Y-74807847D01*
X89935000Y-73307847D02*
X89935000Y-71807847D01*
%TO.C,C19*%
X94280000Y-72864783D02*
X94280000Y-73318911D01*
X95750000Y-72864783D02*
X95750000Y-73318911D01*
%TO.C,R19*%
X84367936Y-71682847D02*
X84822064Y-71682847D01*
X84367936Y-73152847D02*
X84822064Y-73152847D01*
%TO.C,R17*%
X84367936Y-68152847D02*
X84822064Y-68152847D01*
X84367936Y-66682847D02*
X84822064Y-66682847D01*
%TO.C,JGPIO7*%
X107340000Y-97170000D02*
X107340000Y-98500000D01*
X104740000Y-97170000D02*
X99600000Y-97170000D01*
X104740000Y-99830000D02*
X99600000Y-99830000D01*
X99600000Y-97170000D02*
X99600000Y-99830000D01*
X104740000Y-97170000D02*
X104740000Y-99830000D01*
X106010000Y-97170000D02*
X107340000Y-97170000D01*
%TO.C,R28*%
X163701000Y-63984936D02*
X163701000Y-64439064D01*
X162231000Y-63984936D02*
X162231000Y-64439064D01*
%TO.C,C9*%
X76767936Y-70652847D02*
X77222064Y-70652847D01*
X76767936Y-69182847D02*
X77222064Y-69182847D01*
%TO.C,J1*%
X258420000Y-39975000D02*
X258420000Y-38645000D01*
X263620000Y-41305000D02*
X263620000Y-38645000D01*
X261020000Y-41305000D02*
X263620000Y-41305000D01*
X261020000Y-38645000D02*
X263620000Y-38645000D01*
X261020000Y-41305000D02*
X261020000Y-38645000D01*
X258420000Y-38645000D02*
X259750000Y-38645000D01*
%TO.C,C1*%
X141100000Y-103686113D02*
X142528000Y-103686113D01*
X137580000Y-103726113D02*
X139020000Y-103726113D01*
X137911000Y-103006113D02*
X139020000Y-103006113D01*
X141100000Y-103847113D02*
X142571000Y-103847113D01*
X141100000Y-103446113D02*
X142442000Y-103446113D01*
X138741000Y-102206113D02*
X139020000Y-102206113D01*
X138882000Y-102126113D02*
X141238000Y-102126113D01*
X141100000Y-104127113D02*
X142621000Y-104127113D01*
X137499000Y-104127113D02*
X139020000Y-104127113D01*
X138361000Y-102486113D02*
X139020000Y-102486113D01*
X141100000Y-102286113D02*
X141503000Y-102286113D01*
X141100000Y-103486113D02*
X142458000Y-103486113D01*
X137549000Y-103847113D02*
X139020000Y-103847113D01*
X137510000Y-104047113D02*
X139020000Y-104047113D01*
X137965000Y-102926113D02*
X139020000Y-102926113D01*
X141100000Y-102606113D02*
X141886000Y-102606113D01*
X138407000Y-102446113D02*
X139020000Y-102446113D01*
X137569000Y-103767113D02*
X139020000Y-103767113D01*
X138455000Y-102406113D02*
X139020000Y-102406113D01*
X137559000Y-103807113D02*
X139020000Y-103807113D01*
X138585000Y-107251888D02*
X138585000Y-106751888D01*
X137482000Y-104327113D02*
X142638000Y-104327113D01*
X137618000Y-103606113D02*
X139020000Y-103606113D01*
X137481000Y-104367113D02*
X142639000Y-104367113D01*
X138335000Y-107001888D02*
X138835000Y-107001888D01*
X137605000Y-103646113D02*
X139020000Y-103646113D01*
X141100000Y-102926113D02*
X142155000Y-102926113D01*
X137938000Y-102966113D02*
X139020000Y-102966113D01*
X141100000Y-102646113D02*
X141924000Y-102646113D01*
X141100000Y-103366113D02*
X142408000Y-103366113D01*
X141100000Y-104007113D02*
X142603000Y-104007113D01*
X137731000Y-103326113D02*
X139020000Y-103326113D01*
X141100000Y-103807113D02*
X142561000Y-103807113D01*
X137712000Y-103366113D02*
X139020000Y-103366113D01*
X141100000Y-102406113D02*
X141665000Y-102406113D01*
X141100000Y-103726113D02*
X142540000Y-103726113D01*
X141100000Y-104087113D02*
X142616000Y-104087113D01*
X141100000Y-103206113D02*
X142328000Y-103206113D01*
X137524000Y-103967113D02*
X139020000Y-103967113D01*
X138234000Y-102606113D02*
X139020000Y-102606113D01*
X141100000Y-102166113D02*
X141311000Y-102166113D01*
X141100000Y-103967113D02*
X142596000Y-103967113D01*
X137770000Y-103246113D02*
X139020000Y-103246113D01*
X141100000Y-103606113D02*
X142502000Y-103606113D01*
X141100000Y-102686113D02*
X141961000Y-102686113D01*
X141100000Y-102766113D02*
X142031000Y-102766113D01*
X141100000Y-103566113D02*
X142488000Y-103566113D01*
X138159000Y-102686113D02*
X139020000Y-102686113D01*
X141100000Y-102726113D02*
X141997000Y-102726113D01*
X137517000Y-104007113D02*
X139020000Y-104007113D01*
X137632000Y-103566113D02*
X139020000Y-103566113D01*
X141100000Y-103046113D02*
X142235000Y-103046113D01*
X141100000Y-102566113D02*
X141845000Y-102566113D01*
X137480000Y-104447113D02*
X142640000Y-104447113D01*
X138560000Y-102326113D02*
X139020000Y-102326113D01*
X137995000Y-102886113D02*
X139020000Y-102886113D01*
X141100000Y-104047113D02*
X142610000Y-104047113D01*
X138196000Y-102646113D02*
X139020000Y-102646113D01*
X141100000Y-103767113D02*
X142551000Y-103767113D01*
X141100000Y-103246113D02*
X142350000Y-103246113D01*
X138506000Y-102366113D02*
X139020000Y-102366113D01*
X137484000Y-104287113D02*
X142636000Y-104287113D01*
X141100000Y-102846113D02*
X142095000Y-102846113D01*
X138056000Y-102806113D02*
X139020000Y-102806113D01*
X141100000Y-103887113D02*
X142580000Y-103887113D01*
X137495000Y-104167113D02*
X139020000Y-104167113D01*
X141100000Y-102326113D02*
X141560000Y-102326113D01*
X139049000Y-102046113D02*
X141071000Y-102046113D01*
X138123000Y-102726113D02*
X139020000Y-102726113D01*
X141100000Y-103526113D02*
X142474000Y-103526113D01*
X141100000Y-102206113D02*
X141379000Y-102206113D01*
X137695000Y-103406113D02*
X139020000Y-103406113D01*
X141100000Y-102886113D02*
X142125000Y-102886113D01*
X141100000Y-102806113D02*
X142064000Y-102806113D01*
X138089000Y-102766113D02*
X139020000Y-102766113D01*
X141100000Y-102366113D02*
X141614000Y-102366113D01*
X141100000Y-103927113D02*
X142588000Y-103927113D01*
X137813000Y-103166113D02*
X139020000Y-103166113D01*
X141100000Y-102446113D02*
X141713000Y-102446113D01*
X141100000Y-104207113D02*
X142629000Y-104207113D01*
X139255000Y-101966113D02*
X140865000Y-101966113D01*
X137792000Y-103206113D02*
X139020000Y-103206113D01*
X137491000Y-104207113D02*
X139020000Y-104207113D01*
X137860000Y-103086113D02*
X139020000Y-103086113D01*
X141100000Y-103086113D02*
X142260000Y-103086113D01*
X137646000Y-103526113D02*
X139020000Y-103526113D01*
X141100000Y-102486113D02*
X141759000Y-102486113D01*
X141100000Y-102526113D02*
X141803000Y-102526113D01*
X137504000Y-104087113D02*
X139020000Y-104087113D01*
X137662000Y-103486113D02*
X139020000Y-103486113D01*
X137487000Y-104247113D02*
X142633000Y-104247113D01*
X138025000Y-102846113D02*
X139020000Y-102846113D01*
X141100000Y-103406113D02*
X142425000Y-103406113D01*
X141100000Y-104167113D02*
X142625000Y-104167113D01*
X137592000Y-103686113D02*
X139020000Y-103686113D01*
X139542000Y-101886113D02*
X140578000Y-101886113D01*
X137532000Y-103927113D02*
X139020000Y-103927113D01*
X138962000Y-102086113D02*
X141158000Y-102086113D01*
X137885000Y-103046113D02*
X139020000Y-103046113D01*
X137480000Y-104407113D02*
X142640000Y-104407113D01*
X139383000Y-101926113D02*
X140737000Y-101926113D01*
X138809000Y-102166113D02*
X139020000Y-102166113D01*
X141100000Y-103006113D02*
X142209000Y-103006113D01*
X141100000Y-103126113D02*
X142284000Y-103126113D01*
X141100000Y-102246113D02*
X141443000Y-102246113D01*
X137540000Y-103887113D02*
X139020000Y-103887113D01*
X138317000Y-102526113D02*
X139020000Y-102526113D01*
X141100000Y-102966113D02*
X142182000Y-102966113D01*
X139776000Y-101846113D02*
X140344000Y-101846113D01*
X141100000Y-103326113D02*
X142389000Y-103326113D01*
X141100000Y-103166113D02*
X142307000Y-103166113D01*
X138677000Y-102246113D02*
X139020000Y-102246113D01*
X139145000Y-102006113D02*
X140975000Y-102006113D01*
X141100000Y-103286113D02*
X142370000Y-103286113D01*
X137678000Y-103446113D02*
X139020000Y-103446113D01*
X141100000Y-103646113D02*
X142515000Y-103646113D01*
X138617000Y-102286113D02*
X139020000Y-102286113D01*
X137836000Y-103126113D02*
X139020000Y-103126113D01*
X138275000Y-102566113D02*
X139020000Y-102566113D01*
X137750000Y-103286113D02*
X139020000Y-103286113D01*
X142680000Y-104447113D02*
G75*
G03*
X142680000Y-104447113I-2620000J0D01*
G01*
%TO.C,R9*%
X77272936Y-48535000D02*
X77727064Y-48535000D01*
X77272936Y-47065000D02*
X77727064Y-47065000D01*
%TO.C,JRP2040R_1*%
X182032000Y-61099000D02*
X133712000Y-61099000D01*
X184632000Y-61099000D02*
X183302000Y-61099000D01*
X133712000Y-58439000D02*
X133712000Y-61099000D01*
X182032000Y-58439000D02*
X133712000Y-58439000D01*
X184632000Y-59769000D02*
X184632000Y-61099000D01*
X182032000Y-58439000D02*
X182032000Y-61099000D01*
%TO.C,J2*%
X78510000Y-99830000D02*
X60670000Y-99830000D01*
X78510000Y-97170000D02*
X78510000Y-99830000D01*
X81110000Y-98500000D02*
X81110000Y-99830000D01*
X78510000Y-97170000D02*
X60670000Y-97170000D01*
X60670000Y-97170000D02*
X60670000Y-99830000D01*
X81110000Y-99830000D02*
X79780000Y-99830000D01*
%TO.C,J4*%
X149980000Y-94472000D02*
X149980000Y-97132000D01*
X152580000Y-97132000D02*
X151250000Y-97132000D01*
X149980000Y-97132000D02*
X147380000Y-97132000D01*
X147380000Y-94472000D02*
X147380000Y-97132000D01*
X149980000Y-94472000D02*
X147380000Y-94472000D01*
X152580000Y-95802000D02*
X152580000Y-97132000D01*
%TO.C,R38*%
X134089936Y-35283000D02*
X134544064Y-35283000D01*
X134089936Y-36753000D02*
X134544064Y-36753000D01*
%TO.C,C4*%
X178437000Y-52961064D02*
X178437000Y-52506936D01*
X176967000Y-52961064D02*
X176967000Y-52506936D01*
%TO.C,R1*%
X84807064Y-102435000D02*
X84352936Y-102435000D01*
X84807064Y-100965000D02*
X84352936Y-100965000D01*
%TO.C,C20*%
X101265000Y-75334911D02*
X101265000Y-74880783D01*
X102735000Y-75334911D02*
X102735000Y-74880783D01*
%TO.C,J_V1*%
X186450885Y-32104000D02*
X186450885Y-39844000D01*
X191650885Y-32104000D02*
X191650885Y-33434000D01*
X189050885Y-32104000D02*
X189050885Y-34704000D01*
X186450885Y-39844000D02*
X191650885Y-39844000D01*
X186450885Y-32104000D02*
X189050885Y-32104000D01*
X189050885Y-34704000D02*
X191650885Y-34704000D01*
X190320885Y-32104000D02*
X191650885Y-32104000D01*
X191650885Y-34704000D02*
X191650885Y-39844000D01*
%TO.C,C10*%
X76767936Y-74452847D02*
X77222064Y-74452847D01*
X76767936Y-72982847D02*
X77222064Y-72982847D01*
%TO.C,R3*%
X101212064Y-100965000D02*
X100757936Y-100965000D01*
X101212064Y-102435000D02*
X100757936Y-102435000D01*
%TO.C,R27*%
X91367936Y-79382847D02*
X91822064Y-79382847D01*
X91367936Y-80852847D02*
X91822064Y-80852847D01*
%TO.C,R13*%
X181967000Y-52961064D02*
X181967000Y-52506936D01*
X183437000Y-52961064D02*
X183437000Y-52506936D01*
%TO.C,R37*%
X134544064Y-39293000D02*
X134089936Y-39293000D01*
X134544064Y-37823000D02*
X134089936Y-37823000D01*
%TO.C,U4*%
X104335000Y-73617847D02*
X104335000Y-72117847D01*
X104335000Y-73617847D02*
X104335000Y-75117847D01*
X107555000Y-73617847D02*
X107555000Y-75117847D01*
X107555000Y-73617847D02*
X107555000Y-70692847D01*
%TO.C,J6*%
X186328000Y-86116000D02*
X184998000Y-86116000D01*
X183728000Y-83456000D02*
X165888000Y-83456000D01*
X165888000Y-83456000D02*
X165888000Y-86116000D01*
X186328000Y-84786000D02*
X186328000Y-86116000D01*
X183728000Y-83456000D02*
X183728000Y-86116000D01*
X183728000Y-86116000D02*
X165888000Y-86116000D01*
%TD*%
M02*
