  0
SECTION
  2
HEADER
  9
$ANGBASE
  50
0.0
  9
$ANGDIR
  70
1
  9
$MEASUREMENT
  70
1
  0
ENDSEC
  0
SECTION
  2
TABLES
  0
TABLE
  2
LTYPE
  70
4
  0
LTYPE
  5
40F
  2
CONTINUOUS
  70
0
  3
Solid line
  72
65
  73
0
  40
0.0
  0
LTYPE
  5
410
  2
DASHDOT
 70
0
  3
Dash Dot ____ _ ____ _
 72
65
 73
4
 40
2.0
 49
1.25
 49
-0.25
 49
0.25
 49
-0.25
  0
LTYPE
  5
411
  2
DASHED
 70
0
  3
Dashed __ __ __ __ __
 72
65
 73
2
 40
0.75
 49
0.5
 49
-0.25
  0
LTYPE
  5
43B
  2
DOTTED
 70
0
  3
Dotted .  .  .  .
 72
65
 73
2
 40
0.2
 49
0.0
 49
-0.2
  0
ENDTAB
  0
TABLE
  2
STYLE
  70
4
  0
STYLE
  2
KICAD
  70
0
  40
0
  41
1
  42
1
  50
0
  71
0
  3
isocp.shx
  0
STYLE
  2
KICADB
  70
0
  40
0
  41
1
  42
1
  50
0
  71
0
  3
isocp.shx
  0
STYLE
  2
KICADI
  70
0
  40
0
  41
1
  42
1
  50
15
  71
0
  3
isocp.shx
  0
STYLE
  2
KICADBI
  70
0
  40
0
  41
1
  42
1
  50
15
  71
0
  3
isocp.shx
  0
ENDTAB
  0
TABLE
  2
LAYER
  70
1
  0
LAYER
  2
BLACK
  70
0
  62
7
  6
CONTINUOUS
  0
ENDTAB
  0
ENDSEC
  0
SECTION
  2
ENTITIES
0
LINE
8
BLACK
6
CONTINUOUS
10
277.5
20
-19
11
277.5
21
-45
0
LINE
8
BLACK
6
CONTINUOUS
10
277.5
20
-45
11
250.5
21
-45
0
LINE
8
BLACK
6
CONTINUOUS
10
57
20
-106
11
133
21
-105.934
0
LINE
8
BLACK
6
CONTINUOUS
10
202.5
20
-140
11
202.5
21
-93
0
LINE
8
BLACK
6
CONTINUOUS
10
64
20
-19
11
64
21
-44
0
ARC
8
BLACK
10
250.5
20
-93
40
48
50
90
51
180
0
LINE
8
BLACK
6
CONTINUOUS
10
133
20
-140
11
202.5
21
-140
0
LINE
8
BLACK
6
CONTINUOUS
10
133
20
-105.934
11
133
21
-140
0
LINE
8
BLACK
6
CONTINUOUS
10
57
20
-44
11
57
21
-106
0
LINE
8
BLACK
6
CONTINUOUS
10
64
20
-44
11
57
21
-44
0
LINE
8
BLACK
6
CONTINUOUS
10
64
20
-19
11
277.5
21
-19
0
LINE
8
BLACK
6
CONTINUOUS
10
118.486
20
-94.8195
11
120.986
21
-97.3195
0
LINE
8
BLACK
6
CONTINUOUS
10
120.986
20
-94.8195
11
118.486
21
-97.3195
0
LINE
8
BLACK
6
CONTINUOUS
10
128.987
20
-94.8195
11
131.487
21
-97.3195
0
LINE
8
BLACK
6
CONTINUOUS
10
131.487
20
-94.8195
11
128.987
21
-97.3195
0
CIRCLE
8
BLACK
10
94.2
20
-25.9
40
1.6
0
CIRCLE
8
BLACK
10
195.7
20
-25.9
40
1.6
0
CIRCLE
8
BLACK
10
218.5
20
-25.9
40
1.6
0
CIRCLE
8
BLACK
10
256.7
20
-25.9
40
1.6
0
LINE
8
BLACK
6
CONTINUOUS
10
149.458
20
-120.418
11
149.458
21
-123.918
0
LINE
8
BLACK
6
CONTINUOUS
10
147.708
20
-122.168
11
151.208
21
-122.168
0
LINE
8
BLACK
6
CONTINUOUS
10
59.5262
20
-143.155
11
59.5262
21
-141.155
0
LINE
8
BLACK
6
CONTINUOUS
10
59.5262
20
-141.155
11
60.0024
21
-141.155
0
LINE
8
BLACK
6
CONTINUOUS
10
60.0024
20
-141.155
11
60.2881
21
-141.25
0
LINE
8
BLACK
6
CONTINUOUS
10
60.2881
20
-141.25
11
60.4786
21
-141.44
0
LINE
8
BLACK
6
CONTINUOUS
10
60.4786
20
-141.44
11
60.5738
21
-141.631
0
LINE
8
BLACK
6
CONTINUOUS
10
60.5738
20
-141.631
11
60.669
21
-142.012
0
LINE
8
BLACK
6
CONTINUOUS
10
60.669
20
-142.012
11
60.669
21
-142.298
0
LINE
8
BLACK
6
CONTINUOUS
10
60.669
20
-142.298
11
60.5738
21
-142.679
0
LINE
8
BLACK
6
CONTINUOUS
10
60.5738
20
-142.679
11
60.4786
21
-142.869
0
LINE
8
BLACK
6
CONTINUOUS
10
60.4786
20
-142.869
11
60.2881
21
-143.06
0
LINE
8
BLACK
6
CONTINUOUS
10
60.2881
20
-143.06
11
60.0024
21
-143.155
0
LINE
8
BLACK
6
CONTINUOUS
10
60.0024
20
-143.155
11
59.5262
21
-143.155
0
LINE
8
BLACK
6
CONTINUOUS
10
61.5262
20
-143.155
11
61.5262
21
-141.821
0
LINE
8
BLACK
6
CONTINUOUS
10
61.5262
20
-142.202
11
61.6214
21
-142.012
0
LINE
8
BLACK
6
CONTINUOUS
10
61.6214
20
-142.012
11
61.7167
21
-141.917
0
LINE
8
BLACK
6
CONTINUOUS
10
61.7167
20
-141.917
11
61.9071
21
-141.821
0
LINE
8
BLACK
6
CONTINUOUS
10
61.9071
20
-141.821
11
62.0976
21
-141.821
0
LINE
8
BLACK
6
CONTINUOUS
10
62.7643
20
-143.155
11
62.7643
21
-141.821
0
LINE
8
BLACK
6
CONTINUOUS
10
62.7643
20
-141.155
11
62.669
21
-141.25
0
LINE
8
BLACK
6
CONTINUOUS
10
62.669
20
-141.25
11
62.7643
21
-141.345
0
LINE
8
BLACK
6
CONTINUOUS
10
62.7643
20
-141.345
11
62.8595
21
-141.25
0
LINE
8
BLACK
6
CONTINUOUS
10
62.8595
20
-141.25
11
62.7643
21
-141.155
0
LINE
8
BLACK
6
CONTINUOUS
10
62.7643
20
-141.155
11
62.7643
21
-141.345
0
LINE
8
BLACK
6
CONTINUOUS
10
64.0024
20
-143.155
11
63.8119
21
-143.06
0
LINE
8
BLACK
6
CONTINUOUS
10
63.8119
20
-143.06
11
63.7167
21
-142.869
0
LINE
8
BLACK
6
CONTINUOUS
10
63.7167
20
-142.869
11
63.7167
21
-141.155
0
LINE
8
BLACK
6
CONTINUOUS
10
65.05
20
-143.155
11
64.8595
21
-143.06
0
LINE
8
BLACK
6
CONTINUOUS
10
64.8595
20
-143.06
11
64.7643
21
-142.869
0
LINE
8
BLACK
6
CONTINUOUS
10
64.7643
20
-142.869
11
64.7643
21
-141.155
0
LINE
8
BLACK
6
CONTINUOUS
10
67.3357
20
-143.155
11
67.3357
21
-141.155
0
LINE
8
BLACK
6
CONTINUOUS
10
67.3357
20
-141.155
11
68.0024
21
-142.583
0
LINE
8
BLACK
6
CONTINUOUS
10
68.0024
20
-142.583
11
68.669
21
-141.155
0
LINE
8
BLACK
6
CONTINUOUS
10
68.669
20
-141.155
11
68.669
21
-143.155
0
LINE
8
BLACK
6
CONTINUOUS
10
70.4786
20
-143.155
11
70.4786
21
-142.107
0
LINE
8
BLACK
6
CONTINUOUS
10
70.4786
20
-142.107
11
70.3833
21
-141.917
0
LINE
8
BLACK
6
CONTINUOUS
10
70.3833
20
-141.917
11
70.1929
21
-141.821
0
LINE
8
BLACK
6
CONTINUOUS
10
70.1929
20
-141.821
11
69.8119
21
-141.821
0
LINE
8
BLACK
6
CONTINUOUS
10
69.8119
20
-141.821
11
69.6214
21
-141.917
0
LINE
8
BLACK
6
CONTINUOUS
10
70.4786
20
-143.06
11
70.2881
21
-143.155
0
LINE
8
BLACK
6
CONTINUOUS
10
70.2881
20
-143.155
11
69.8119
21
-143.155
0
LINE
8
BLACK
6
CONTINUOUS
10
69.8119
20
-143.155
11
69.6214
21
-143.06
0
LINE
8
BLACK
6
CONTINUOUS
10
69.6214
20
-143.06
11
69.5262
21
-142.869
0
LINE
8
BLACK
6
CONTINUOUS
10
69.5262
20
-142.869
11
69.5262
21
-142.679
0
LINE
8
BLACK
6
CONTINUOUS
10
69.5262
20
-142.679
11
69.6214
21
-142.488
0
LINE
8
BLACK
6
CONTINUOUS
10
69.6214
20
-142.488
11
69.8119
21
-142.393
0
LINE
8
BLACK
6
CONTINUOUS
10
69.8119
20
-142.393
11
70.2881
21
-142.393
0
LINE
8
BLACK
6
CONTINUOUS
10
70.2881
20
-142.393
11
70.4786
21
-142.298
0
LINE
8
BLACK
6
CONTINUOUS
10
71.431
20
-141.821
11
71.431
21
-143.821
0
LINE
8
BLACK
6
CONTINUOUS
10
71.431
20
-141.917
11
71.6214
21
-141.821
0
LINE
8
BLACK
6
CONTINUOUS
10
71.6214
20
-141.821
11
72.0024
21
-141.821
0
LINE
8
BLACK
6
CONTINUOUS
10
72.0024
20
-141.821
11
72.1929
21
-141.917
0
LINE
8
BLACK
6
CONTINUOUS
10
72.1929
20
-141.917
11
72.2881
21
-142.012
0
LINE
8
BLACK
6
CONTINUOUS
10
72.2881
20
-142.012
11
72.3833
21
-142.202
0
LINE
8
BLACK
6
CONTINUOUS
10
72.3833
20
-142.202
11
72.3833
21
-142.774
0
LINE
8
BLACK
6
CONTINUOUS
10
72.3833
20
-142.774
11
72.2881
21
-142.964
0
LINE
8
BLACK
6
CONTINUOUS
10
72.2881
20
-142.964
11
72.1929
21
-143.06
0
LINE
8
BLACK
6
CONTINUOUS
10
72.1929
20
-143.06
11
72.0024
21
-143.155
0
LINE
8
BLACK
6
CONTINUOUS
10
72.0024
20
-143.155
11
71.6214
21
-143.155
0
LINE
8
BLACK
6
CONTINUOUS
10
71.6214
20
-143.155
11
71.431
21
-143.06
0
LINE
8
BLACK
6
CONTINUOUS
10
73.2405
20
-142.964
11
73.3357
21
-143.06
0
LINE
8
BLACK
6
CONTINUOUS
10
73.3357
20
-143.06
11
73.2405
21
-143.155
0
LINE
8
BLACK
6
CONTINUOUS
10
73.2405
20
-143.155
11
73.1452
21
-143.06
0
LINE
8
BLACK
6
CONTINUOUS
10
73.1452
20
-143.06
11
73.2405
21
-142.964
0
LINE
8
BLACK
6
CONTINUOUS
10
73.2405
20
-142.964
11
73.2405
21
-143.155
0
LINE
8
BLACK
6
CONTINUOUS
10
73.2405
20
-141.917
11
73.3357
21
-142.012
0
LINE
8
BLACK
6
CONTINUOUS
10
73.3357
20
-142.012
11
73.2405
21
-142.107
0
LINE
8
BLACK
6
CONTINUOUS
10
73.2405
20
-142.107
11
73.1452
21
-142.012
0
LINE
8
BLACK
6
CONTINUOUS
10
73.1452
20
-142.012
11
73.2405
21
-141.917
0
LINE
8
BLACK
6
CONTINUOUS
10
73.2405
20
-141.917
11
73.2405
21
-142.107
0
LINE
8
BLACK
6
CONTINUOUS
10
54.95
20
-145.45
11
56.95
21
-147.45
0
LINE
8
BLACK
6
CONTINUOUS
10
56.95
20
-145.45
11
54.95
21
-147.45
0
LINE
8
BLACK
6
CONTINUOUS
10
59.431
20
-145.545
11
59.5262
21
-145.45
0
LINE
8
BLACK
6
CONTINUOUS
10
59.5262
20
-145.45
11
59.7167
21
-145.355
0
LINE
8
BLACK
6
CONTINUOUS
10
59.7167
20
-145.355
11
60.1929
21
-145.355
0
LINE
8
BLACK
6
CONTINUOUS
10
60.1929
20
-145.355
11
60.3833
21
-145.45
0
LINE
8
BLACK
6
CONTINUOUS
10
60.3833
20
-145.45
11
60.4786
21
-145.545
0
LINE
8
BLACK
6
CONTINUOUS
10
60.4786
20
-145.545
11
60.5738
21
-145.736
0
LINE
8
BLACK
6
CONTINUOUS
10
60.5738
20
-145.736
11
60.5738
21
-145.926
0
LINE
8
BLACK
6
CONTINUOUS
10
60.5738
20
-145.926
11
60.4786
21
-146.212
0
LINE
8
BLACK
6
CONTINUOUS
10
60.4786
20
-146.212
11
59.3357
21
-147.355
0
LINE
8
BLACK
6
CONTINUOUS
10
59.3357
20
-147.355
11
60.5738
21
-147.355
0
LINE
8
BLACK
6
CONTINUOUS
10
61.431
20
-147.164
11
61.5262
21
-147.26
0
LINE
8
BLACK
6
CONTINUOUS
10
61.5262
20
-147.26
11
61.431
21
-147.355
0
LINE
8
BLACK
6
CONTINUOUS
10
61.431
20
-147.355
11
61.3357
21
-147.26
0
LINE
8
BLACK
6
CONTINUOUS
10
61.3357
20
-147.26
11
61.431
21
-147.164
0
LINE
8
BLACK
6
CONTINUOUS
10
61.431
20
-147.164
11
61.431
21
-147.355
0
LINE
8
BLACK
6
CONTINUOUS
10
63.3357
20
-145.355
11
62.3833
21
-145.355
0
LINE
8
BLACK
6
CONTINUOUS
10
62.3833
20
-145.355
11
62.2881
21
-146.307
0
LINE
8
BLACK
6
CONTINUOUS
10
62.2881
20
-146.307
11
62.3833
21
-146.212
0
LINE
8
BLACK
6
CONTINUOUS
10
62.3833
20
-146.212
11
62.5738
21
-146.117
0
LINE
8
BLACK
6
CONTINUOUS
10
62.5738
20
-146.117
11
63.05
21
-146.117
0
LINE
8
BLACK
6
CONTINUOUS
10
63.05
20
-146.117
11
63.2405
21
-146.212
0
LINE
8
BLACK
6
CONTINUOUS
10
63.2405
20
-146.212
11
63.3357
21
-146.307
0
LINE
8
BLACK
6
CONTINUOUS
10
63.3357
20
-146.307
11
63.431
21
-146.498
0
LINE
8
BLACK
6
CONTINUOUS
10
63.431
20
-146.498
11
63.431
21
-146.974
0
LINE
8
BLACK
6
CONTINUOUS
10
63.431
20
-146.974
11
63.3357
21
-147.164
0
LINE
8
BLACK
6
CONTINUOUS
10
63.3357
20
-147.164
11
63.2405
21
-147.26
0
LINE
8
BLACK
6
CONTINUOUS
10
63.2405
20
-147.26
11
63.05
21
-147.355
0
LINE
8
BLACK
6
CONTINUOUS
10
63.05
20
-147.355
11
62.5738
21
-147.355
0
LINE
8
BLACK
6
CONTINUOUS
10
62.5738
20
-147.355
11
62.3833
21
-147.26
0
LINE
8
BLACK
6
CONTINUOUS
10
62.3833
20
-147.26
11
62.2881
21
-147.164
0
LINE
8
BLACK
6
CONTINUOUS
10
64.669
20
-145.355
11
64.8595
21
-145.355
0
LINE
8
BLACK
6
CONTINUOUS
10
64.8595
20
-145.355
11
65.05
21
-145.45
0
LINE
8
BLACK
6
CONTINUOUS
10
65.05
20
-145.45
11
65.1452
21
-145.545
0
LINE
8
BLACK
6
CONTINUOUS
10
65.1452
20
-145.545
11
65.2405
21
-145.736
0
LINE
8
BLACK
6
CONTINUOUS
10
65.2405
20
-145.736
11
65.3357
21
-146.117
0
LINE
8
BLACK
6
CONTINUOUS
10
65.3357
20
-146.117
11
65.3357
21
-146.593
0
LINE
8
BLACK
6
CONTINUOUS
10
65.3357
20
-146.593
11
65.2405
21
-146.974
0
LINE
8
BLACK
6
CONTINUOUS
10
65.2405
20
-146.974
11
65.1452
21
-147.164
0
LINE
8
BLACK
6
CONTINUOUS
10
65.1452
20
-147.164
11
65.05
21
-147.26
0
LINE
8
BLACK
6
CONTINUOUS
10
65.05
20
-147.26
11
64.8595
21
-147.355
0
LINE
8
BLACK
6
CONTINUOUS
10
64.8595
20
-147.355
11
64.669
21
-147.355
0
LINE
8
BLACK
6
CONTINUOUS
10
64.669
20
-147.355
11
64.4786
21
-147.26
0
LINE
8
BLACK
6
CONTINUOUS
10
64.4786
20
-147.26
11
64.3833
21
-147.164
0
LINE
8
BLACK
6
CONTINUOUS
10
64.3833
20
-147.164
11
64.2881
21
-146.974
0
LINE
8
BLACK
6
CONTINUOUS
10
64.2881
20
-146.974
11
64.1929
21
-146.593
0
LINE
8
BLACK
6
CONTINUOUS
10
64.1929
20
-146.593
11
64.1929
21
-146.117
0
LINE
8
BLACK
6
CONTINUOUS
10
64.1929
20
-146.117
11
64.2881
21
-145.736
0
LINE
8
BLACK
6
CONTINUOUS
10
64.2881
20
-145.736
11
64.3833
21
-145.545
0
LINE
8
BLACK
6
CONTINUOUS
10
64.3833
20
-145.545
11
64.4786
21
-145.45
0
LINE
8
BLACK
6
CONTINUOUS
10
64.4786
20
-145.45
11
64.669
21
-145.355
0
LINE
8
BLACK
6
CONTINUOUS
10
66.5738
20
-145.355
11
66.7643
21
-145.355
0
LINE
8
BLACK
6
CONTINUOUS
10
66.7643
20
-145.355
11
66.9548
21
-145.45
0
LINE
8
BLACK
6
CONTINUOUS
10
66.9548
20
-145.45
11
67.05
21
-145.545
0
LINE
8
BLACK
6
CONTINUOUS
10
67.05
20
-145.545
11
67.1452
21
-145.736
0
LINE
8
BLACK
6
CONTINUOUS
10
67.1452
20
-145.736
11
67.2405
21
-146.117
0
LINE
8
BLACK
6
CONTINUOUS
10
67.2405
20
-146.117
11
67.2405
21
-146.593
0
LINE
8
BLACK
6
CONTINUOUS
10
67.2405
20
-146.593
11
67.1452
21
-146.974
0
LINE
8
BLACK
6
CONTINUOUS
10
67.1452
20
-146.974
11
67.05
21
-147.164
0
LINE
8
BLACK
6
CONTINUOUS
10
67.05
20
-147.164
11
66.9548
21
-147.26
0
LINE
8
BLACK
6
CONTINUOUS
10
66.9548
20
-147.26
11
66.7643
21
-147.355
0
LINE
8
BLACK
6
CONTINUOUS
10
66.7643
20
-147.355
11
66.5738
21
-147.355
0
LINE
8
BLACK
6
CONTINUOUS
10
66.5738
20
-147.355
11
66.3833
21
-147.26
0
LINE
8
BLACK
6
CONTINUOUS
10
66.3833
20
-147.26
11
66.2881
21
-147.164
0
LINE
8
BLACK
6
CONTINUOUS
10
66.2881
20
-147.164
11
66.1929
21
-146.974
0
LINE
8
BLACK
6
CONTINUOUS
10
66.1929
20
-146.974
11
66.0976
21
-146.593
0
LINE
8
BLACK
6
CONTINUOUS
10
66.0976
20
-146.593
11
66.0976
21
-146.117
0
LINE
8
BLACK
6
CONTINUOUS
10
66.0976
20
-146.117
11
66.1929
21
-145.736
0
LINE
8
BLACK
6
CONTINUOUS
10
66.1929
20
-145.736
11
66.2881
21
-145.545
0
LINE
8
BLACK
6
CONTINUOUS
10
66.2881
20
-145.545
11
66.3833
21
-145.45
0
LINE
8
BLACK
6
CONTINUOUS
10
66.3833
20
-145.45
11
66.5738
21
-145.355
0
LINE
8
BLACK
6
CONTINUOUS
10
68.0976
20
-147.355
11
68.0976
21
-146.021
0
LINE
8
BLACK
6
CONTINUOUS
10
68.0976
20
-146.212
11
68.1929
21
-146.117
0
LINE
8
BLACK
6
CONTINUOUS
10
68.1929
20
-146.117
11
68.3833
21
-146.021
0
LINE
8
BLACK
6
CONTINUOUS
10
68.3833
20
-146.021
11
68.669
21
-146.021
0
LINE
8
BLACK
6
CONTINUOUS
10
68.669
20
-146.021
11
68.8595
21
-146.117
0
LINE
8
BLACK
6
CONTINUOUS
10
68.8595
20
-146.117
11
68.9548
21
-146.307
0
LINE
8
BLACK
6
CONTINUOUS
10
68.9548
20
-146.307
11
68.9548
21
-147.355
0
LINE
8
BLACK
6
CONTINUOUS
10
68.9548
20
-146.307
11
69.05
21
-146.117
0
LINE
8
BLACK
6
CONTINUOUS
10
69.05
20
-146.117
11
69.2405
21
-146.021
0
LINE
8
BLACK
6
CONTINUOUS
10
69.2405
20
-146.021
11
69.5262
21
-146.021
0
LINE
8
BLACK
6
CONTINUOUS
10
69.5262
20
-146.021
11
69.7167
21
-146.117
0
LINE
8
BLACK
6
CONTINUOUS
10
69.7167
20
-146.117
11
69.8119
21
-146.307
0
LINE
8
BLACK
6
CONTINUOUS
10
69.8119
20
-146.307
11
69.8119
21
-147.355
0
LINE
8
BLACK
6
CONTINUOUS
10
70.7643
20
-147.355
11
70.7643
21
-146.021
0
LINE
8
BLACK
6
CONTINUOUS
10
70.7643
20
-146.212
11
70.8595
21
-146.117
0
LINE
8
BLACK
6
CONTINUOUS
10
70.8595
20
-146.117
11
71.05
21
-146.021
0
LINE
8
BLACK
6
CONTINUOUS
10
71.05
20
-146.021
11
71.3357
21
-146.021
0
LINE
8
BLACK
6
CONTINUOUS
10
71.3357
20
-146.021
11
71.5262
21
-146.117
0
LINE
8
BLACK
6
CONTINUOUS
10
71.5262
20
-146.117
11
71.6214
21
-146.307
0
LINE
8
BLACK
6
CONTINUOUS
10
71.6214
20
-146.307
11
71.6214
21
-147.355
0
LINE
8
BLACK
6
CONTINUOUS
10
71.6214
20
-146.307
11
71.7167
21
-146.117
0
LINE
8
BLACK
6
CONTINUOUS
10
71.7167
20
-146.117
11
71.9071
21
-146.021
0
LINE
8
BLACK
6
CONTINUOUS
10
71.9071
20
-146.021
11
72.1929
21
-146.021
0
LINE
8
BLACK
6
CONTINUOUS
10
72.1929
20
-146.021
11
72.3833
21
-146.117
0
LINE
8
BLACK
6
CONTINUOUS
10
72.3833
20
-146.117
11
72.4786
21
-146.307
0
LINE
8
BLACK
6
CONTINUOUS
10
72.4786
20
-146.307
11
72.4786
21
-147.355
0
LINE
8
BLACK
6
CONTINUOUS
10
76.3833
20
-145.26
11
74.669
21
-147.831
0
LINE
8
BLACK
6
CONTINUOUS
10
78.9548
20
-145.355
11
79.1452
21
-145.355
0
LINE
8
BLACK
6
CONTINUOUS
10
79.1452
20
-145.355
11
79.3357
21
-145.45
0
LINE
8
BLACK
6
CONTINUOUS
10
79.3357
20
-145.45
11
79.431
21
-145.545
0
LINE
8
BLACK
6
CONTINUOUS
10
79.431
20
-145.545
11
79.5262
21
-145.736
0
LINE
8
BLACK
6
CONTINUOUS
10
79.5262
20
-145.736
11
79.6214
21
-146.117
0
LINE
8
BLACK
6
CONTINUOUS
10
79.6214
20
-146.117
11
79.6214
21
-146.593
0
LINE
8
BLACK
6
CONTINUOUS
10
79.6214
20
-146.593
11
79.5262
21
-146.974
0
LINE
8
BLACK
6
CONTINUOUS
10
79.5262
20
-146.974
11
79.431
21
-147.164
0
LINE
8
BLACK
6
CONTINUOUS
10
79.431
20
-147.164
11
79.3357
21
-147.26
0
LINE
8
BLACK
6
CONTINUOUS
10
79.3357
20
-147.26
11
79.1452
21
-147.355
0
LINE
8
BLACK
6
CONTINUOUS
10
79.1452
20
-147.355
11
78.9548
21
-147.355
0
LINE
8
BLACK
6
CONTINUOUS
10
78.9548
20
-147.355
11
78.7643
21
-147.26
0
LINE
8
BLACK
6
CONTINUOUS
10
78.7643
20
-147.26
11
78.669
21
-147.164
0
LINE
8
BLACK
6
CONTINUOUS
10
78.669
20
-147.164
11
78.5738
21
-146.974
0
LINE
8
BLACK
6
CONTINUOUS
10
78.5738
20
-146.974
11
78.4786
21
-146.593
0
LINE
8
BLACK
6
CONTINUOUS
10
78.4786
20
-146.593
11
78.4786
21
-146.117
0
LINE
8
BLACK
6
CONTINUOUS
10
78.4786
20
-146.117
11
78.5738
21
-145.736
0
LINE
8
BLACK
6
CONTINUOUS
10
78.5738
20
-145.736
11
78.669
21
-145.545
0
LINE
8
BLACK
6
CONTINUOUS
10
78.669
20
-145.545
11
78.7643
21
-145.45
0
LINE
8
BLACK
6
CONTINUOUS
10
78.7643
20
-145.45
11
78.9548
21
-145.355
0
LINE
8
BLACK
6
CONTINUOUS
10
80.4786
20
-147.164
11
80.5738
21
-147.26
0
LINE
8
BLACK
6
CONTINUOUS
10
80.5738
20
-147.26
11
80.4786
21
-147.355
0
LINE
8
BLACK
6
CONTINUOUS
10
80.4786
20
-147.355
11
80.3833
21
-147.26
0
LINE
8
BLACK
6
CONTINUOUS
10
80.3833
20
-147.26
11
80.4786
21
-147.164
0
LINE
8
BLACK
6
CONTINUOUS
10
80.4786
20
-147.164
11
80.4786
21
-147.355
0
LINE
8
BLACK
6
CONTINUOUS
10
81.8119
20
-145.355
11
82.0024
21
-145.355
0
LINE
8
BLACK
6
CONTINUOUS
10
82.0024
20
-145.355
11
82.1929
21
-145.45
0
LINE
8
BLACK
6
CONTINUOUS
10
82.1929
20
-145.45
11
82.2881
21
-145.545
0
LINE
8
BLACK
6
CONTINUOUS
10
82.2881
20
-145.545
11
82.3833
21
-145.736
0
LINE
8
BLACK
6
CONTINUOUS
10
82.3833
20
-145.736
11
82.4786
21
-146.117
0
LINE
8
BLACK
6
CONTINUOUS
10
82.4786
20
-146.117
11
82.4786
21
-146.593
0
LINE
8
BLACK
6
CONTINUOUS
10
82.4786
20
-146.593
11
82.3833
21
-146.974
0
LINE
8
BLACK
6
CONTINUOUS
10
82.3833
20
-146.974
11
82.2881
21
-147.164
0
LINE
8
BLACK
6
CONTINUOUS
10
82.2881
20
-147.164
11
82.1929
21
-147.26
0
LINE
8
BLACK
6
CONTINUOUS
10
82.1929
20
-147.26
11
82.0024
21
-147.355
0
LINE
8
BLACK
6
CONTINUOUS
10
82.0024
20
-147.355
11
81.8119
21
-147.355
0
LINE
8
BLACK
6
CONTINUOUS
10
81.8119
20
-147.355
11
81.6214
21
-147.26
0
LINE
8
BLACK
6
CONTINUOUS
10
81.6214
20
-147.26
11
81.5262
21
-147.164
0
LINE
8
BLACK
6
CONTINUOUS
10
81.5262
20
-147.164
11
81.431
21
-146.974
0
LINE
8
BLACK
6
CONTINUOUS
10
81.431
20
-146.974
11
81.3357
21
-146.593
0
LINE
8
BLACK
6
CONTINUOUS
10
81.3357
20
-146.593
11
81.3357
21
-146.117
0
LINE
8
BLACK
6
CONTINUOUS
10
81.3357
20
-146.117
11
81.431
21
-145.736
0
LINE
8
BLACK
6
CONTINUOUS
10
81.431
20
-145.736
11
81.5262
21
-145.545
0
LINE
8
BLACK
6
CONTINUOUS
10
81.5262
20
-145.545
11
81.6214
21
-145.45
0
LINE
8
BLACK
6
CONTINUOUS
10
81.6214
20
-145.45
11
81.8119
21
-145.355
0
LINE
8
BLACK
6
CONTINUOUS
10
83.431
20
-147.355
11
83.8119
21
-147.355
0
LINE
8
BLACK
6
CONTINUOUS
10
83.8119
20
-147.355
11
84.0024
21
-147.26
0
LINE
8
BLACK
6
CONTINUOUS
10
84.0024
20
-147.26
11
84.0976
21
-147.164
0
LINE
8
BLACK
6
CONTINUOUS
10
84.0976
20
-147.164
11
84.2881
21
-146.879
0
LINE
8
BLACK
6
CONTINUOUS
10
84.2881
20
-146.879
11
84.3833
21
-146.498
0
LINE
8
BLACK
6
CONTINUOUS
10
84.3833
20
-146.498
11
84.3833
21
-145.736
0
LINE
8
BLACK
6
CONTINUOUS
10
84.3833
20
-145.736
11
84.2881
21
-145.545
0
LINE
8
BLACK
6
CONTINUOUS
10
84.2881
20
-145.545
11
84.1929
21
-145.45
0
LINE
8
BLACK
6
CONTINUOUS
10
84.1929
20
-145.45
11
84.0024
21
-145.355
0
LINE
8
BLACK
6
CONTINUOUS
10
84.0024
20
-145.355
11
83.6214
21
-145.355
0
LINE
8
BLACK
6
CONTINUOUS
10
83.6214
20
-145.355
11
83.431
21
-145.45
0
LINE
8
BLACK
6
CONTINUOUS
10
83.431
20
-145.45
11
83.3357
21
-145.545
0
LINE
8
BLACK
6
CONTINUOUS
10
83.3357
20
-145.545
11
83.2405
21
-145.736
0
LINE
8
BLACK
6
CONTINUOUS
10
83.2405
20
-145.736
11
83.2405
21
-146.212
0
LINE
8
BLACK
6
CONTINUOUS
10
83.2405
20
-146.212
11
83.3357
21
-146.402
0
LINE
8
BLACK
6
CONTINUOUS
10
83.3357
20
-146.402
11
83.431
21
-146.498
0
LINE
8
BLACK
6
CONTINUOUS
10
83.431
20
-146.498
11
83.6214
21
-146.593
0
LINE
8
BLACK
6
CONTINUOUS
10
83.6214
20
-146.593
11
84.0024
21
-146.593
0
LINE
8
BLACK
6
CONTINUOUS
10
84.0024
20
-146.593
11
84.1929
21
-146.498
0
LINE
8
BLACK
6
CONTINUOUS
10
84.1929
20
-146.498
11
84.2881
21
-146.402
0
LINE
8
BLACK
6
CONTINUOUS
10
84.2881
20
-146.402
11
84.3833
21
-146.212
0
LINE
8
BLACK
6
CONTINUOUS
10
85.5262
20
-146.212
11
85.3357
21
-146.117
0
LINE
8
BLACK
6
CONTINUOUS
10
85.3357
20
-146.117
11
85.2405
21
-146.021
0
LINE
8
BLACK
6
CONTINUOUS
10
85.2405
20
-146.021
11
85.1452
21
-145.831
0
LINE
8
BLACK
6
CONTINUOUS
10
85.1452
20
-145.831
11
85.1452
21
-145.736
0
LINE
8
BLACK
6
CONTINUOUS
10
85.1452
20
-145.736
11
85.2405
21
-145.545
0
LINE
8
BLACK
6
CONTINUOUS
10
85.2405
20
-145.545
11
85.3357
21
-145.45
0
LINE
8
BLACK
6
CONTINUOUS
10
85.3357
20
-145.45
11
85.5262
21
-145.355
0
LINE
8
BLACK
6
CONTINUOUS
10
85.5262
20
-145.355
11
85.9071
21
-145.355
0
LINE
8
BLACK
6
CONTINUOUS
10
85.9071
20
-145.355
11
86.0976
21
-145.45
0
LINE
8
BLACK
6
CONTINUOUS
10
86.0976
20
-145.45
11
86.1929
21
-145.545
0
LINE
8
BLACK
6
CONTINUOUS
10
86.1929
20
-145.545
11
86.2881
21
-145.736
0
LINE
8
BLACK
6
CONTINUOUS
10
86.2881
20
-145.736
11
86.2881
21
-145.831
0
LINE
8
BLACK
6
CONTINUOUS
10
86.2881
20
-145.831
11
86.1929
21
-146.021
0
LINE
8
BLACK
6
CONTINUOUS
10
86.1929
20
-146.021
11
86.0976
21
-146.117
0
LINE
8
BLACK
6
CONTINUOUS
10
86.0976
20
-146.117
11
85.9071
21
-146.212
0
LINE
8
BLACK
6
CONTINUOUS
10
85.9071
20
-146.212
11
85.5262
21
-146.212
0
LINE
8
BLACK
6
CONTINUOUS
10
85.5262
20
-146.212
11
85.3357
21
-146.307
0
LINE
8
BLACK
6
CONTINUOUS
10
85.3357
20
-146.307
11
85.2405
21
-146.402
0
LINE
8
BLACK
6
CONTINUOUS
10
85.2405
20
-146.402
11
85.1452
21
-146.593
0
LINE
8
BLACK
6
CONTINUOUS
10
85.1452
20
-146.593
11
85.1452
21
-146.974
0
LINE
8
BLACK
6
CONTINUOUS
10
85.1452
20
-146.974
11
85.2405
21
-147.164
0
LINE
8
BLACK
6
CONTINUOUS
10
85.2405
20
-147.164
11
85.3357
21
-147.26
0
LINE
8
BLACK
6
CONTINUOUS
10
85.3357
20
-147.26
11
85.5262
21
-147.355
0
LINE
8
BLACK
6
CONTINUOUS
10
85.5262
20
-147.355
11
85.9071
21
-147.355
0
LINE
8
BLACK
6
CONTINUOUS
10
85.9071
20
-147.355
11
86.0976
21
-147.26
0
LINE
8
BLACK
6
CONTINUOUS
10
86.0976
20
-147.26
11
86.1929
21
-147.164
0
LINE
8
BLACK
6
CONTINUOUS
10
86.1929
20
-147.164
11
86.2881
21
-146.974
0
LINE
8
BLACK
6
CONTINUOUS
10
86.2881
20
-146.974
11
86.2881
21
-146.593
0
LINE
8
BLACK
6
CONTINUOUS
10
86.2881
20
-146.593
11
86.1929
21
-146.402
0
LINE
8
BLACK
6
CONTINUOUS
10
86.1929
20
-146.402
11
86.0976
21
-146.307
0
LINE
8
BLACK
6
CONTINUOUS
10
86.0976
20
-146.307
11
85.9071
21
-146.212
0
LINE
8
BLACK
6
CONTINUOUS
10
88.0024
20
-146.021
11
88.0024
21
-147.355
0
LINE
8
BLACK
6
CONTINUOUS
10
87.5262
20
-145.26
11
87.05
21
-146.688
0
LINE
8
BLACK
6
CONTINUOUS
10
87.05
20
-146.688
11
88.2881
21
-146.688
0
LINE
8
BLACK
6
CONTINUOUS
10
88.9548
20
-145.355
11
88.9548
21
-145.736
0
LINE
8
BLACK
6
CONTINUOUS
10
89.7167
20
-145.355
11
89.7167
21
-145.736
0
LINE
8
BLACK
6
CONTINUOUS
10
92.669
20
-148.117
11
92.5738
21
-148.021
0
LINE
8
BLACK
6
CONTINUOUS
10
92.5738
20
-148.021
11
92.3833
21
-147.736
0
LINE
8
BLACK
6
CONTINUOUS
10
92.3833
20
-147.736
11
92.2881
21
-147.545
0
LINE
8
BLACK
6
CONTINUOUS
10
92.2881
20
-147.545
11
92.1929
21
-147.26
0
LINE
8
BLACK
6
CONTINUOUS
10
92.1929
20
-147.26
11
92.0976
21
-146.783
0
LINE
8
BLACK
6
CONTINUOUS
10
92.0976
20
-146.783
11
92.0976
21
-146.402
0
LINE
8
BLACK
6
CONTINUOUS
10
92.0976
20
-146.402
11
92.1929
21
-145.926
0
LINE
8
BLACK
6
CONTINUOUS
10
92.1929
20
-145.926
11
92.2881
21
-145.64
0
LINE
8
BLACK
6
CONTINUOUS
10
92.2881
20
-145.64
11
92.3833
21
-145.45
0
LINE
8
BLACK
6
CONTINUOUS
10
92.3833
20
-145.45
11
92.5738
21
-145.164
0
LINE
8
BLACK
6
CONTINUOUS
10
92.5738
20
-145.164
11
92.669
21
-145.069
0
LINE
8
BLACK
6
CONTINUOUS
10
93.3357
20
-145.545
11
93.431
21
-145.45
0
LINE
8
BLACK
6
CONTINUOUS
10
93.431
20
-145.45
11
93.6214
21
-145.355
0
LINE
8
BLACK
6
CONTINUOUS
10
93.6214
20
-145.355
11
94.0976
21
-145.355
0
LINE
8
BLACK
6
CONTINUOUS
10
94.0976
20
-145.355
11
94.2881
21
-145.45
0
LINE
8
BLACK
6
CONTINUOUS
10
94.2881
20
-145.45
11
94.3833
21
-145.545
0
LINE
8
BLACK
6
CONTINUOUS
10
94.3833
20
-145.545
11
94.4786
21
-145.736
0
LINE
8
BLACK
6
CONTINUOUS
10
94.4786
20
-145.736
11
94.4786
21
-145.926
0
LINE
8
BLACK
6
CONTINUOUS
10
94.4786
20
-145.926
11
94.3833
21
-146.212
0
LINE
8
BLACK
6
CONTINUOUS
10
94.3833
20
-146.212
11
93.2405
21
-147.355
0
LINE
8
BLACK
6
CONTINUOUS
10
93.2405
20
-147.355
11
94.4786
21
-147.355
0
LINE
8
BLACK
6
CONTINUOUS
10
96.8595
20
-147.355
11
96.8595
21
-145.355
0
LINE
8
BLACK
6
CONTINUOUS
10
97.7167
20
-147.355
11
97.7167
21
-146.307
0
LINE
8
BLACK
6
CONTINUOUS
10
97.7167
20
-146.307
11
97.6214
21
-146.117
0
LINE
8
BLACK
6
CONTINUOUS
10
97.6214
20
-146.117
11
97.431
21
-146.021
0
LINE
8
BLACK
6
CONTINUOUS
10
97.431
20
-146.021
11
97.1452
21
-146.021
0
LINE
8
BLACK
6
CONTINUOUS
10
97.1452
20
-146.021
11
96.9548
21
-146.117
0
LINE
8
BLACK
6
CONTINUOUS
10
96.9548
20
-146.117
11
96.8595
21
-146.212
0
LINE
8
BLACK
6
CONTINUOUS
10
98.9548
20
-147.355
11
98.7643
21
-147.26
0
LINE
8
BLACK
6
CONTINUOUS
10
98.7643
20
-147.26
11
98.669
21
-147.164
0
LINE
8
BLACK
6
CONTINUOUS
10
98.669
20
-147.164
11
98.5738
21
-146.974
0
LINE
8
BLACK
6
CONTINUOUS
10
98.5738
20
-146.974
11
98.5738
21
-146.402
0
LINE
8
BLACK
6
CONTINUOUS
10
98.5738
20
-146.402
11
98.669
21
-146.212
0
LINE
8
BLACK
6
CONTINUOUS
10
98.669
20
-146.212
11
98.7643
21
-146.117
0
LINE
8
BLACK
6
CONTINUOUS
10
98.7643
20
-146.117
11
98.9548
21
-146.021
0
LINE
8
BLACK
6
CONTINUOUS
10
98.9548
20
-146.021
11
99.2405
21
-146.021
0
LINE
8
BLACK
6
CONTINUOUS
10
99.2405
20
-146.021
11
99.431
21
-146.117
0
LINE
8
BLACK
6
CONTINUOUS
10
99.431
20
-146.117
11
99.5262
21
-146.212
0
LINE
8
BLACK
6
CONTINUOUS
10
99.5262
20
-146.212
11
99.6214
21
-146.402
0
LINE
8
BLACK
6
CONTINUOUS
10
99.6214
20
-146.402
11
99.6214
21
-146.974
0
LINE
8
BLACK
6
CONTINUOUS
10
99.6214
20
-146.974
11
99.5262
21
-147.164
0
LINE
8
BLACK
6
CONTINUOUS
10
99.5262
20
-147.164
11
99.431
21
-147.26
0
LINE
8
BLACK
6
CONTINUOUS
10
99.431
20
-147.26
11
99.2405
21
-147.355
0
LINE
8
BLACK
6
CONTINUOUS
10
99.2405
20
-147.355
11
98.9548
21
-147.355
0
LINE
8
BLACK
6
CONTINUOUS
10
100.764
20
-147.355
11
100.574
21
-147.26
0
LINE
8
BLACK
6
CONTINUOUS
10
100.574
20
-147.26
11
100.479
21
-147.069
0
LINE
8
BLACK
6
CONTINUOUS
10
100.479
20
-147.069
11
100.479
21
-145.355
0
LINE
8
BLACK
6
CONTINUOUS
10
102.288
20
-147.26
11
102.098
21
-147.355
0
LINE
8
BLACK
6
CONTINUOUS
10
102.098
20
-147.355
11
101.717
21
-147.355
0
LINE
8
BLACK
6
CONTINUOUS
10
101.717
20
-147.355
11
101.526
21
-147.26
0
LINE
8
BLACK
6
CONTINUOUS
10
101.526
20
-147.26
11
101.431
21
-147.069
0
LINE
8
BLACK
6
CONTINUOUS
10
101.431
20
-147.069
11
101.431
21
-146.307
0
LINE
8
BLACK
6
CONTINUOUS
10
101.431
20
-146.307
11
101.526
21
-146.117
0
LINE
8
BLACK
6
CONTINUOUS
10
101.526
20
-146.117
11
101.717
21
-146.021
0
LINE
8
BLACK
6
CONTINUOUS
10
101.717
20
-146.021
11
102.098
21
-146.021
0
LINE
8
BLACK
6
CONTINUOUS
10
102.098
20
-146.021
11
102.288
21
-146.117
0
LINE
8
BLACK
6
CONTINUOUS
10
102.288
20
-146.117
11
102.383
21
-146.307
0
LINE
8
BLACK
6
CONTINUOUS
10
102.383
20
-146.307
11
102.383
21
-146.498
0
LINE
8
BLACK
6
CONTINUOUS
10
102.383
20
-146.498
11
101.431
21
-146.688
0
LINE
8
BLACK
6
CONTINUOUS
10
103.145
20
-147.26
11
103.336
21
-147.355
0
LINE
8
BLACK
6
CONTINUOUS
10
103.336
20
-147.355
11
103.717
21
-147.355
0
LINE
8
BLACK
6
CONTINUOUS
10
103.717
20
-147.355
11
103.907
21
-147.26
0
LINE
8
BLACK
6
CONTINUOUS
10
103.907
20
-147.26
11
104.002
21
-147.069
0
LINE
8
BLACK
6
CONTINUOUS
10
104.002
20
-147.069
11
104.002
21
-146.974
0
LINE
8
BLACK
6
CONTINUOUS
10
104.002
20
-146.974
11
103.907
21
-146.783
0
LINE
8
BLACK
6
CONTINUOUS
10
103.907
20
-146.783
11
103.717
21
-146.688
0
LINE
8
BLACK
6
CONTINUOUS
10
103.717
20
-146.688
11
103.431
21
-146.688
0
LINE
8
BLACK
6
CONTINUOUS
10
103.431
20
-146.688
11
103.24
21
-146.593
0
LINE
8
BLACK
6
CONTINUOUS
10
103.24
20
-146.593
11
103.145
21
-146.402
0
LINE
8
BLACK
6
CONTINUOUS
10
103.145
20
-146.402
11
103.145
21
-146.307
0
LINE
8
BLACK
6
CONTINUOUS
10
103.145
20
-146.307
11
103.24
21
-146.117
0
LINE
8
BLACK
6
CONTINUOUS
10
103.24
20
-146.117
11
103.431
21
-146.021
0
LINE
8
BLACK
6
CONTINUOUS
10
103.431
20
-146.021
11
103.717
21
-146.021
0
LINE
8
BLACK
6
CONTINUOUS
10
103.717
20
-146.021
11
103.907
21
-146.117
0
LINE
8
BLACK
6
CONTINUOUS
10
104.669
20
-148.117
11
104.764
21
-148.021
0
LINE
8
BLACK
6
CONTINUOUS
10
104.764
20
-148.021
11
104.955
21
-147.736
0
LINE
8
BLACK
6
CONTINUOUS
10
104.955
20
-147.736
11
105.05
21
-147.545
0
LINE
8
BLACK
6
CONTINUOUS
10
105.05
20
-147.545
11
105.145
21
-147.26
0
LINE
8
BLACK
6
CONTINUOUS
10
105.145
20
-147.26
11
105.24
21
-146.783
0
LINE
8
BLACK
6
CONTINUOUS
10
105.24
20
-146.783
11
105.24
21
-146.402
0
LINE
8
BLACK
6
CONTINUOUS
10
105.24
20
-146.402
11
105.145
21
-145.926
0
LINE
8
BLACK
6
CONTINUOUS
10
105.145
20
-145.926
11
105.05
21
-145.64
0
LINE
8
BLACK
6
CONTINUOUS
10
105.05
20
-145.64
11
104.955
21
-145.45
0
LINE
8
BLACK
6
CONTINUOUS
10
104.955
20
-145.45
11
104.764
21
-145.164
0
LINE
8
BLACK
6
CONTINUOUS
10
104.764
20
-145.164
11
104.669
21
-145.069
0
LINE
8
BLACK
6
CONTINUOUS
10
108.288
20
-148.117
11
108.193
21
-148.021
0
LINE
8
BLACK
6
CONTINUOUS
10
108.193
20
-148.021
11
108.002
21
-147.736
0
LINE
8
BLACK
6
CONTINUOUS
10
108.002
20
-147.736
11
107.907
21
-147.545
0
LINE
8
BLACK
6
CONTINUOUS
10
107.907
20
-147.545
11
107.812
21
-147.26
0
LINE
8
BLACK
6
CONTINUOUS
10
107.812
20
-147.26
11
107.717
21
-146.783
0
LINE
8
BLACK
6
CONTINUOUS
10
107.717
20
-146.783
11
107.717
21
-146.402
0
LINE
8
BLACK
6
CONTINUOUS
10
107.717
20
-146.402
11
107.812
21
-145.926
0
LINE
8
BLACK
6
CONTINUOUS
10
107.812
20
-145.926
11
107.907
21
-145.64
0
LINE
8
BLACK
6
CONTINUOUS
10
107.907
20
-145.64
11
108.002
21
-145.45
0
LINE
8
BLACK
6
CONTINUOUS
10
108.002
20
-145.45
11
108.193
21
-145.164
0
LINE
8
BLACK
6
CONTINUOUS
10
108.193
20
-145.164
11
108.288
21
-145.069
0
LINE
8
BLACK
6
CONTINUOUS
10
109.05
20
-146.021
11
109.05
21
-147.355
0
LINE
8
BLACK
6
CONTINUOUS
10
109.05
20
-146.212
11
109.145
21
-146.117
0
LINE
8
BLACK
6
CONTINUOUS
10
109.145
20
-146.117
11
109.336
21
-146.021
0
LINE
8
BLACK
6
CONTINUOUS
10
109.336
20
-146.021
11
109.621
21
-146.021
0
LINE
8
BLACK
6
CONTINUOUS
10
109.621
20
-146.021
11
109.812
21
-146.117
0
LINE
8
BLACK
6
CONTINUOUS
10
109.812
20
-146.117
11
109.907
21
-146.307
0
LINE
8
BLACK
6
CONTINUOUS
10
109.907
20
-146.307
11
109.907
21
-147.355
0
LINE
8
BLACK
6
CONTINUOUS
10
111.145
20
-147.355
11
110.955
21
-147.26
0
LINE
8
BLACK
6
CONTINUOUS
10
110.955
20
-147.26
11
110.86
21
-147.164
0
LINE
8
BLACK
6
CONTINUOUS
10
110.86
20
-147.164
11
110.764
21
-146.974
0
LINE
8
BLACK
6
CONTINUOUS
10
110.764
20
-146.974
11
110.764
21
-146.402
0
LINE
8
BLACK
6
CONTINUOUS
10
110.764
20
-146.402
11
110.86
21
-146.212
0
LINE
8
BLACK
6
CONTINUOUS
10
110.86
20
-146.212
11
110.955
21
-146.117
0
LINE
8
BLACK
6
CONTINUOUS
10
110.955
20
-146.117
11
111.145
21
-146.021
0
LINE
8
BLACK
6
CONTINUOUS
10
111.145
20
-146.021
11
111.431
21
-146.021
0
LINE
8
BLACK
6
CONTINUOUS
10
111.431
20
-146.021
11
111.621
21
-146.117
0
LINE
8
BLACK
6
CONTINUOUS
10
111.621
20
-146.117
11
111.717
21
-146.212
0
LINE
8
BLACK
6
CONTINUOUS
10
111.717
20
-146.212
11
111.812
21
-146.402
0
LINE
8
BLACK
6
CONTINUOUS
10
111.812
20
-146.402
11
111.812
21
-146.974
0
LINE
8
BLACK
6
CONTINUOUS
10
111.812
20
-146.974
11
111.717
21
-147.164
0
LINE
8
BLACK
6
CONTINUOUS
10
111.717
20
-147.164
11
111.621
21
-147.26
0
LINE
8
BLACK
6
CONTINUOUS
10
111.621
20
-147.26
11
111.431
21
-147.355
0
LINE
8
BLACK
6
CONTINUOUS
10
111.431
20
-147.355
11
111.145
21
-147.355
0
LINE
8
BLACK
6
CONTINUOUS
10
112.383
20
-146.021
11
113.145
21
-146.021
0
LINE
8
BLACK
6
CONTINUOUS
10
112.669
20
-145.355
11
112.669
21
-147.069
0
LINE
8
BLACK
6
CONTINUOUS
10
112.669
20
-147.069
11
112.764
21
-147.26
0
LINE
8
BLACK
6
CONTINUOUS
10
112.764
20
-147.26
11
112.955
21
-147.355
0
LINE
8
BLACK
6
CONTINUOUS
10
112.955
20
-147.355
11
113.145
21
-147.355
0
LINE
8
BLACK
6
CONTINUOUS
10
115.336
20
-146.021
11
115.336
21
-148.021
0
LINE
8
BLACK
6
CONTINUOUS
10
115.336
20
-146.117
11
115.526
21
-146.021
0
LINE
8
BLACK
6
CONTINUOUS
10
115.526
20
-146.021
11
115.907
21
-146.021
0
LINE
8
BLACK
6
CONTINUOUS
10
115.907
20
-146.021
11
116.098
21
-146.117
0
LINE
8
BLACK
6
CONTINUOUS
10
116.098
20
-146.117
11
116.193
21
-146.212
0
LINE
8
BLACK
6
CONTINUOUS
10
116.193
20
-146.212
11
116.288
21
-146.402
0
LINE
8
BLACK
6
CONTINUOUS
10
116.288
20
-146.402
11
116.288
21
-146.974
0
LINE
8
BLACK
6
CONTINUOUS
10
116.288
20
-146.974
11
116.193
21
-147.164
0
LINE
8
BLACK
6
CONTINUOUS
10
116.193
20
-147.164
11
116.098
21
-147.26
0
LINE
8
BLACK
6
CONTINUOUS
10
116.098
20
-147.26
11
115.907
21
-147.355
0
LINE
8
BLACK
6
CONTINUOUS
10
115.907
20
-147.355
11
115.526
21
-147.355
0
LINE
8
BLACK
6
CONTINUOUS
10
115.526
20
-147.355
11
115.336
21
-147.26
0
LINE
8
BLACK
6
CONTINUOUS
10
117.431
20
-147.355
11
117.24
21
-147.26
0
LINE
8
BLACK
6
CONTINUOUS
10
117.24
20
-147.26
11
117.145
21
-147.069
0
LINE
8
BLACK
6
CONTINUOUS
10
117.145
20
-147.069
11
117.145
21
-145.355
0
LINE
8
BLACK
6
CONTINUOUS
10
119.05
20
-147.355
11
119.05
21
-146.307
0
LINE
8
BLACK
6
CONTINUOUS
10
119.05
20
-146.307
11
118.955
21
-146.117
0
LINE
8
BLACK
6
CONTINUOUS
10
118.955
20
-146.117
11
118.764
21
-146.021
0
LINE
8
BLACK
6
CONTINUOUS
10
118.764
20
-146.021
11
118.383
21
-146.021
0
LINE
8
BLACK
6
CONTINUOUS
10
118.383
20
-146.021
11
118.193
21
-146.117
0
LINE
8
BLACK
6
CONTINUOUS
10
119.05
20
-147.26
11
118.86
21
-147.355
0
LINE
8
BLACK
6
CONTINUOUS
10
118.86
20
-147.355
11
118.383
21
-147.355
0
LINE
8
BLACK
6
CONTINUOUS
10
118.383
20
-147.355
11
118.193
21
-147.26
0
LINE
8
BLACK
6
CONTINUOUS
10
118.193
20
-147.26
11
118.098
21
-147.069
0
LINE
8
BLACK
6
CONTINUOUS
10
118.098
20
-147.069
11
118.098
21
-146.879
0
LINE
8
BLACK
6
CONTINUOUS
10
118.098
20
-146.879
11
118.193
21
-146.688
0
LINE
8
BLACK
6
CONTINUOUS
10
118.193
20
-146.688
11
118.383
21
-146.593
0
LINE
8
BLACK
6
CONTINUOUS
10
118.383
20
-146.593
11
118.86
21
-146.593
0
LINE
8
BLACK
6
CONTINUOUS
10
118.86
20
-146.593
11
119.05
21
-146.498
0
LINE
8
BLACK
6
CONTINUOUS
10
119.717
20
-146.021
11
120.479
21
-146.021
0
LINE
8
BLACK
6
CONTINUOUS
10
120.002
20
-145.355
11
120.002
21
-147.069
0
LINE
8
BLACK
6
CONTINUOUS
10
120.002
20
-147.069
11
120.098
21
-147.26
0
LINE
8
BLACK
6
CONTINUOUS
10
120.098
20
-147.26
11
120.288
21
-147.355
0
LINE
8
BLACK
6
CONTINUOUS
10
120.288
20
-147.355
11
120.479
21
-147.355
0
LINE
8
BLACK
6
CONTINUOUS
10
121.907
20
-147.26
11
121.717
21
-147.355
0
LINE
8
BLACK
6
CONTINUOUS
10
121.717
20
-147.355
11
121.336
21
-147.355
0
LINE
8
BLACK
6
CONTINUOUS
10
121.336
20
-147.355
11
121.145
21
-147.26
0
LINE
8
BLACK
6
CONTINUOUS
10
121.145
20
-147.26
11
121.05
21
-147.069
0
LINE
8
BLACK
6
CONTINUOUS
10
121.05
20
-147.069
11
121.05
21
-146.307
0
LINE
8
BLACK
6
CONTINUOUS
10
121.05
20
-146.307
11
121.145
21
-146.117
0
LINE
8
BLACK
6
CONTINUOUS
10
121.145
20
-146.117
11
121.336
21
-146.021
0
LINE
8
BLACK
6
CONTINUOUS
10
121.336
20
-146.021
11
121.717
21
-146.021
0
LINE
8
BLACK
6
CONTINUOUS
10
121.717
20
-146.021
11
121.907
21
-146.117
0
LINE
8
BLACK
6
CONTINUOUS
10
121.907
20
-146.117
11
122.002
21
-146.307
0
LINE
8
BLACK
6
CONTINUOUS
10
122.002
20
-146.307
11
122.002
21
-146.498
0
LINE
8
BLACK
6
CONTINUOUS
10
122.002
20
-146.498
11
121.05
21
-146.688
0
LINE
8
BLACK
6
CONTINUOUS
10
123.717
20
-147.355
11
123.717
21
-145.355
0
LINE
8
BLACK
6
CONTINUOUS
10
123.717
20
-147.26
11
123.526
21
-147.355
0
LINE
8
BLACK
6
CONTINUOUS
10
123.526
20
-147.355
11
123.145
21
-147.355
0
LINE
8
BLACK
6
CONTINUOUS
10
123.145
20
-147.355
11
122.955
21
-147.26
0
LINE
8
BLACK
6
CONTINUOUS
10
122.955
20
-147.26
11
122.86
21
-147.164
0
LINE
8
BLACK
6
CONTINUOUS
10
122.86
20
-147.164
11
122.764
21
-146.974
0
LINE
8
BLACK
6
CONTINUOUS
10
122.764
20
-146.974
11
122.764
21
-146.402
0
LINE
8
BLACK
6
CONTINUOUS
10
122.764
20
-146.402
11
122.86
21
-146.212
0
LINE
8
BLACK
6
CONTINUOUS
10
122.86
20
-146.212
11
122.955
21
-146.117
0
LINE
8
BLACK
6
CONTINUOUS
10
122.955
20
-146.117
11
123.145
21
-146.021
0
LINE
8
BLACK
6
CONTINUOUS
10
123.145
20
-146.021
11
123.526
21
-146.021
0
LINE
8
BLACK
6
CONTINUOUS
10
123.526
20
-146.021
11
123.717
21
-146.117
0
LINE
8
BLACK
6
CONTINUOUS
10
124.479
20
-148.117
11
124.574
21
-148.021
0
LINE
8
BLACK
6
CONTINUOUS
10
124.574
20
-148.021
11
124.764
21
-147.736
0
LINE
8
BLACK
6
CONTINUOUS
10
124.764
20
-147.736
11
124.86
21
-147.545
0
LINE
8
BLACK
6
CONTINUOUS
10
124.86
20
-147.545
11
124.955
21
-147.26
0
LINE
8
BLACK
6
CONTINUOUS
10
124.955
20
-147.26
11
125.05
21
-146.783
0
LINE
8
BLACK
6
CONTINUOUS
10
125.05
20
-146.783
11
125.05
21
-146.402
0
LINE
8
BLACK
6
CONTINUOUS
10
125.05
20
-146.402
11
124.955
21
-145.926
0
LINE
8
BLACK
6
CONTINUOUS
10
124.955
20
-145.926
11
124.86
21
-145.64
0
LINE
8
BLACK
6
CONTINUOUS
10
124.86
20
-145.64
11
124.764
21
-145.45
0
LINE
8
BLACK
6
CONTINUOUS
10
124.764
20
-145.45
11
124.574
21
-145.164
0
LINE
8
BLACK
6
CONTINUOUS
10
124.574
20
-145.164
11
124.479
21
-145.069
0
CIRCLE
8
BLACK
10
55.95
20
-149.65
40
1
0
LINE
8
BLACK
6
CONTINUOUS
10
59.3357
20
-148.555
11
60.5738
21
-148.555
0
LINE
8
BLACK
6
CONTINUOUS
10
60.5738
20
-148.555
11
59.9071
21
-149.317
0
LINE
8
BLACK
6
CONTINUOUS
10
59.9071
20
-149.317
11
60.1929
21
-149.317
0
LINE
8
BLACK
6
CONTINUOUS
10
60.1929
20
-149.317
11
60.3833
21
-149.412
0
LINE
8
BLACK
6
CONTINUOUS
10
60.3833
20
-149.412
11
60.4786
21
-149.507
0
LINE
8
BLACK
6
CONTINUOUS
10
60.4786
20
-149.507
11
60.5738
21
-149.698
0
LINE
8
BLACK
6
CONTINUOUS
10
60.5738
20
-149.698
11
60.5738
21
-150.174
0
LINE
8
BLACK
6
CONTINUOUS
10
60.5738
20
-150.174
11
60.4786
21
-150.364
0
LINE
8
BLACK
6
CONTINUOUS
10
60.4786
20
-150.364
11
60.3833
21
-150.46
0
LINE
8
BLACK
6
CONTINUOUS
10
60.3833
20
-150.46
11
60.1929
21
-150.555
0
LINE
8
BLACK
6
CONTINUOUS
10
60.1929
20
-150.555
11
59.6214
21
-150.555
0
LINE
8
BLACK
6
CONTINUOUS
10
59.6214
20
-150.555
11
59.431
21
-150.46
0
LINE
8
BLACK
6
CONTINUOUS
10
59.431
20
-150.46
11
59.3357
21
-150.364
0
LINE
8
BLACK
6
CONTINUOUS
10
61.431
20
-150.364
11
61.5262
21
-150.46
0
LINE
8
BLACK
6
CONTINUOUS
10
61.5262
20
-150.46
11
61.431
21
-150.555
0
LINE
8
BLACK
6
CONTINUOUS
10
61.431
20
-150.555
11
61.3357
21
-150.46
0
LINE
8
BLACK
6
CONTINUOUS
10
61.3357
20
-150.46
11
61.431
21
-150.364
0
LINE
8
BLACK
6
CONTINUOUS
10
61.431
20
-150.364
11
61.431
21
-150.555
0
LINE
8
BLACK
6
CONTINUOUS
10
62.2881
20
-148.745
11
62.3833
21
-148.65
0
LINE
8
BLACK
6
CONTINUOUS
10
62.3833
20
-148.65
11
62.5738
21
-148.555
0
LINE
8
BLACK
6
CONTINUOUS
10
62.5738
20
-148.555
11
63.05
21
-148.555
0
LINE
8
BLACK
6
CONTINUOUS
10
63.05
20
-148.555
11
63.2405
21
-148.65
0
LINE
8
BLACK
6
CONTINUOUS
10
63.2405
20
-148.65
11
63.3357
21
-148.745
0
LINE
8
BLACK
6
CONTINUOUS
10
63.3357
20
-148.745
11
63.431
21
-148.936
0
LINE
8
BLACK
6
CONTINUOUS
10
63.431
20
-148.936
11
63.431
21
-149.126
0
LINE
8
BLACK
6
CONTINUOUS
10
63.431
20
-149.126
11
63.3357
21
-149.412
0
LINE
8
BLACK
6
CONTINUOUS
10
63.3357
20
-149.412
11
62.1929
21
-150.555
0
LINE
8
BLACK
6
CONTINUOUS
10
62.1929
20
-150.555
11
63.431
21
-150.555
0
LINE
8
BLACK
6
CONTINUOUS
10
64.669
20
-148.555
11
64.8595
21
-148.555
0
LINE
8
BLACK
6
CONTINUOUS
10
64.8595
20
-148.555
11
65.05
21
-148.65
0
LINE
8
BLACK
6
CONTINUOUS
10
65.05
20
-148.65
11
65.1452
21
-148.745
0
LINE
8
BLACK
6
CONTINUOUS
10
65.1452
20
-148.745
11
65.2405
21
-148.936
0
LINE
8
BLACK
6
CONTINUOUS
10
65.2405
20
-148.936
11
65.3357
21
-149.317
0
LINE
8
BLACK
6
CONTINUOUS
10
65.3357
20
-149.317
11
65.3357
21
-149.793
0
LINE
8
BLACK
6
CONTINUOUS
10
65.3357
20
-149.793
11
65.2405
21
-150.174
0
LINE
8
BLACK
6
CONTINUOUS
10
65.2405
20
-150.174
11
65.1452
21
-150.364
0
LINE
8
BLACK
6
CONTINUOUS
10
65.1452
20
-150.364
11
65.05
21
-150.46
0
LINE
8
BLACK
6
CONTINUOUS
10
65.05
20
-150.46
11
64.8595
21
-150.555
0
LINE
8
BLACK
6
CONTINUOUS
10
64.8595
20
-150.555
11
64.669
21
-150.555
0
LINE
8
BLACK
6
CONTINUOUS
10
64.669
20
-150.555
11
64.4786
21
-150.46
0
LINE
8
BLACK
6
CONTINUOUS
10
64.4786
20
-150.46
11
64.3833
21
-150.364
0
LINE
8
BLACK
6
CONTINUOUS
10
64.3833
20
-150.364
11
64.2881
21
-150.174
0
LINE
8
BLACK
6
CONTINUOUS
10
64.2881
20
-150.174
11
64.1929
21
-149.793
0
LINE
8
BLACK
6
CONTINUOUS
10
64.1929
20
-149.793
11
64.1929
21
-149.317
0
LINE
8
BLACK
6
CONTINUOUS
10
64.1929
20
-149.317
11
64.2881
21
-148.936
0
LINE
8
BLACK
6
CONTINUOUS
10
64.2881
20
-148.936
11
64.3833
21
-148.745
0
LINE
8
BLACK
6
CONTINUOUS
10
64.3833
20
-148.745
11
64.4786
21
-148.65
0
LINE
8
BLACK
6
CONTINUOUS
10
64.4786
20
-148.65
11
64.669
21
-148.555
0
LINE
8
BLACK
6
CONTINUOUS
10
66.5738
20
-148.555
11
66.7643
21
-148.555
0
LINE
8
BLACK
6
CONTINUOUS
10
66.7643
20
-148.555
11
66.9548
21
-148.65
0
LINE
8
BLACK
6
CONTINUOUS
10
66.9548
20
-148.65
11
67.05
21
-148.745
0
LINE
8
BLACK
6
CONTINUOUS
10
67.05
20
-148.745
11
67.1452
21
-148.936
0
LINE
8
BLACK
6
CONTINUOUS
10
67.1452
20
-148.936
11
67.2405
21
-149.317
0
LINE
8
BLACK
6
CONTINUOUS
10
67.2405
20
-149.317
11
67.2405
21
-149.793
0
LINE
8
BLACK
6
CONTINUOUS
10
67.2405
20
-149.793
11
67.1452
21
-150.174
0
LINE
8
BLACK
6
CONTINUOUS
10
67.1452
20
-150.174
11
67.05
21
-150.364
0
LINE
8
BLACK
6
CONTINUOUS
10
67.05
20
-150.364
11
66.9548
21
-150.46
0
LINE
8
BLACK
6
CONTINUOUS
10
66.9548
20
-150.46
11
66.7643
21
-150.555
0
LINE
8
BLACK
6
CONTINUOUS
10
66.7643
20
-150.555
11
66.5738
21
-150.555
0
LINE
8
BLACK
6
CONTINUOUS
10
66.5738
20
-150.555
11
66.3833
21
-150.46
0
LINE
8
BLACK
6
CONTINUOUS
10
66.3833
20
-150.46
11
66.2881
21
-150.364
0
LINE
8
BLACK
6
CONTINUOUS
10
66.2881
20
-150.364
11
66.1929
21
-150.174
0
LINE
8
BLACK
6
CONTINUOUS
10
66.1929
20
-150.174
11
66.0976
21
-149.793
0
LINE
8
BLACK
6
CONTINUOUS
10
66.0976
20
-149.793
11
66.0976
21
-149.317
0
LINE
8
BLACK
6
CONTINUOUS
10
66.0976
20
-149.317
11
66.1929
21
-148.936
0
LINE
8
BLACK
6
CONTINUOUS
10
66.1929
20
-148.936
11
66.2881
21
-148.745
0
LINE
8
BLACK
6
CONTINUOUS
10
66.2881
20
-148.745
11
66.3833
21
-148.65
0
LINE
8
BLACK
6
CONTINUOUS
10
66.3833
20
-148.65
11
66.5738
21
-148.555
0
LINE
8
BLACK
6
CONTINUOUS
10
68.0976
20
-150.555
11
68.0976
21
-149.221
0
LINE
8
BLACK
6
CONTINUOUS
10
68.0976
20
-149.412
11
68.1929
21
-149.317
0
LINE
8
BLACK
6
CONTINUOUS
10
68.1929
20
-149.317
11
68.3833
21
-149.221
0
LINE
8
BLACK
6
CONTINUOUS
10
68.3833
20
-149.221
11
68.669
21
-149.221
0
LINE
8
BLACK
6
CONTINUOUS
10
68.669
20
-149.221
11
68.8595
21
-149.317
0
LINE
8
BLACK
6
CONTINUOUS
10
68.8595
20
-149.317
11
68.9548
21
-149.507
0
LINE
8
BLACK
6
CONTINUOUS
10
68.9548
20
-149.507
11
68.9548
21
-150.555
0
LINE
8
BLACK
6
CONTINUOUS
10
68.9548
20
-149.507
11
69.05
21
-149.317
0
LINE
8
BLACK
6
CONTINUOUS
10
69.05
20
-149.317
11
69.2405
21
-149.221
0
LINE
8
BLACK
6
CONTINUOUS
10
69.2405
20
-149.221
11
69.5262
21
-149.221
0
LINE
8
BLACK
6
CONTINUOUS
10
69.5262
20
-149.221
11
69.7167
21
-149.317
0
LINE
8
BLACK
6
CONTINUOUS
10
69.7167
20
-149.317
11
69.8119
21
-149.507
0
LINE
8
BLACK
6
CONTINUOUS
10
69.8119
20
-149.507
11
69.8119
21
-150.555
0
LINE
8
BLACK
6
CONTINUOUS
10
70.7643
20
-150.555
11
70.7643
21
-149.221
0
LINE
8
BLACK
6
CONTINUOUS
10
70.7643
20
-149.412
11
70.8595
21
-149.317
0
LINE
8
BLACK
6
CONTINUOUS
10
70.8595
20
-149.317
11
71.05
21
-149.221
0
LINE
8
BLACK
6
CONTINUOUS
10
71.05
20
-149.221
11
71.3357
21
-149.221
0
LINE
8
BLACK
6
CONTINUOUS
10
71.3357
20
-149.221
11
71.5262
21
-149.317
0
LINE
8
BLACK
6
CONTINUOUS
10
71.5262
20
-149.317
11
71.6214
21
-149.507
0
LINE
8
BLACK
6
CONTINUOUS
10
71.6214
20
-149.507
11
71.6214
21
-150.555
0
LINE
8
BLACK
6
CONTINUOUS
10
71.6214
20
-149.507
11
71.7167
21
-149.317
0
LINE
8
BLACK
6
CONTINUOUS
10
71.7167
20
-149.317
11
71.9071
21
-149.221
0
LINE
8
BLACK
6
CONTINUOUS
10
71.9071
20
-149.221
11
72.1929
21
-149.221
0
LINE
8
BLACK
6
CONTINUOUS
10
72.1929
20
-149.221
11
72.3833
21
-149.317
0
LINE
8
BLACK
6
CONTINUOUS
10
72.3833
20
-149.317
11
72.4786
21
-149.507
0
LINE
8
BLACK
6
CONTINUOUS
10
72.4786
20
-149.507
11
72.4786
21
-150.555
0
LINE
8
BLACK
6
CONTINUOUS
10
76.3833
20
-148.46
11
74.669
21
-151.031
0
LINE
8
BLACK
6
CONTINUOUS
10
78.9548
20
-148.555
11
79.1452
21
-148.555
0
LINE
8
BLACK
6
CONTINUOUS
10
79.1452
20
-148.555
11
79.3357
21
-148.65
0
LINE
8
BLACK
6
CONTINUOUS
10
79.3357
20
-148.65
11
79.431
21
-148.745
0
LINE
8
BLACK
6
CONTINUOUS
10
79.431
20
-148.745
11
79.5262
21
-148.936
0
LINE
8
BLACK
6
CONTINUOUS
10
79.5262
20
-148.936
11
79.6214
21
-149.317
0
LINE
8
BLACK
6
CONTINUOUS
10
79.6214
20
-149.317
11
79.6214
21
-149.793
0
LINE
8
BLACK
6
CONTINUOUS
10
79.6214
20
-149.793
11
79.5262
21
-150.174
0
LINE
8
BLACK
6
CONTINUOUS
10
79.5262
20
-150.174
11
79.431
21
-150.364
0
LINE
8
BLACK
6
CONTINUOUS
10
79.431
20
-150.364
11
79.3357
21
-150.46
0
LINE
8
BLACK
6
CONTINUOUS
10
79.3357
20
-150.46
11
79.1452
21
-150.555
0
LINE
8
BLACK
6
CONTINUOUS
10
79.1452
20
-150.555
11
78.9548
21
-150.555
0
LINE
8
BLACK
6
CONTINUOUS
10
78.9548
20
-150.555
11
78.7643
21
-150.46
0
LINE
8
BLACK
6
CONTINUOUS
10
78.7643
20
-150.46
11
78.669
21
-150.364
0
LINE
8
BLACK
6
CONTINUOUS
10
78.669
20
-150.364
11
78.5738
21
-150.174
0
LINE
8
BLACK
6
CONTINUOUS
10
78.5738
20
-150.174
11
78.4786
21
-149.793
0
LINE
8
BLACK
6
CONTINUOUS
10
78.4786
20
-149.793
11
78.4786
21
-149.317
0
LINE
8
BLACK
6
CONTINUOUS
10
78.4786
20
-149.317
11
78.5738
21
-148.936
0
LINE
8
BLACK
6
CONTINUOUS
10
78.5738
20
-148.936
11
78.669
21
-148.745
0
LINE
8
BLACK
6
CONTINUOUS
10
78.669
20
-148.745
11
78.7643
21
-148.65
0
LINE
8
BLACK
6
CONTINUOUS
10
78.7643
20
-148.65
11
78.9548
21
-148.555
0
LINE
8
BLACK
6
CONTINUOUS
10
80.4786
20
-150.364
11
80.5738
21
-150.46
0
LINE
8
BLACK
6
CONTINUOUS
10
80.5738
20
-150.46
11
80.4786
21
-150.555
0
LINE
8
BLACK
6
CONTINUOUS
10
80.4786
20
-150.555
11
80.3833
21
-150.46
0
LINE
8
BLACK
6
CONTINUOUS
10
80.3833
20
-150.46
11
80.4786
21
-150.364
0
LINE
8
BLACK
6
CONTINUOUS
10
80.4786
20
-150.364
11
80.4786
21
-150.555
0
LINE
8
BLACK
6
CONTINUOUS
10
82.4786
20
-150.555
11
81.3357
21
-150.555
0
LINE
8
BLACK
6
CONTINUOUS
10
81.9071
20
-150.555
11
81.9071
21
-148.555
0
LINE
8
BLACK
6
CONTINUOUS
10
81.9071
20
-148.555
11
81.7167
21
-148.84
0
LINE
8
BLACK
6
CONTINUOUS
10
81.7167
20
-148.84
11
81.5262
21
-149.031
0
LINE
8
BLACK
6
CONTINUOUS
10
81.5262
20
-149.031
11
81.3357
21
-149.126
0
LINE
8
BLACK
6
CONTINUOUS
10
83.2405
20
-148.745
11
83.3357
21
-148.65
0
LINE
8
BLACK
6
CONTINUOUS
10
83.3357
20
-148.65
11
83.5262
21
-148.555
0
LINE
8
BLACK
6
CONTINUOUS
10
83.5262
20
-148.555
11
84.0024
21
-148.555
0
LINE
8
BLACK
6
CONTINUOUS
10
84.0024
20
-148.555
11
84.1929
21
-148.65
0
LINE
8
BLACK
6
CONTINUOUS
10
84.1929
20
-148.65
11
84.2881
21
-148.745
0
LINE
8
BLACK
6
CONTINUOUS
10
84.2881
20
-148.745
11
84.3833
21
-148.936
0
LINE
8
BLACK
6
CONTINUOUS
10
84.3833
20
-148.936
11
84.3833
21
-149.126
0
LINE
8
BLACK
6
CONTINUOUS
10
84.3833
20
-149.126
11
84.2881
21
-149.412
0
LINE
8
BLACK
6
CONTINUOUS
10
84.2881
20
-149.412
11
83.1452
21
-150.555
0
LINE
8
BLACK
6
CONTINUOUS
10
83.1452
20
-150.555
11
84.3833
21
-150.555
0
LINE
8
BLACK
6
CONTINUOUS
10
86.0976
20
-148.555
11
85.7167
21
-148.555
0
LINE
8
BLACK
6
CONTINUOUS
10
85.7167
20
-148.555
11
85.5262
21
-148.65
0
LINE
8
BLACK
6
CONTINUOUS
10
85.5262
20
-148.65
11
85.431
21
-148.745
0
LINE
8
BLACK
6
CONTINUOUS
10
85.431
20
-148.745
11
85.2405
21
-149.031
0
LINE
8
BLACK
6
CONTINUOUS
10
85.2405
20
-149.031
11
85.1452
21
-149.412
0
LINE
8
BLACK
6
CONTINUOUS
10
85.1452
20
-149.412
11
85.1452
21
-150.174
0
LINE
8
BLACK
6
CONTINUOUS
10
85.1452
20
-150.174
11
85.2405
21
-150.364
0
LINE
8
BLACK
6
CONTINUOUS
10
85.2405
20
-150.364
11
85.3357
21
-150.46
0
LINE
8
BLACK
6
CONTINUOUS
10
85.3357
20
-150.46
11
85.5262
21
-150.555
0
LINE
8
BLACK
6
CONTINUOUS
10
85.5262
20
-150.555
11
85.9071
21
-150.555
0
LINE
8
BLACK
6
CONTINUOUS
10
85.9071
20
-150.555
11
86.0976
21
-150.46
0
LINE
8
BLACK
6
CONTINUOUS
10
86.0976
20
-150.46
11
86.1929
21
-150.364
0
LINE
8
BLACK
6
CONTINUOUS
10
86.1929
20
-150.364
11
86.2881
21
-150.174
0
LINE
8
BLACK
6
CONTINUOUS
10
86.2881
20
-150.174
11
86.2881
21
-149.698
0
LINE
8
BLACK
6
CONTINUOUS
10
86.2881
20
-149.698
11
86.1929
21
-149.507
0
LINE
8
BLACK
6
CONTINUOUS
10
86.1929
20
-149.507
11
86.0976
21
-149.412
0
LINE
8
BLACK
6
CONTINUOUS
10
86.0976
20
-149.412
11
85.9071
21
-149.317
0
LINE
8
BLACK
6
CONTINUOUS
10
85.9071
20
-149.317
11
85.5262
21
-149.317
0
LINE
8
BLACK
6
CONTINUOUS
10
85.5262
20
-149.317
11
85.3357
21
-149.412
0
LINE
8
BLACK
6
CONTINUOUS
10
85.3357
20
-149.412
11
85.2405
21
-149.507
0
LINE
8
BLACK
6
CONTINUOUS
10
85.2405
20
-149.507
11
85.1452
21
-149.698
0
LINE
8
BLACK
6
CONTINUOUS
10
87.5262
20
-148.555
11
87.7167
21
-148.555
0
LINE
8
BLACK
6
CONTINUOUS
10
87.7167
20
-148.555
11
87.9071
21
-148.65
0
LINE
8
BLACK
6
CONTINUOUS
10
87.9071
20
-148.65
11
88.0024
21
-148.745
0
LINE
8
BLACK
6
CONTINUOUS
10
88.0024
20
-148.745
11
88.0976
21
-148.936
0
LINE
8
BLACK
6
CONTINUOUS
10
88.0976
20
-148.936
11
88.1929
21
-149.317
0
LINE
8
BLACK
6
CONTINUOUS
10
88.1929
20
-149.317
11
88.1929
21
-149.793
0
LINE
8
BLACK
6
CONTINUOUS
10
88.1929
20
-149.793
11
88.0976
21
-150.174
0
LINE
8
BLACK
6
CONTINUOUS
10
88.0976
20
-150.174
11
88.0024
21
-150.364
0
LINE
8
BLACK
6
CONTINUOUS
10
88.0024
20
-150.364
11
87.9071
21
-150.46
0
LINE
8
BLACK
6
CONTINUOUS
10
87.9071
20
-150.46
11
87.7167
21
-150.555
0
LINE
8
BLACK
6
CONTINUOUS
10
87.7167
20
-150.555
11
87.5262
21
-150.555
0
LINE
8
BLACK
6
CONTINUOUS
10
87.5262
20
-150.555
11
87.3357
21
-150.46
0
LINE
8
BLACK
6
CONTINUOUS
10
87.3357
20
-150.46
11
87.2405
21
-150.364
0
LINE
8
BLACK
6
CONTINUOUS
10
87.2405
20
-150.364
11
87.1452
21
-150.174
0
LINE
8
BLACK
6
CONTINUOUS
10
87.1452
20
-150.174
11
87.05
21
-149.793
0
LINE
8
BLACK
6
CONTINUOUS
10
87.05
20
-149.793
11
87.05
21
-149.317
0
LINE
8
BLACK
6
CONTINUOUS
10
87.05
20
-149.317
11
87.1452
21
-148.936
0
LINE
8
BLACK
6
CONTINUOUS
10
87.1452
20
-148.936
11
87.2405
21
-148.745
0
LINE
8
BLACK
6
CONTINUOUS
10
87.2405
20
-148.745
11
87.3357
21
-148.65
0
LINE
8
BLACK
6
CONTINUOUS
10
87.3357
20
-148.65
11
87.5262
21
-148.555
0
LINE
8
BLACK
6
CONTINUOUS
10
88.9548
20
-148.555
11
88.9548
21
-148.936
0
LINE
8
BLACK
6
CONTINUOUS
10
89.7167
20
-148.555
11
89.7167
21
-148.936
0
LINE
8
BLACK
6
CONTINUOUS
10
92.669
20
-151.317
11
92.5738
21
-151.221
0
LINE
8
BLACK
6
CONTINUOUS
10
92.5738
20
-151.221
11
92.3833
21
-150.936
0
LINE
8
BLACK
6
CONTINUOUS
10
92.3833
20
-150.936
11
92.2881
21
-150.745
0
LINE
8
BLACK
6
CONTINUOUS
10
92.2881
20
-150.745
11
92.1929
21
-150.46
0
LINE
8
BLACK
6
CONTINUOUS
10
92.1929
20
-150.46
11
92.0976
21
-149.983
0
LINE
8
BLACK
6
CONTINUOUS
10
92.0976
20
-149.983
11
92.0976
21
-149.602
0
LINE
8
BLACK
6
CONTINUOUS
10
92.0976
20
-149.602
11
92.1929
21
-149.126
0
LINE
8
BLACK
6
CONTINUOUS
10
92.1929
20
-149.126
11
92.2881
21
-148.84
0
LINE
8
BLACK
6
CONTINUOUS
10
92.2881
20
-148.84
11
92.3833
21
-148.65
0
LINE
8
BLACK
6
CONTINUOUS
10
92.3833
20
-148.65
11
92.5738
21
-148.364
0
LINE
8
BLACK
6
CONTINUOUS
10
92.5738
20
-148.364
11
92.669
21
-148.269
0
LINE
8
BLACK
6
CONTINUOUS
10
94.2881
20
-149.221
11
94.2881
21
-150.555
0
LINE
8
BLACK
6
CONTINUOUS
10
93.8119
20
-148.46
11
93.3357
21
-149.888
0
LINE
8
BLACK
6
CONTINUOUS
10
93.3357
20
-149.888
11
94.5738
21
-149.888
0
LINE
8
BLACK
6
CONTINUOUS
10
96.8595
20
-150.555
11
96.8595
21
-148.555
0
LINE
8
BLACK
6
CONTINUOUS
10
97.7167
20
-150.555
11
97.7167
21
-149.507
0
LINE
8
BLACK
6
CONTINUOUS
10
97.7167
20
-149.507
11
97.6214
21
-149.317
0
LINE
8
BLACK
6
CONTINUOUS
10
97.6214
20
-149.317
11
97.431
21
-149.221
0
LINE
8
BLACK
6
CONTINUOUS
10
97.431
20
-149.221
11
97.1452
21
-149.221
0
LINE
8
BLACK
6
CONTINUOUS
10
97.1452
20
-149.221
11
96.9548
21
-149.317
0
LINE
8
BLACK
6
CONTINUOUS
10
96.9548
20
-149.317
11
96.8595
21
-149.412
0
LINE
8
BLACK
6
CONTINUOUS
10
98.9548
20
-150.555
11
98.7643
21
-150.46
0
LINE
8
BLACK
6
CONTINUOUS
10
98.7643
20
-150.46
11
98.669
21
-150.364
0
LINE
8
BLACK
6
CONTINUOUS
10
98.669
20
-150.364
11
98.5738
21
-150.174
0
LINE
8
BLACK
6
CONTINUOUS
10
98.5738
20
-150.174
11
98.5738
21
-149.602
0
LINE
8
BLACK
6
CONTINUOUS
10
98.5738
20
-149.602
11
98.669
21
-149.412
0
LINE
8
BLACK
6
CONTINUOUS
10
98.669
20
-149.412
11
98.7643
21
-149.317
0
LINE
8
BLACK
6
CONTINUOUS
10
98.7643
20
-149.317
11
98.9548
21
-149.221
0
LINE
8
BLACK
6
CONTINUOUS
10
98.9548
20
-149.221
11
99.2405
21
-149.221
0
LINE
8
BLACK
6
CONTINUOUS
10
99.2405
20
-149.221
11
99.431
21
-149.317
0
LINE
8
BLACK
6
CONTINUOUS
10
99.431
20
-149.317
11
99.5262
21
-149.412
0
LINE
8
BLACK
6
CONTINUOUS
10
99.5262
20
-149.412
11
99.6214
21
-149.602
0
LINE
8
BLACK
6
CONTINUOUS
10
99.6214
20
-149.602
11
99.6214
21
-150.174
0
LINE
8
BLACK
6
CONTINUOUS
10
99.6214
20
-150.174
11
99.5262
21
-150.364
0
LINE
8
BLACK
6
CONTINUOUS
10
99.5262
20
-150.364
11
99.431
21
-150.46
0
LINE
8
BLACK
6
CONTINUOUS
10
99.431
20
-150.46
11
99.2405
21
-150.555
0
LINE
8
BLACK
6
CONTINUOUS
10
99.2405
20
-150.555
11
98.9548
21
-150.555
0
LINE
8
BLACK
6
CONTINUOUS
10
100.764
20
-150.555
11
100.574
21
-150.46
0
LINE
8
BLACK
6
CONTINUOUS
10
100.574
20
-150.46
11
100.479
21
-150.269
0
LINE
8
BLACK
6
CONTINUOUS
10
100.479
20
-150.269
11
100.479
21
-148.555
0
LINE
8
BLACK
6
CONTINUOUS
10
102.288
20
-150.46
11
102.098
21
-150.555
0
LINE
8
BLACK
6
CONTINUOUS
10
102.098
20
-150.555
11
101.717
21
-150.555
0
LINE
8
BLACK
6
CONTINUOUS
10
101.717
20
-150.555
11
101.526
21
-150.46
0
LINE
8
BLACK
6
CONTINUOUS
10
101.526
20
-150.46
11
101.431
21
-150.269
0
LINE
8
BLACK
6
CONTINUOUS
10
101.431
20
-150.269
11
101.431
21
-149.507
0
LINE
8
BLACK
6
CONTINUOUS
10
101.431
20
-149.507
11
101.526
21
-149.317
0
LINE
8
BLACK
6
CONTINUOUS
10
101.526
20
-149.317
11
101.717
21
-149.221
0
LINE
8
BLACK
6
CONTINUOUS
10
101.717
20
-149.221
11
102.098
21
-149.221
0
LINE
8
BLACK
6
CONTINUOUS
10
102.098
20
-149.221
11
102.288
21
-149.317
0
LINE
8
BLACK
6
CONTINUOUS
10
102.288
20
-149.317
11
102.383
21
-149.507
0
LINE
8
BLACK
6
CONTINUOUS
10
102.383
20
-149.507
11
102.383
21
-149.698
0
LINE
8
BLACK
6
CONTINUOUS
10
102.383
20
-149.698
11
101.431
21
-149.888
0
LINE
8
BLACK
6
CONTINUOUS
10
103.145
20
-150.46
11
103.336
21
-150.555
0
LINE
8
BLACK
6
CONTINUOUS
10
103.336
20
-150.555
11
103.717
21
-150.555
0
LINE
8
BLACK
6
CONTINUOUS
10
103.717
20
-150.555
11
103.907
21
-150.46
0
LINE
8
BLACK
6
CONTINUOUS
10
103.907
20
-150.46
11
104.002
21
-150.269
0
LINE
8
BLACK
6
CONTINUOUS
10
104.002
20
-150.269
11
104.002
21
-150.174
0
LINE
8
BLACK
6
CONTINUOUS
10
104.002
20
-150.174
11
103.907
21
-149.983
0
LINE
8
BLACK
6
CONTINUOUS
10
103.907
20
-149.983
11
103.717
21
-149.888
0
LINE
8
BLACK
6
CONTINUOUS
10
103.717
20
-149.888
11
103.431
21
-149.888
0
LINE
8
BLACK
6
CONTINUOUS
10
103.431
20
-149.888
11
103.24
21
-149.793
0
LINE
8
BLACK
6
CONTINUOUS
10
103.24
20
-149.793
11
103.145
21
-149.602
0
LINE
8
BLACK
6
CONTINUOUS
10
103.145
20
-149.602
11
103.145
21
-149.507
0
LINE
8
BLACK
6
CONTINUOUS
10
103.145
20
-149.507
11
103.24
21
-149.317
0
LINE
8
BLACK
6
CONTINUOUS
10
103.24
20
-149.317
11
103.431
21
-149.221
0
LINE
8
BLACK
6
CONTINUOUS
10
103.431
20
-149.221
11
103.717
21
-149.221
0
LINE
8
BLACK
6
CONTINUOUS
10
103.717
20
-149.221
11
103.907
21
-149.317
0
LINE
8
BLACK
6
CONTINUOUS
10
104.669
20
-151.317
11
104.764
21
-151.221
0
LINE
8
BLACK
6
CONTINUOUS
10
104.764
20
-151.221
11
104.955
21
-150.936
0
LINE
8
BLACK
6
CONTINUOUS
10
104.955
20
-150.936
11
105.05
21
-150.745
0
LINE
8
BLACK
6
CONTINUOUS
10
105.05
20
-150.745
11
105.145
21
-150.46
0
LINE
8
BLACK
6
CONTINUOUS
10
105.145
20
-150.46
11
105.24
21
-149.983
0
LINE
8
BLACK
6
CONTINUOUS
10
105.24
20
-149.983
11
105.24
21
-149.602
0
LINE
8
BLACK
6
CONTINUOUS
10
105.24
20
-149.602
11
105.145
21
-149.126
0
LINE
8
BLACK
6
CONTINUOUS
10
105.145
20
-149.126
11
105.05
21
-148.84
0
LINE
8
BLACK
6
CONTINUOUS
10
105.05
20
-148.84
11
104.955
21
-148.65
0
LINE
8
BLACK
6
CONTINUOUS
10
104.955
20
-148.65
11
104.764
21
-148.364
0
LINE
8
BLACK
6
CONTINUOUS
10
104.764
20
-148.364
11
104.669
21
-148.269
0
LINE
8
BLACK
6
CONTINUOUS
10
108.288
20
-151.317
11
108.193
21
-151.221
0
LINE
8
BLACK
6
CONTINUOUS
10
108.193
20
-151.221
11
108.002
21
-150.936
0
LINE
8
BLACK
6
CONTINUOUS
10
108.002
20
-150.936
11
107.907
21
-150.745
0
LINE
8
BLACK
6
CONTINUOUS
10
107.907
20
-150.745
11
107.812
21
-150.46
0
LINE
8
BLACK
6
CONTINUOUS
10
107.812
20
-150.46
11
107.717
21
-149.983
0
LINE
8
BLACK
6
CONTINUOUS
10
107.717
20
-149.983
11
107.717
21
-149.602
0
LINE
8
BLACK
6
CONTINUOUS
10
107.717
20
-149.602
11
107.812
21
-149.126
0
LINE
8
BLACK
6
CONTINUOUS
10
107.812
20
-149.126
11
107.907
21
-148.84
0
LINE
8
BLACK
6
CONTINUOUS
10
107.907
20
-148.84
11
108.002
21
-148.65
0
LINE
8
BLACK
6
CONTINUOUS
10
108.002
20
-148.65
11
108.193
21
-148.364
0
LINE
8
BLACK
6
CONTINUOUS
10
108.193
20
-148.364
11
108.288
21
-148.269
0
LINE
8
BLACK
6
CONTINUOUS
10
109.05
20
-149.221
11
109.05
21
-150.555
0
LINE
8
BLACK
6
CONTINUOUS
10
109.05
20
-149.412
11
109.145
21
-149.317
0
LINE
8
BLACK
6
CONTINUOUS
10
109.145
20
-149.317
11
109.336
21
-149.221
0
LINE
8
BLACK
6
CONTINUOUS
10
109.336
20
-149.221
11
109.621
21
-149.221
0
LINE
8
BLACK
6
CONTINUOUS
10
109.621
20
-149.221
11
109.812
21
-149.317
0
LINE
8
BLACK
6
CONTINUOUS
10
109.812
20
-149.317
11
109.907
21
-149.507
0
LINE
8
BLACK
6
CONTINUOUS
10
109.907
20
-149.507
11
109.907
21
-150.555
0
LINE
8
BLACK
6
CONTINUOUS
10
111.145
20
-150.555
11
110.955
21
-150.46
0
LINE
8
BLACK
6
CONTINUOUS
10
110.955
20
-150.46
11
110.86
21
-150.364
0
LINE
8
BLACK
6
CONTINUOUS
10
110.86
20
-150.364
11
110.764
21
-150.174
0
LINE
8
BLACK
6
CONTINUOUS
10
110.764
20
-150.174
11
110.764
21
-149.602
0
LINE
8
BLACK
6
CONTINUOUS
10
110.764
20
-149.602
11
110.86
21
-149.412
0
LINE
8
BLACK
6
CONTINUOUS
10
110.86
20
-149.412
11
110.955
21
-149.317
0
LINE
8
BLACK
6
CONTINUOUS
10
110.955
20
-149.317
11
111.145
21
-149.221
0
LINE
8
BLACK
6
CONTINUOUS
10
111.145
20
-149.221
11
111.431
21
-149.221
0
LINE
8
BLACK
6
CONTINUOUS
10
111.431
20
-149.221
11
111.621
21
-149.317
0
LINE
8
BLACK
6
CONTINUOUS
10
111.621
20
-149.317
11
111.717
21
-149.412
0
LINE
8
BLACK
6
CONTINUOUS
10
111.717
20
-149.412
11
111.812
21
-149.602
0
LINE
8
BLACK
6
CONTINUOUS
10
111.812
20
-149.602
11
111.812
21
-150.174
0
LINE
8
BLACK
6
CONTINUOUS
10
111.812
20
-150.174
11
111.717
21
-150.364
0
LINE
8
BLACK
6
CONTINUOUS
10
111.717
20
-150.364
11
111.621
21
-150.46
0
LINE
8
BLACK
6
CONTINUOUS
10
111.621
20
-150.46
11
111.431
21
-150.555
0
LINE
8
BLACK
6
CONTINUOUS
10
111.431
20
-150.555
11
111.145
21
-150.555
0
LINE
8
BLACK
6
CONTINUOUS
10
112.383
20
-149.221
11
113.145
21
-149.221
0
LINE
8
BLACK
6
CONTINUOUS
10
112.669
20
-148.555
11
112.669
21
-150.269
0
LINE
8
BLACK
6
CONTINUOUS
10
112.669
20
-150.269
11
112.764
21
-150.46
0
LINE
8
BLACK
6
CONTINUOUS
10
112.764
20
-150.46
11
112.955
21
-150.555
0
LINE
8
BLACK
6
CONTINUOUS
10
112.955
20
-150.555
11
113.145
21
-150.555
0
LINE
8
BLACK
6
CONTINUOUS
10
115.336
20
-149.221
11
115.336
21
-151.221
0
LINE
8
BLACK
6
CONTINUOUS
10
115.336
20
-149.317
11
115.526
21
-149.221
0
LINE
8
BLACK
6
CONTINUOUS
10
115.526
20
-149.221
11
115.907
21
-149.221
0
LINE
8
BLACK
6
CONTINUOUS
10
115.907
20
-149.221
11
116.098
21
-149.317
0
LINE
8
BLACK
6
CONTINUOUS
10
116.098
20
-149.317
11
116.193
21
-149.412
0
LINE
8
BLACK
6
CONTINUOUS
10
116.193
20
-149.412
11
116.288
21
-149.602
0
LINE
8
BLACK
6
CONTINUOUS
10
116.288
20
-149.602
11
116.288
21
-150.174
0
LINE
8
BLACK
6
CONTINUOUS
10
116.288
20
-150.174
11
116.193
21
-150.364
0
LINE
8
BLACK
6
CONTINUOUS
10
116.193
20
-150.364
11
116.098
21
-150.46
0
LINE
8
BLACK
6
CONTINUOUS
10
116.098
20
-150.46
11
115.907
21
-150.555
0
LINE
8
BLACK
6
CONTINUOUS
10
115.907
20
-150.555
11
115.526
21
-150.555
0
LINE
8
BLACK
6
CONTINUOUS
10
115.526
20
-150.555
11
115.336
21
-150.46
0
LINE
8
BLACK
6
CONTINUOUS
10
117.431
20
-150.555
11
117.24
21
-150.46
0
LINE
8
BLACK
6
CONTINUOUS
10
117.24
20
-150.46
11
117.145
21
-150.269
0
LINE
8
BLACK
6
CONTINUOUS
10
117.145
20
-150.269
11
117.145
21
-148.555
0
LINE
8
BLACK
6
CONTINUOUS
10
119.05
20
-150.555
11
119.05
21
-149.507
0
LINE
8
BLACK
6
CONTINUOUS
10
119.05
20
-149.507
11
118.955
21
-149.317
0
LINE
8
BLACK
6
CONTINUOUS
10
118.955
20
-149.317
11
118.764
21
-149.221
0
LINE
8
BLACK
6
CONTINUOUS
10
118.764
20
-149.221
11
118.383
21
-149.221
0
LINE
8
BLACK
6
CONTINUOUS
10
118.383
20
-149.221
11
118.193
21
-149.317
0
LINE
8
BLACK
6
CONTINUOUS
10
119.05
20
-150.46
11
118.86
21
-150.555
0
LINE
8
BLACK
6
CONTINUOUS
10
118.86
20
-150.555
11
118.383
21
-150.555
0
LINE
8
BLACK
6
CONTINUOUS
10
118.383
20
-150.555
11
118.193
21
-150.46
0
LINE
8
BLACK
6
CONTINUOUS
10
118.193
20
-150.46
11
118.098
21
-150.269
0
LINE
8
BLACK
6
CONTINUOUS
10
118.098
20
-150.269
11
118.098
21
-150.079
0
LINE
8
BLACK
6
CONTINUOUS
10
118.098
20
-150.079
11
118.193
21
-149.888
0
LINE
8
BLACK
6
CONTINUOUS
10
118.193
20
-149.888
11
118.383
21
-149.793
0
LINE
8
BLACK
6
CONTINUOUS
10
118.383
20
-149.793
11
118.86
21
-149.793
0
LINE
8
BLACK
6
CONTINUOUS
10
118.86
20
-149.793
11
119.05
21
-149.698
0
LINE
8
BLACK
6
CONTINUOUS
10
119.717
20
-149.221
11
120.479
21
-149.221
0
LINE
8
BLACK
6
CONTINUOUS
10
120.002
20
-148.555
11
120.002
21
-150.269
0
LINE
8
BLACK
6
CONTINUOUS
10
120.002
20
-150.269
11
120.098
21
-150.46
0
LINE
8
BLACK
6
CONTINUOUS
10
120.098
20
-150.46
11
120.288
21
-150.555
0
LINE
8
BLACK
6
CONTINUOUS
10
120.288
20
-150.555
11
120.479
21
-150.555
0
LINE
8
BLACK
6
CONTINUOUS
10
121.907
20
-150.46
11
121.717
21
-150.555
0
LINE
8
BLACK
6
CONTINUOUS
10
121.717
20
-150.555
11
121.336
21
-150.555
0
LINE
8
BLACK
6
CONTINUOUS
10
121.336
20
-150.555
11
121.145
21
-150.46
0
LINE
8
BLACK
6
CONTINUOUS
10
121.145
20
-150.46
11
121.05
21
-150.269
0
LINE
8
BLACK
6
CONTINUOUS
10
121.05
20
-150.269
11
121.05
21
-149.507
0
LINE
8
BLACK
6
CONTINUOUS
10
121.05
20
-149.507
11
121.145
21
-149.317
0
LINE
8
BLACK
6
CONTINUOUS
10
121.145
20
-149.317
11
121.336
21
-149.221
0
LINE
8
BLACK
6
CONTINUOUS
10
121.336
20
-149.221
11
121.717
21
-149.221
0
LINE
8
BLACK
6
CONTINUOUS
10
121.717
20
-149.221
11
121.907
21
-149.317
0
LINE
8
BLACK
6
CONTINUOUS
10
121.907
20
-149.317
11
122.002
21
-149.507
0
LINE
8
BLACK
6
CONTINUOUS
10
122.002
20
-149.507
11
122.002
21
-149.698
0
LINE
8
BLACK
6
CONTINUOUS
10
122.002
20
-149.698
11
121.05
21
-149.888
0
LINE
8
BLACK
6
CONTINUOUS
10
123.717
20
-150.555
11
123.717
21
-148.555
0
LINE
8
BLACK
6
CONTINUOUS
10
123.717
20
-150.46
11
123.526
21
-150.555
0
LINE
8
BLACK
6
CONTINUOUS
10
123.526
20
-150.555
11
123.145
21
-150.555
0
LINE
8
BLACK
6
CONTINUOUS
10
123.145
20
-150.555
11
122.955
21
-150.46
0
LINE
8
BLACK
6
CONTINUOUS
10
122.955
20
-150.46
11
122.86
21
-150.364
0
LINE
8
BLACK
6
CONTINUOUS
10
122.86
20
-150.364
11
122.764
21
-150.174
0
LINE
8
BLACK
6
CONTINUOUS
10
122.764
20
-150.174
11
122.764
21
-149.602
0
LINE
8
BLACK
6
CONTINUOUS
10
122.764
20
-149.602
11
122.86
21
-149.412
0
LINE
8
BLACK
6
CONTINUOUS
10
122.86
20
-149.412
11
122.955
21
-149.317
0
LINE
8
BLACK
6
CONTINUOUS
10
122.955
20
-149.317
11
123.145
21
-149.221
0
LINE
8
BLACK
6
CONTINUOUS
10
123.145
20
-149.221
11
123.526
21
-149.221
0
LINE
8
BLACK
6
CONTINUOUS
10
123.526
20
-149.221
11
123.717
21
-149.317
0
LINE
8
BLACK
6
CONTINUOUS
10
124.479
20
-151.317
11
124.574
21
-151.221
0
LINE
8
BLACK
6
CONTINUOUS
10
124.574
20
-151.221
11
124.764
21
-150.936
0
LINE
8
BLACK
6
CONTINUOUS
10
124.764
20
-150.936
11
124.86
21
-150.745
0
LINE
8
BLACK
6
CONTINUOUS
10
124.86
20
-150.745
11
124.955
21
-150.46
0
LINE
8
BLACK
6
CONTINUOUS
10
124.955
20
-150.46
11
125.05
21
-149.983
0
LINE
8
BLACK
6
CONTINUOUS
10
125.05
20
-149.983
11
125.05
21
-149.602
0
LINE
8
BLACK
6
CONTINUOUS
10
125.05
20
-149.602
11
124.955
21
-149.126
0
LINE
8
BLACK
6
CONTINUOUS
10
124.955
20
-149.126
11
124.86
21
-148.84
0
LINE
8
BLACK
6
CONTINUOUS
10
124.86
20
-148.84
11
124.764
21
-148.65
0
LINE
8
BLACK
6
CONTINUOUS
10
124.764
20
-148.65
11
124.574
21
-148.364
0
LINE
8
BLACK
6
CONTINUOUS
10
124.574
20
-148.364
11
124.479
21
-148.269
0
LINE
8
BLACK
6
CONTINUOUS
10
55.95
20
-151.85
11
55.95
21
-153.85
0
LINE
8
BLACK
6
CONTINUOUS
10
54.95
20
-152.85
11
56.95
21
-152.85
0
LINE
8
BLACK
6
CONTINUOUS
10
59.3357
20
-151.755
11
60.5738
21
-151.755
0
LINE
8
BLACK
6
CONTINUOUS
10
60.5738
20
-151.755
11
59.9071
21
-152.517
0
LINE
8
BLACK
6
CONTINUOUS
10
59.9071
20
-152.517
11
60.1929
21
-152.517
0
LINE
8
BLACK
6
CONTINUOUS
10
60.1929
20
-152.517
11
60.3833
21
-152.612
0
LINE
8
BLACK
6
CONTINUOUS
10
60.3833
20
-152.612
11
60.4786
21
-152.707
0
LINE
8
BLACK
6
CONTINUOUS
10
60.4786
20
-152.707
11
60.5738
21
-152.898
0
LINE
8
BLACK
6
CONTINUOUS
10
60.5738
20
-152.898
11
60.5738
21
-153.374
0
LINE
8
BLACK
6
CONTINUOUS
10
60.5738
20
-153.374
11
60.4786
21
-153.564
0
LINE
8
BLACK
6
CONTINUOUS
10
60.4786
20
-153.564
11
60.3833
21
-153.66
0
LINE
8
BLACK
6
CONTINUOUS
10
60.3833
20
-153.66
11
60.1929
21
-153.755
0
LINE
8
BLACK
6
CONTINUOUS
10
60.1929
20
-153.755
11
59.6214
21
-153.755
0
LINE
8
BLACK
6
CONTINUOUS
10
59.6214
20
-153.755
11
59.431
21
-153.66
0
LINE
8
BLACK
6
CONTINUOUS
10
59.431
20
-153.66
11
59.3357
21
-153.564
0
LINE
8
BLACK
6
CONTINUOUS
10
61.431
20
-153.564
11
61.5262
21
-153.66
0
LINE
8
BLACK
6
CONTINUOUS
10
61.5262
20
-153.66
11
61.431
21
-153.755
0
LINE
8
BLACK
6
CONTINUOUS
10
61.431
20
-153.755
11
61.3357
21
-153.66
0
LINE
8
BLACK
6
CONTINUOUS
10
61.3357
20
-153.66
11
61.431
21
-153.564
0
LINE
8
BLACK
6
CONTINUOUS
10
61.431
20
-153.564
11
61.431
21
-153.755
0
LINE
8
BLACK
6
CONTINUOUS
10
63.3357
20
-151.755
11
62.3833
21
-151.755
0
LINE
8
BLACK
6
CONTINUOUS
10
62.3833
20
-151.755
11
62.2881
21
-152.707
0
LINE
8
BLACK
6
CONTINUOUS
10
62.2881
20
-152.707
11
62.3833
21
-152.612
0
LINE
8
BLACK
6
CONTINUOUS
10
62.3833
20
-152.612
11
62.5738
21
-152.517
0
LINE
8
BLACK
6
CONTINUOUS
10
62.5738
20
-152.517
11
63.05
21
-152.517
0
LINE
8
BLACK
6
CONTINUOUS
10
63.05
20
-152.517
11
63.2405
21
-152.612
0
LINE
8
BLACK
6
CONTINUOUS
10
63.2405
20
-152.612
11
63.3357
21
-152.707
0
LINE
8
BLACK
6
CONTINUOUS
10
63.3357
20
-152.707
11
63.431
21
-152.898
0
LINE
8
BLACK
6
CONTINUOUS
10
63.431
20
-152.898
11
63.431
21
-153.374
0
LINE
8
BLACK
6
CONTINUOUS
10
63.431
20
-153.374
11
63.3357
21
-153.564
0
LINE
8
BLACK
6
CONTINUOUS
10
63.3357
20
-153.564
11
63.2405
21
-153.66
0
LINE
8
BLACK
6
CONTINUOUS
10
63.2405
20
-153.66
11
63.05
21
-153.755
0
LINE
8
BLACK
6
CONTINUOUS
10
63.05
20
-153.755
11
62.5738
21
-153.755
0
LINE
8
BLACK
6
CONTINUOUS
10
62.5738
20
-153.755
11
62.3833
21
-153.66
0
LINE
8
BLACK
6
CONTINUOUS
10
62.3833
20
-153.66
11
62.2881
21
-153.564
0
LINE
8
BLACK
6
CONTINUOUS
10
64.669
20
-151.755
11
64.8595
21
-151.755
0
LINE
8
BLACK
6
CONTINUOUS
10
64.8595
20
-151.755
11
65.05
21
-151.85
0
LINE
8
BLACK
6
CONTINUOUS
10
65.05
20
-151.85
11
65.1452
21
-151.945
0
LINE
8
BLACK
6
CONTINUOUS
10
65.1452
20
-151.945
11
65.2405
21
-152.136
0
LINE
8
BLACK
6
CONTINUOUS
10
65.2405
20
-152.136
11
65.3357
21
-152.517
0
LINE
8
BLACK
6
CONTINUOUS
10
65.3357
20
-152.517
11
65.3357
21
-152.993
0
LINE
8
BLACK
6
CONTINUOUS
10
65.3357
20
-152.993
11
65.2405
21
-153.374
0
LINE
8
BLACK
6
CONTINUOUS
10
65.2405
20
-153.374
11
65.1452
21
-153.564
0
LINE
8
BLACK
6
CONTINUOUS
10
65.1452
20
-153.564
11
65.05
21
-153.66
0
LINE
8
BLACK
6
CONTINUOUS
10
65.05
20
-153.66
11
64.8595
21
-153.755
0
LINE
8
BLACK
6
CONTINUOUS
10
64.8595
20
-153.755
11
64.669
21
-153.755
0
LINE
8
BLACK
6
CONTINUOUS
10
64.669
20
-153.755
11
64.4786
21
-153.66
0
LINE
8
BLACK
6
CONTINUOUS
10
64.4786
20
-153.66
11
64.3833
21
-153.564
0
LINE
8
BLACK
6
CONTINUOUS
10
64.3833
20
-153.564
11
64.2881
21
-153.374
0
LINE
8
BLACK
6
CONTINUOUS
10
64.2881
20
-153.374
11
64.1929
21
-152.993
0
LINE
8
BLACK
6
CONTINUOUS
10
64.1929
20
-152.993
11
64.1929
21
-152.517
0
LINE
8
BLACK
6
CONTINUOUS
10
64.1929
20
-152.517
11
64.2881
21
-152.136
0
LINE
8
BLACK
6
CONTINUOUS
10
64.2881
20
-152.136
11
64.3833
21
-151.945
0
LINE
8
BLACK
6
CONTINUOUS
10
64.3833
20
-151.945
11
64.4786
21
-151.85
0
LINE
8
BLACK
6
CONTINUOUS
10
64.4786
20
-151.85
11
64.669
21
-151.755
0
LINE
8
BLACK
6
CONTINUOUS
10
66.5738
20
-151.755
11
66.7643
21
-151.755
0
LINE
8
BLACK
6
CONTINUOUS
10
66.7643
20
-151.755
11
66.9548
21
-151.85
0
LINE
8
BLACK
6
CONTINUOUS
10
66.9548
20
-151.85
11
67.05
21
-151.945
0
LINE
8
BLACK
6
CONTINUOUS
10
67.05
20
-151.945
11
67.1452
21
-152.136
0
LINE
8
BLACK
6
CONTINUOUS
10
67.1452
20
-152.136
11
67.2405
21
-152.517
0
LINE
8
BLACK
6
CONTINUOUS
10
67.2405
20
-152.517
11
67.2405
21
-152.993
0
LINE
8
BLACK
6
CONTINUOUS
10
67.2405
20
-152.993
11
67.1452
21
-153.374
0
LINE
8
BLACK
6
CONTINUOUS
10
67.1452
20
-153.374
11
67.05
21
-153.564
0
LINE
8
BLACK
6
CONTINUOUS
10
67.05
20
-153.564
11
66.9548
21
-153.66
0
LINE
8
BLACK
6
CONTINUOUS
10
66.9548
20
-153.66
11
66.7643
21
-153.755
0
LINE
8
BLACK
6
CONTINUOUS
10
66.7643
20
-153.755
11
66.5738
21
-153.755
0
LINE
8
BLACK
6
CONTINUOUS
10
66.5738
20
-153.755
11
66.3833
21
-153.66
0
LINE
8
BLACK
6
CONTINUOUS
10
66.3833
20
-153.66
11
66.2881
21
-153.564
0
LINE
8
BLACK
6
CONTINUOUS
10
66.2881
20
-153.564
11
66.1929
21
-153.374
0
LINE
8
BLACK
6
CONTINUOUS
10
66.1929
20
-153.374
11
66.0976
21
-152.993
0
LINE
8
BLACK
6
CONTINUOUS
10
66.0976
20
-152.993
11
66.0976
21
-152.517
0
LINE
8
BLACK
6
CONTINUOUS
10
66.0976
20
-152.517
11
66.1929
21
-152.136
0
LINE
8
BLACK
6
CONTINUOUS
10
66.1929
20
-152.136
11
66.2881
21
-151.945
0
LINE
8
BLACK
6
CONTINUOUS
10
66.2881
20
-151.945
11
66.3833
21
-151.85
0
LINE
8
BLACK
6
CONTINUOUS
10
66.3833
20
-151.85
11
66.5738
21
-151.755
0
LINE
8
BLACK
6
CONTINUOUS
10
68.0976
20
-153.755
11
68.0976
21
-152.421
0
LINE
8
BLACK
6
CONTINUOUS
10
68.0976
20
-152.612
11
68.1929
21
-152.517
0
LINE
8
BLACK
6
CONTINUOUS
10
68.1929
20
-152.517
11
68.3833
21
-152.421
0
LINE
8
BLACK
6
CONTINUOUS
10
68.3833
20
-152.421
11
68.669
21
-152.421
0
LINE
8
BLACK
6
CONTINUOUS
10
68.669
20
-152.421
11
68.8595
21
-152.517
0
LINE
8
BLACK
6
CONTINUOUS
10
68.8595
20
-152.517
11
68.9548
21
-152.707
0
LINE
8
BLACK
6
CONTINUOUS
10
68.9548
20
-152.707
11
68.9548
21
-153.755
0
LINE
8
BLACK
6
CONTINUOUS
10
68.9548
20
-152.707
11
69.05
21
-152.517
0
LINE
8
BLACK
6
CONTINUOUS
10
69.05
20
-152.517
11
69.2405
21
-152.421
0
LINE
8
BLACK
6
CONTINUOUS
10
69.2405
20
-152.421
11
69.5262
21
-152.421
0
LINE
8
BLACK
6
CONTINUOUS
10
69.5262
20
-152.421
11
69.7167
21
-152.517
0
LINE
8
BLACK
6
CONTINUOUS
10
69.7167
20
-152.517
11
69.8119
21
-152.707
0
LINE
8
BLACK
6
CONTINUOUS
10
69.8119
20
-152.707
11
69.8119
21
-153.755
0
LINE
8
BLACK
6
CONTINUOUS
10
70.7643
20
-153.755
11
70.7643
21
-152.421
0
LINE
8
BLACK
6
CONTINUOUS
10
70.7643
20
-152.612
11
70.8595
21
-152.517
0
LINE
8
BLACK
6
CONTINUOUS
10
70.8595
20
-152.517
11
71.05
21
-152.421
0
LINE
8
BLACK
6
CONTINUOUS
10
71.05
20
-152.421
11
71.3357
21
-152.421
0
LINE
8
BLACK
6
CONTINUOUS
10
71.3357
20
-152.421
11
71.5262
21
-152.517
0
LINE
8
BLACK
6
CONTINUOUS
10
71.5262
20
-152.517
11
71.6214
21
-152.707
0
LINE
8
BLACK
6
CONTINUOUS
10
71.6214
20
-152.707
11
71.6214
21
-153.755
0
LINE
8
BLACK
6
CONTINUOUS
10
71.6214
20
-152.707
11
71.7167
21
-152.517
0
LINE
8
BLACK
6
CONTINUOUS
10
71.7167
20
-152.517
11
71.9071
21
-152.421
0
LINE
8
BLACK
6
CONTINUOUS
10
71.9071
20
-152.421
11
72.1929
21
-152.421
0
LINE
8
BLACK
6
CONTINUOUS
10
72.1929
20
-152.421
11
72.3833
21
-152.517
0
LINE
8
BLACK
6
CONTINUOUS
10
72.3833
20
-152.517
11
72.4786
21
-152.707
0
LINE
8
BLACK
6
CONTINUOUS
10
72.4786
20
-152.707
11
72.4786
21
-153.755
0
LINE
8
BLACK
6
CONTINUOUS
10
76.3833
20
-151.66
11
74.669
21
-154.231
0
LINE
8
BLACK
6
CONTINUOUS
10
78.9548
20
-151.755
11
79.1452
21
-151.755
0
LINE
8
BLACK
6
CONTINUOUS
10
79.1452
20
-151.755
11
79.3357
21
-151.85
0
LINE
8
BLACK
6
CONTINUOUS
10
79.3357
20
-151.85
11
79.431
21
-151.945
0
LINE
8
BLACK
6
CONTINUOUS
10
79.431
20
-151.945
11
79.5262
21
-152.136
0
LINE
8
BLACK
6
CONTINUOUS
10
79.5262
20
-152.136
11
79.6214
21
-152.517
0
LINE
8
BLACK
6
CONTINUOUS
10
79.6214
20
-152.517
11
79.6214
21
-152.993
0
LINE
8
BLACK
6
CONTINUOUS
10
79.6214
20
-152.993
11
79.5262
21
-153.374
0
LINE
8
BLACK
6
CONTINUOUS
10
79.5262
20
-153.374
11
79.431
21
-153.564
0
LINE
8
BLACK
6
CONTINUOUS
10
79.431
20
-153.564
11
79.3357
21
-153.66
0
LINE
8
BLACK
6
CONTINUOUS
10
79.3357
20
-153.66
11
79.1452
21
-153.755
0
LINE
8
BLACK
6
CONTINUOUS
10
79.1452
20
-153.755
11
78.9548
21
-153.755
0
LINE
8
BLACK
6
CONTINUOUS
10
78.9548
20
-153.755
11
78.7643
21
-153.66
0
LINE
8
BLACK
6
CONTINUOUS
10
78.7643
20
-153.66
11
78.669
21
-153.564
0
LINE
8
BLACK
6
CONTINUOUS
10
78.669
20
-153.564
11
78.5738
21
-153.374
0
LINE
8
BLACK
6
CONTINUOUS
10
78.5738
20
-153.374
11
78.4786
21
-152.993
0
LINE
8
BLACK
6
CONTINUOUS
10
78.4786
20
-152.993
11
78.4786
21
-152.517
0
LINE
8
BLACK
6
CONTINUOUS
10
78.4786
20
-152.517
11
78.5738
21
-152.136
0
LINE
8
BLACK
6
CONTINUOUS
10
78.5738
20
-152.136
11
78.669
21
-151.945
0
LINE
8
BLACK
6
CONTINUOUS
10
78.669
20
-151.945
11
78.7643
21
-151.85
0
LINE
8
BLACK
6
CONTINUOUS
10
78.7643
20
-151.85
11
78.9548
21
-151.755
0
LINE
8
BLACK
6
CONTINUOUS
10
80.4786
20
-153.564
11
80.5738
21
-153.66
0
LINE
8
BLACK
6
CONTINUOUS
10
80.5738
20
-153.66
11
80.4786
21
-153.755
0
LINE
8
BLACK
6
CONTINUOUS
10
80.4786
20
-153.755
11
80.3833
21
-153.66
0
LINE
8
BLACK
6
CONTINUOUS
10
80.3833
20
-153.66
11
80.4786
21
-153.564
0
LINE
8
BLACK
6
CONTINUOUS
10
80.4786
20
-153.564
11
80.4786
21
-153.755
0
LINE
8
BLACK
6
CONTINUOUS
10
82.4786
20
-153.755
11
81.3357
21
-153.755
0
LINE
8
BLACK
6
CONTINUOUS
10
81.9071
20
-153.755
11
81.9071
21
-151.755
0
LINE
8
BLACK
6
CONTINUOUS
10
81.9071
20
-151.755
11
81.7167
21
-152.04
0
LINE
8
BLACK
6
CONTINUOUS
10
81.7167
20
-152.04
11
81.5262
21
-152.231
0
LINE
8
BLACK
6
CONTINUOUS
10
81.5262
20
-152.231
11
81.3357
21
-152.326
0
LINE
8
BLACK
6
CONTINUOUS
10
83.1452
20
-151.755
11
84.3833
21
-151.755
0
LINE
8
BLACK
6
CONTINUOUS
10
84.3833
20
-151.755
11
83.7167
21
-152.517
0
LINE
8
BLACK
6
CONTINUOUS
10
83.7167
20
-152.517
11
84.0024
21
-152.517
0
LINE
8
BLACK
6
CONTINUOUS
10
84.0024
20
-152.517
11
84.1929
21
-152.612
0
LINE
8
BLACK
6
CONTINUOUS
10
84.1929
20
-152.612
11
84.2881
21
-152.707
0
LINE
8
BLACK
6
CONTINUOUS
10
84.2881
20
-152.707
11
84.3833
21
-152.898
0
LINE
8
BLACK
6
CONTINUOUS
10
84.3833
20
-152.898
11
84.3833
21
-153.374
0
LINE
8
BLACK
6
CONTINUOUS
10
84.3833
20
-153.374
11
84.2881
21
-153.564
0
LINE
8
BLACK
6
CONTINUOUS
10
84.2881
20
-153.564
11
84.1929
21
-153.66
0
LINE
8
BLACK
6
CONTINUOUS
10
84.1929
20
-153.66
11
84.0024
21
-153.755
0
LINE
8
BLACK
6
CONTINUOUS
10
84.0024
20
-153.755
11
83.431
21
-153.755
0
LINE
8
BLACK
6
CONTINUOUS
10
83.431
20
-153.755
11
83.2405
21
-153.66
0
LINE
8
BLACK
6
CONTINUOUS
10
83.2405
20
-153.66
11
83.1452
21
-153.564
0
LINE
8
BLACK
6
CONTINUOUS
10
85.05
20
-151.755
11
86.3833
21
-151.755
0
LINE
8
BLACK
6
CONTINUOUS
10
86.3833
20
-151.755
11
85.5262
21
-153.755
0
LINE
8
BLACK
6
CONTINUOUS
10
87.431
20
-152.612
11
87.2405
21
-152.517
0
LINE
8
BLACK
6
CONTINUOUS
10
87.2405
20
-152.517
11
87.1452
21
-152.421
0
LINE
8
BLACK
6
CONTINUOUS
10
87.1452
20
-152.421
11
87.05
21
-152.231
0
LINE
8
BLACK
6
CONTINUOUS
10
87.05
20
-152.231
11
87.05
21
-152.136
0
LINE
8
BLACK
6
CONTINUOUS
10
87.05
20
-152.136
11
87.1452
21
-151.945
0
LINE
8
BLACK
6
CONTINUOUS
10
87.1452
20
-151.945
11
87.2405
21
-151.85
0
LINE
8
BLACK
6
CONTINUOUS
10
87.2405
20
-151.85
11
87.431
21
-151.755
0
LINE
8
BLACK
6
CONTINUOUS
10
87.431
20
-151.755
11
87.8119
21
-151.755
0
LINE
8
BLACK
6
CONTINUOUS
10
87.8119
20
-151.755
11
88.0024
21
-151.85
0
LINE
8
BLACK
6
CONTINUOUS
10
88.0024
20
-151.85
11
88.0976
21
-151.945
0
LINE
8
BLACK
6
CONTINUOUS
10
88.0976
20
-151.945
11
88.1929
21
-152.136
0
LINE
8
BLACK
6
CONTINUOUS
10
88.1929
20
-152.136
11
88.1929
21
-152.231
0
LINE
8
BLACK
6
CONTINUOUS
10
88.1929
20
-152.231
11
88.0976
21
-152.421
0
LINE
8
BLACK
6
CONTINUOUS
10
88.0976
20
-152.421
11
88.0024
21
-152.517
0
LINE
8
BLACK
6
CONTINUOUS
10
88.0024
20
-152.517
11
87.8119
21
-152.612
0
LINE
8
BLACK
6
CONTINUOUS
10
87.8119
20
-152.612
11
87.431
21
-152.612
0
LINE
8
BLACK
6
CONTINUOUS
10
87.431
20
-152.612
11
87.2405
21
-152.707
0
LINE
8
BLACK
6
CONTINUOUS
10
87.2405
20
-152.707
11
87.1452
21
-152.802
0
LINE
8
BLACK
6
CONTINUOUS
10
87.1452
20
-152.802
11
87.05
21
-152.993
0
LINE
8
BLACK
6
CONTINUOUS
10
87.05
20
-152.993
11
87.05
21
-153.374
0
LINE
8
BLACK
6
CONTINUOUS
10
87.05
20
-153.374
11
87.1452
21
-153.564
0
LINE
8
BLACK
6
CONTINUOUS
10
87.1452
20
-153.564
11
87.2405
21
-153.66
0
LINE
8
BLACK
6
CONTINUOUS
10
87.2405
20
-153.66
11
87.431
21
-153.755
0
LINE
8
BLACK
6
CONTINUOUS
10
87.431
20
-153.755
11
87.8119
21
-153.755
0
LINE
8
BLACK
6
CONTINUOUS
10
87.8119
20
-153.755
11
88.0024
21
-153.66
0
LINE
8
BLACK
6
CONTINUOUS
10
88.0024
20
-153.66
11
88.0976
21
-153.564
0
LINE
8
BLACK
6
CONTINUOUS
10
88.0976
20
-153.564
11
88.1929
21
-153.374
0
LINE
8
BLACK
6
CONTINUOUS
10
88.1929
20
-153.374
11
88.1929
21
-152.993
0
LINE
8
BLACK
6
CONTINUOUS
10
88.1929
20
-152.993
11
88.0976
21
-152.802
0
LINE
8
BLACK
6
CONTINUOUS
10
88.0976
20
-152.802
11
88.0024
21
-152.707
0
LINE
8
BLACK
6
CONTINUOUS
10
88.0024
20
-152.707
11
87.8119
21
-152.612
0
LINE
8
BLACK
6
CONTINUOUS
10
88.9548
20
-151.755
11
88.9548
21
-152.136
0
LINE
8
BLACK
6
CONTINUOUS
10
89.7167
20
-151.755
11
89.7167
21
-152.136
0
LINE
8
BLACK
6
CONTINUOUS
10
92.669
20
-154.517
11
92.5738
21
-154.421
0
LINE
8
BLACK
6
CONTINUOUS
10
92.5738
20
-154.421
11
92.3833
21
-154.136
0
LINE
8
BLACK
6
CONTINUOUS
10
92.3833
20
-154.136
11
92.2881
21
-153.945
0
LINE
8
BLACK
6
CONTINUOUS
10
92.2881
20
-153.945
11
92.1929
21
-153.66
0
LINE
8
BLACK
6
CONTINUOUS
10
92.1929
20
-153.66
11
92.0976
21
-153.183
0
LINE
8
BLACK
6
CONTINUOUS
10
92.0976
20
-153.183
11
92.0976
21
-152.802
0
LINE
8
BLACK
6
CONTINUOUS
10
92.0976
20
-152.802
11
92.1929
21
-152.326
0
LINE
8
BLACK
6
CONTINUOUS
10
92.1929
20
-152.326
11
92.2881
21
-152.04
0
LINE
8
BLACK
6
CONTINUOUS
10
92.2881
20
-152.04
11
92.3833
21
-151.85
0
LINE
8
BLACK
6
CONTINUOUS
10
92.3833
20
-151.85
11
92.5738
21
-151.564
0
LINE
8
BLACK
6
CONTINUOUS
10
92.5738
20
-151.564
11
92.669
21
-151.469
0
LINE
8
BLACK
6
CONTINUOUS
10
94.4786
20
-153.755
11
93.3357
21
-153.755
0
LINE
8
BLACK
6
CONTINUOUS
10
93.9071
20
-153.755
11
93.9071
21
-151.755
0
LINE
8
BLACK
6
CONTINUOUS
10
93.9071
20
-151.755
11
93.7167
21
-152.04
0
LINE
8
BLACK
6
CONTINUOUS
10
93.7167
20
-152.04
11
93.5262
21
-152.231
0
LINE
8
BLACK
6
CONTINUOUS
10
93.5262
20
-152.231
11
93.3357
21
-152.326
0
LINE
8
BLACK
6
CONTINUOUS
10
96.8595
20
-153.755
11
96.8595
21
-151.755
0
LINE
8
BLACK
6
CONTINUOUS
10
97.7167
20
-153.755
11
97.7167
21
-152.707
0
LINE
8
BLACK
6
CONTINUOUS
10
97.7167
20
-152.707
11
97.6214
21
-152.517
0
LINE
8
BLACK
6
CONTINUOUS
10
97.6214
20
-152.517
11
97.431
21
-152.421
0
LINE
8
BLACK
6
CONTINUOUS
10
97.431
20
-152.421
11
97.1452
21
-152.421
0
LINE
8
BLACK
6
CONTINUOUS
10
97.1452
20
-152.421
11
96.9548
21
-152.517
0
LINE
8
BLACK
6
CONTINUOUS
10
96.9548
20
-152.517
11
96.8595
21
-152.612
0
LINE
8
BLACK
6
CONTINUOUS
10
98.9548
20
-153.755
11
98.7643
21
-153.66
0
LINE
8
BLACK
6
CONTINUOUS
10
98.7643
20
-153.66
11
98.669
21
-153.564
0
LINE
8
BLACK
6
CONTINUOUS
10
98.669
20
-153.564
11
98.5738
21
-153.374
0
LINE
8
BLACK
6
CONTINUOUS
10
98.5738
20
-153.374
11
98.5738
21
-152.802
0
LINE
8
BLACK
6
CONTINUOUS
10
98.5738
20
-152.802
11
98.669
21
-152.612
0
LINE
8
BLACK
6
CONTINUOUS
10
98.669
20
-152.612
11
98.7643
21
-152.517
0
LINE
8
BLACK
6
CONTINUOUS
10
98.7643
20
-152.517
11
98.9548
21
-152.421
0
LINE
8
BLACK
6
CONTINUOUS
10
98.9548
20
-152.421
11
99.2405
21
-152.421
0
LINE
8
BLACK
6
CONTINUOUS
10
99.2405
20
-152.421
11
99.431
21
-152.517
0
LINE
8
BLACK
6
CONTINUOUS
10
99.431
20
-152.517
11
99.5262
21
-152.612
0
LINE
8
BLACK
6
CONTINUOUS
10
99.5262
20
-152.612
11
99.6214
21
-152.802
0
LINE
8
BLACK
6
CONTINUOUS
10
99.6214
20
-152.802
11
99.6214
21
-153.374
0
LINE
8
BLACK
6
CONTINUOUS
10
99.6214
20
-153.374
11
99.5262
21
-153.564
0
LINE
8
BLACK
6
CONTINUOUS
10
99.5262
20
-153.564
11
99.431
21
-153.66
0
LINE
8
BLACK
6
CONTINUOUS
10
99.431
20
-153.66
11
99.2405
21
-153.755
0
LINE
8
BLACK
6
CONTINUOUS
10
99.2405
20
-153.755
11
98.9548
21
-153.755
0
LINE
8
BLACK
6
CONTINUOUS
10
100.764
20
-153.755
11
100.574
21
-153.66
0
LINE
8
BLACK
6
CONTINUOUS
10
100.574
20
-153.66
11
100.479
21
-153.469
0
LINE
8
BLACK
6
CONTINUOUS
10
100.479
20
-153.469
11
100.479
21
-151.755
0
LINE
8
BLACK
6
CONTINUOUS
10
102.288
20
-153.66
11
102.098
21
-153.755
0
LINE
8
BLACK
6
CONTINUOUS
10
102.098
20
-153.755
11
101.717
21
-153.755
0
LINE
8
BLACK
6
CONTINUOUS
10
101.717
20
-153.755
11
101.526
21
-153.66
0
LINE
8
BLACK
6
CONTINUOUS
10
101.526
20
-153.66
11
101.431
21
-153.469
0
LINE
8
BLACK
6
CONTINUOUS
10
101.431
20
-153.469
11
101.431
21
-152.707
0
LINE
8
BLACK
6
CONTINUOUS
10
101.431
20
-152.707
11
101.526
21
-152.517
0
LINE
8
BLACK
6
CONTINUOUS
10
101.526
20
-152.517
11
101.717
21
-152.421
0
LINE
8
BLACK
6
CONTINUOUS
10
101.717
20
-152.421
11
102.098
21
-152.421
0
LINE
8
BLACK
6
CONTINUOUS
10
102.098
20
-152.421
11
102.288
21
-152.517
0
LINE
8
BLACK
6
CONTINUOUS
10
102.288
20
-152.517
11
102.383
21
-152.707
0
LINE
8
BLACK
6
CONTINUOUS
10
102.383
20
-152.707
11
102.383
21
-152.898
0
LINE
8
BLACK
6
CONTINUOUS
10
102.383
20
-152.898
11
101.431
21
-153.088
0
LINE
8
BLACK
6
CONTINUOUS
10
103.05
20
-154.517
11
103.145
21
-154.421
0
LINE
8
BLACK
6
CONTINUOUS
10
103.145
20
-154.421
11
103.336
21
-154.136
0
LINE
8
BLACK
6
CONTINUOUS
10
103.336
20
-154.136
11
103.431
21
-153.945
0
LINE
8
BLACK
6
CONTINUOUS
10
103.431
20
-153.945
11
103.526
21
-153.66
0
LINE
8
BLACK
6
CONTINUOUS
10
103.526
20
-153.66
11
103.621
21
-153.183
0
LINE
8
BLACK
6
CONTINUOUS
10
103.621
20
-153.183
11
103.621
21
-152.802
0
LINE
8
BLACK
6
CONTINUOUS
10
103.621
20
-152.802
11
103.526
21
-152.326
0
LINE
8
BLACK
6
CONTINUOUS
10
103.526
20
-152.326
11
103.431
21
-152.04
0
LINE
8
BLACK
6
CONTINUOUS
10
103.431
20
-152.04
11
103.336
21
-151.85
0
LINE
8
BLACK
6
CONTINUOUS
10
103.336
20
-151.85
11
103.145
21
-151.564
0
LINE
8
BLACK
6
CONTINUOUS
10
103.145
20
-151.564
11
103.05
21
-151.469
0
LINE
8
BLACK
6
CONTINUOUS
10
106.669
20
-154.517
11
106.574
21
-154.421
0
LINE
8
BLACK
6
CONTINUOUS
10
106.574
20
-154.421
11
106.383
21
-154.136
0
LINE
8
BLACK
6
CONTINUOUS
10
106.383
20
-154.136
11
106.288
21
-153.945
0
LINE
8
BLACK
6
CONTINUOUS
10
106.288
20
-153.945
11
106.193
21
-153.66
0
LINE
8
BLACK
6
CONTINUOUS
10
106.193
20
-153.66
11
106.098
21
-153.183
0
LINE
8
BLACK
6
CONTINUOUS
10
106.098
20
-153.183
11
106.098
21
-152.802
0
LINE
8
BLACK
6
CONTINUOUS
10
106.098
20
-152.802
11
106.193
21
-152.326
0
LINE
8
BLACK
6
CONTINUOUS
10
106.193
20
-152.326
11
106.288
21
-152.04
0
LINE
8
BLACK
6
CONTINUOUS
10
106.288
20
-152.04
11
106.383
21
-151.85
0
LINE
8
BLACK
6
CONTINUOUS
10
106.383
20
-151.85
11
106.574
21
-151.564
0
LINE
8
BLACK
6
CONTINUOUS
10
106.574
20
-151.564
11
106.669
21
-151.469
0
LINE
8
BLACK
6
CONTINUOUS
10
107.431
20
-152.421
11
107.431
21
-153.755
0
LINE
8
BLACK
6
CONTINUOUS
10
107.431
20
-152.612
11
107.526
21
-152.517
0
LINE
8
BLACK
6
CONTINUOUS
10
107.526
20
-152.517
11
107.717
21
-152.421
0
LINE
8
BLACK
6
CONTINUOUS
10
107.717
20
-152.421
11
108.002
21
-152.421
0
LINE
8
BLACK
6
CONTINUOUS
10
108.002
20
-152.421
11
108.193
21
-152.517
0
LINE
8
BLACK
6
CONTINUOUS
10
108.193
20
-152.517
11
108.288
21
-152.707
0
LINE
8
BLACK
6
CONTINUOUS
10
108.288
20
-152.707
11
108.288
21
-153.755
0
LINE
8
BLACK
6
CONTINUOUS
10
109.526
20
-153.755
11
109.336
21
-153.66
0
LINE
8
BLACK
6
CONTINUOUS
10
109.336
20
-153.66
11
109.24
21
-153.564
0
LINE
8
BLACK
6
CONTINUOUS
10
109.24
20
-153.564
11
109.145
21
-153.374
0
LINE
8
BLACK
6
CONTINUOUS
10
109.145
20
-153.374
11
109.145
21
-152.802
0
LINE
8
BLACK
6
CONTINUOUS
10
109.145
20
-152.802
11
109.24
21
-152.612
0
LINE
8
BLACK
6
CONTINUOUS
10
109.24
20
-152.612
11
109.336
21
-152.517
0
LINE
8
BLACK
6
CONTINUOUS
10
109.336
20
-152.517
11
109.526
21
-152.421
0
LINE
8
BLACK
6
CONTINUOUS
10
109.526
20
-152.421
11
109.812
21
-152.421
0
LINE
8
BLACK
6
CONTINUOUS
10
109.812
20
-152.421
11
110.002
21
-152.517
0
LINE
8
BLACK
6
CONTINUOUS
10
110.002
20
-152.517
11
110.098
21
-152.612
0
LINE
8
BLACK
6
CONTINUOUS
10
110.098
20
-152.612
11
110.193
21
-152.802
0
LINE
8
BLACK
6
CONTINUOUS
10
110.193
20
-152.802
11
110.193
21
-153.374
0
LINE
8
BLACK
6
CONTINUOUS
10
110.193
20
-153.374
11
110.098
21
-153.564
0
LINE
8
BLACK
6
CONTINUOUS
10
110.098
20
-153.564
11
110.002
21
-153.66
0
LINE
8
BLACK
6
CONTINUOUS
10
110.002
20
-153.66
11
109.812
21
-153.755
0
LINE
8
BLACK
6
CONTINUOUS
10
109.812
20
-153.755
11
109.526
21
-153.755
0
LINE
8
BLACK
6
CONTINUOUS
10
110.764
20
-152.421
11
111.526
21
-152.421
0
LINE
8
BLACK
6
CONTINUOUS
10
111.05
20
-151.755
11
111.05
21
-153.469
0
LINE
8
BLACK
6
CONTINUOUS
10
111.05
20
-153.469
11
111.145
21
-153.66
0
LINE
8
BLACK
6
CONTINUOUS
10
111.145
20
-153.66
11
111.336
21
-153.755
0
LINE
8
BLACK
6
CONTINUOUS
10
111.336
20
-153.755
11
111.526
21
-153.755
0
LINE
8
BLACK
6
CONTINUOUS
10
113.717
20
-152.421
11
113.717
21
-154.421
0
LINE
8
BLACK
6
CONTINUOUS
10
113.717
20
-152.517
11
113.907
21
-152.421
0
LINE
8
BLACK
6
CONTINUOUS
10
113.907
20
-152.421
11
114.288
21
-152.421
0
LINE
8
BLACK
6
CONTINUOUS
10
114.288
20
-152.421
11
114.479
21
-152.517
0
LINE
8
BLACK
6
CONTINUOUS
10
114.479
20
-152.517
11
114.574
21
-152.612
0
LINE
8
BLACK
6
CONTINUOUS
10
114.574
20
-152.612
11
114.669
21
-152.802
0
LINE
8
BLACK
6
CONTINUOUS
10
114.669
20
-152.802
11
114.669
21
-153.374
0
LINE
8
BLACK
6
CONTINUOUS
10
114.669
20
-153.374
11
114.574
21
-153.564
0
LINE
8
BLACK
6
CONTINUOUS
10
114.574
20
-153.564
11
114.479
21
-153.66
0
LINE
8
BLACK
6
CONTINUOUS
10
114.479
20
-153.66
11
114.288
21
-153.755
0
LINE
8
BLACK
6
CONTINUOUS
10
114.288
20
-153.755
11
113.907
21
-153.755
0
LINE
8
BLACK
6
CONTINUOUS
10
113.907
20
-153.755
11
113.717
21
-153.66
0
LINE
8
BLACK
6
CONTINUOUS
10
115.812
20
-153.755
11
115.621
21
-153.66
0
LINE
8
BLACK
6
CONTINUOUS
10
115.621
20
-153.66
11
115.526
21
-153.469
0
LINE
8
BLACK
6
CONTINUOUS
10
115.526
20
-153.469
11
115.526
21
-151.755
0
LINE
8
BLACK
6
CONTINUOUS
10
117.431
20
-153.755
11
117.431
21
-152.707
0
LINE
8
BLACK
6
CONTINUOUS
10
117.431
20
-152.707
11
117.336
21
-152.517
0
LINE
8
BLACK
6
CONTINUOUS
10
117.336
20
-152.517
11
117.145
21
-152.421
0
LINE
8
BLACK
6
CONTINUOUS
10
117.145
20
-152.421
11
116.764
21
-152.421
0
LINE
8
BLACK
6
CONTINUOUS
10
116.764
20
-152.421
11
116.574
21
-152.517
0
LINE
8
BLACK
6
CONTINUOUS
10
117.431
20
-153.66
11
117.24
21
-153.755
0
LINE
8
BLACK
6
CONTINUOUS
10
117.24
20
-153.755
11
116.764
21
-153.755
0
LINE
8
BLACK
6
CONTINUOUS
10
116.764
20
-153.755
11
116.574
21
-153.66
0
LINE
8
BLACK
6
CONTINUOUS
10
116.574
20
-153.66
11
116.479
21
-153.469
0
LINE
8
BLACK
6
CONTINUOUS
10
116.479
20
-153.469
11
116.479
21
-153.279
0
LINE
8
BLACK
6
CONTINUOUS
10
116.479
20
-153.279
11
116.574
21
-153.088
0
LINE
8
BLACK
6
CONTINUOUS
10
116.574
20
-153.088
11
116.764
21
-152.993
0
LINE
8
BLACK
6
CONTINUOUS
10
116.764
20
-152.993
11
117.24
21
-152.993
0
LINE
8
BLACK
6
CONTINUOUS
10
117.24
20
-152.993
11
117.431
21
-152.898
0
LINE
8
BLACK
6
CONTINUOUS
10
118.098
20
-152.421
11
118.86
21
-152.421
0
LINE
8
BLACK
6
CONTINUOUS
10
118.383
20
-151.755
11
118.383
21
-153.469
0
LINE
8
BLACK
6
CONTINUOUS
10
118.383
20
-153.469
11
118.479
21
-153.66
0
LINE
8
BLACK
6
CONTINUOUS
10
118.479
20
-153.66
11
118.669
21
-153.755
0
LINE
8
BLACK
6
CONTINUOUS
10
118.669
20
-153.755
11
118.86
21
-153.755
0
LINE
8
BLACK
6
CONTINUOUS
10
120.288
20
-153.66
11
120.098
21
-153.755
0
LINE
8
BLACK
6
CONTINUOUS
10
120.098
20
-153.755
11
119.717
21
-153.755
0
LINE
8
BLACK
6
CONTINUOUS
10
119.717
20
-153.755
11
119.526
21
-153.66
0
LINE
8
BLACK
6
CONTINUOUS
10
119.526
20
-153.66
11
119.431
21
-153.469
0
LINE
8
BLACK
6
CONTINUOUS
10
119.431
20
-153.469
11
119.431
21
-152.707
0
LINE
8
BLACK
6
CONTINUOUS
10
119.431
20
-152.707
11
119.526
21
-152.517
0
LINE
8
BLACK
6
CONTINUOUS
10
119.526
20
-152.517
11
119.717
21
-152.421
0
LINE
8
BLACK
6
CONTINUOUS
10
119.717
20
-152.421
11
120.098
21
-152.421
0
LINE
8
BLACK
6
CONTINUOUS
10
120.098
20
-152.421
11
120.288
21
-152.517
0
LINE
8
BLACK
6
CONTINUOUS
10
120.288
20
-152.517
11
120.383
21
-152.707
0
LINE
8
BLACK
6
CONTINUOUS
10
120.383
20
-152.707
11
120.383
21
-152.898
0
LINE
8
BLACK
6
CONTINUOUS
10
120.383
20
-152.898
11
119.431
21
-153.088
0
LINE
8
BLACK
6
CONTINUOUS
10
122.098
20
-153.755
11
122.098
21
-151.755
0
LINE
8
BLACK
6
CONTINUOUS
10
122.098
20
-153.66
11
121.907
21
-153.755
0
LINE
8
BLACK
6
CONTINUOUS
10
121.907
20
-153.755
11
121.526
21
-153.755
0
LINE
8
BLACK
6
CONTINUOUS
10
121.526
20
-153.755
11
121.336
21
-153.66
0
LINE
8
BLACK
6
CONTINUOUS
10
121.336
20
-153.66
11
121.24
21
-153.564
0
LINE
8
BLACK
6
CONTINUOUS
10
121.24
20
-153.564
11
121.145
21
-153.374
0
LINE
8
BLACK
6
CONTINUOUS
10
121.145
20
-153.374
11
121.145
21
-152.802
0
LINE
8
BLACK
6
CONTINUOUS
10
121.145
20
-152.802
11
121.24
21
-152.612
0
LINE
8
BLACK
6
CONTINUOUS
10
121.24
20
-152.612
11
121.336
21
-152.517
0
LINE
8
BLACK
6
CONTINUOUS
10
121.336
20
-152.517
11
121.526
21
-152.421
0
LINE
8
BLACK
6
CONTINUOUS
10
121.526
20
-152.421
11
121.907
21
-152.421
0
LINE
8
BLACK
6
CONTINUOUS
10
121.907
20
-152.421
11
122.098
21
-152.517
0
LINE
8
BLACK
6
CONTINUOUS
10
122.86
20
-154.517
11
122.955
21
-154.421
0
LINE
8
BLACK
6
CONTINUOUS
10
122.955
20
-154.421
11
123.145
21
-154.136
0
LINE
8
BLACK
6
CONTINUOUS
10
123.145
20
-154.136
11
123.24
21
-153.945
0
LINE
8
BLACK
6
CONTINUOUS
10
123.24
20
-153.945
11
123.336
21
-153.66
0
LINE
8
BLACK
6
CONTINUOUS
10
123.336
20
-153.66
11
123.431
21
-153.183
0
LINE
8
BLACK
6
CONTINUOUS
10
123.431
20
-153.183
11
123.431
21
-152.802
0
LINE
8
BLACK
6
CONTINUOUS
10
123.431
20
-152.802
11
123.336
21
-152.326
0
LINE
8
BLACK
6
CONTINUOUS
10
123.336
20
-152.326
11
123.24
21
-152.04
0
LINE
8
BLACK
6
CONTINUOUS
10
123.24
20
-152.04
11
123.145
21
-151.85
0
LINE
8
BLACK
6
CONTINUOUS
10
123.145
20
-151.85
11
122.955
21
-151.564
0
LINE
8
BLACK
6
CONTINUOUS
10
122.955
20
-151.564
11
122.86
21
-151.469
  0
ENDSEC
  0
EOF
