  0
SECTION
  2
HEADER
  9
$ANGBASE
  50
0.0
  9
$ANGDIR
  70
1
  9
$MEASUREMENT
  70
1
  0
ENDSEC
  0
SECTION
  2
TABLES
  0
TABLE
  2
LTYPE
  70
4
  0
LTYPE
  5
40F
  2
CONTINUOUS
  70
0
  3
Solid line
  72
65
  73
0
  40
0.0
  0
LTYPE
  5
410
  2
DASHDOT
 70
0
  3
Dash Dot ____ _ ____ _
 72
65
 73
4
 40
2.0
 49
1.25
 49
-0.25
 49
0.25
 49
-0.25
  0
LTYPE
  5
411
  2
DASHED
 70
0
  3
Dashed __ __ __ __ __
 72
65
 73
2
 40
0.75
 49
0.5
 49
-0.25
  0
LTYPE
  5
43B
  2
DOTTED
 70
0
  3
Dotted .  .  .  .
 72
65
 73
2
 40
0.2
 49
0.0
 49
-0.2
  0
ENDTAB
  0
TABLE
  2
STYLE
  70
4
  0
STYLE
  2
KICAD
  70
0
  40
0
  41
1
  42
1
  50
0
  71
0
  3
isocp.shx
  0
STYLE
  2
KICADB
  70
0
  40
0
  41
1
  42
1
  50
0
  71
0
  3
isocp.shx
  0
STYLE
  2
KICADI
  70
0
  40
0
  41
1
  42
1
  50
15
  71
0
  3
isocp.shx
  0
STYLE
  2
KICADBI
  70
0
  40
0
  41
1
  42
1
  50
15
  71
0
  3
isocp.shx
  0
ENDTAB
  0
TABLE
  2
LAYER
  70
1
  0
LAYER
  2
BLACK
  70
0
  62
7
  6
CONTINUOUS
  0
ENDTAB
  0
ENDSEC
  0
SECTION
  2
ENTITIES
0
ARC
8
BLACK
10
208
20
-97.5
40
46.5
50
90
51
180
0
LINE
8
BLACK
6
CONTINUOUS
10
240
20
-20
11
240
21
-51
0
LINE
8
BLACK
6
CONTINUOUS
10
240
20
-51
11
208
21
-51
0
LINE
8
BLACK
6
CONTINUOUS
10
22
20
-111.5
11
91
21
-111.5
0
LINE
8
BLACK
6
CONTINUOUS
10
161.5
20
-144
11
161.5
21
-97.5
0
LINE
8
BLACK
6
CONTINUOUS
10
91
20
-144
11
161.5
21
-144
0
LINE
8
BLACK
6
CONTINUOUS
10
91
20
-111.5
11
91
21
-144
0
LINE
8
BLACK
6
CONTINUOUS
10
22
20
-20
11
22
21
-111.5
0
LINE
8
BLACK
6
CONTINUOUS
10
22
20
-20
11
240
21
-20
0
LINE
8
BLACK
6
CONTINUOUS
10
38.4
20
-24.4
11
40.6
21
-26.6
0
LINE
8
BLACK
6
CONTINUOUS
10
40.6
20
-24.4
11
38.4
21
-26.6
0
LINE
8
BLACK
6
CONTINUOUS
10
99.4
20
-24.4
11
101.6
21
-26.6
0
LINE
8
BLACK
6
CONTINUOUS
10
101.6
20
-24.4
11
99.4
21
-26.6
0
LINE
8
BLACK
6
CONTINUOUS
10
201.4
20
-24.4
11
203.6
21
-26.6
0
LINE
8
BLACK
6
CONTINUOUS
10
203.6
20
-24.4
11
201.4
21
-26.6
0
CIRCLE
8
BLACK
10
83.1
20
-102.7
40
1.25
0
CIRCLE
8
BLACK
10
93.6
20
-102.7
40
1.25
0
LINE
8
BLACK
6
CONTINUOUS
10
151.892
20
-63.084
11
151.892
21
-66.584
0
LINE
8
BLACK
6
CONTINUOUS
10
150.142
20
-64.834
11
153.642
21
-64.834
0
LINE
8
BLACK
6
CONTINUOUS
10
24.5262
20
-147.155
11
24.5262
21
-145.155
0
LINE
8
BLACK
6
CONTINUOUS
10
24.5262
20
-145.155
11
25.0024
21
-145.155
0
LINE
8
BLACK
6
CONTINUOUS
10
25.0024
20
-145.155
11
25.2881
21
-145.25
0
LINE
8
BLACK
6
CONTINUOUS
10
25.2881
20
-145.25
11
25.4786
21
-145.44
0
LINE
8
BLACK
6
CONTINUOUS
10
25.4786
20
-145.44
11
25.5738
21
-145.631
0
LINE
8
BLACK
6
CONTINUOUS
10
25.5738
20
-145.631
11
25.669
21
-146.012
0
LINE
8
BLACK
6
CONTINUOUS
10
25.669
20
-146.012
11
25.669
21
-146.298
0
LINE
8
BLACK
6
CONTINUOUS
10
25.669
20
-146.298
11
25.5738
21
-146.679
0
LINE
8
BLACK
6
CONTINUOUS
10
25.5738
20
-146.679
11
25.4786
21
-146.869
0
LINE
8
BLACK
6
CONTINUOUS
10
25.4786
20
-146.869
11
25.2881
21
-147.06
0
LINE
8
BLACK
6
CONTINUOUS
10
25.2881
20
-147.06
11
25.0024
21
-147.155
0
LINE
8
BLACK
6
CONTINUOUS
10
25.0024
20
-147.155
11
24.5262
21
-147.155
0
LINE
8
BLACK
6
CONTINUOUS
10
26.5262
20
-147.155
11
26.5262
21
-145.821
0
LINE
8
BLACK
6
CONTINUOUS
10
26.5262
20
-146.202
11
26.6214
21
-146.012
0
LINE
8
BLACK
6
CONTINUOUS
10
26.6214
20
-146.012
11
26.7167
21
-145.917
0
LINE
8
BLACK
6
CONTINUOUS
10
26.7167
20
-145.917
11
26.9071
21
-145.821
0
LINE
8
BLACK
6
CONTINUOUS
10
26.9071
20
-145.821
11
27.0976
21
-145.821
0
LINE
8
BLACK
6
CONTINUOUS
10
27.7643
20
-147.155
11
27.7643
21
-145.821
0
LINE
8
BLACK
6
CONTINUOUS
10
27.7643
20
-145.155
11
27.669
21
-145.25
0
LINE
8
BLACK
6
CONTINUOUS
10
27.669
20
-145.25
11
27.7643
21
-145.345
0
LINE
8
BLACK
6
CONTINUOUS
10
27.7643
20
-145.345
11
27.8595
21
-145.25
0
LINE
8
BLACK
6
CONTINUOUS
10
27.8595
20
-145.25
11
27.7643
21
-145.155
0
LINE
8
BLACK
6
CONTINUOUS
10
27.7643
20
-145.155
11
27.7643
21
-145.345
0
LINE
8
BLACK
6
CONTINUOUS
10
29.0024
20
-147.155
11
28.8119
21
-147.06
0
LINE
8
BLACK
6
CONTINUOUS
10
28.8119
20
-147.06
11
28.7167
21
-146.869
0
LINE
8
BLACK
6
CONTINUOUS
10
28.7167
20
-146.869
11
28.7167
21
-145.155
0
LINE
8
BLACK
6
CONTINUOUS
10
30.05
20
-147.155
11
29.8595
21
-147.06
0
LINE
8
BLACK
6
CONTINUOUS
10
29.8595
20
-147.06
11
29.7643
21
-146.869
0
LINE
8
BLACK
6
CONTINUOUS
10
29.7643
20
-146.869
11
29.7643
21
-145.155
0
LINE
8
BLACK
6
CONTINUOUS
10
32.3357
20
-147.155
11
32.3357
21
-145.155
0
LINE
8
BLACK
6
CONTINUOUS
10
32.3357
20
-145.155
11
33.0024
21
-146.583
0
LINE
8
BLACK
6
CONTINUOUS
10
33.0024
20
-146.583
11
33.669
21
-145.155
0
LINE
8
BLACK
6
CONTINUOUS
10
33.669
20
-145.155
11
33.669
21
-147.155
0
LINE
8
BLACK
6
CONTINUOUS
10
35.4786
20
-147.155
11
35.4786
21
-146.107
0
LINE
8
BLACK
6
CONTINUOUS
10
35.4786
20
-146.107
11
35.3833
21
-145.917
0
LINE
8
BLACK
6
CONTINUOUS
10
35.3833
20
-145.917
11
35.1929
21
-145.821
0
LINE
8
BLACK
6
CONTINUOUS
10
35.1929
20
-145.821
11
34.8119
21
-145.821
0
LINE
8
BLACK
6
CONTINUOUS
10
34.8119
20
-145.821
11
34.6214
21
-145.917
0
LINE
8
BLACK
6
CONTINUOUS
10
35.4786
20
-147.06
11
35.2881
21
-147.155
0
LINE
8
BLACK
6
CONTINUOUS
10
35.2881
20
-147.155
11
34.8119
21
-147.155
0
LINE
8
BLACK
6
CONTINUOUS
10
34.8119
20
-147.155
11
34.6214
21
-147.06
0
LINE
8
BLACK
6
CONTINUOUS
10
34.6214
20
-147.06
11
34.5262
21
-146.869
0
LINE
8
BLACK
6
CONTINUOUS
10
34.5262
20
-146.869
11
34.5262
21
-146.679
0
LINE
8
BLACK
6
CONTINUOUS
10
34.5262
20
-146.679
11
34.6214
21
-146.488
0
LINE
8
BLACK
6
CONTINUOUS
10
34.6214
20
-146.488
11
34.8119
21
-146.393
0
LINE
8
BLACK
6
CONTINUOUS
10
34.8119
20
-146.393
11
35.2881
21
-146.393
0
LINE
8
BLACK
6
CONTINUOUS
10
35.2881
20
-146.393
11
35.4786
21
-146.298
0
LINE
8
BLACK
6
CONTINUOUS
10
36.431
20
-145.821
11
36.431
21
-147.821
0
LINE
8
BLACK
6
CONTINUOUS
10
36.431
20
-145.917
11
36.6214
21
-145.821
0
LINE
8
BLACK
6
CONTINUOUS
10
36.6214
20
-145.821
11
37.0024
21
-145.821
0
LINE
8
BLACK
6
CONTINUOUS
10
37.0024
20
-145.821
11
37.1929
21
-145.917
0
LINE
8
BLACK
6
CONTINUOUS
10
37.1929
20
-145.917
11
37.2881
21
-146.012
0
LINE
8
BLACK
6
CONTINUOUS
10
37.2881
20
-146.012
11
37.3833
21
-146.202
0
LINE
8
BLACK
6
CONTINUOUS
10
37.3833
20
-146.202
11
37.3833
21
-146.774
0
LINE
8
BLACK
6
CONTINUOUS
10
37.3833
20
-146.774
11
37.2881
21
-146.964
0
LINE
8
BLACK
6
CONTINUOUS
10
37.2881
20
-146.964
11
37.1929
21
-147.06
0
LINE
8
BLACK
6
CONTINUOUS
10
37.1929
20
-147.06
11
37.0024
21
-147.155
0
LINE
8
BLACK
6
CONTINUOUS
10
37.0024
20
-147.155
11
36.6214
21
-147.155
0
LINE
8
BLACK
6
CONTINUOUS
10
36.6214
20
-147.155
11
36.431
21
-147.06
0
LINE
8
BLACK
6
CONTINUOUS
10
38.2405
20
-146.964
11
38.3357
21
-147.06
0
LINE
8
BLACK
6
CONTINUOUS
10
38.3357
20
-147.06
11
38.2405
21
-147.155
0
LINE
8
BLACK
6
CONTINUOUS
10
38.2405
20
-147.155
11
38.1452
21
-147.06
0
LINE
8
BLACK
6
CONTINUOUS
10
38.1452
20
-147.06
11
38.2405
21
-146.964
0
LINE
8
BLACK
6
CONTINUOUS
10
38.2405
20
-146.964
11
38.2405
21
-147.155
0
LINE
8
BLACK
6
CONTINUOUS
10
38.2405
20
-145.917
11
38.3357
21
-146.012
0
LINE
8
BLACK
6
CONTINUOUS
10
38.3357
20
-146.012
11
38.2405
21
-146.107
0
LINE
8
BLACK
6
CONTINUOUS
10
38.2405
20
-146.107
11
38.1452
21
-146.012
0
LINE
8
BLACK
6
CONTINUOUS
10
38.1452
20
-146.012
11
38.2405
21
-145.917
0
LINE
8
BLACK
6
CONTINUOUS
10
38.2405
20
-145.917
11
38.2405
21
-146.107
0
LINE
8
BLACK
6
CONTINUOUS
10
19.95
20
-149.45
11
21.95
21
-151.45
0
LINE
8
BLACK
6
CONTINUOUS
10
21.95
20
-149.45
11
19.95
21
-151.45
0
LINE
8
BLACK
6
CONTINUOUS
10
24.431
20
-149.545
11
24.5262
21
-149.45
0
LINE
8
BLACK
6
CONTINUOUS
10
24.5262
20
-149.45
11
24.7167
21
-149.355
0
LINE
8
BLACK
6
CONTINUOUS
10
24.7167
20
-149.355
11
25.1929
21
-149.355
0
LINE
8
BLACK
6
CONTINUOUS
10
25.1929
20
-149.355
11
25.3833
21
-149.45
0
LINE
8
BLACK
6
CONTINUOUS
10
25.3833
20
-149.45
11
25.4786
21
-149.545
0
LINE
8
BLACK
6
CONTINUOUS
10
25.4786
20
-149.545
11
25.5738
21
-149.736
0
LINE
8
BLACK
6
CONTINUOUS
10
25.5738
20
-149.736
11
25.5738
21
-149.926
0
LINE
8
BLACK
6
CONTINUOUS
10
25.5738
20
-149.926
11
25.4786
21
-150.212
0
LINE
8
BLACK
6
CONTINUOUS
10
25.4786
20
-150.212
11
24.3357
21
-151.355
0
LINE
8
BLACK
6
CONTINUOUS
10
24.3357
20
-151.355
11
25.5738
21
-151.355
0
LINE
8
BLACK
6
CONTINUOUS
10
26.431
20
-151.164
11
26.5262
21
-151.26
0
LINE
8
BLACK
6
CONTINUOUS
10
26.5262
20
-151.26
11
26.431
21
-151.355
0
LINE
8
BLACK
6
CONTINUOUS
10
26.431
20
-151.355
11
26.3357
21
-151.26
0
LINE
8
BLACK
6
CONTINUOUS
10
26.3357
20
-151.26
11
26.431
21
-151.164
0
LINE
8
BLACK
6
CONTINUOUS
10
26.431
20
-151.164
11
26.431
21
-151.355
0
LINE
8
BLACK
6
CONTINUOUS
10
27.2881
20
-149.545
11
27.3833
21
-149.45
0
LINE
8
BLACK
6
CONTINUOUS
10
27.3833
20
-149.45
11
27.5738
21
-149.355
0
LINE
8
BLACK
6
CONTINUOUS
10
27.5738
20
-149.355
11
28.05
21
-149.355
0
LINE
8
BLACK
6
CONTINUOUS
10
28.05
20
-149.355
11
28.2405
21
-149.45
0
LINE
8
BLACK
6
CONTINUOUS
10
28.2405
20
-149.45
11
28.3357
21
-149.545
0
LINE
8
BLACK
6
CONTINUOUS
10
28.3357
20
-149.545
11
28.431
21
-149.736
0
LINE
8
BLACK
6
CONTINUOUS
10
28.431
20
-149.736
11
28.431
21
-149.926
0
LINE
8
BLACK
6
CONTINUOUS
10
28.431
20
-149.926
11
28.3357
21
-150.212
0
LINE
8
BLACK
6
CONTINUOUS
10
28.3357
20
-150.212
11
27.1929
21
-151.355
0
LINE
8
BLACK
6
CONTINUOUS
10
27.1929
20
-151.355
11
28.431
21
-151.355
0
LINE
8
BLACK
6
CONTINUOUS
10
29.669
20
-149.355
11
29.8595
21
-149.355
0
LINE
8
BLACK
6
CONTINUOUS
10
29.8595
20
-149.355
11
30.05
21
-149.45
0
LINE
8
BLACK
6
CONTINUOUS
10
30.05
20
-149.45
11
30.1452
21
-149.545
0
LINE
8
BLACK
6
CONTINUOUS
10
30.1452
20
-149.545
11
30.2405
21
-149.736
0
LINE
8
BLACK
6
CONTINUOUS
10
30.2405
20
-149.736
11
30.3357
21
-150.117
0
LINE
8
BLACK
6
CONTINUOUS
10
30.3357
20
-150.117
11
30.3357
21
-150.593
0
LINE
8
BLACK
6
CONTINUOUS
10
30.3357
20
-150.593
11
30.2405
21
-150.974
0
LINE
8
BLACK
6
CONTINUOUS
10
30.2405
20
-150.974
11
30.1452
21
-151.164
0
LINE
8
BLACK
6
CONTINUOUS
10
30.1452
20
-151.164
11
30.05
21
-151.26
0
LINE
8
BLACK
6
CONTINUOUS
10
30.05
20
-151.26
11
29.8595
21
-151.355
0
LINE
8
BLACK
6
CONTINUOUS
10
29.8595
20
-151.355
11
29.669
21
-151.355
0
LINE
8
BLACK
6
CONTINUOUS
10
29.669
20
-151.355
11
29.4786
21
-151.26
0
LINE
8
BLACK
6
CONTINUOUS
10
29.4786
20
-151.26
11
29.3833
21
-151.164
0
LINE
8
BLACK
6
CONTINUOUS
10
29.3833
20
-151.164
11
29.2881
21
-150.974
0
LINE
8
BLACK
6
CONTINUOUS
10
29.2881
20
-150.974
11
29.1929
21
-150.593
0
LINE
8
BLACK
6
CONTINUOUS
10
29.1929
20
-150.593
11
29.1929
21
-150.117
0
LINE
8
BLACK
6
CONTINUOUS
10
29.1929
20
-150.117
11
29.2881
21
-149.736
0
LINE
8
BLACK
6
CONTINUOUS
10
29.2881
20
-149.736
11
29.3833
21
-149.545
0
LINE
8
BLACK
6
CONTINUOUS
10
29.3833
20
-149.545
11
29.4786
21
-149.45
0
LINE
8
BLACK
6
CONTINUOUS
10
29.4786
20
-149.45
11
29.669
21
-149.355
0
LINE
8
BLACK
6
CONTINUOUS
10
31.5738
20
-149.355
11
31.7643
21
-149.355
0
LINE
8
BLACK
6
CONTINUOUS
10
31.7643
20
-149.355
11
31.9548
21
-149.45
0
LINE
8
BLACK
6
CONTINUOUS
10
31.9548
20
-149.45
11
32.05
21
-149.545
0
LINE
8
BLACK
6
CONTINUOUS
10
32.05
20
-149.545
11
32.1452
21
-149.736
0
LINE
8
BLACK
6
CONTINUOUS
10
32.1452
20
-149.736
11
32.2405
21
-150.117
0
LINE
8
BLACK
6
CONTINUOUS
10
32.2405
20
-150.117
11
32.2405
21
-150.593
0
LINE
8
BLACK
6
CONTINUOUS
10
32.2405
20
-150.593
11
32.1452
21
-150.974
0
LINE
8
BLACK
6
CONTINUOUS
10
32.1452
20
-150.974
11
32.05
21
-151.164
0
LINE
8
BLACK
6
CONTINUOUS
10
32.05
20
-151.164
11
31.9548
21
-151.26
0
LINE
8
BLACK
6
CONTINUOUS
10
31.9548
20
-151.26
11
31.7643
21
-151.355
0
LINE
8
BLACK
6
CONTINUOUS
10
31.7643
20
-151.355
11
31.5738
21
-151.355
0
LINE
8
BLACK
6
CONTINUOUS
10
31.5738
20
-151.355
11
31.3833
21
-151.26
0
LINE
8
BLACK
6
CONTINUOUS
10
31.3833
20
-151.26
11
31.2881
21
-151.164
0
LINE
8
BLACK
6
CONTINUOUS
10
31.2881
20
-151.164
11
31.1929
21
-150.974
0
LINE
8
BLACK
6
CONTINUOUS
10
31.1929
20
-150.974
11
31.0976
21
-150.593
0
LINE
8
BLACK
6
CONTINUOUS
10
31.0976
20
-150.593
11
31.0976
21
-150.117
0
LINE
8
BLACK
6
CONTINUOUS
10
31.0976
20
-150.117
11
31.1929
21
-149.736
0
LINE
8
BLACK
6
CONTINUOUS
10
31.1929
20
-149.736
11
31.2881
21
-149.545
0
LINE
8
BLACK
6
CONTINUOUS
10
31.2881
20
-149.545
11
31.3833
21
-149.45
0
LINE
8
BLACK
6
CONTINUOUS
10
31.3833
20
-149.45
11
31.5738
21
-149.355
0
LINE
8
BLACK
6
CONTINUOUS
10
33.0976
20
-151.355
11
33.0976
21
-150.021
0
LINE
8
BLACK
6
CONTINUOUS
10
33.0976
20
-150.212
11
33.1929
21
-150.117
0
LINE
8
BLACK
6
CONTINUOUS
10
33.1929
20
-150.117
11
33.3833
21
-150.021
0
LINE
8
BLACK
6
CONTINUOUS
10
33.3833
20
-150.021
11
33.669
21
-150.021
0
LINE
8
BLACK
6
CONTINUOUS
10
33.669
20
-150.021
11
33.8595
21
-150.117
0
LINE
8
BLACK
6
CONTINUOUS
10
33.8595
20
-150.117
11
33.9548
21
-150.307
0
LINE
8
BLACK
6
CONTINUOUS
10
33.9548
20
-150.307
11
33.9548
21
-151.355
0
LINE
8
BLACK
6
CONTINUOUS
10
33.9548
20
-150.307
11
34.05
21
-150.117
0
LINE
8
BLACK
6
CONTINUOUS
10
34.05
20
-150.117
11
34.2405
21
-150.021
0
LINE
8
BLACK
6
CONTINUOUS
10
34.2405
20
-150.021
11
34.5262
21
-150.021
0
LINE
8
BLACK
6
CONTINUOUS
10
34.5262
20
-150.021
11
34.7167
21
-150.117
0
LINE
8
BLACK
6
CONTINUOUS
10
34.7167
20
-150.117
11
34.8119
21
-150.307
0
LINE
8
BLACK
6
CONTINUOUS
10
34.8119
20
-150.307
11
34.8119
21
-151.355
0
LINE
8
BLACK
6
CONTINUOUS
10
35.7643
20
-151.355
11
35.7643
21
-150.021
0
LINE
8
BLACK
6
CONTINUOUS
10
35.7643
20
-150.212
11
35.8595
21
-150.117
0
LINE
8
BLACK
6
CONTINUOUS
10
35.8595
20
-150.117
11
36.05
21
-150.021
0
LINE
8
BLACK
6
CONTINUOUS
10
36.05
20
-150.021
11
36.3357
21
-150.021
0
LINE
8
BLACK
6
CONTINUOUS
10
36.3357
20
-150.021
11
36.5262
21
-150.117
0
LINE
8
BLACK
6
CONTINUOUS
10
36.5262
20
-150.117
11
36.6214
21
-150.307
0
LINE
8
BLACK
6
CONTINUOUS
10
36.6214
20
-150.307
11
36.6214
21
-151.355
0
LINE
8
BLACK
6
CONTINUOUS
10
36.6214
20
-150.307
11
36.7167
21
-150.117
0
LINE
8
BLACK
6
CONTINUOUS
10
36.7167
20
-150.117
11
36.9071
21
-150.021
0
LINE
8
BLACK
6
CONTINUOUS
10
36.9071
20
-150.021
11
37.1929
21
-150.021
0
LINE
8
BLACK
6
CONTINUOUS
10
37.1929
20
-150.021
11
37.3833
21
-150.117
0
LINE
8
BLACK
6
CONTINUOUS
10
37.3833
20
-150.117
11
37.4786
21
-150.307
0
LINE
8
BLACK
6
CONTINUOUS
10
37.4786
20
-150.307
11
37.4786
21
-151.355
0
LINE
8
BLACK
6
CONTINUOUS
10
41.3833
20
-149.26
11
39.669
21
-151.831
0
LINE
8
BLACK
6
CONTINUOUS
10
43.9548
20
-149.355
11
44.1452
21
-149.355
0
LINE
8
BLACK
6
CONTINUOUS
10
44.1452
20
-149.355
11
44.3357
21
-149.45
0
LINE
8
BLACK
6
CONTINUOUS
10
44.3357
20
-149.45
11
44.431
21
-149.545
0
LINE
8
BLACK
6
CONTINUOUS
10
44.431
20
-149.545
11
44.5262
21
-149.736
0
LINE
8
BLACK
6
CONTINUOUS
10
44.5262
20
-149.736
11
44.6214
21
-150.117
0
LINE
8
BLACK
6
CONTINUOUS
10
44.6214
20
-150.117
11
44.6214
21
-150.593
0
LINE
8
BLACK
6
CONTINUOUS
10
44.6214
20
-150.593
11
44.5262
21
-150.974
0
LINE
8
BLACK
6
CONTINUOUS
10
44.5262
20
-150.974
11
44.431
21
-151.164
0
LINE
8
BLACK
6
CONTINUOUS
10
44.431
20
-151.164
11
44.3357
21
-151.26
0
LINE
8
BLACK
6
CONTINUOUS
10
44.3357
20
-151.26
11
44.1452
21
-151.355
0
LINE
8
BLACK
6
CONTINUOUS
10
44.1452
20
-151.355
11
43.9548
21
-151.355
0
LINE
8
BLACK
6
CONTINUOUS
10
43.9548
20
-151.355
11
43.7643
21
-151.26
0
LINE
8
BLACK
6
CONTINUOUS
10
43.7643
20
-151.26
11
43.669
21
-151.164
0
LINE
8
BLACK
6
CONTINUOUS
10
43.669
20
-151.164
11
43.5738
21
-150.974
0
LINE
8
BLACK
6
CONTINUOUS
10
43.5738
20
-150.974
11
43.4786
21
-150.593
0
LINE
8
BLACK
6
CONTINUOUS
10
43.4786
20
-150.593
11
43.4786
21
-150.117
0
LINE
8
BLACK
6
CONTINUOUS
10
43.4786
20
-150.117
11
43.5738
21
-149.736
0
LINE
8
BLACK
6
CONTINUOUS
10
43.5738
20
-149.736
11
43.669
21
-149.545
0
LINE
8
BLACK
6
CONTINUOUS
10
43.669
20
-149.545
11
43.7643
21
-149.45
0
LINE
8
BLACK
6
CONTINUOUS
10
43.7643
20
-149.45
11
43.9548
21
-149.355
0
LINE
8
BLACK
6
CONTINUOUS
10
45.4786
20
-151.164
11
45.5738
21
-151.26
0
LINE
8
BLACK
6
CONTINUOUS
10
45.5738
20
-151.26
11
45.4786
21
-151.355
0
LINE
8
BLACK
6
CONTINUOUS
10
45.4786
20
-151.355
11
45.3833
21
-151.26
0
LINE
8
BLACK
6
CONTINUOUS
10
45.3833
20
-151.26
11
45.4786
21
-151.164
0
LINE
8
BLACK
6
CONTINUOUS
10
45.4786
20
-151.164
11
45.4786
21
-151.355
0
LINE
8
BLACK
6
CONTINUOUS
10
46.8119
20
-149.355
11
47.0024
21
-149.355
0
LINE
8
BLACK
6
CONTINUOUS
10
47.0024
20
-149.355
11
47.1929
21
-149.45
0
LINE
8
BLACK
6
CONTINUOUS
10
47.1929
20
-149.45
11
47.2881
21
-149.545
0
LINE
8
BLACK
6
CONTINUOUS
10
47.2881
20
-149.545
11
47.3833
21
-149.736
0
LINE
8
BLACK
6
CONTINUOUS
10
47.3833
20
-149.736
11
47.4786
21
-150.117
0
LINE
8
BLACK
6
CONTINUOUS
10
47.4786
20
-150.117
11
47.4786
21
-150.593
0
LINE
8
BLACK
6
CONTINUOUS
10
47.4786
20
-150.593
11
47.3833
21
-150.974
0
LINE
8
BLACK
6
CONTINUOUS
10
47.3833
20
-150.974
11
47.2881
21
-151.164
0
LINE
8
BLACK
6
CONTINUOUS
10
47.2881
20
-151.164
11
47.1929
21
-151.26
0
LINE
8
BLACK
6
CONTINUOUS
10
47.1929
20
-151.26
11
47.0024
21
-151.355
0
LINE
8
BLACK
6
CONTINUOUS
10
47.0024
20
-151.355
11
46.8119
21
-151.355
0
LINE
8
BLACK
6
CONTINUOUS
10
46.8119
20
-151.355
11
46.6214
21
-151.26
0
LINE
8
BLACK
6
CONTINUOUS
10
46.6214
20
-151.26
11
46.5262
21
-151.164
0
LINE
8
BLACK
6
CONTINUOUS
10
46.5262
20
-151.164
11
46.431
21
-150.974
0
LINE
8
BLACK
6
CONTINUOUS
10
46.431
20
-150.974
11
46.3357
21
-150.593
0
LINE
8
BLACK
6
CONTINUOUS
10
46.3357
20
-150.593
11
46.3357
21
-150.117
0
LINE
8
BLACK
6
CONTINUOUS
10
46.3357
20
-150.117
11
46.431
21
-149.736
0
LINE
8
BLACK
6
CONTINUOUS
10
46.431
20
-149.736
11
46.5262
21
-149.545
0
LINE
8
BLACK
6
CONTINUOUS
10
46.5262
20
-149.545
11
46.6214
21
-149.45
0
LINE
8
BLACK
6
CONTINUOUS
10
46.6214
20
-149.45
11
46.8119
21
-149.355
0
LINE
8
BLACK
6
CONTINUOUS
10
48.6214
20
-150.212
11
48.431
21
-150.117
0
LINE
8
BLACK
6
CONTINUOUS
10
48.431
20
-150.117
11
48.3357
21
-150.021
0
LINE
8
BLACK
6
CONTINUOUS
10
48.3357
20
-150.021
11
48.2405
21
-149.831
0
LINE
8
BLACK
6
CONTINUOUS
10
48.2405
20
-149.831
11
48.2405
21
-149.736
0
LINE
8
BLACK
6
CONTINUOUS
10
48.2405
20
-149.736
11
48.3357
21
-149.545
0
LINE
8
BLACK
6
CONTINUOUS
10
48.3357
20
-149.545
11
48.431
21
-149.45
0
LINE
8
BLACK
6
CONTINUOUS
10
48.431
20
-149.45
11
48.6214
21
-149.355
0
LINE
8
BLACK
6
CONTINUOUS
10
48.6214
20
-149.355
11
49.0024
21
-149.355
0
LINE
8
BLACK
6
CONTINUOUS
10
49.0024
20
-149.355
11
49.1929
21
-149.45
0
LINE
8
BLACK
6
CONTINUOUS
10
49.1929
20
-149.45
11
49.2881
21
-149.545
0
LINE
8
BLACK
6
CONTINUOUS
10
49.2881
20
-149.545
11
49.3833
21
-149.736
0
LINE
8
BLACK
6
CONTINUOUS
10
49.3833
20
-149.736
11
49.3833
21
-149.831
0
LINE
8
BLACK
6
CONTINUOUS
10
49.3833
20
-149.831
11
49.2881
21
-150.021
0
LINE
8
BLACK
6
CONTINUOUS
10
49.2881
20
-150.021
11
49.1929
21
-150.117
0
LINE
8
BLACK
6
CONTINUOUS
10
49.1929
20
-150.117
11
49.0024
21
-150.212
0
LINE
8
BLACK
6
CONTINUOUS
10
49.0024
20
-150.212
11
48.6214
21
-150.212
0
LINE
8
BLACK
6
CONTINUOUS
10
48.6214
20
-150.212
11
48.431
21
-150.307
0
LINE
8
BLACK
6
CONTINUOUS
10
48.431
20
-150.307
11
48.3357
21
-150.402
0
LINE
8
BLACK
6
CONTINUOUS
10
48.3357
20
-150.402
11
48.2405
21
-150.593
0
LINE
8
BLACK
6
CONTINUOUS
10
48.2405
20
-150.593
11
48.2405
21
-150.974
0
LINE
8
BLACK
6
CONTINUOUS
10
48.2405
20
-150.974
11
48.3357
21
-151.164
0
LINE
8
BLACK
6
CONTINUOUS
10
48.3357
20
-151.164
11
48.431
21
-151.26
0
LINE
8
BLACK
6
CONTINUOUS
10
48.431
20
-151.26
11
48.6214
21
-151.355
0
LINE
8
BLACK
6
CONTINUOUS
10
48.6214
20
-151.355
11
49.0024
21
-151.355
0
LINE
8
BLACK
6
CONTINUOUS
10
49.0024
20
-151.355
11
49.1929
21
-151.26
0
LINE
8
BLACK
6
CONTINUOUS
10
49.1929
20
-151.26
11
49.2881
21
-151.164
0
LINE
8
BLACK
6
CONTINUOUS
10
49.2881
20
-151.164
11
49.3833
21
-150.974
0
LINE
8
BLACK
6
CONTINUOUS
10
49.3833
20
-150.974
11
49.3833
21
-150.593
0
LINE
8
BLACK
6
CONTINUOUS
10
49.3833
20
-150.593
11
49.2881
21
-150.402
0
LINE
8
BLACK
6
CONTINUOUS
10
49.2881
20
-150.402
11
49.1929
21
-150.307
0
LINE
8
BLACK
6
CONTINUOUS
10
49.1929
20
-150.307
11
49.0024
21
-150.212
0
LINE
8
BLACK
6
CONTINUOUS
10
51.0976
20
-149.355
11
50.7167
21
-149.355
0
LINE
8
BLACK
6
CONTINUOUS
10
50.7167
20
-149.355
11
50.5262
21
-149.45
0
LINE
8
BLACK
6
CONTINUOUS
10
50.5262
20
-149.45
11
50.431
21
-149.545
0
LINE
8
BLACK
6
CONTINUOUS
10
50.431
20
-149.545
11
50.2405
21
-149.831
0
LINE
8
BLACK
6
CONTINUOUS
10
50.2405
20
-149.831
11
50.1452
21
-150.212
0
LINE
8
BLACK
6
CONTINUOUS
10
50.1452
20
-150.212
11
50.1452
21
-150.974
0
LINE
8
BLACK
6
CONTINUOUS
10
50.1452
20
-150.974
11
50.2405
21
-151.164
0
LINE
8
BLACK
6
CONTINUOUS
10
50.2405
20
-151.164
11
50.3357
21
-151.26
0
LINE
8
BLACK
6
CONTINUOUS
10
50.3357
20
-151.26
11
50.5262
21
-151.355
0
LINE
8
BLACK
6
CONTINUOUS
10
50.5262
20
-151.355
11
50.9071
21
-151.355
0
LINE
8
BLACK
6
CONTINUOUS
10
50.9071
20
-151.355
11
51.0976
21
-151.26
0
LINE
8
BLACK
6
CONTINUOUS
10
51.0976
20
-151.26
11
51.1929
21
-151.164
0
LINE
8
BLACK
6
CONTINUOUS
10
51.1929
20
-151.164
11
51.2881
21
-150.974
0
LINE
8
BLACK
6
CONTINUOUS
10
51.2881
20
-150.974
11
51.2881
21
-150.498
0
LINE
8
BLACK
6
CONTINUOUS
10
51.2881
20
-150.498
11
51.1929
21
-150.307
0
LINE
8
BLACK
6
CONTINUOUS
10
51.1929
20
-150.307
11
51.0976
21
-150.212
0
LINE
8
BLACK
6
CONTINUOUS
10
51.0976
20
-150.212
11
50.9071
21
-150.117
0
LINE
8
BLACK
6
CONTINUOUS
10
50.9071
20
-150.117
11
50.5262
21
-150.117
0
LINE
8
BLACK
6
CONTINUOUS
10
50.5262
20
-150.117
11
50.3357
21
-150.212
0
LINE
8
BLACK
6
CONTINUOUS
10
50.3357
20
-150.212
11
50.2405
21
-150.307
0
LINE
8
BLACK
6
CONTINUOUS
10
50.2405
20
-150.307
11
50.1452
21
-150.498
0
LINE
8
BLACK
6
CONTINUOUS
10
53.0024
20
-149.355
11
52.6214
21
-149.355
0
LINE
8
BLACK
6
CONTINUOUS
10
52.6214
20
-149.355
11
52.431
21
-149.45
0
LINE
8
BLACK
6
CONTINUOUS
10
52.431
20
-149.45
11
52.3357
21
-149.545
0
LINE
8
BLACK
6
CONTINUOUS
10
52.3357
20
-149.545
11
52.1452
21
-149.831
0
LINE
8
BLACK
6
CONTINUOUS
10
52.1452
20
-149.831
11
52.05
21
-150.212
0
LINE
8
BLACK
6
CONTINUOUS
10
52.05
20
-150.212
11
52.05
21
-150.974
0
LINE
8
BLACK
6
CONTINUOUS
10
52.05
20
-150.974
11
52.1452
21
-151.164
0
LINE
8
BLACK
6
CONTINUOUS
10
52.1452
20
-151.164
11
52.2405
21
-151.26
0
LINE
8
BLACK
6
CONTINUOUS
10
52.2405
20
-151.26
11
52.431
21
-151.355
0
LINE
8
BLACK
6
CONTINUOUS
10
52.431
20
-151.355
11
52.8119
21
-151.355
0
LINE
8
BLACK
6
CONTINUOUS
10
52.8119
20
-151.355
11
53.0024
21
-151.26
0
LINE
8
BLACK
6
CONTINUOUS
10
53.0024
20
-151.26
11
53.0976
21
-151.164
0
LINE
8
BLACK
6
CONTINUOUS
10
53.0976
20
-151.164
11
53.1929
21
-150.974
0
LINE
8
BLACK
6
CONTINUOUS
10
53.1929
20
-150.974
11
53.1929
21
-150.498
0
LINE
8
BLACK
6
CONTINUOUS
10
53.1929
20
-150.498
11
53.0976
21
-150.307
0
LINE
8
BLACK
6
CONTINUOUS
10
53.0976
20
-150.307
11
53.0024
21
-150.212
0
LINE
8
BLACK
6
CONTINUOUS
10
53.0024
20
-150.212
11
52.8119
21
-150.117
0
LINE
8
BLACK
6
CONTINUOUS
10
52.8119
20
-150.117
11
52.431
21
-150.117
0
LINE
8
BLACK
6
CONTINUOUS
10
52.431
20
-150.117
11
52.2405
21
-150.212
0
LINE
8
BLACK
6
CONTINUOUS
10
52.2405
20
-150.212
11
52.1452
21
-150.307
0
LINE
8
BLACK
6
CONTINUOUS
10
52.1452
20
-150.307
11
52.05
21
-150.498
0
LINE
8
BLACK
6
CONTINUOUS
10
53.9548
20
-149.355
11
53.9548
21
-149.736
0
LINE
8
BLACK
6
CONTINUOUS
10
54.7167
20
-149.355
11
54.7167
21
-149.736
0
LINE
8
BLACK
6
CONTINUOUS
10
57.669
20
-152.117
11
57.5738
21
-152.021
0
LINE
8
BLACK
6
CONTINUOUS
10
57.5738
20
-152.021
11
57.3833
21
-151.736
0
LINE
8
BLACK
6
CONTINUOUS
10
57.3833
20
-151.736
11
57.2881
21
-151.545
0
LINE
8
BLACK
6
CONTINUOUS
10
57.2881
20
-151.545
11
57.1929
21
-151.26
0
LINE
8
BLACK
6
CONTINUOUS
10
57.1929
20
-151.26
11
57.0976
21
-150.783
0
LINE
8
BLACK
6
CONTINUOUS
10
57.0976
20
-150.783
11
57.0976
21
-150.402
0
LINE
8
BLACK
6
CONTINUOUS
10
57.0976
20
-150.402
11
57.1929
21
-149.926
0
LINE
8
BLACK
6
CONTINUOUS
10
57.1929
20
-149.926
11
57.2881
21
-149.64
0
LINE
8
BLACK
6
CONTINUOUS
10
57.2881
20
-149.64
11
57.3833
21
-149.45
0
LINE
8
BLACK
6
CONTINUOUS
10
57.3833
20
-149.45
11
57.5738
21
-149.164
0
LINE
8
BLACK
6
CONTINUOUS
10
57.5738
20
-149.164
11
57.669
21
-149.069
0
LINE
8
BLACK
6
CONTINUOUS
10
58.2405
20
-149.355
11
59.4786
21
-149.355
0
LINE
8
BLACK
6
CONTINUOUS
10
59.4786
20
-149.355
11
58.8119
21
-150.117
0
LINE
8
BLACK
6
CONTINUOUS
10
58.8119
20
-150.117
11
59.0976
21
-150.117
0
LINE
8
BLACK
6
CONTINUOUS
10
59.0976
20
-150.117
11
59.2881
21
-150.212
0
LINE
8
BLACK
6
CONTINUOUS
10
59.2881
20
-150.212
11
59.3833
21
-150.307
0
LINE
8
BLACK
6
CONTINUOUS
10
59.3833
20
-150.307
11
59.4786
21
-150.498
0
LINE
8
BLACK
6
CONTINUOUS
10
59.4786
20
-150.498
11
59.4786
21
-150.974
0
LINE
8
BLACK
6
CONTINUOUS
10
59.4786
20
-150.974
11
59.3833
21
-151.164
0
LINE
8
BLACK
6
CONTINUOUS
10
59.3833
20
-151.164
11
59.2881
21
-151.26
0
LINE
8
BLACK
6
CONTINUOUS
10
59.2881
20
-151.26
11
59.0976
21
-151.355
0
LINE
8
BLACK
6
CONTINUOUS
10
59.0976
20
-151.355
11
58.5262
21
-151.355
0
LINE
8
BLACK
6
CONTINUOUS
10
58.5262
20
-151.355
11
58.3357
21
-151.26
0
LINE
8
BLACK
6
CONTINUOUS
10
58.3357
20
-151.26
11
58.2405
21
-151.164
0
LINE
8
BLACK
6
CONTINUOUS
10
61.8595
20
-151.355
11
61.8595
21
-149.355
0
LINE
8
BLACK
6
CONTINUOUS
10
62.7167
20
-151.355
11
62.7167
21
-150.307
0
LINE
8
BLACK
6
CONTINUOUS
10
62.7167
20
-150.307
11
62.6214
21
-150.117
0
LINE
8
BLACK
6
CONTINUOUS
10
62.6214
20
-150.117
11
62.431
21
-150.021
0
LINE
8
BLACK
6
CONTINUOUS
10
62.431
20
-150.021
11
62.1452
21
-150.021
0
LINE
8
BLACK
6
CONTINUOUS
10
62.1452
20
-150.021
11
61.9548
21
-150.117
0
LINE
8
BLACK
6
CONTINUOUS
10
61.9548
20
-150.117
11
61.8595
21
-150.212
0
LINE
8
BLACK
6
CONTINUOUS
10
63.9548
20
-151.355
11
63.7643
21
-151.26
0
LINE
8
BLACK
6
CONTINUOUS
10
63.7643
20
-151.26
11
63.669
21
-151.164
0
LINE
8
BLACK
6
CONTINUOUS
10
63.669
20
-151.164
11
63.5738
21
-150.974
0
LINE
8
BLACK
6
CONTINUOUS
10
63.5738
20
-150.974
11
63.5738
21
-150.402
0
LINE
8
BLACK
6
CONTINUOUS
10
63.5738
20
-150.402
11
63.669
21
-150.212
0
LINE
8
BLACK
6
CONTINUOUS
10
63.669
20
-150.212
11
63.7643
21
-150.117
0
LINE
8
BLACK
6
CONTINUOUS
10
63.7643
20
-150.117
11
63.9548
21
-150.021
0
LINE
8
BLACK
6
CONTINUOUS
10
63.9548
20
-150.021
11
64.2405
21
-150.021
0
LINE
8
BLACK
6
CONTINUOUS
10
64.2405
20
-150.021
11
64.431
21
-150.117
0
LINE
8
BLACK
6
CONTINUOUS
10
64.431
20
-150.117
11
64.5262
21
-150.212
0
LINE
8
BLACK
6
CONTINUOUS
10
64.5262
20
-150.212
11
64.6214
21
-150.402
0
LINE
8
BLACK
6
CONTINUOUS
10
64.6214
20
-150.402
11
64.6214
21
-150.974
0
LINE
8
BLACK
6
CONTINUOUS
10
64.6214
20
-150.974
11
64.5262
21
-151.164
0
LINE
8
BLACK
6
CONTINUOUS
10
64.5262
20
-151.164
11
64.431
21
-151.26
0
LINE
8
BLACK
6
CONTINUOUS
10
64.431
20
-151.26
11
64.2405
21
-151.355
0
LINE
8
BLACK
6
CONTINUOUS
10
64.2405
20
-151.355
11
63.9548
21
-151.355
0
LINE
8
BLACK
6
CONTINUOUS
10
65.7643
20
-151.355
11
65.5738
21
-151.26
0
LINE
8
BLACK
6
CONTINUOUS
10
65.5738
20
-151.26
11
65.4786
21
-151.069
0
LINE
8
BLACK
6
CONTINUOUS
10
65.4786
20
-151.069
11
65.4786
21
-149.355
0
LINE
8
BLACK
6
CONTINUOUS
10
67.2881
20
-151.26
11
67.0976
21
-151.355
0
LINE
8
BLACK
6
CONTINUOUS
10
67.0976
20
-151.355
11
66.7167
21
-151.355
0
LINE
8
BLACK
6
CONTINUOUS
10
66.7167
20
-151.355
11
66.5262
21
-151.26
0
LINE
8
BLACK
6
CONTINUOUS
10
66.5262
20
-151.26
11
66.431
21
-151.069
0
LINE
8
BLACK
6
CONTINUOUS
10
66.431
20
-151.069
11
66.431
21
-150.307
0
LINE
8
BLACK
6
CONTINUOUS
10
66.431
20
-150.307
11
66.5262
21
-150.117
0
LINE
8
BLACK
6
CONTINUOUS
10
66.5262
20
-150.117
11
66.7167
21
-150.021
0
LINE
8
BLACK
6
CONTINUOUS
10
66.7167
20
-150.021
11
67.0976
21
-150.021
0
LINE
8
BLACK
6
CONTINUOUS
10
67.0976
20
-150.021
11
67.2881
21
-150.117
0
LINE
8
BLACK
6
CONTINUOUS
10
67.2881
20
-150.117
11
67.3833
21
-150.307
0
LINE
8
BLACK
6
CONTINUOUS
10
67.3833
20
-150.307
11
67.3833
21
-150.498
0
LINE
8
BLACK
6
CONTINUOUS
10
67.3833
20
-150.498
11
66.431
21
-150.688
0
LINE
8
BLACK
6
CONTINUOUS
10
68.1452
20
-151.26
11
68.3357
21
-151.355
0
LINE
8
BLACK
6
CONTINUOUS
10
68.3357
20
-151.355
11
68.7167
21
-151.355
0
LINE
8
BLACK
6
CONTINUOUS
10
68.7167
20
-151.355
11
68.9071
21
-151.26
0
LINE
8
BLACK
6
CONTINUOUS
10
68.9071
20
-151.26
11
69.0024
21
-151.069
0
LINE
8
BLACK
6
CONTINUOUS
10
69.0024
20
-151.069
11
69.0024
21
-150.974
0
LINE
8
BLACK
6
CONTINUOUS
10
69.0024
20
-150.974
11
68.9071
21
-150.783
0
LINE
8
BLACK
6
CONTINUOUS
10
68.9071
20
-150.783
11
68.7167
21
-150.688
0
LINE
8
BLACK
6
CONTINUOUS
10
68.7167
20
-150.688
11
68.431
21
-150.688
0
LINE
8
BLACK
6
CONTINUOUS
10
68.431
20
-150.688
11
68.2405
21
-150.593
0
LINE
8
BLACK
6
CONTINUOUS
10
68.2405
20
-150.593
11
68.1452
21
-150.402
0
LINE
8
BLACK
6
CONTINUOUS
10
68.1452
20
-150.402
11
68.1452
21
-150.307
0
LINE
8
BLACK
6
CONTINUOUS
10
68.1452
20
-150.307
11
68.2405
21
-150.117
0
LINE
8
BLACK
6
CONTINUOUS
10
68.2405
20
-150.117
11
68.431
21
-150.021
0
LINE
8
BLACK
6
CONTINUOUS
10
68.431
20
-150.021
11
68.7167
21
-150.021
0
LINE
8
BLACK
6
CONTINUOUS
10
68.7167
20
-150.021
11
68.9071
21
-150.117
0
LINE
8
BLACK
6
CONTINUOUS
10
69.669
20
-152.117
11
69.7643
21
-152.021
0
LINE
8
BLACK
6
CONTINUOUS
10
69.7643
20
-152.021
11
69.9548
21
-151.736
0
LINE
8
BLACK
6
CONTINUOUS
10
69.9548
20
-151.736
11
70.05
21
-151.545
0
LINE
8
BLACK
6
CONTINUOUS
10
70.05
20
-151.545
11
70.1452
21
-151.26
0
LINE
8
BLACK
6
CONTINUOUS
10
70.1452
20
-151.26
11
70.2405
21
-150.783
0
LINE
8
BLACK
6
CONTINUOUS
10
70.2405
20
-150.783
11
70.2405
21
-150.402
0
LINE
8
BLACK
6
CONTINUOUS
10
70.2405
20
-150.402
11
70.1452
21
-149.926
0
LINE
8
BLACK
6
CONTINUOUS
10
70.1452
20
-149.926
11
70.05
21
-149.64
0
LINE
8
BLACK
6
CONTINUOUS
10
70.05
20
-149.64
11
69.9548
21
-149.45
0
LINE
8
BLACK
6
CONTINUOUS
10
69.9548
20
-149.45
11
69.7643
21
-149.164
0
LINE
8
BLACK
6
CONTINUOUS
10
69.7643
20
-149.164
11
69.669
21
-149.069
0
LINE
8
BLACK
6
CONTINUOUS
10
73.2881
20
-152.117
11
73.1929
21
-152.021
0
LINE
8
BLACK
6
CONTINUOUS
10
73.1929
20
-152.021
11
73.0024
21
-151.736
0
LINE
8
BLACK
6
CONTINUOUS
10
73.0024
20
-151.736
11
72.9071
21
-151.545
0
LINE
8
BLACK
6
CONTINUOUS
10
72.9071
20
-151.545
11
72.8119
21
-151.26
0
LINE
8
BLACK
6
CONTINUOUS
10
72.8119
20
-151.26
11
72.7167
21
-150.783
0
LINE
8
BLACK
6
CONTINUOUS
10
72.7167
20
-150.783
11
72.7167
21
-150.402
0
LINE
8
BLACK
6
CONTINUOUS
10
72.7167
20
-150.402
11
72.8119
21
-149.926
0
LINE
8
BLACK
6
CONTINUOUS
10
72.8119
20
-149.926
11
72.9071
21
-149.64
0
LINE
8
BLACK
6
CONTINUOUS
10
72.9071
20
-149.64
11
73.0024
21
-149.45
0
LINE
8
BLACK
6
CONTINUOUS
10
73.0024
20
-149.45
11
73.1929
21
-149.164
0
LINE
8
BLACK
6
CONTINUOUS
10
73.1929
20
-149.164
11
73.2881
21
-149.069
0
LINE
8
BLACK
6
CONTINUOUS
10
74.05
20
-150.021
11
74.05
21
-151.355
0
LINE
8
BLACK
6
CONTINUOUS
10
74.05
20
-150.212
11
74.1452
21
-150.117
0
LINE
8
BLACK
6
CONTINUOUS
10
74.1452
20
-150.117
11
74.3357
21
-150.021
0
LINE
8
BLACK
6
CONTINUOUS
10
74.3357
20
-150.021
11
74.6214
21
-150.021
0
LINE
8
BLACK
6
CONTINUOUS
10
74.6214
20
-150.021
11
74.8119
21
-150.117
0
LINE
8
BLACK
6
CONTINUOUS
10
74.8119
20
-150.117
11
74.9071
21
-150.307
0
LINE
8
BLACK
6
CONTINUOUS
10
74.9071
20
-150.307
11
74.9071
21
-151.355
0
LINE
8
BLACK
6
CONTINUOUS
10
76.1452
20
-151.355
11
75.9548
21
-151.26
0
LINE
8
BLACK
6
CONTINUOUS
10
75.9548
20
-151.26
11
75.8595
21
-151.164
0
LINE
8
BLACK
6
CONTINUOUS
10
75.8595
20
-151.164
11
75.7643
21
-150.974
0
LINE
8
BLACK
6
CONTINUOUS
10
75.7643
20
-150.974
11
75.7643
21
-150.402
0
LINE
8
BLACK
6
CONTINUOUS
10
75.7643
20
-150.402
11
75.8595
21
-150.212
0
LINE
8
BLACK
6
CONTINUOUS
10
75.8595
20
-150.212
11
75.9548
21
-150.117
0
LINE
8
BLACK
6
CONTINUOUS
10
75.9548
20
-150.117
11
76.1452
21
-150.021
0
LINE
8
BLACK
6
CONTINUOUS
10
76.1452
20
-150.021
11
76.431
21
-150.021
0
LINE
8
BLACK
6
CONTINUOUS
10
76.431
20
-150.021
11
76.6214
21
-150.117
0
LINE
8
BLACK
6
CONTINUOUS
10
76.6214
20
-150.117
11
76.7167
21
-150.212
0
LINE
8
BLACK
6
CONTINUOUS
10
76.7167
20
-150.212
11
76.8119
21
-150.402
0
LINE
8
BLACK
6
CONTINUOUS
10
76.8119
20
-150.402
11
76.8119
21
-150.974
0
LINE
8
BLACK
6
CONTINUOUS
10
76.8119
20
-150.974
11
76.7167
21
-151.164
0
LINE
8
BLACK
6
CONTINUOUS
10
76.7167
20
-151.164
11
76.6214
21
-151.26
0
LINE
8
BLACK
6
CONTINUOUS
10
76.6214
20
-151.26
11
76.431
21
-151.355
0
LINE
8
BLACK
6
CONTINUOUS
10
76.431
20
-151.355
11
76.1452
21
-151.355
0
LINE
8
BLACK
6
CONTINUOUS
10
77.3833
20
-150.021
11
78.1452
21
-150.021
0
LINE
8
BLACK
6
CONTINUOUS
10
77.669
20
-149.355
11
77.669
21
-151.069
0
LINE
8
BLACK
6
CONTINUOUS
10
77.669
20
-151.069
11
77.7643
21
-151.26
0
LINE
8
BLACK
6
CONTINUOUS
10
77.7643
20
-151.26
11
77.9548
21
-151.355
0
LINE
8
BLACK
6
CONTINUOUS
10
77.9548
20
-151.355
11
78.1452
21
-151.355
0
LINE
8
BLACK
6
CONTINUOUS
10
80.3357
20
-150.021
11
80.3357
21
-152.021
0
LINE
8
BLACK
6
CONTINUOUS
10
80.3357
20
-150.117
11
80.5262
21
-150.021
0
LINE
8
BLACK
6
CONTINUOUS
10
80.5262
20
-150.021
11
80.9071
21
-150.021
0
LINE
8
BLACK
6
CONTINUOUS
10
80.9071
20
-150.021
11
81.0976
21
-150.117
0
LINE
8
BLACK
6
CONTINUOUS
10
81.0976
20
-150.117
11
81.1929
21
-150.212
0
LINE
8
BLACK
6
CONTINUOUS
10
81.1929
20
-150.212
11
81.2881
21
-150.402
0
LINE
8
BLACK
6
CONTINUOUS
10
81.2881
20
-150.402
11
81.2881
21
-150.974
0
LINE
8
BLACK
6
CONTINUOUS
10
81.2881
20
-150.974
11
81.1929
21
-151.164
0
LINE
8
BLACK
6
CONTINUOUS
10
81.1929
20
-151.164
11
81.0976
21
-151.26
0
LINE
8
BLACK
6
CONTINUOUS
10
81.0976
20
-151.26
11
80.9071
21
-151.355
0
LINE
8
BLACK
6
CONTINUOUS
10
80.9071
20
-151.355
11
80.5262
21
-151.355
0
LINE
8
BLACK
6
CONTINUOUS
10
80.5262
20
-151.355
11
80.3357
21
-151.26
0
LINE
8
BLACK
6
CONTINUOUS
10
82.431
20
-151.355
11
82.2405
21
-151.26
0
LINE
8
BLACK
6
CONTINUOUS
10
82.2405
20
-151.26
11
82.1452
21
-151.069
0
LINE
8
BLACK
6
CONTINUOUS
10
82.1452
20
-151.069
11
82.1452
21
-149.355
0
LINE
8
BLACK
6
CONTINUOUS
10
84.05
20
-151.355
11
84.05
21
-150.307
0
LINE
8
BLACK
6
CONTINUOUS
10
84.05
20
-150.307
11
83.9548
21
-150.117
0
LINE
8
BLACK
6
CONTINUOUS
10
83.9548
20
-150.117
11
83.7643
21
-150.021
0
LINE
8
BLACK
6
CONTINUOUS
10
83.7643
20
-150.021
11
83.3833
21
-150.021
0
LINE
8
BLACK
6
CONTINUOUS
10
83.3833
20
-150.021
11
83.1929
21
-150.117
0
LINE
8
BLACK
6
CONTINUOUS
10
84.05
20
-151.26
11
83.8595
21
-151.355
0
LINE
8
BLACK
6
CONTINUOUS
10
83.8595
20
-151.355
11
83.3833
21
-151.355
0
LINE
8
BLACK
6
CONTINUOUS
10
83.3833
20
-151.355
11
83.1929
21
-151.26
0
LINE
8
BLACK
6
CONTINUOUS
10
83.1929
20
-151.26
11
83.0976
21
-151.069
0
LINE
8
BLACK
6
CONTINUOUS
10
83.0976
20
-151.069
11
83.0976
21
-150.879
0
LINE
8
BLACK
6
CONTINUOUS
10
83.0976
20
-150.879
11
83.1929
21
-150.688
0
LINE
8
BLACK
6
CONTINUOUS
10
83.1929
20
-150.688
11
83.3833
21
-150.593
0
LINE
8
BLACK
6
CONTINUOUS
10
83.3833
20
-150.593
11
83.8595
21
-150.593
0
LINE
8
BLACK
6
CONTINUOUS
10
83.8595
20
-150.593
11
84.05
21
-150.498
0
LINE
8
BLACK
6
CONTINUOUS
10
84.7167
20
-150.021
11
85.4786
21
-150.021
0
LINE
8
BLACK
6
CONTINUOUS
10
85.0024
20
-149.355
11
85.0024
21
-151.069
0
LINE
8
BLACK
6
CONTINUOUS
10
85.0024
20
-151.069
11
85.0976
21
-151.26
0
LINE
8
BLACK
6
CONTINUOUS
10
85.0976
20
-151.26
11
85.2881
21
-151.355
0
LINE
8
BLACK
6
CONTINUOUS
10
85.2881
20
-151.355
11
85.4786
21
-151.355
0
LINE
8
BLACK
6
CONTINUOUS
10
86.9071
20
-151.26
11
86.7167
21
-151.355
0
LINE
8
BLACK
6
CONTINUOUS
10
86.7167
20
-151.355
11
86.3357
21
-151.355
0
LINE
8
BLACK
6
CONTINUOUS
10
86.3357
20
-151.355
11
86.1452
21
-151.26
0
LINE
8
BLACK
6
CONTINUOUS
10
86.1452
20
-151.26
11
86.05
21
-151.069
0
LINE
8
BLACK
6
CONTINUOUS
10
86.05
20
-151.069
11
86.05
21
-150.307
0
LINE
8
BLACK
6
CONTINUOUS
10
86.05
20
-150.307
11
86.1452
21
-150.117
0
LINE
8
BLACK
6
CONTINUOUS
10
86.1452
20
-150.117
11
86.3357
21
-150.021
0
LINE
8
BLACK
6
CONTINUOUS
10
86.3357
20
-150.021
11
86.7167
21
-150.021
0
LINE
8
BLACK
6
CONTINUOUS
10
86.7167
20
-150.021
11
86.9071
21
-150.117
0
LINE
8
BLACK
6
CONTINUOUS
10
86.9071
20
-150.117
11
87.0024
21
-150.307
0
LINE
8
BLACK
6
CONTINUOUS
10
87.0024
20
-150.307
11
87.0024
21
-150.498
0
LINE
8
BLACK
6
CONTINUOUS
10
87.0024
20
-150.498
11
86.05
21
-150.688
0
LINE
8
BLACK
6
CONTINUOUS
10
88.7167
20
-151.355
11
88.7167
21
-149.355
0
LINE
8
BLACK
6
CONTINUOUS
10
88.7167
20
-151.26
11
88.5262
21
-151.355
0
LINE
8
BLACK
6
CONTINUOUS
10
88.5262
20
-151.355
11
88.1452
21
-151.355
0
LINE
8
BLACK
6
CONTINUOUS
10
88.1452
20
-151.355
11
87.9548
21
-151.26
0
LINE
8
BLACK
6
CONTINUOUS
10
87.9548
20
-151.26
11
87.8595
21
-151.164
0
LINE
8
BLACK
6
CONTINUOUS
10
87.8595
20
-151.164
11
87.7643
21
-150.974
0
LINE
8
BLACK
6
CONTINUOUS
10
87.7643
20
-150.974
11
87.7643
21
-150.402
0
LINE
8
BLACK
6
CONTINUOUS
10
87.7643
20
-150.402
11
87.8595
21
-150.212
0
LINE
8
BLACK
6
CONTINUOUS
10
87.8595
20
-150.212
11
87.9548
21
-150.117
0
LINE
8
BLACK
6
CONTINUOUS
10
87.9548
20
-150.117
11
88.1452
21
-150.021
0
LINE
8
BLACK
6
CONTINUOUS
10
88.1452
20
-150.021
11
88.5262
21
-150.021
0
LINE
8
BLACK
6
CONTINUOUS
10
88.5262
20
-150.021
11
88.7167
21
-150.117
0
LINE
8
BLACK
6
CONTINUOUS
10
89.4786
20
-152.117
11
89.5738
21
-152.021
0
LINE
8
BLACK
6
CONTINUOUS
10
89.5738
20
-152.021
11
89.7643
21
-151.736
0
LINE
8
BLACK
6
CONTINUOUS
10
89.7643
20
-151.736
11
89.8595
21
-151.545
0
LINE
8
BLACK
6
CONTINUOUS
10
89.8595
20
-151.545
11
89.9548
21
-151.26
0
LINE
8
BLACK
6
CONTINUOUS
10
89.9548
20
-151.26
11
90.05
21
-150.783
0
LINE
8
BLACK
6
CONTINUOUS
10
90.05
20
-150.783
11
90.05
21
-150.402
0
LINE
8
BLACK
6
CONTINUOUS
10
90.05
20
-150.402
11
89.9548
21
-149.926
0
LINE
8
BLACK
6
CONTINUOUS
10
89.9548
20
-149.926
11
89.8595
21
-149.64
0
LINE
8
BLACK
6
CONTINUOUS
10
89.8595
20
-149.64
11
89.7643
21
-149.45
0
LINE
8
BLACK
6
CONTINUOUS
10
89.7643
20
-149.45
11
89.5738
21
-149.164
0
LINE
8
BLACK
6
CONTINUOUS
10
89.5738
20
-149.164
11
89.4786
21
-149.069
0
CIRCLE
8
BLACK
10
20.95
20
-153.65
40
1
0
LINE
8
BLACK
6
CONTINUOUS
10
24.431
20
-152.745
11
24.5262
21
-152.65
0
LINE
8
BLACK
6
CONTINUOUS
10
24.5262
20
-152.65
11
24.7167
21
-152.555
0
LINE
8
BLACK
6
CONTINUOUS
10
24.7167
20
-152.555
11
25.1929
21
-152.555
0
LINE
8
BLACK
6
CONTINUOUS
10
25.1929
20
-152.555
11
25.3833
21
-152.65
0
LINE
8
BLACK
6
CONTINUOUS
10
25.3833
20
-152.65
11
25.4786
21
-152.745
0
LINE
8
BLACK
6
CONTINUOUS
10
25.4786
20
-152.745
11
25.5738
21
-152.936
0
LINE
8
BLACK
6
CONTINUOUS
10
25.5738
20
-152.936
11
25.5738
21
-153.126
0
LINE
8
BLACK
6
CONTINUOUS
10
25.5738
20
-153.126
11
25.4786
21
-153.412
0
LINE
8
BLACK
6
CONTINUOUS
10
25.4786
20
-153.412
11
24.3357
21
-154.555
0
LINE
8
BLACK
6
CONTINUOUS
10
24.3357
20
-154.555
11
25.5738
21
-154.555
0
LINE
8
BLACK
6
CONTINUOUS
10
26.431
20
-154.364
11
26.5262
21
-154.46
0
LINE
8
BLACK
6
CONTINUOUS
10
26.5262
20
-154.46
11
26.431
21
-154.555
0
LINE
8
BLACK
6
CONTINUOUS
10
26.431
20
-154.555
11
26.3357
21
-154.46
0
LINE
8
BLACK
6
CONTINUOUS
10
26.3357
20
-154.46
11
26.431
21
-154.364
0
LINE
8
BLACK
6
CONTINUOUS
10
26.431
20
-154.364
11
26.431
21
-154.555
0
LINE
8
BLACK
6
CONTINUOUS
10
28.3357
20
-152.555
11
27.3833
21
-152.555
0
LINE
8
BLACK
6
CONTINUOUS
10
27.3833
20
-152.555
11
27.2881
21
-153.507
0
LINE
8
BLACK
6
CONTINUOUS
10
27.2881
20
-153.507
11
27.3833
21
-153.412
0
LINE
8
BLACK
6
CONTINUOUS
10
27.3833
20
-153.412
11
27.5738
21
-153.317
0
LINE
8
BLACK
6
CONTINUOUS
10
27.5738
20
-153.317
11
28.05
21
-153.317
0
LINE
8
BLACK
6
CONTINUOUS
10
28.05
20
-153.317
11
28.2405
21
-153.412
0
LINE
8
BLACK
6
CONTINUOUS
10
28.2405
20
-153.412
11
28.3357
21
-153.507
0
LINE
8
BLACK
6
CONTINUOUS
10
28.3357
20
-153.507
11
28.431
21
-153.698
0
LINE
8
BLACK
6
CONTINUOUS
10
28.431
20
-153.698
11
28.431
21
-154.174
0
LINE
8
BLACK
6
CONTINUOUS
10
28.431
20
-154.174
11
28.3357
21
-154.364
0
LINE
8
BLACK
6
CONTINUOUS
10
28.3357
20
-154.364
11
28.2405
21
-154.46
0
LINE
8
BLACK
6
CONTINUOUS
10
28.2405
20
-154.46
11
28.05
21
-154.555
0
LINE
8
BLACK
6
CONTINUOUS
10
28.05
20
-154.555
11
27.5738
21
-154.555
0
LINE
8
BLACK
6
CONTINUOUS
10
27.5738
20
-154.555
11
27.3833
21
-154.46
0
LINE
8
BLACK
6
CONTINUOUS
10
27.3833
20
-154.46
11
27.2881
21
-154.364
0
LINE
8
BLACK
6
CONTINUOUS
10
29.669
20
-152.555
11
29.8595
21
-152.555
0
LINE
8
BLACK
6
CONTINUOUS
10
29.8595
20
-152.555
11
30.05
21
-152.65
0
LINE
8
BLACK
6
CONTINUOUS
10
30.05
20
-152.65
11
30.1452
21
-152.745
0
LINE
8
BLACK
6
CONTINUOUS
10
30.1452
20
-152.745
11
30.2405
21
-152.936
0
LINE
8
BLACK
6
CONTINUOUS
10
30.2405
20
-152.936
11
30.3357
21
-153.317
0
LINE
8
BLACK
6
CONTINUOUS
10
30.3357
20
-153.317
11
30.3357
21
-153.793
0
LINE
8
BLACK
6
CONTINUOUS
10
30.3357
20
-153.793
11
30.2405
21
-154.174
0
LINE
8
BLACK
6
CONTINUOUS
10
30.2405
20
-154.174
11
30.1452
21
-154.364
0
LINE
8
BLACK
6
CONTINUOUS
10
30.1452
20
-154.364
11
30.05
21
-154.46
0
LINE
8
BLACK
6
CONTINUOUS
10
30.05
20
-154.46
11
29.8595
21
-154.555
0
LINE
8
BLACK
6
CONTINUOUS
10
29.8595
20
-154.555
11
29.669
21
-154.555
0
LINE
8
BLACK
6
CONTINUOUS
10
29.669
20
-154.555
11
29.4786
21
-154.46
0
LINE
8
BLACK
6
CONTINUOUS
10
29.4786
20
-154.46
11
29.3833
21
-154.364
0
LINE
8
BLACK
6
CONTINUOUS
10
29.3833
20
-154.364
11
29.2881
21
-154.174
0
LINE
8
BLACK
6
CONTINUOUS
10
29.2881
20
-154.174
11
29.1929
21
-153.793
0
LINE
8
BLACK
6
CONTINUOUS
10
29.1929
20
-153.793
11
29.1929
21
-153.317
0
LINE
8
BLACK
6
CONTINUOUS
10
29.1929
20
-153.317
11
29.2881
21
-152.936
0
LINE
8
BLACK
6
CONTINUOUS
10
29.2881
20
-152.936
11
29.3833
21
-152.745
0
LINE
8
BLACK
6
CONTINUOUS
10
29.3833
20
-152.745
11
29.4786
21
-152.65
0
LINE
8
BLACK
6
CONTINUOUS
10
29.4786
20
-152.65
11
29.669
21
-152.555
0
LINE
8
BLACK
6
CONTINUOUS
10
31.5738
20
-152.555
11
31.7643
21
-152.555
0
LINE
8
BLACK
6
CONTINUOUS
10
31.7643
20
-152.555
11
31.9548
21
-152.65
0
LINE
8
BLACK
6
CONTINUOUS
10
31.9548
20
-152.65
11
32.05
21
-152.745
0
LINE
8
BLACK
6
CONTINUOUS
10
32.05
20
-152.745
11
32.1452
21
-152.936
0
LINE
8
BLACK
6
CONTINUOUS
10
32.1452
20
-152.936
11
32.2405
21
-153.317
0
LINE
8
BLACK
6
CONTINUOUS
10
32.2405
20
-153.317
11
32.2405
21
-153.793
0
LINE
8
BLACK
6
CONTINUOUS
10
32.2405
20
-153.793
11
32.1452
21
-154.174
0
LINE
8
BLACK
6
CONTINUOUS
10
32.1452
20
-154.174
11
32.05
21
-154.364
0
LINE
8
BLACK
6
CONTINUOUS
10
32.05
20
-154.364
11
31.9548
21
-154.46
0
LINE
8
BLACK
6
CONTINUOUS
10
31.9548
20
-154.46
11
31.7643
21
-154.555
0
LINE
8
BLACK
6
CONTINUOUS
10
31.7643
20
-154.555
11
31.5738
21
-154.555
0
LINE
8
BLACK
6
CONTINUOUS
10
31.5738
20
-154.555
11
31.3833
21
-154.46
0
LINE
8
BLACK
6
CONTINUOUS
10
31.3833
20
-154.46
11
31.2881
21
-154.364
0
LINE
8
BLACK
6
CONTINUOUS
10
31.2881
20
-154.364
11
31.1929
21
-154.174
0
LINE
8
BLACK
6
CONTINUOUS
10
31.1929
20
-154.174
11
31.0976
21
-153.793
0
LINE
8
BLACK
6
CONTINUOUS
10
31.0976
20
-153.793
11
31.0976
21
-153.317
0
LINE
8
BLACK
6
CONTINUOUS
10
31.0976
20
-153.317
11
31.1929
21
-152.936
0
LINE
8
BLACK
6
CONTINUOUS
10
31.1929
20
-152.936
11
31.2881
21
-152.745
0
LINE
8
BLACK
6
CONTINUOUS
10
31.2881
20
-152.745
11
31.3833
21
-152.65
0
LINE
8
BLACK
6
CONTINUOUS
10
31.3833
20
-152.65
11
31.5738
21
-152.555
0
LINE
8
BLACK
6
CONTINUOUS
10
33.0976
20
-154.555
11
33.0976
21
-153.221
0
LINE
8
BLACK
6
CONTINUOUS
10
33.0976
20
-153.412
11
33.1929
21
-153.317
0
LINE
8
BLACK
6
CONTINUOUS
10
33.1929
20
-153.317
11
33.3833
21
-153.221
0
LINE
8
BLACK
6
CONTINUOUS
10
33.3833
20
-153.221
11
33.669
21
-153.221
0
LINE
8
BLACK
6
CONTINUOUS
10
33.669
20
-153.221
11
33.8595
21
-153.317
0
LINE
8
BLACK
6
CONTINUOUS
10
33.8595
20
-153.317
11
33.9548
21
-153.507
0
LINE
8
BLACK
6
CONTINUOUS
10
33.9548
20
-153.507
11
33.9548
21
-154.555
0
LINE
8
BLACK
6
CONTINUOUS
10
33.9548
20
-153.507
11
34.05
21
-153.317
0
LINE
8
BLACK
6
CONTINUOUS
10
34.05
20
-153.317
11
34.2405
21
-153.221
0
LINE
8
BLACK
6
CONTINUOUS
10
34.2405
20
-153.221
11
34.5262
21
-153.221
0
LINE
8
BLACK
6
CONTINUOUS
10
34.5262
20
-153.221
11
34.7167
21
-153.317
0
LINE
8
BLACK
6
CONTINUOUS
10
34.7167
20
-153.317
11
34.8119
21
-153.507
0
LINE
8
BLACK
6
CONTINUOUS
10
34.8119
20
-153.507
11
34.8119
21
-154.555
0
LINE
8
BLACK
6
CONTINUOUS
10
35.7643
20
-154.555
11
35.7643
21
-153.221
0
LINE
8
BLACK
6
CONTINUOUS
10
35.7643
20
-153.412
11
35.8595
21
-153.317
0
LINE
8
BLACK
6
CONTINUOUS
10
35.8595
20
-153.317
11
36.05
21
-153.221
0
LINE
8
BLACK
6
CONTINUOUS
10
36.05
20
-153.221
11
36.3357
21
-153.221
0
LINE
8
BLACK
6
CONTINUOUS
10
36.3357
20
-153.221
11
36.5262
21
-153.317
0
LINE
8
BLACK
6
CONTINUOUS
10
36.5262
20
-153.317
11
36.6214
21
-153.507
0
LINE
8
BLACK
6
CONTINUOUS
10
36.6214
20
-153.507
11
36.6214
21
-154.555
0
LINE
8
BLACK
6
CONTINUOUS
10
36.6214
20
-153.507
11
36.7167
21
-153.317
0
LINE
8
BLACK
6
CONTINUOUS
10
36.7167
20
-153.317
11
36.9071
21
-153.221
0
LINE
8
BLACK
6
CONTINUOUS
10
36.9071
20
-153.221
11
37.1929
21
-153.221
0
LINE
8
BLACK
6
CONTINUOUS
10
37.1929
20
-153.221
11
37.3833
21
-153.317
0
LINE
8
BLACK
6
CONTINUOUS
10
37.3833
20
-153.317
11
37.4786
21
-153.507
0
LINE
8
BLACK
6
CONTINUOUS
10
37.4786
20
-153.507
11
37.4786
21
-154.555
0
LINE
8
BLACK
6
CONTINUOUS
10
41.3833
20
-152.46
11
39.669
21
-155.031
0
LINE
8
BLACK
6
CONTINUOUS
10
43.9548
20
-152.555
11
44.1452
21
-152.555
0
LINE
8
BLACK
6
CONTINUOUS
10
44.1452
20
-152.555
11
44.3357
21
-152.65
0
LINE
8
BLACK
6
CONTINUOUS
10
44.3357
20
-152.65
11
44.431
21
-152.745
0
LINE
8
BLACK
6
CONTINUOUS
10
44.431
20
-152.745
11
44.5262
21
-152.936
0
LINE
8
BLACK
6
CONTINUOUS
10
44.5262
20
-152.936
11
44.6214
21
-153.317
0
LINE
8
BLACK
6
CONTINUOUS
10
44.6214
20
-153.317
11
44.6214
21
-153.793
0
LINE
8
BLACK
6
CONTINUOUS
10
44.6214
20
-153.793
11
44.5262
21
-154.174
0
LINE
8
BLACK
6
CONTINUOUS
10
44.5262
20
-154.174
11
44.431
21
-154.364
0
LINE
8
BLACK
6
CONTINUOUS
10
44.431
20
-154.364
11
44.3357
21
-154.46
0
LINE
8
BLACK
6
CONTINUOUS
10
44.3357
20
-154.46
11
44.1452
21
-154.555
0
LINE
8
BLACK
6
CONTINUOUS
10
44.1452
20
-154.555
11
43.9548
21
-154.555
0
LINE
8
BLACK
6
CONTINUOUS
10
43.9548
20
-154.555
11
43.7643
21
-154.46
0
LINE
8
BLACK
6
CONTINUOUS
10
43.7643
20
-154.46
11
43.669
21
-154.364
0
LINE
8
BLACK
6
CONTINUOUS
10
43.669
20
-154.364
11
43.5738
21
-154.174
0
LINE
8
BLACK
6
CONTINUOUS
10
43.5738
20
-154.174
11
43.4786
21
-153.793
0
LINE
8
BLACK
6
CONTINUOUS
10
43.4786
20
-153.793
11
43.4786
21
-153.317
0
LINE
8
BLACK
6
CONTINUOUS
10
43.4786
20
-153.317
11
43.5738
21
-152.936
0
LINE
8
BLACK
6
CONTINUOUS
10
43.5738
20
-152.936
11
43.669
21
-152.745
0
LINE
8
BLACK
6
CONTINUOUS
10
43.669
20
-152.745
11
43.7643
21
-152.65
0
LINE
8
BLACK
6
CONTINUOUS
10
43.7643
20
-152.65
11
43.9548
21
-152.555
0
LINE
8
BLACK
6
CONTINUOUS
10
45.4786
20
-154.364
11
45.5738
21
-154.46
0
LINE
8
BLACK
6
CONTINUOUS
10
45.5738
20
-154.46
11
45.4786
21
-154.555
0
LINE
8
BLACK
6
CONTINUOUS
10
45.4786
20
-154.555
11
45.3833
21
-154.46
0
LINE
8
BLACK
6
CONTINUOUS
10
45.3833
20
-154.46
11
45.4786
21
-154.364
0
LINE
8
BLACK
6
CONTINUOUS
10
45.4786
20
-154.364
11
45.4786
21
-154.555
0
LINE
8
BLACK
6
CONTINUOUS
10
46.8119
20
-152.555
11
47.0024
21
-152.555
0
LINE
8
BLACK
6
CONTINUOUS
10
47.0024
20
-152.555
11
47.1929
21
-152.65
0
LINE
8
BLACK
6
CONTINUOUS
10
47.1929
20
-152.65
11
47.2881
21
-152.745
0
LINE
8
BLACK
6
CONTINUOUS
10
47.2881
20
-152.745
11
47.3833
21
-152.936
0
LINE
8
BLACK
6
CONTINUOUS
10
47.3833
20
-152.936
11
47.4786
21
-153.317
0
LINE
8
BLACK
6
CONTINUOUS
10
47.4786
20
-153.317
11
47.4786
21
-153.793
0
LINE
8
BLACK
6
CONTINUOUS
10
47.4786
20
-153.793
11
47.3833
21
-154.174
0
LINE
8
BLACK
6
CONTINUOUS
10
47.3833
20
-154.174
11
47.2881
21
-154.364
0
LINE
8
BLACK
6
CONTINUOUS
10
47.2881
20
-154.364
11
47.1929
21
-154.46
0
LINE
8
BLACK
6
CONTINUOUS
10
47.1929
20
-154.46
11
47.0024
21
-154.555
0
LINE
8
BLACK
6
CONTINUOUS
10
47.0024
20
-154.555
11
46.8119
21
-154.555
0
LINE
8
BLACK
6
CONTINUOUS
10
46.8119
20
-154.555
11
46.6214
21
-154.46
0
LINE
8
BLACK
6
CONTINUOUS
10
46.6214
20
-154.46
11
46.5262
21
-154.364
0
LINE
8
BLACK
6
CONTINUOUS
10
46.5262
20
-154.364
11
46.431
21
-154.174
0
LINE
8
BLACK
6
CONTINUOUS
10
46.431
20
-154.174
11
46.3357
21
-153.793
0
LINE
8
BLACK
6
CONTINUOUS
10
46.3357
20
-153.793
11
46.3357
21
-153.317
0
LINE
8
BLACK
6
CONTINUOUS
10
46.3357
20
-153.317
11
46.431
21
-152.936
0
LINE
8
BLACK
6
CONTINUOUS
10
46.431
20
-152.936
11
46.5262
21
-152.745
0
LINE
8
BLACK
6
CONTINUOUS
10
46.5262
20
-152.745
11
46.6214
21
-152.65
0
LINE
8
BLACK
6
CONTINUOUS
10
46.6214
20
-152.65
11
46.8119
21
-152.555
0
LINE
8
BLACK
6
CONTINUOUS
10
48.431
20
-154.555
11
48.8119
21
-154.555
0
LINE
8
BLACK
6
CONTINUOUS
10
48.8119
20
-154.555
11
49.0024
21
-154.46
0
LINE
8
BLACK
6
CONTINUOUS
10
49.0024
20
-154.46
11
49.0976
21
-154.364
0
LINE
8
BLACK
6
CONTINUOUS
10
49.0976
20
-154.364
11
49.2881
21
-154.079
0
LINE
8
BLACK
6
CONTINUOUS
10
49.2881
20
-154.079
11
49.3833
21
-153.698
0
LINE
8
BLACK
6
CONTINUOUS
10
49.3833
20
-153.698
11
49.3833
21
-152.936
0
LINE
8
BLACK
6
CONTINUOUS
10
49.3833
20
-152.936
11
49.2881
21
-152.745
0
LINE
8
BLACK
6
CONTINUOUS
10
49.2881
20
-152.745
11
49.1929
21
-152.65
0
LINE
8
BLACK
6
CONTINUOUS
10
49.1929
20
-152.65
11
49.0024
21
-152.555
0
LINE
8
BLACK
6
CONTINUOUS
10
49.0024
20
-152.555
11
48.6214
21
-152.555
0
LINE
8
BLACK
6
CONTINUOUS
10
48.6214
20
-152.555
11
48.431
21
-152.65
0
LINE
8
BLACK
6
CONTINUOUS
10
48.431
20
-152.65
11
48.3357
21
-152.745
0
LINE
8
BLACK
6
CONTINUOUS
10
48.3357
20
-152.745
11
48.2405
21
-152.936
0
LINE
8
BLACK
6
CONTINUOUS
10
48.2405
20
-152.936
11
48.2405
21
-153.412
0
LINE
8
BLACK
6
CONTINUOUS
10
48.2405
20
-153.412
11
48.3357
21
-153.602
0
LINE
8
BLACK
6
CONTINUOUS
10
48.3357
20
-153.602
11
48.431
21
-153.698
0
LINE
8
BLACK
6
CONTINUOUS
10
48.431
20
-153.698
11
48.6214
21
-153.793
0
LINE
8
BLACK
6
CONTINUOUS
10
48.6214
20
-153.793
11
49.0024
21
-153.793
0
LINE
8
BLACK
6
CONTINUOUS
10
49.0024
20
-153.793
11
49.1929
21
-153.698
0
LINE
8
BLACK
6
CONTINUOUS
10
49.1929
20
-153.698
11
49.2881
21
-153.602
0
LINE
8
BLACK
6
CONTINUOUS
10
49.2881
20
-153.602
11
49.3833
21
-153.412
0
LINE
8
BLACK
6
CONTINUOUS
10
50.5262
20
-153.412
11
50.3357
21
-153.317
0
LINE
8
BLACK
6
CONTINUOUS
10
50.3357
20
-153.317
11
50.2405
21
-153.221
0
LINE
8
BLACK
6
CONTINUOUS
10
50.2405
20
-153.221
11
50.1452
21
-153.031
0
LINE
8
BLACK
6
CONTINUOUS
10
50.1452
20
-153.031
11
50.1452
21
-152.936
0
LINE
8
BLACK
6
CONTINUOUS
10
50.1452
20
-152.936
11
50.2405
21
-152.745
0
LINE
8
BLACK
6
CONTINUOUS
10
50.2405
20
-152.745
11
50.3357
21
-152.65
0
LINE
8
BLACK
6
CONTINUOUS
10
50.3357
20
-152.65
11
50.5262
21
-152.555
0
LINE
8
BLACK
6
CONTINUOUS
10
50.5262
20
-152.555
11
50.9071
21
-152.555
0
LINE
8
BLACK
6
CONTINUOUS
10
50.9071
20
-152.555
11
51.0976
21
-152.65
0
LINE
8
BLACK
6
CONTINUOUS
10
51.0976
20
-152.65
11
51.1929
21
-152.745
0
LINE
8
BLACK
6
CONTINUOUS
10
51.1929
20
-152.745
11
51.2881
21
-152.936
0
LINE
8
BLACK
6
CONTINUOUS
10
51.2881
20
-152.936
11
51.2881
21
-153.031
0
LINE
8
BLACK
6
CONTINUOUS
10
51.2881
20
-153.031
11
51.1929
21
-153.221
0
LINE
8
BLACK
6
CONTINUOUS
10
51.1929
20
-153.221
11
51.0976
21
-153.317
0
LINE
8
BLACK
6
CONTINUOUS
10
51.0976
20
-153.317
11
50.9071
21
-153.412
0
LINE
8
BLACK
6
CONTINUOUS
10
50.9071
20
-153.412
11
50.5262
21
-153.412
0
LINE
8
BLACK
6
CONTINUOUS
10
50.5262
20
-153.412
11
50.3357
21
-153.507
0
LINE
8
BLACK
6
CONTINUOUS
10
50.3357
20
-153.507
11
50.2405
21
-153.602
0
LINE
8
BLACK
6
CONTINUOUS
10
50.2405
20
-153.602
11
50.1452
21
-153.793
0
LINE
8
BLACK
6
CONTINUOUS
10
50.1452
20
-153.793
11
50.1452
21
-154.174
0
LINE
8
BLACK
6
CONTINUOUS
10
50.1452
20
-154.174
11
50.2405
21
-154.364
0
LINE
8
BLACK
6
CONTINUOUS
10
50.2405
20
-154.364
11
50.3357
21
-154.46
0
LINE
8
BLACK
6
CONTINUOUS
10
50.3357
20
-154.46
11
50.5262
21
-154.555
0
LINE
8
BLACK
6
CONTINUOUS
10
50.5262
20
-154.555
11
50.9071
21
-154.555
0
LINE
8
BLACK
6
CONTINUOUS
10
50.9071
20
-154.555
11
51.0976
21
-154.46
0
LINE
8
BLACK
6
CONTINUOUS
10
51.0976
20
-154.46
11
51.1929
21
-154.364
0
LINE
8
BLACK
6
CONTINUOUS
10
51.1929
20
-154.364
11
51.2881
21
-154.174
0
LINE
8
BLACK
6
CONTINUOUS
10
51.2881
20
-154.174
11
51.2881
21
-153.793
0
LINE
8
BLACK
6
CONTINUOUS
10
51.2881
20
-153.793
11
51.1929
21
-153.602
0
LINE
8
BLACK
6
CONTINUOUS
10
51.1929
20
-153.602
11
51.0976
21
-153.507
0
LINE
8
BLACK
6
CONTINUOUS
10
51.0976
20
-153.507
11
50.9071
21
-153.412
0
LINE
8
BLACK
6
CONTINUOUS
10
53.0024
20
-153.221
11
53.0024
21
-154.555
0
LINE
8
BLACK
6
CONTINUOUS
10
52.5262
20
-152.46
11
52.05
21
-153.888
0
LINE
8
BLACK
6
CONTINUOUS
10
52.05
20
-153.888
11
53.2881
21
-153.888
0
LINE
8
BLACK
6
CONTINUOUS
10
53.9548
20
-152.555
11
53.9548
21
-152.936
0
LINE
8
BLACK
6
CONTINUOUS
10
54.7167
20
-152.555
11
54.7167
21
-152.936
0
LINE
8
BLACK
6
CONTINUOUS
10
57.669
20
-155.317
11
57.5738
21
-155.221
0
LINE
8
BLACK
6
CONTINUOUS
10
57.5738
20
-155.221
11
57.3833
21
-154.936
0
LINE
8
BLACK
6
CONTINUOUS
10
57.3833
20
-154.936
11
57.2881
21
-154.745
0
LINE
8
BLACK
6
CONTINUOUS
10
57.2881
20
-154.745
11
57.1929
21
-154.46
0
LINE
8
BLACK
6
CONTINUOUS
10
57.1929
20
-154.46
11
57.0976
21
-153.983
0
LINE
8
BLACK
6
CONTINUOUS
10
57.0976
20
-153.983
11
57.0976
21
-153.602
0
LINE
8
BLACK
6
CONTINUOUS
10
57.0976
20
-153.602
11
57.1929
21
-153.126
0
LINE
8
BLACK
6
CONTINUOUS
10
57.1929
20
-153.126
11
57.2881
21
-152.84
0
LINE
8
BLACK
6
CONTINUOUS
10
57.2881
20
-152.84
11
57.3833
21
-152.65
0
LINE
8
BLACK
6
CONTINUOUS
10
57.3833
20
-152.65
11
57.5738
21
-152.364
0
LINE
8
BLACK
6
CONTINUOUS
10
57.5738
20
-152.364
11
57.669
21
-152.269
0
LINE
8
BLACK
6
CONTINUOUS
10
58.3357
20
-152.745
11
58.431
21
-152.65
0
LINE
8
BLACK
6
CONTINUOUS
10
58.431
20
-152.65
11
58.6214
21
-152.555
0
LINE
8
BLACK
6
CONTINUOUS
10
58.6214
20
-152.555
11
59.0976
21
-152.555
0
LINE
8
BLACK
6
CONTINUOUS
10
59.0976
20
-152.555
11
59.2881
21
-152.65
0
LINE
8
BLACK
6
CONTINUOUS
10
59.2881
20
-152.65
11
59.3833
21
-152.745
0
LINE
8
BLACK
6
CONTINUOUS
10
59.3833
20
-152.745
11
59.4786
21
-152.936
0
LINE
8
BLACK
6
CONTINUOUS
10
59.4786
20
-152.936
11
59.4786
21
-153.126
0
LINE
8
BLACK
6
CONTINUOUS
10
59.4786
20
-153.126
11
59.3833
21
-153.412
0
LINE
8
BLACK
6
CONTINUOUS
10
59.3833
20
-153.412
11
58.2405
21
-154.555
0
LINE
8
BLACK
6
CONTINUOUS
10
58.2405
20
-154.555
11
59.4786
21
-154.555
0
LINE
8
BLACK
6
CONTINUOUS
10
61.8595
20
-154.555
11
61.8595
21
-152.555
0
LINE
8
BLACK
6
CONTINUOUS
10
62.7167
20
-154.555
11
62.7167
21
-153.507
0
LINE
8
BLACK
6
CONTINUOUS
10
62.7167
20
-153.507
11
62.6214
21
-153.317
0
LINE
8
BLACK
6
CONTINUOUS
10
62.6214
20
-153.317
11
62.431
21
-153.221
0
LINE
8
BLACK
6
CONTINUOUS
10
62.431
20
-153.221
11
62.1452
21
-153.221
0
LINE
8
BLACK
6
CONTINUOUS
10
62.1452
20
-153.221
11
61.9548
21
-153.317
0
LINE
8
BLACK
6
CONTINUOUS
10
61.9548
20
-153.317
11
61.8595
21
-153.412
0
LINE
8
BLACK
6
CONTINUOUS
10
63.9548
20
-154.555
11
63.7643
21
-154.46
0
LINE
8
BLACK
6
CONTINUOUS
10
63.7643
20
-154.46
11
63.669
21
-154.364
0
LINE
8
BLACK
6
CONTINUOUS
10
63.669
20
-154.364
11
63.5738
21
-154.174
0
LINE
8
BLACK
6
CONTINUOUS
10
63.5738
20
-154.174
11
63.5738
21
-153.602
0
LINE
8
BLACK
6
CONTINUOUS
10
63.5738
20
-153.602
11
63.669
21
-153.412
0
LINE
8
BLACK
6
CONTINUOUS
10
63.669
20
-153.412
11
63.7643
21
-153.317
0
LINE
8
BLACK
6
CONTINUOUS
10
63.7643
20
-153.317
11
63.9548
21
-153.221
0
LINE
8
BLACK
6
CONTINUOUS
10
63.9548
20
-153.221
11
64.2405
21
-153.221
0
LINE
8
BLACK
6
CONTINUOUS
10
64.2405
20
-153.221
11
64.431
21
-153.317
0
LINE
8
BLACK
6
CONTINUOUS
10
64.431
20
-153.317
11
64.5262
21
-153.412
0
LINE
8
BLACK
6
CONTINUOUS
10
64.5262
20
-153.412
11
64.6214
21
-153.602
0
LINE
8
BLACK
6
CONTINUOUS
10
64.6214
20
-153.602
11
64.6214
21
-154.174
0
LINE
8
BLACK
6
CONTINUOUS
10
64.6214
20
-154.174
11
64.5262
21
-154.364
0
LINE
8
BLACK
6
CONTINUOUS
10
64.5262
20
-154.364
11
64.431
21
-154.46
0
LINE
8
BLACK
6
CONTINUOUS
10
64.431
20
-154.46
11
64.2405
21
-154.555
0
LINE
8
BLACK
6
CONTINUOUS
10
64.2405
20
-154.555
11
63.9548
21
-154.555
0
LINE
8
BLACK
6
CONTINUOUS
10
65.7643
20
-154.555
11
65.5738
21
-154.46
0
LINE
8
BLACK
6
CONTINUOUS
10
65.5738
20
-154.46
11
65.4786
21
-154.269
0
LINE
8
BLACK
6
CONTINUOUS
10
65.4786
20
-154.269
11
65.4786
21
-152.555
0
LINE
8
BLACK
6
CONTINUOUS
10
67.2881
20
-154.46
11
67.0976
21
-154.555
0
LINE
8
BLACK
6
CONTINUOUS
10
67.0976
20
-154.555
11
66.7167
21
-154.555
0
LINE
8
BLACK
6
CONTINUOUS
10
66.7167
20
-154.555
11
66.5262
21
-154.46
0
LINE
8
BLACK
6
CONTINUOUS
10
66.5262
20
-154.46
11
66.431
21
-154.269
0
LINE
8
BLACK
6
CONTINUOUS
10
66.431
20
-154.269
11
66.431
21
-153.507
0
LINE
8
BLACK
6
CONTINUOUS
10
66.431
20
-153.507
11
66.5262
21
-153.317
0
LINE
8
BLACK
6
CONTINUOUS
10
66.5262
20
-153.317
11
66.7167
21
-153.221
0
LINE
8
BLACK
6
CONTINUOUS
10
66.7167
20
-153.221
11
67.0976
21
-153.221
0
LINE
8
BLACK
6
CONTINUOUS
10
67.0976
20
-153.221
11
67.2881
21
-153.317
0
LINE
8
BLACK
6
CONTINUOUS
10
67.2881
20
-153.317
11
67.3833
21
-153.507
0
LINE
8
BLACK
6
CONTINUOUS
10
67.3833
20
-153.507
11
67.3833
21
-153.698
0
LINE
8
BLACK
6
CONTINUOUS
10
67.3833
20
-153.698
11
66.431
21
-153.888
0
LINE
8
BLACK
6
CONTINUOUS
10
68.1452
20
-154.46
11
68.3357
21
-154.555
0
LINE
8
BLACK
6
CONTINUOUS
10
68.3357
20
-154.555
11
68.7167
21
-154.555
0
LINE
8
BLACK
6
CONTINUOUS
10
68.7167
20
-154.555
11
68.9071
21
-154.46
0
LINE
8
BLACK
6
CONTINUOUS
10
68.9071
20
-154.46
11
69.0024
21
-154.269
0
LINE
8
BLACK
6
CONTINUOUS
10
69.0024
20
-154.269
11
69.0024
21
-154.174
0
LINE
8
BLACK
6
CONTINUOUS
10
69.0024
20
-154.174
11
68.9071
21
-153.983
0
LINE
8
BLACK
6
CONTINUOUS
10
68.9071
20
-153.983
11
68.7167
21
-153.888
0
LINE
8
BLACK
6
CONTINUOUS
10
68.7167
20
-153.888
11
68.431
21
-153.888
0
LINE
8
BLACK
6
CONTINUOUS
10
68.431
20
-153.888
11
68.2405
21
-153.793
0
LINE
8
BLACK
6
CONTINUOUS
10
68.2405
20
-153.793
11
68.1452
21
-153.602
0
LINE
8
BLACK
6
CONTINUOUS
10
68.1452
20
-153.602
11
68.1452
21
-153.507
0
LINE
8
BLACK
6
CONTINUOUS
10
68.1452
20
-153.507
11
68.2405
21
-153.317
0
LINE
8
BLACK
6
CONTINUOUS
10
68.2405
20
-153.317
11
68.431
21
-153.221
0
LINE
8
BLACK
6
CONTINUOUS
10
68.431
20
-153.221
11
68.7167
21
-153.221
0
LINE
8
BLACK
6
CONTINUOUS
10
68.7167
20
-153.221
11
68.9071
21
-153.317
0
LINE
8
BLACK
6
CONTINUOUS
10
69.669
20
-155.317
11
69.7643
21
-155.221
0
LINE
8
BLACK
6
CONTINUOUS
10
69.7643
20
-155.221
11
69.9548
21
-154.936
0
LINE
8
BLACK
6
CONTINUOUS
10
69.9548
20
-154.936
11
70.05
21
-154.745
0
LINE
8
BLACK
6
CONTINUOUS
10
70.05
20
-154.745
11
70.1452
21
-154.46
0
LINE
8
BLACK
6
CONTINUOUS
10
70.1452
20
-154.46
11
70.2405
21
-153.983
0
LINE
8
BLACK
6
CONTINUOUS
10
70.2405
20
-153.983
11
70.2405
21
-153.602
0
LINE
8
BLACK
6
CONTINUOUS
10
70.2405
20
-153.602
11
70.1452
21
-153.126
0
LINE
8
BLACK
6
CONTINUOUS
10
70.1452
20
-153.126
11
70.05
21
-152.84
0
LINE
8
BLACK
6
CONTINUOUS
10
70.05
20
-152.84
11
69.9548
21
-152.65
0
LINE
8
BLACK
6
CONTINUOUS
10
69.9548
20
-152.65
11
69.7643
21
-152.364
0
LINE
8
BLACK
6
CONTINUOUS
10
69.7643
20
-152.364
11
69.669
21
-152.269
0
LINE
8
BLACK
6
CONTINUOUS
10
73.2881
20
-155.317
11
73.1929
21
-155.221
0
LINE
8
BLACK
6
CONTINUOUS
10
73.1929
20
-155.221
11
73.0024
21
-154.936
0
LINE
8
BLACK
6
CONTINUOUS
10
73.0024
20
-154.936
11
72.9071
21
-154.745
0
LINE
8
BLACK
6
CONTINUOUS
10
72.9071
20
-154.745
11
72.8119
21
-154.46
0
LINE
8
BLACK
6
CONTINUOUS
10
72.8119
20
-154.46
11
72.7167
21
-153.983
0
LINE
8
BLACK
6
CONTINUOUS
10
72.7167
20
-153.983
11
72.7167
21
-153.602
0
LINE
8
BLACK
6
CONTINUOUS
10
72.7167
20
-153.602
11
72.8119
21
-153.126
0
LINE
8
BLACK
6
CONTINUOUS
10
72.8119
20
-153.126
11
72.9071
21
-152.84
0
LINE
8
BLACK
6
CONTINUOUS
10
72.9071
20
-152.84
11
73.0024
21
-152.65
0
LINE
8
BLACK
6
CONTINUOUS
10
73.0024
20
-152.65
11
73.1929
21
-152.364
0
LINE
8
BLACK
6
CONTINUOUS
10
73.1929
20
-152.364
11
73.2881
21
-152.269
0
LINE
8
BLACK
6
CONTINUOUS
10
74.05
20
-153.221
11
74.05
21
-154.555
0
LINE
8
BLACK
6
CONTINUOUS
10
74.05
20
-153.412
11
74.1452
21
-153.317
0
LINE
8
BLACK
6
CONTINUOUS
10
74.1452
20
-153.317
11
74.3357
21
-153.221
0
LINE
8
BLACK
6
CONTINUOUS
10
74.3357
20
-153.221
11
74.6214
21
-153.221
0
LINE
8
BLACK
6
CONTINUOUS
10
74.6214
20
-153.221
11
74.8119
21
-153.317
0
LINE
8
BLACK
6
CONTINUOUS
10
74.8119
20
-153.317
11
74.9071
21
-153.507
0
LINE
8
BLACK
6
CONTINUOUS
10
74.9071
20
-153.507
11
74.9071
21
-154.555
0
LINE
8
BLACK
6
CONTINUOUS
10
76.1452
20
-154.555
11
75.9548
21
-154.46
0
LINE
8
BLACK
6
CONTINUOUS
10
75.9548
20
-154.46
11
75.8595
21
-154.364
0
LINE
8
BLACK
6
CONTINUOUS
10
75.8595
20
-154.364
11
75.7643
21
-154.174
0
LINE
8
BLACK
6
CONTINUOUS
10
75.7643
20
-154.174
11
75.7643
21
-153.602
0
LINE
8
BLACK
6
CONTINUOUS
10
75.7643
20
-153.602
11
75.8595
21
-153.412
0
LINE
8
BLACK
6
CONTINUOUS
10
75.8595
20
-153.412
11
75.9548
21
-153.317
0
LINE
8
BLACK
6
CONTINUOUS
10
75.9548
20
-153.317
11
76.1452
21
-153.221
0
LINE
8
BLACK
6
CONTINUOUS
10
76.1452
20
-153.221
11
76.431
21
-153.221
0
LINE
8
BLACK
6
CONTINUOUS
10
76.431
20
-153.221
11
76.6214
21
-153.317
0
LINE
8
BLACK
6
CONTINUOUS
10
76.6214
20
-153.317
11
76.7167
21
-153.412
0
LINE
8
BLACK
6
CONTINUOUS
10
76.7167
20
-153.412
11
76.8119
21
-153.602
0
LINE
8
BLACK
6
CONTINUOUS
10
76.8119
20
-153.602
11
76.8119
21
-154.174
0
LINE
8
BLACK
6
CONTINUOUS
10
76.8119
20
-154.174
11
76.7167
21
-154.364
0
LINE
8
BLACK
6
CONTINUOUS
10
76.7167
20
-154.364
11
76.6214
21
-154.46
0
LINE
8
BLACK
6
CONTINUOUS
10
76.6214
20
-154.46
11
76.431
21
-154.555
0
LINE
8
BLACK
6
CONTINUOUS
10
76.431
20
-154.555
11
76.1452
21
-154.555
0
LINE
8
BLACK
6
CONTINUOUS
10
77.3833
20
-153.221
11
78.1452
21
-153.221
0
LINE
8
BLACK
6
CONTINUOUS
10
77.669
20
-152.555
11
77.669
21
-154.269
0
LINE
8
BLACK
6
CONTINUOUS
10
77.669
20
-154.269
11
77.7643
21
-154.46
0
LINE
8
BLACK
6
CONTINUOUS
10
77.7643
20
-154.46
11
77.9548
21
-154.555
0
LINE
8
BLACK
6
CONTINUOUS
10
77.9548
20
-154.555
11
78.1452
21
-154.555
0
LINE
8
BLACK
6
CONTINUOUS
10
80.3357
20
-153.221
11
80.3357
21
-155.221
0
LINE
8
BLACK
6
CONTINUOUS
10
80.3357
20
-153.317
11
80.5262
21
-153.221
0
LINE
8
BLACK
6
CONTINUOUS
10
80.5262
20
-153.221
11
80.9071
21
-153.221
0
LINE
8
BLACK
6
CONTINUOUS
10
80.9071
20
-153.221
11
81.0976
21
-153.317
0
LINE
8
BLACK
6
CONTINUOUS
10
81.0976
20
-153.317
11
81.1929
21
-153.412
0
LINE
8
BLACK
6
CONTINUOUS
10
81.1929
20
-153.412
11
81.2881
21
-153.602
0
LINE
8
BLACK
6
CONTINUOUS
10
81.2881
20
-153.602
11
81.2881
21
-154.174
0
LINE
8
BLACK
6
CONTINUOUS
10
81.2881
20
-154.174
11
81.1929
21
-154.364
0
LINE
8
BLACK
6
CONTINUOUS
10
81.1929
20
-154.364
11
81.0976
21
-154.46
0
LINE
8
BLACK
6
CONTINUOUS
10
81.0976
20
-154.46
11
80.9071
21
-154.555
0
LINE
8
BLACK
6
CONTINUOUS
10
80.9071
20
-154.555
11
80.5262
21
-154.555
0
LINE
8
BLACK
6
CONTINUOUS
10
80.5262
20
-154.555
11
80.3357
21
-154.46
0
LINE
8
BLACK
6
CONTINUOUS
10
82.431
20
-154.555
11
82.2405
21
-154.46
0
LINE
8
BLACK
6
CONTINUOUS
10
82.2405
20
-154.46
11
82.1452
21
-154.269
0
LINE
8
BLACK
6
CONTINUOUS
10
82.1452
20
-154.269
11
82.1452
21
-152.555
0
LINE
8
BLACK
6
CONTINUOUS
10
84.05
20
-154.555
11
84.05
21
-153.507
0
LINE
8
BLACK
6
CONTINUOUS
10
84.05
20
-153.507
11
83.9548
21
-153.317
0
LINE
8
BLACK
6
CONTINUOUS
10
83.9548
20
-153.317
11
83.7643
21
-153.221
0
LINE
8
BLACK
6
CONTINUOUS
10
83.7643
20
-153.221
11
83.3833
21
-153.221
0
LINE
8
BLACK
6
CONTINUOUS
10
83.3833
20
-153.221
11
83.1929
21
-153.317
0
LINE
8
BLACK
6
CONTINUOUS
10
84.05
20
-154.46
11
83.8595
21
-154.555
0
LINE
8
BLACK
6
CONTINUOUS
10
83.8595
20
-154.555
11
83.3833
21
-154.555
0
LINE
8
BLACK
6
CONTINUOUS
10
83.3833
20
-154.555
11
83.1929
21
-154.46
0
LINE
8
BLACK
6
CONTINUOUS
10
83.1929
20
-154.46
11
83.0976
21
-154.269
0
LINE
8
BLACK
6
CONTINUOUS
10
83.0976
20
-154.269
11
83.0976
21
-154.079
0
LINE
8
BLACK
6
CONTINUOUS
10
83.0976
20
-154.079
11
83.1929
21
-153.888
0
LINE
8
BLACK
6
CONTINUOUS
10
83.1929
20
-153.888
11
83.3833
21
-153.793
0
LINE
8
BLACK
6
CONTINUOUS
10
83.3833
20
-153.793
11
83.8595
21
-153.793
0
LINE
8
BLACK
6
CONTINUOUS
10
83.8595
20
-153.793
11
84.05
21
-153.698
0
LINE
8
BLACK
6
CONTINUOUS
10
84.7167
20
-153.221
11
85.4786
21
-153.221
0
LINE
8
BLACK
6
CONTINUOUS
10
85.0024
20
-152.555
11
85.0024
21
-154.269
0
LINE
8
BLACK
6
CONTINUOUS
10
85.0024
20
-154.269
11
85.0976
21
-154.46
0
LINE
8
BLACK
6
CONTINUOUS
10
85.0976
20
-154.46
11
85.2881
21
-154.555
0
LINE
8
BLACK
6
CONTINUOUS
10
85.2881
20
-154.555
11
85.4786
21
-154.555
0
LINE
8
BLACK
6
CONTINUOUS
10
86.9071
20
-154.46
11
86.7167
21
-154.555
0
LINE
8
BLACK
6
CONTINUOUS
10
86.7167
20
-154.555
11
86.3357
21
-154.555
0
LINE
8
BLACK
6
CONTINUOUS
10
86.3357
20
-154.555
11
86.1452
21
-154.46
0
LINE
8
BLACK
6
CONTINUOUS
10
86.1452
20
-154.46
11
86.05
21
-154.269
0
LINE
8
BLACK
6
CONTINUOUS
10
86.05
20
-154.269
11
86.05
21
-153.507
0
LINE
8
BLACK
6
CONTINUOUS
10
86.05
20
-153.507
11
86.1452
21
-153.317
0
LINE
8
BLACK
6
CONTINUOUS
10
86.1452
20
-153.317
11
86.3357
21
-153.221
0
LINE
8
BLACK
6
CONTINUOUS
10
86.3357
20
-153.221
11
86.7167
21
-153.221
0
LINE
8
BLACK
6
CONTINUOUS
10
86.7167
20
-153.221
11
86.9071
21
-153.317
0
LINE
8
BLACK
6
CONTINUOUS
10
86.9071
20
-153.317
11
87.0024
21
-153.507
0
LINE
8
BLACK
6
CONTINUOUS
10
87.0024
20
-153.507
11
87.0024
21
-153.698
0
LINE
8
BLACK
6
CONTINUOUS
10
87.0024
20
-153.698
11
86.05
21
-153.888
0
LINE
8
BLACK
6
CONTINUOUS
10
88.7167
20
-154.555
11
88.7167
21
-152.555
0
LINE
8
BLACK
6
CONTINUOUS
10
88.7167
20
-154.46
11
88.5262
21
-154.555
0
LINE
8
BLACK
6
CONTINUOUS
10
88.5262
20
-154.555
11
88.1452
21
-154.555
0
LINE
8
BLACK
6
CONTINUOUS
10
88.1452
20
-154.555
11
87.9548
21
-154.46
0
LINE
8
BLACK
6
CONTINUOUS
10
87.9548
20
-154.46
11
87.8595
21
-154.364
0
LINE
8
BLACK
6
CONTINUOUS
10
87.8595
20
-154.364
11
87.7643
21
-154.174
0
LINE
8
BLACK
6
CONTINUOUS
10
87.7643
20
-154.174
11
87.7643
21
-153.602
0
LINE
8
BLACK
6
CONTINUOUS
10
87.7643
20
-153.602
11
87.8595
21
-153.412
0
LINE
8
BLACK
6
CONTINUOUS
10
87.8595
20
-153.412
11
87.9548
21
-153.317
0
LINE
8
BLACK
6
CONTINUOUS
10
87.9548
20
-153.317
11
88.1452
21
-153.221
0
LINE
8
BLACK
6
CONTINUOUS
10
88.1452
20
-153.221
11
88.5262
21
-153.221
0
LINE
8
BLACK
6
CONTINUOUS
10
88.5262
20
-153.221
11
88.7167
21
-153.317
0
LINE
8
BLACK
6
CONTINUOUS
10
89.4786
20
-155.317
11
89.5738
21
-155.221
0
LINE
8
BLACK
6
CONTINUOUS
10
89.5738
20
-155.221
11
89.7643
21
-154.936
0
LINE
8
BLACK
6
CONTINUOUS
10
89.7643
20
-154.936
11
89.8595
21
-154.745
0
LINE
8
BLACK
6
CONTINUOUS
10
89.8595
20
-154.745
11
89.9548
21
-154.46
0
LINE
8
BLACK
6
CONTINUOUS
10
89.9548
20
-154.46
11
90.05
21
-153.983
0
LINE
8
BLACK
6
CONTINUOUS
10
90.05
20
-153.983
11
90.05
21
-153.602
0
LINE
8
BLACK
6
CONTINUOUS
10
90.05
20
-153.602
11
89.9548
21
-153.126
0
LINE
8
BLACK
6
CONTINUOUS
10
89.9548
20
-153.126
11
89.8595
21
-152.84
0
LINE
8
BLACK
6
CONTINUOUS
10
89.8595
20
-152.84
11
89.7643
21
-152.65
0
LINE
8
BLACK
6
CONTINUOUS
10
89.7643
20
-152.65
11
89.5738
21
-152.364
0
LINE
8
BLACK
6
CONTINUOUS
10
89.5738
20
-152.364
11
89.4786
21
-152.269
0
LINE
8
BLACK
6
CONTINUOUS
10
20.95
20
-155.85
11
20.95
21
-157.85
0
LINE
8
BLACK
6
CONTINUOUS
10
19.95
20
-156.85
11
21.95
21
-156.85
0
LINE
8
BLACK
6
CONTINUOUS
10
24.3357
20
-155.755
11
25.5738
21
-155.755
0
LINE
8
BLACK
6
CONTINUOUS
10
25.5738
20
-155.755
11
24.9071
21
-156.517
0
LINE
8
BLACK
6
CONTINUOUS
10
24.9071
20
-156.517
11
25.1929
21
-156.517
0
LINE
8
BLACK
6
CONTINUOUS
10
25.1929
20
-156.517
11
25.3833
21
-156.612
0
LINE
8
BLACK
6
CONTINUOUS
10
25.3833
20
-156.612
11
25.4786
21
-156.707
0
LINE
8
BLACK
6
CONTINUOUS
10
25.4786
20
-156.707
11
25.5738
21
-156.898
0
LINE
8
BLACK
6
CONTINUOUS
10
25.5738
20
-156.898
11
25.5738
21
-157.374
0
LINE
8
BLACK
6
CONTINUOUS
10
25.5738
20
-157.374
11
25.4786
21
-157.564
0
LINE
8
BLACK
6
CONTINUOUS
10
25.4786
20
-157.564
11
25.3833
21
-157.66
0
LINE
8
BLACK
6
CONTINUOUS
10
25.3833
20
-157.66
11
25.1929
21
-157.755
0
LINE
8
BLACK
6
CONTINUOUS
10
25.1929
20
-157.755
11
24.6214
21
-157.755
0
LINE
8
BLACK
6
CONTINUOUS
10
24.6214
20
-157.755
11
24.431
21
-157.66
0
LINE
8
BLACK
6
CONTINUOUS
10
24.431
20
-157.66
11
24.3357
21
-157.564
0
LINE
8
BLACK
6
CONTINUOUS
10
26.431
20
-157.564
11
26.5262
21
-157.66
0
LINE
8
BLACK
6
CONTINUOUS
10
26.5262
20
-157.66
11
26.431
21
-157.755
0
LINE
8
BLACK
6
CONTINUOUS
10
26.431
20
-157.755
11
26.3357
21
-157.66
0
LINE
8
BLACK
6
CONTINUOUS
10
26.3357
20
-157.66
11
26.431
21
-157.564
0
LINE
8
BLACK
6
CONTINUOUS
10
26.431
20
-157.564
11
26.431
21
-157.755
0
LINE
8
BLACK
6
CONTINUOUS
10
28.3357
20
-155.755
11
27.3833
21
-155.755
0
LINE
8
BLACK
6
CONTINUOUS
10
27.3833
20
-155.755
11
27.2881
21
-156.707
0
LINE
8
BLACK
6
CONTINUOUS
10
27.2881
20
-156.707
11
27.3833
21
-156.612
0
LINE
8
BLACK
6
CONTINUOUS
10
27.3833
20
-156.612
11
27.5738
21
-156.517
0
LINE
8
BLACK
6
CONTINUOUS
10
27.5738
20
-156.517
11
28.05
21
-156.517
0
LINE
8
BLACK
6
CONTINUOUS
10
28.05
20
-156.517
11
28.2405
21
-156.612
0
LINE
8
BLACK
6
CONTINUOUS
10
28.2405
20
-156.612
11
28.3357
21
-156.707
0
LINE
8
BLACK
6
CONTINUOUS
10
28.3357
20
-156.707
11
28.431
21
-156.898
0
LINE
8
BLACK
6
CONTINUOUS
10
28.431
20
-156.898
11
28.431
21
-157.374
0
LINE
8
BLACK
6
CONTINUOUS
10
28.431
20
-157.374
11
28.3357
21
-157.564
0
LINE
8
BLACK
6
CONTINUOUS
10
28.3357
20
-157.564
11
28.2405
21
-157.66
0
LINE
8
BLACK
6
CONTINUOUS
10
28.2405
20
-157.66
11
28.05
21
-157.755
0
LINE
8
BLACK
6
CONTINUOUS
10
28.05
20
-157.755
11
27.5738
21
-157.755
0
LINE
8
BLACK
6
CONTINUOUS
10
27.5738
20
-157.755
11
27.3833
21
-157.66
0
LINE
8
BLACK
6
CONTINUOUS
10
27.3833
20
-157.66
11
27.2881
21
-157.564
0
LINE
8
BLACK
6
CONTINUOUS
10
29.669
20
-155.755
11
29.8595
21
-155.755
0
LINE
8
BLACK
6
CONTINUOUS
10
29.8595
20
-155.755
11
30.05
21
-155.85
0
LINE
8
BLACK
6
CONTINUOUS
10
30.05
20
-155.85
11
30.1452
21
-155.945
0
LINE
8
BLACK
6
CONTINUOUS
10
30.1452
20
-155.945
11
30.2405
21
-156.136
0
LINE
8
BLACK
6
CONTINUOUS
10
30.2405
20
-156.136
11
30.3357
21
-156.517
0
LINE
8
BLACK
6
CONTINUOUS
10
30.3357
20
-156.517
11
30.3357
21
-156.993
0
LINE
8
BLACK
6
CONTINUOUS
10
30.3357
20
-156.993
11
30.2405
21
-157.374
0
LINE
8
BLACK
6
CONTINUOUS
10
30.2405
20
-157.374
11
30.1452
21
-157.564
0
LINE
8
BLACK
6
CONTINUOUS
10
30.1452
20
-157.564
11
30.05
21
-157.66
0
LINE
8
BLACK
6
CONTINUOUS
10
30.05
20
-157.66
11
29.8595
21
-157.755
0
LINE
8
BLACK
6
CONTINUOUS
10
29.8595
20
-157.755
11
29.669
21
-157.755
0
LINE
8
BLACK
6
CONTINUOUS
10
29.669
20
-157.755
11
29.4786
21
-157.66
0
LINE
8
BLACK
6
CONTINUOUS
10
29.4786
20
-157.66
11
29.3833
21
-157.564
0
LINE
8
BLACK
6
CONTINUOUS
10
29.3833
20
-157.564
11
29.2881
21
-157.374
0
LINE
8
BLACK
6
CONTINUOUS
10
29.2881
20
-157.374
11
29.1929
21
-156.993
0
LINE
8
BLACK
6
CONTINUOUS
10
29.1929
20
-156.993
11
29.1929
21
-156.517
0
LINE
8
BLACK
6
CONTINUOUS
10
29.1929
20
-156.517
11
29.2881
21
-156.136
0
LINE
8
BLACK
6
CONTINUOUS
10
29.2881
20
-156.136
11
29.3833
21
-155.945
0
LINE
8
BLACK
6
CONTINUOUS
10
29.3833
20
-155.945
11
29.4786
21
-155.85
0
LINE
8
BLACK
6
CONTINUOUS
10
29.4786
20
-155.85
11
29.669
21
-155.755
0
LINE
8
BLACK
6
CONTINUOUS
10
31.5738
20
-155.755
11
31.7643
21
-155.755
0
LINE
8
BLACK
6
CONTINUOUS
10
31.7643
20
-155.755
11
31.9548
21
-155.85
0
LINE
8
BLACK
6
CONTINUOUS
10
31.9548
20
-155.85
11
32.05
21
-155.945
0
LINE
8
BLACK
6
CONTINUOUS
10
32.05
20
-155.945
11
32.1452
21
-156.136
0
LINE
8
BLACK
6
CONTINUOUS
10
32.1452
20
-156.136
11
32.2405
21
-156.517
0
LINE
8
BLACK
6
CONTINUOUS
10
32.2405
20
-156.517
11
32.2405
21
-156.993
0
LINE
8
BLACK
6
CONTINUOUS
10
32.2405
20
-156.993
11
32.1452
21
-157.374
0
LINE
8
BLACK
6
CONTINUOUS
10
32.1452
20
-157.374
11
32.05
21
-157.564
0
LINE
8
BLACK
6
CONTINUOUS
10
32.05
20
-157.564
11
31.9548
21
-157.66
0
LINE
8
BLACK
6
CONTINUOUS
10
31.9548
20
-157.66
11
31.7643
21
-157.755
0
LINE
8
BLACK
6
CONTINUOUS
10
31.7643
20
-157.755
11
31.5738
21
-157.755
0
LINE
8
BLACK
6
CONTINUOUS
10
31.5738
20
-157.755
11
31.3833
21
-157.66
0
LINE
8
BLACK
6
CONTINUOUS
10
31.3833
20
-157.66
11
31.2881
21
-157.564
0
LINE
8
BLACK
6
CONTINUOUS
10
31.2881
20
-157.564
11
31.1929
21
-157.374
0
LINE
8
BLACK
6
CONTINUOUS
10
31.1929
20
-157.374
11
31.0976
21
-156.993
0
LINE
8
BLACK
6
CONTINUOUS
10
31.0976
20
-156.993
11
31.0976
21
-156.517
0
LINE
8
BLACK
6
CONTINUOUS
10
31.0976
20
-156.517
11
31.1929
21
-156.136
0
LINE
8
BLACK
6
CONTINUOUS
10
31.1929
20
-156.136
11
31.2881
21
-155.945
0
LINE
8
BLACK
6
CONTINUOUS
10
31.2881
20
-155.945
11
31.3833
21
-155.85
0
LINE
8
BLACK
6
CONTINUOUS
10
31.3833
20
-155.85
11
31.5738
21
-155.755
0
LINE
8
BLACK
6
CONTINUOUS
10
33.0976
20
-157.755
11
33.0976
21
-156.421
0
LINE
8
BLACK
6
CONTINUOUS
10
33.0976
20
-156.612
11
33.1929
21
-156.517
0
LINE
8
BLACK
6
CONTINUOUS
10
33.1929
20
-156.517
11
33.3833
21
-156.421
0
LINE
8
BLACK
6
CONTINUOUS
10
33.3833
20
-156.421
11
33.669
21
-156.421
0
LINE
8
BLACK
6
CONTINUOUS
10
33.669
20
-156.421
11
33.8595
21
-156.517
0
LINE
8
BLACK
6
CONTINUOUS
10
33.8595
20
-156.517
11
33.9548
21
-156.707
0
LINE
8
BLACK
6
CONTINUOUS
10
33.9548
20
-156.707
11
33.9548
21
-157.755
0
LINE
8
BLACK
6
CONTINUOUS
10
33.9548
20
-156.707
11
34.05
21
-156.517
0
LINE
8
BLACK
6
CONTINUOUS
10
34.05
20
-156.517
11
34.2405
21
-156.421
0
LINE
8
BLACK
6
CONTINUOUS
10
34.2405
20
-156.421
11
34.5262
21
-156.421
0
LINE
8
BLACK
6
CONTINUOUS
10
34.5262
20
-156.421
11
34.7167
21
-156.517
0
LINE
8
BLACK
6
CONTINUOUS
10
34.7167
20
-156.517
11
34.8119
21
-156.707
0
LINE
8
BLACK
6
CONTINUOUS
10
34.8119
20
-156.707
11
34.8119
21
-157.755
0
LINE
8
BLACK
6
CONTINUOUS
10
35.7643
20
-157.755
11
35.7643
21
-156.421
0
LINE
8
BLACK
6
CONTINUOUS
10
35.7643
20
-156.612
11
35.8595
21
-156.517
0
LINE
8
BLACK
6
CONTINUOUS
10
35.8595
20
-156.517
11
36.05
21
-156.421
0
LINE
8
BLACK
6
CONTINUOUS
10
36.05
20
-156.421
11
36.3357
21
-156.421
0
LINE
8
BLACK
6
CONTINUOUS
10
36.3357
20
-156.421
11
36.5262
21
-156.517
0
LINE
8
BLACK
6
CONTINUOUS
10
36.5262
20
-156.517
11
36.6214
21
-156.707
0
LINE
8
BLACK
6
CONTINUOUS
10
36.6214
20
-156.707
11
36.6214
21
-157.755
0
LINE
8
BLACK
6
CONTINUOUS
10
36.6214
20
-156.707
11
36.7167
21
-156.517
0
LINE
8
BLACK
6
CONTINUOUS
10
36.7167
20
-156.517
11
36.9071
21
-156.421
0
LINE
8
BLACK
6
CONTINUOUS
10
36.9071
20
-156.421
11
37.1929
21
-156.421
0
LINE
8
BLACK
6
CONTINUOUS
10
37.1929
20
-156.421
11
37.3833
21
-156.517
0
LINE
8
BLACK
6
CONTINUOUS
10
37.3833
20
-156.517
11
37.4786
21
-156.707
0
LINE
8
BLACK
6
CONTINUOUS
10
37.4786
20
-156.707
11
37.4786
21
-157.755
0
LINE
8
BLACK
6
CONTINUOUS
10
41.3833
20
-155.66
11
39.669
21
-158.231
0
LINE
8
BLACK
6
CONTINUOUS
10
43.9548
20
-155.755
11
44.1452
21
-155.755
0
LINE
8
BLACK
6
CONTINUOUS
10
44.1452
20
-155.755
11
44.3357
21
-155.85
0
LINE
8
BLACK
6
CONTINUOUS
10
44.3357
20
-155.85
11
44.431
21
-155.945
0
LINE
8
BLACK
6
CONTINUOUS
10
44.431
20
-155.945
11
44.5262
21
-156.136
0
LINE
8
BLACK
6
CONTINUOUS
10
44.5262
20
-156.136
11
44.6214
21
-156.517
0
LINE
8
BLACK
6
CONTINUOUS
10
44.6214
20
-156.517
11
44.6214
21
-156.993
0
LINE
8
BLACK
6
CONTINUOUS
10
44.6214
20
-156.993
11
44.5262
21
-157.374
0
LINE
8
BLACK
6
CONTINUOUS
10
44.5262
20
-157.374
11
44.431
21
-157.564
0
LINE
8
BLACK
6
CONTINUOUS
10
44.431
20
-157.564
11
44.3357
21
-157.66
0
LINE
8
BLACK
6
CONTINUOUS
10
44.3357
20
-157.66
11
44.1452
21
-157.755
0
LINE
8
BLACK
6
CONTINUOUS
10
44.1452
20
-157.755
11
43.9548
21
-157.755
0
LINE
8
BLACK
6
CONTINUOUS
10
43.9548
20
-157.755
11
43.7643
21
-157.66
0
LINE
8
BLACK
6
CONTINUOUS
10
43.7643
20
-157.66
11
43.669
21
-157.564
0
LINE
8
BLACK
6
CONTINUOUS
10
43.669
20
-157.564
11
43.5738
21
-157.374
0
LINE
8
BLACK
6
CONTINUOUS
10
43.5738
20
-157.374
11
43.4786
21
-156.993
0
LINE
8
BLACK
6
CONTINUOUS
10
43.4786
20
-156.993
11
43.4786
21
-156.517
0
LINE
8
BLACK
6
CONTINUOUS
10
43.4786
20
-156.517
11
43.5738
21
-156.136
0
LINE
8
BLACK
6
CONTINUOUS
10
43.5738
20
-156.136
11
43.669
21
-155.945
0
LINE
8
BLACK
6
CONTINUOUS
10
43.669
20
-155.945
11
43.7643
21
-155.85
0
LINE
8
BLACK
6
CONTINUOUS
10
43.7643
20
-155.85
11
43.9548
21
-155.755
0
LINE
8
BLACK
6
CONTINUOUS
10
45.4786
20
-157.564
11
45.5738
21
-157.66
0
LINE
8
BLACK
6
CONTINUOUS
10
45.5738
20
-157.66
11
45.4786
21
-157.755
0
LINE
8
BLACK
6
CONTINUOUS
10
45.4786
20
-157.755
11
45.3833
21
-157.66
0
LINE
8
BLACK
6
CONTINUOUS
10
45.3833
20
-157.66
11
45.4786
21
-157.564
0
LINE
8
BLACK
6
CONTINUOUS
10
45.4786
20
-157.564
11
45.4786
21
-157.755
0
LINE
8
BLACK
6
CONTINUOUS
10
47.4786
20
-157.755
11
46.3357
21
-157.755
0
LINE
8
BLACK
6
CONTINUOUS
10
46.9071
20
-157.755
11
46.9071
21
-155.755
0
LINE
8
BLACK
6
CONTINUOUS
10
46.9071
20
-155.755
11
46.7167
21
-156.04
0
LINE
8
BLACK
6
CONTINUOUS
10
46.7167
20
-156.04
11
46.5262
21
-156.231
0
LINE
8
BLACK
6
CONTINUOUS
10
46.5262
20
-156.231
11
46.3357
21
-156.326
0
LINE
8
BLACK
6
CONTINUOUS
10
48.1452
20
-155.755
11
49.3833
21
-155.755
0
LINE
8
BLACK
6
CONTINUOUS
10
49.3833
20
-155.755
11
48.7167
21
-156.517
0
LINE
8
BLACK
6
CONTINUOUS
10
48.7167
20
-156.517
11
49.0024
21
-156.517
0
LINE
8
BLACK
6
CONTINUOUS
10
49.0024
20
-156.517
11
49.1929
21
-156.612
0
LINE
8
BLACK
6
CONTINUOUS
10
49.1929
20
-156.612
11
49.2881
21
-156.707
0
LINE
8
BLACK
6
CONTINUOUS
10
49.2881
20
-156.707
11
49.3833
21
-156.898
0
LINE
8
BLACK
6
CONTINUOUS
10
49.3833
20
-156.898
11
49.3833
21
-157.374
0
LINE
8
BLACK
6
CONTINUOUS
10
49.3833
20
-157.374
11
49.2881
21
-157.564
0
LINE
8
BLACK
6
CONTINUOUS
10
49.2881
20
-157.564
11
49.1929
21
-157.66
0
LINE
8
BLACK
6
CONTINUOUS
10
49.1929
20
-157.66
11
49.0024
21
-157.755
0
LINE
8
BLACK
6
CONTINUOUS
10
49.0024
20
-157.755
11
48.431
21
-157.755
0
LINE
8
BLACK
6
CONTINUOUS
10
48.431
20
-157.755
11
48.2405
21
-157.66
0
LINE
8
BLACK
6
CONTINUOUS
10
48.2405
20
-157.66
11
48.1452
21
-157.564
0
LINE
8
BLACK
6
CONTINUOUS
10
50.05
20
-155.755
11
51.3833
21
-155.755
0
LINE
8
BLACK
6
CONTINUOUS
10
51.3833
20
-155.755
11
50.5262
21
-157.755
0
LINE
8
BLACK
6
CONTINUOUS
10
52.431
20
-156.612
11
52.2405
21
-156.517
0
LINE
8
BLACK
6
CONTINUOUS
10
52.2405
20
-156.517
11
52.1452
21
-156.421
0
LINE
8
BLACK
6
CONTINUOUS
10
52.1452
20
-156.421
11
52.05
21
-156.231
0
LINE
8
BLACK
6
CONTINUOUS
10
52.05
20
-156.231
11
52.05
21
-156.136
0
LINE
8
BLACK
6
CONTINUOUS
10
52.05
20
-156.136
11
52.1452
21
-155.945
0
LINE
8
BLACK
6
CONTINUOUS
10
52.1452
20
-155.945
11
52.2405
21
-155.85
0
LINE
8
BLACK
6
CONTINUOUS
10
52.2405
20
-155.85
11
52.431
21
-155.755
0
LINE
8
BLACK
6
CONTINUOUS
10
52.431
20
-155.755
11
52.8119
21
-155.755
0
LINE
8
BLACK
6
CONTINUOUS
10
52.8119
20
-155.755
11
53.0024
21
-155.85
0
LINE
8
BLACK
6
CONTINUOUS
10
53.0024
20
-155.85
11
53.0976
21
-155.945
0
LINE
8
BLACK
6
CONTINUOUS
10
53.0976
20
-155.945
11
53.1929
21
-156.136
0
LINE
8
BLACK
6
CONTINUOUS
10
53.1929
20
-156.136
11
53.1929
21
-156.231
0
LINE
8
BLACK
6
CONTINUOUS
10
53.1929
20
-156.231
11
53.0976
21
-156.421
0
LINE
8
BLACK
6
CONTINUOUS
10
53.0976
20
-156.421
11
53.0024
21
-156.517
0
LINE
8
BLACK
6
CONTINUOUS
10
53.0024
20
-156.517
11
52.8119
21
-156.612
0
LINE
8
BLACK
6
CONTINUOUS
10
52.8119
20
-156.612
11
52.431
21
-156.612
0
LINE
8
BLACK
6
CONTINUOUS
10
52.431
20
-156.612
11
52.2405
21
-156.707
0
LINE
8
BLACK
6
CONTINUOUS
10
52.2405
20
-156.707
11
52.1452
21
-156.802
0
LINE
8
BLACK
6
CONTINUOUS
10
52.1452
20
-156.802
11
52.05
21
-156.993
0
LINE
8
BLACK
6
CONTINUOUS
10
52.05
20
-156.993
11
52.05
21
-157.374
0
LINE
8
BLACK
6
CONTINUOUS
10
52.05
20
-157.374
11
52.1452
21
-157.564
0
LINE
8
BLACK
6
CONTINUOUS
10
52.1452
20
-157.564
11
52.2405
21
-157.66
0
LINE
8
BLACK
6
CONTINUOUS
10
52.2405
20
-157.66
11
52.431
21
-157.755
0
LINE
8
BLACK
6
CONTINUOUS
10
52.431
20
-157.755
11
52.8119
21
-157.755
0
LINE
8
BLACK
6
CONTINUOUS
10
52.8119
20
-157.755
11
53.0024
21
-157.66
0
LINE
8
BLACK
6
CONTINUOUS
10
53.0024
20
-157.66
11
53.0976
21
-157.564
0
LINE
8
BLACK
6
CONTINUOUS
10
53.0976
20
-157.564
11
53.1929
21
-157.374
0
LINE
8
BLACK
6
CONTINUOUS
10
53.1929
20
-157.374
11
53.1929
21
-156.993
0
LINE
8
BLACK
6
CONTINUOUS
10
53.1929
20
-156.993
11
53.0976
21
-156.802
0
LINE
8
BLACK
6
CONTINUOUS
10
53.0976
20
-156.802
11
53.0024
21
-156.707
0
LINE
8
BLACK
6
CONTINUOUS
10
53.0024
20
-156.707
11
52.8119
21
-156.612
0
LINE
8
BLACK
6
CONTINUOUS
10
53.9548
20
-155.755
11
53.9548
21
-156.136
0
LINE
8
BLACK
6
CONTINUOUS
10
54.7167
20
-155.755
11
54.7167
21
-156.136
0
LINE
8
BLACK
6
CONTINUOUS
10
57.669
20
-158.517
11
57.5738
21
-158.421
0
LINE
8
BLACK
6
CONTINUOUS
10
57.5738
20
-158.421
11
57.3833
21
-158.136
0
LINE
8
BLACK
6
CONTINUOUS
10
57.3833
20
-158.136
11
57.2881
21
-157.945
0
LINE
8
BLACK
6
CONTINUOUS
10
57.2881
20
-157.945
11
57.1929
21
-157.66
0
LINE
8
BLACK
6
CONTINUOUS
10
57.1929
20
-157.66
11
57.0976
21
-157.183
0
LINE
8
BLACK
6
CONTINUOUS
10
57.0976
20
-157.183
11
57.0976
21
-156.802
0
LINE
8
BLACK
6
CONTINUOUS
10
57.0976
20
-156.802
11
57.1929
21
-156.326
0
LINE
8
BLACK
6
CONTINUOUS
10
57.1929
20
-156.326
11
57.2881
21
-156.04
0
LINE
8
BLACK
6
CONTINUOUS
10
57.2881
20
-156.04
11
57.3833
21
-155.85
0
LINE
8
BLACK
6
CONTINUOUS
10
57.3833
20
-155.85
11
57.5738
21
-155.564
0
LINE
8
BLACK
6
CONTINUOUS
10
57.5738
20
-155.564
11
57.669
21
-155.469
0
LINE
8
BLACK
6
CONTINUOUS
10
59.4786
20
-157.755
11
58.3357
21
-157.755
0
LINE
8
BLACK
6
CONTINUOUS
10
58.9071
20
-157.755
11
58.9071
21
-155.755
0
LINE
8
BLACK
6
CONTINUOUS
10
58.9071
20
-155.755
11
58.7167
21
-156.04
0
LINE
8
BLACK
6
CONTINUOUS
10
58.7167
20
-156.04
11
58.5262
21
-156.231
0
LINE
8
BLACK
6
CONTINUOUS
10
58.5262
20
-156.231
11
58.3357
21
-156.326
0
LINE
8
BLACK
6
CONTINUOUS
10
61.8595
20
-157.755
11
61.8595
21
-155.755
0
LINE
8
BLACK
6
CONTINUOUS
10
62.7167
20
-157.755
11
62.7167
21
-156.707
0
LINE
8
BLACK
6
CONTINUOUS
10
62.7167
20
-156.707
11
62.6214
21
-156.517
0
LINE
8
BLACK
6
CONTINUOUS
10
62.6214
20
-156.517
11
62.431
21
-156.421
0
LINE
8
BLACK
6
CONTINUOUS
10
62.431
20
-156.421
11
62.1452
21
-156.421
0
LINE
8
BLACK
6
CONTINUOUS
10
62.1452
20
-156.421
11
61.9548
21
-156.517
0
LINE
8
BLACK
6
CONTINUOUS
10
61.9548
20
-156.517
11
61.8595
21
-156.612
0
LINE
8
BLACK
6
CONTINUOUS
10
63.9548
20
-157.755
11
63.7643
21
-157.66
0
LINE
8
BLACK
6
CONTINUOUS
10
63.7643
20
-157.66
11
63.669
21
-157.564
0
LINE
8
BLACK
6
CONTINUOUS
10
63.669
20
-157.564
11
63.5738
21
-157.374
0
LINE
8
BLACK
6
CONTINUOUS
10
63.5738
20
-157.374
11
63.5738
21
-156.802
0
LINE
8
BLACK
6
CONTINUOUS
10
63.5738
20
-156.802
11
63.669
21
-156.612
0
LINE
8
BLACK
6
CONTINUOUS
10
63.669
20
-156.612
11
63.7643
21
-156.517
0
LINE
8
BLACK
6
CONTINUOUS
10
63.7643
20
-156.517
11
63.9548
21
-156.421
0
LINE
8
BLACK
6
CONTINUOUS
10
63.9548
20
-156.421
11
64.2405
21
-156.421
0
LINE
8
BLACK
6
CONTINUOUS
10
64.2405
20
-156.421
11
64.431
21
-156.517
0
LINE
8
BLACK
6
CONTINUOUS
10
64.431
20
-156.517
11
64.5262
21
-156.612
0
LINE
8
BLACK
6
CONTINUOUS
10
64.5262
20
-156.612
11
64.6214
21
-156.802
0
LINE
8
BLACK
6
CONTINUOUS
10
64.6214
20
-156.802
11
64.6214
21
-157.374
0
LINE
8
BLACK
6
CONTINUOUS
10
64.6214
20
-157.374
11
64.5262
21
-157.564
0
LINE
8
BLACK
6
CONTINUOUS
10
64.5262
20
-157.564
11
64.431
21
-157.66
0
LINE
8
BLACK
6
CONTINUOUS
10
64.431
20
-157.66
11
64.2405
21
-157.755
0
LINE
8
BLACK
6
CONTINUOUS
10
64.2405
20
-157.755
11
63.9548
21
-157.755
0
LINE
8
BLACK
6
CONTINUOUS
10
65.7643
20
-157.755
11
65.5738
21
-157.66
0
LINE
8
BLACK
6
CONTINUOUS
10
65.5738
20
-157.66
11
65.4786
21
-157.469
0
LINE
8
BLACK
6
CONTINUOUS
10
65.4786
20
-157.469
11
65.4786
21
-155.755
0
LINE
8
BLACK
6
CONTINUOUS
10
67.2881
20
-157.66
11
67.0976
21
-157.755
0
LINE
8
BLACK
6
CONTINUOUS
10
67.0976
20
-157.755
11
66.7167
21
-157.755
0
LINE
8
BLACK
6
CONTINUOUS
10
66.7167
20
-157.755
11
66.5262
21
-157.66
0
LINE
8
BLACK
6
CONTINUOUS
10
66.5262
20
-157.66
11
66.431
21
-157.469
0
LINE
8
BLACK
6
CONTINUOUS
10
66.431
20
-157.469
11
66.431
21
-156.707
0
LINE
8
BLACK
6
CONTINUOUS
10
66.431
20
-156.707
11
66.5262
21
-156.517
0
LINE
8
BLACK
6
CONTINUOUS
10
66.5262
20
-156.517
11
66.7167
21
-156.421
0
LINE
8
BLACK
6
CONTINUOUS
10
66.7167
20
-156.421
11
67.0976
21
-156.421
0
LINE
8
BLACK
6
CONTINUOUS
10
67.0976
20
-156.421
11
67.2881
21
-156.517
0
LINE
8
BLACK
6
CONTINUOUS
10
67.2881
20
-156.517
11
67.3833
21
-156.707
0
LINE
8
BLACK
6
CONTINUOUS
10
67.3833
20
-156.707
11
67.3833
21
-156.898
0
LINE
8
BLACK
6
CONTINUOUS
10
67.3833
20
-156.898
11
66.431
21
-157.088
0
LINE
8
BLACK
6
CONTINUOUS
10
68.05
20
-158.517
11
68.1452
21
-158.421
0
LINE
8
BLACK
6
CONTINUOUS
10
68.1452
20
-158.421
11
68.3357
21
-158.136
0
LINE
8
BLACK
6
CONTINUOUS
10
68.3357
20
-158.136
11
68.431
21
-157.945
0
LINE
8
BLACK
6
CONTINUOUS
10
68.431
20
-157.945
11
68.5262
21
-157.66
0
LINE
8
BLACK
6
CONTINUOUS
10
68.5262
20
-157.66
11
68.6214
21
-157.183
0
LINE
8
BLACK
6
CONTINUOUS
10
68.6214
20
-157.183
11
68.6214
21
-156.802
0
LINE
8
BLACK
6
CONTINUOUS
10
68.6214
20
-156.802
11
68.5262
21
-156.326
0
LINE
8
BLACK
6
CONTINUOUS
10
68.5262
20
-156.326
11
68.431
21
-156.04
0
LINE
8
BLACK
6
CONTINUOUS
10
68.431
20
-156.04
11
68.3357
21
-155.85
0
LINE
8
BLACK
6
CONTINUOUS
10
68.3357
20
-155.85
11
68.1452
21
-155.564
0
LINE
8
BLACK
6
CONTINUOUS
10
68.1452
20
-155.564
11
68.05
21
-155.469
0
LINE
8
BLACK
6
CONTINUOUS
10
71.669
20
-158.517
11
71.5738
21
-158.421
0
LINE
8
BLACK
6
CONTINUOUS
10
71.5738
20
-158.421
11
71.3833
21
-158.136
0
LINE
8
BLACK
6
CONTINUOUS
10
71.3833
20
-158.136
11
71.2881
21
-157.945
0
LINE
8
BLACK
6
CONTINUOUS
10
71.2881
20
-157.945
11
71.1929
21
-157.66
0
LINE
8
BLACK
6
CONTINUOUS
10
71.1929
20
-157.66
11
71.0976
21
-157.183
0
LINE
8
BLACK
6
CONTINUOUS
10
71.0976
20
-157.183
11
71.0976
21
-156.802
0
LINE
8
BLACK
6
CONTINUOUS
10
71.0976
20
-156.802
11
71.1929
21
-156.326
0
LINE
8
BLACK
6
CONTINUOUS
10
71.1929
20
-156.326
11
71.2881
21
-156.04
0
LINE
8
BLACK
6
CONTINUOUS
10
71.2881
20
-156.04
11
71.3833
21
-155.85
0
LINE
8
BLACK
6
CONTINUOUS
10
71.3833
20
-155.85
11
71.5738
21
-155.564
0
LINE
8
BLACK
6
CONTINUOUS
10
71.5738
20
-155.564
11
71.669
21
-155.469
0
LINE
8
BLACK
6
CONTINUOUS
10
72.431
20
-156.421
11
72.431
21
-157.755
0
LINE
8
BLACK
6
CONTINUOUS
10
72.431
20
-156.612
11
72.5262
21
-156.517
0
LINE
8
BLACK
6
CONTINUOUS
10
72.5262
20
-156.517
11
72.7167
21
-156.421
0
LINE
8
BLACK
6
CONTINUOUS
10
72.7167
20
-156.421
11
73.0024
21
-156.421
0
LINE
8
BLACK
6
CONTINUOUS
10
73.0024
20
-156.421
11
73.1929
21
-156.517
0
LINE
8
BLACK
6
CONTINUOUS
10
73.1929
20
-156.517
11
73.2881
21
-156.707
0
LINE
8
BLACK
6
CONTINUOUS
10
73.2881
20
-156.707
11
73.2881
21
-157.755
0
LINE
8
BLACK
6
CONTINUOUS
10
74.5262
20
-157.755
11
74.3357
21
-157.66
0
LINE
8
BLACK
6
CONTINUOUS
10
74.3357
20
-157.66
11
74.2405
21
-157.564
0
LINE
8
BLACK
6
CONTINUOUS
10
74.2405
20
-157.564
11
74.1452
21
-157.374
0
LINE
8
BLACK
6
CONTINUOUS
10
74.1452
20
-157.374
11
74.1452
21
-156.802
0
LINE
8
BLACK
6
CONTINUOUS
10
74.1452
20
-156.802
11
74.2405
21
-156.612
0
LINE
8
BLACK
6
CONTINUOUS
10
74.2405
20
-156.612
11
74.3357
21
-156.517
0
LINE
8
BLACK
6
CONTINUOUS
10
74.3357
20
-156.517
11
74.5262
21
-156.421
0
LINE
8
BLACK
6
CONTINUOUS
10
74.5262
20
-156.421
11
74.8119
21
-156.421
0
LINE
8
BLACK
6
CONTINUOUS
10
74.8119
20
-156.421
11
75.0024
21
-156.517
0
LINE
8
BLACK
6
CONTINUOUS
10
75.0024
20
-156.517
11
75.0976
21
-156.612
0
LINE
8
BLACK
6
CONTINUOUS
10
75.0976
20
-156.612
11
75.1929
21
-156.802
0
LINE
8
BLACK
6
CONTINUOUS
10
75.1929
20
-156.802
11
75.1929
21
-157.374
0
LINE
8
BLACK
6
CONTINUOUS
10
75.1929
20
-157.374
11
75.0976
21
-157.564
0
LINE
8
BLACK
6
CONTINUOUS
10
75.0976
20
-157.564
11
75.0024
21
-157.66
0
LINE
8
BLACK
6
CONTINUOUS
10
75.0024
20
-157.66
11
74.8119
21
-157.755
0
LINE
8
BLACK
6
CONTINUOUS
10
74.8119
20
-157.755
11
74.5262
21
-157.755
0
LINE
8
BLACK
6
CONTINUOUS
10
75.7643
20
-156.421
11
76.5262
21
-156.421
0
LINE
8
BLACK
6
CONTINUOUS
10
76.05
20
-155.755
11
76.05
21
-157.469
0
LINE
8
BLACK
6
CONTINUOUS
10
76.05
20
-157.469
11
76.1452
21
-157.66
0
LINE
8
BLACK
6
CONTINUOUS
10
76.1452
20
-157.66
11
76.3357
21
-157.755
0
LINE
8
BLACK
6
CONTINUOUS
10
76.3357
20
-157.755
11
76.5262
21
-157.755
0
LINE
8
BLACK
6
CONTINUOUS
10
78.7167
20
-156.421
11
78.7167
21
-158.421
0
LINE
8
BLACK
6
CONTINUOUS
10
78.7167
20
-156.517
11
78.9071
21
-156.421
0
LINE
8
BLACK
6
CONTINUOUS
10
78.9071
20
-156.421
11
79.2881
21
-156.421
0
LINE
8
BLACK
6
CONTINUOUS
10
79.2881
20
-156.421
11
79.4786
21
-156.517
0
LINE
8
BLACK
6
CONTINUOUS
10
79.4786
20
-156.517
11
79.5738
21
-156.612
0
LINE
8
BLACK
6
CONTINUOUS
10
79.5738
20
-156.612
11
79.669
21
-156.802
0
LINE
8
BLACK
6
CONTINUOUS
10
79.669
20
-156.802
11
79.669
21
-157.374
0
LINE
8
BLACK
6
CONTINUOUS
10
79.669
20
-157.374
11
79.5738
21
-157.564
0
LINE
8
BLACK
6
CONTINUOUS
10
79.5738
20
-157.564
11
79.4786
21
-157.66
0
LINE
8
BLACK
6
CONTINUOUS
10
79.4786
20
-157.66
11
79.2881
21
-157.755
0
LINE
8
BLACK
6
CONTINUOUS
10
79.2881
20
-157.755
11
78.9071
21
-157.755
0
LINE
8
BLACK
6
CONTINUOUS
10
78.9071
20
-157.755
11
78.7167
21
-157.66
0
LINE
8
BLACK
6
CONTINUOUS
10
80.8119
20
-157.755
11
80.6214
21
-157.66
0
LINE
8
BLACK
6
CONTINUOUS
10
80.6214
20
-157.66
11
80.5262
21
-157.469
0
LINE
8
BLACK
6
CONTINUOUS
10
80.5262
20
-157.469
11
80.5262
21
-155.755
0
LINE
8
BLACK
6
CONTINUOUS
10
82.431
20
-157.755
11
82.431
21
-156.707
0
LINE
8
BLACK
6
CONTINUOUS
10
82.431
20
-156.707
11
82.3357
21
-156.517
0
LINE
8
BLACK
6
CONTINUOUS
10
82.3357
20
-156.517
11
82.1452
21
-156.421
0
LINE
8
BLACK
6
CONTINUOUS
10
82.1452
20
-156.421
11
81.7643
21
-156.421
0
LINE
8
BLACK
6
CONTINUOUS
10
81.7643
20
-156.421
11
81.5738
21
-156.517
0
LINE
8
BLACK
6
CONTINUOUS
10
82.431
20
-157.66
11
82.2405
21
-157.755
0
LINE
8
BLACK
6
CONTINUOUS
10
82.2405
20
-157.755
11
81.7643
21
-157.755
0
LINE
8
BLACK
6
CONTINUOUS
10
81.7643
20
-157.755
11
81.5738
21
-157.66
0
LINE
8
BLACK
6
CONTINUOUS
10
81.5738
20
-157.66
11
81.4786
21
-157.469
0
LINE
8
BLACK
6
CONTINUOUS
10
81.4786
20
-157.469
11
81.4786
21
-157.279
0
LINE
8
BLACK
6
CONTINUOUS
10
81.4786
20
-157.279
11
81.5738
21
-157.088
0
LINE
8
BLACK
6
CONTINUOUS
10
81.5738
20
-157.088
11
81.7643
21
-156.993
0
LINE
8
BLACK
6
CONTINUOUS
10
81.7643
20
-156.993
11
82.2405
21
-156.993
0
LINE
8
BLACK
6
CONTINUOUS
10
82.2405
20
-156.993
11
82.431
21
-156.898
0
LINE
8
BLACK
6
CONTINUOUS
10
83.0976
20
-156.421
11
83.8595
21
-156.421
0
LINE
8
BLACK
6
CONTINUOUS
10
83.3833
20
-155.755
11
83.3833
21
-157.469
0
LINE
8
BLACK
6
CONTINUOUS
10
83.3833
20
-157.469
11
83.4786
21
-157.66
0
LINE
8
BLACK
6
CONTINUOUS
10
83.4786
20
-157.66
11
83.669
21
-157.755
0
LINE
8
BLACK
6
CONTINUOUS
10
83.669
20
-157.755
11
83.8595
21
-157.755
0
LINE
8
BLACK
6
CONTINUOUS
10
85.2881
20
-157.66
11
85.0976
21
-157.755
0
LINE
8
BLACK
6
CONTINUOUS
10
85.0976
20
-157.755
11
84.7167
21
-157.755
0
LINE
8
BLACK
6
CONTINUOUS
10
84.7167
20
-157.755
11
84.5262
21
-157.66
0
LINE
8
BLACK
6
CONTINUOUS
10
84.5262
20
-157.66
11
84.431
21
-157.469
0
LINE
8
BLACK
6
CONTINUOUS
10
84.431
20
-157.469
11
84.431
21
-156.707
0
LINE
8
BLACK
6
CONTINUOUS
10
84.431
20
-156.707
11
84.5262
21
-156.517
0
LINE
8
BLACK
6
CONTINUOUS
10
84.5262
20
-156.517
11
84.7167
21
-156.421
0
LINE
8
BLACK
6
CONTINUOUS
10
84.7167
20
-156.421
11
85.0976
21
-156.421
0
LINE
8
BLACK
6
CONTINUOUS
10
85.0976
20
-156.421
11
85.2881
21
-156.517
0
LINE
8
BLACK
6
CONTINUOUS
10
85.2881
20
-156.517
11
85.3833
21
-156.707
0
LINE
8
BLACK
6
CONTINUOUS
10
85.3833
20
-156.707
11
85.3833
21
-156.898
0
LINE
8
BLACK
6
CONTINUOUS
10
85.3833
20
-156.898
11
84.431
21
-157.088
0
LINE
8
BLACK
6
CONTINUOUS
10
87.0976
20
-157.755
11
87.0976
21
-155.755
0
LINE
8
BLACK
6
CONTINUOUS
10
87.0976
20
-157.66
11
86.9071
21
-157.755
0
LINE
8
BLACK
6
CONTINUOUS
10
86.9071
20
-157.755
11
86.5262
21
-157.755
0
LINE
8
BLACK
6
CONTINUOUS
10
86.5262
20
-157.755
11
86.3357
21
-157.66
0
LINE
8
BLACK
6
CONTINUOUS
10
86.3357
20
-157.66
11
86.2405
21
-157.564
0
LINE
8
BLACK
6
CONTINUOUS
10
86.2405
20
-157.564
11
86.1452
21
-157.374
0
LINE
8
BLACK
6
CONTINUOUS
10
86.1452
20
-157.374
11
86.1452
21
-156.802
0
LINE
8
BLACK
6
CONTINUOUS
10
86.1452
20
-156.802
11
86.2405
21
-156.612
0
LINE
8
BLACK
6
CONTINUOUS
10
86.2405
20
-156.612
11
86.3357
21
-156.517
0
LINE
8
BLACK
6
CONTINUOUS
10
86.3357
20
-156.517
11
86.5262
21
-156.421
0
LINE
8
BLACK
6
CONTINUOUS
10
86.5262
20
-156.421
11
86.9071
21
-156.421
0
LINE
8
BLACK
6
CONTINUOUS
10
86.9071
20
-156.421
11
87.0976
21
-156.517
0
LINE
8
BLACK
6
CONTINUOUS
10
87.8595
20
-158.517
11
87.9548
21
-158.421
0
LINE
8
BLACK
6
CONTINUOUS
10
87.9548
20
-158.421
11
88.1452
21
-158.136
0
LINE
8
BLACK
6
CONTINUOUS
10
88.1452
20
-158.136
11
88.2405
21
-157.945
0
LINE
8
BLACK
6
CONTINUOUS
10
88.2405
20
-157.945
11
88.3357
21
-157.66
0
LINE
8
BLACK
6
CONTINUOUS
10
88.3357
20
-157.66
11
88.431
21
-157.183
0
LINE
8
BLACK
6
CONTINUOUS
10
88.431
20
-157.183
11
88.431
21
-156.802
0
LINE
8
BLACK
6
CONTINUOUS
10
88.431
20
-156.802
11
88.3357
21
-156.326
0
LINE
8
BLACK
6
CONTINUOUS
10
88.3357
20
-156.326
11
88.2405
21
-156.04
0
LINE
8
BLACK
6
CONTINUOUS
10
88.2405
20
-156.04
11
88.1452
21
-155.85
0
LINE
8
BLACK
6
CONTINUOUS
10
88.1452
20
-155.85
11
87.9548
21
-155.564
0
LINE
8
BLACK
6
CONTINUOUS
10
87.9548
20
-155.564
11
87.8595
21
-155.469
  0
ENDSEC
  0
EOF
